<?xml version="1.0" encoding="utf-8"?>
<!-- Generator: Adobe Illustrator 25.1.0, SVG Export Plug-In . SVG Version: 6.00 Build 0)  -->
<svg version="1.1" id="Слой_1" xmlns="http://www.w3.org/2000/svg" xmlns:xlink="http://www.w3.org/1999/xlink" x="0px" y="0px"
	 viewBox="0 0 484 479" style="enable-background:new 0 0 484 479;" xml:space="preserve">
<style type="text/css">
	.st0{fill:#CADDFF;}
	.st1{fill:#99B9FF;}
	.st2{fill:#FFFFFF;}
	.st3{fill:#5479F7;}
</style>
<g id="Computer_troubleshooting_1_">
	<path class="st0" d="M121.33,122.19c48.99-49.32,34.96-80.23,68.49-103.07c51.58-35.14,147.85-4.91,204.64,43.42
		c69.56,59.2,105.45,167.28,64.57,265.06c-43.54,104.13-158.1,158.19-260.32,141.9C107.42,454.95,17.69,382.99,8.7,296.67
		c-0.97-9.36-5.28-59.93,24.9-103.53C58.54,157.11,82.49,161.29,121.33,122.19z"/>
	<g>
		<g>
			<path class="st1" d="M180.25,289.82c-6.82-0.87-11.92-6.67-11.92-13.54l-0.89-187.63l3.35-7.23c0,0,6.07-4.05,9.26-5.86
				c1.92-1.09,4.19-1.6,6.58-1.29l270.69,34.52c6.82,0.87,11.92,6.67,11.92,13.54v186c-0.32,11.41-15.66,18.29-15.66,18.29
				L180.25,289.82z"/>
			<path class="st2" d="M447.59,327.76l-272.33-34.73c-6.86-0.87-12-6.71-12-13.62V92.28c0-6.43,5.64-11.4,12.02-10.59l272.33,34.73
				c6.86,0.87,12,6.71,12,13.62v187.12C459.61,323.6,453.97,328.57,447.59,327.76z"/>
			<path class="st0" d="M437.84,318.95L185.02,286.7c-6.37-0.81-11.14-6.23-11.14-12.65V100.33c0-5.97,5.24-10.58,11.16-9.83
				l252.82,32.24c6.37,0.81,11.14,6.23,11.14,12.65v173.72C449,315.09,443.76,319.7,437.84,318.95z"/>
			<g>
				<path class="st2" d="M280.58,127.96c-0.1,0-0.19-0.01-0.29-0.02l-90.4-11.53c-1.24-0.16-2.12-1.29-1.96-2.54
					c0.16-1.24,1.3-2.12,2.54-1.96l90.4,11.53c1.24,0.16,2.12,1.29,1.96,2.54C282.68,127.12,281.7,127.96,280.58,127.96z"/>
				<path class="st2" d="M280.58,144.25c-0.1,0-0.19-0.01-0.29-0.02l-37.59-4.79c-1.24-0.16-2.12-1.29-1.96-2.54
					s1.29-2.12,2.54-1.96l37.59,4.79c1.24,0.16,2.12,1.29,1.96,2.54C282.68,143.41,281.7,144.25,280.58,144.25z"/>
				<path class="st2" d="M280.58,160.54c-0.1,0-0.19-0.01-0.29-0.02L189.89,149c-1.24-0.16-2.12-1.29-1.96-2.54s1.29-2.12,2.54-1.96
					l90.4,11.53c1.24,0.16,2.12,1.29,1.96,2.54C282.68,159.71,281.7,160.54,280.58,160.54z"/>
				<path class="st2" d="M280.58,176.84c-0.1,0-0.19-0.01-0.29-0.02l-69.72-8.89c-1.24-0.16-2.12-1.29-1.96-2.54
					c0.16-1.24,1.29-2.12,2.54-1.96l69.72,8.89c1.24,0.16,2.12,1.29,1.96,2.54C282.68,176,281.7,176.84,280.58,176.84z"/>
				<path class="st2" d="M280.58,224.34c-0.1,0-0.19-0.01-0.29-0.02l-90.4-11.53c-1.24-0.16-2.12-1.29-1.96-2.54
					c0.16-1.24,1.3-2.12,2.54-1.96l90.4,11.53c1.24,0.16,2.12,1.29,1.96,2.54C282.68,223.51,281.71,224.34,280.58,224.34z"/>
				<path class="st2" d="M254.75,237.72c-0.1,0-0.19-0.01-0.29-0.02l-64.56-8.23c-1.24-0.16-2.12-1.29-1.96-2.54
					c0.16-1.24,1.3-2.12,2.54-1.96l64.56,8.23c1.24,0.16,2.12,1.29,1.96,2.54C256.85,236.89,255.87,237.72,254.75,237.72z"/>
				<path class="st2" d="M280.58,257.31c-0.1,0-0.19-0.01-0.29-0.02l-90.4-11.53c-1.24-0.16-2.12-1.29-1.96-2.54
					c0.16-1.24,1.3-2.12,2.54-1.96l90.4,11.53c1.24,0.16,2.12,1.29,1.96,2.54C282.68,256.47,281.71,257.31,280.58,257.31z"/>
				<path class="st2" d="M280.58,273.6c-0.1,0-0.19-0.01-0.29-0.02l-90.4-11.53c-1.24-0.16-2.12-1.29-1.96-2.54
					c0.16-1.24,1.3-2.12,2.54-1.96l90.4,11.53c1.24,0.16,2.12,1.29,1.96,2.54C282.68,272.77,281.71,273.6,280.58,273.6z"/>
				<path class="st2" d="M433.75,146.78c-0.08,0-0.16,0-0.24-0.01l-68.66-7.34c-1.25-0.13-2.15-1.25-2.01-2.5
					c0.13-1.25,1.26-2.14,2.5-2.01l68.66,7.34c1.25,0.13,2.15,1.25,2.01,2.5C435.87,145.92,434.89,146.78,433.75,146.78z"/>
				<path class="st2" d="M417.64,161.7c-0.08,0-0.16,0-0.25-0.01l-55.49-5.97c-1.25-0.13-2.15-1.25-2.01-2.5
					c0.13-1.25,1.25-2.15,2.5-2.01l55.49,5.97c1.25,0.13,2.15,1.25,2.01,2.5C419.76,160.84,418.78,161.7,417.64,161.7z"/>
			</g>
			<path d="M448.94,328.7c-0.49,0-0.97-0.03-1.46-0.09l-272.33-34.73c-7.26-0.93-12.74-7.15-12.74-14.47v-12.38
				c0-0.47,0.38-0.85,0.85-0.85c0.47,0,0.85,0.38,0.85,0.85v12.38c0,6.47,4.84,11.96,11.25,12.78l272.33,34.73
				c2.8,0.36,5.62-0.51,7.73-2.37c2.12-1.86,3.33-4.55,3.33-7.37V130.05c0-6.47-4.84-11.96-11.25-12.78L175.18,82.54
				c-2.8-0.36-5.62,0.51-7.73,2.37c-2.12,1.86-3.33,4.55-3.33,7.37v114.74c0,0.47-0.38,0.85-0.85,0.85c-0.47,0-0.85-0.38-0.85-0.85
				V92.28c0-3.31,1.42-6.46,3.91-8.65c2.48-2.19,5.79-3.2,9.07-2.78l272.33,34.73c7.26,0.93,12.74,7.15,12.74,14.47v187.12
				c0,3.31-1.42,6.46-3.91,8.65C454.44,327.68,451.73,328.7,448.94,328.7z"/>
		</g>
		<g>
			<g>
				<path class="st1" d="M288.85,433l-278.39-35.9c-2.18-0.28-3.41-2.1-3.38-3.93c0.02-1.26,0.12-10.12,0.12-10.12l147.2-84.15
					c7.38-4.21,16.92-5.84,25.34-4.76l274.88,35.46c1.65,0.21,3.07,1.29,3.73,2.82l0.44,1.03c0,0-0.24,7.39-0.14,9.12
					c0.07,1.35-0.53,2.74-1.95,3.55L313.2,428.17C305.82,432.38,297.28,434.07,288.85,433z"/>
				<path class="st2" d="M288.85,423.13L11.45,387.3c-3.68-0.47-4.65-5.36-1.43-7.2l142.74-81.52c7.38-4.21,15.92-5.91,24.35-4.83
					l277.4,35.83c3.68,0.47,4.65,5.36,1.43,7.2L313.2,418.31C305.82,422.52,297.28,424.21,288.85,423.13z"/>
				<path class="st0" d="M343.16,377.88l-240.54-31.3c-3.33-0.43-4.2-4.84-1.29-6.5l56.56-31.98c6.66-3.8,14.38-5.34,21.99-4.36
					l240.54,31.3c3.33,0.43,4.2,4.84,1.29,6.5l-56.56,31.98C358.49,377.33,350.77,378.86,343.16,377.88z"/>
				<path class="st0" d="M202.01,396.25l-66.95-8.65c-0.89-0.11-1.12-1.29-0.34-1.74l32.35-17.69c1.78-1.02,3.84-1.43,5.88-1.17
					l66.95,8.65c0.89,0.11,1.12,1.29,0.34,1.74l-32.35,17.69C206.1,396.1,204.04,396.51,202.01,396.25z"/>
				<path d="M293.75,424.3c-1.67,0-3.35-0.11-5.01-0.32l-153.72-19.86c-0.47-0.06-0.79-0.49-0.73-0.95
					c0.06-0.47,0.49-0.79,0.95-0.73l153.72,19.86c8.19,1.05,16.65-0.63,23.82-4.72l142.74-81.52c1.39-0.79,1.67-2.18,1.46-3.21
					c-0.2-1.03-0.99-2.2-2.58-2.41L177,294.6c-8.19-1.05-16.65,0.63-23.82,4.72l-14.74,8.42c-0.41,0.23-0.93,0.09-1.16-0.32
					c-0.23-0.41-0.09-0.93,0.32-1.16l14.74-8.42c7.49-4.28,16.32-6.03,24.88-4.93l277.4,35.83c2.05,0.26,3.63,1.74,4.03,3.76
					c0.4,2.02-0.5,3.99-2.29,5.02l-142.74,81.52C307.59,422.49,300.68,424.3,293.75,424.3z"/>
				<path d="M63.39,394.86c-0.04,0-0.07,0-0.11-0.01l-51.94-6.71c-2.05-0.26-3.63-1.74-4.03-3.76c-0.4-2.02,0.5-3.99,2.29-5.02
					l43.51-24.85c0.41-0.23,0.93-0.09,1.16,0.32c0.23,0.41,0.09,0.93-0.32,1.16l-43.51,24.85c-1.39,0.79-1.67,2.18-1.46,3.21
					c0.2,1.03,0.99,2.2,2.58,2.41l51.94,6.71c0.47,0.06,0.79,0.49,0.73,0.95C64.18,394.55,63.81,394.86,63.39,394.86z"/>
			</g>
			<g>
				<path d="M359.11,337.51c-0.03,0-0.07,0-0.1-0.01l-100.62-12.23c-0.47-0.06-0.8-0.48-0.74-0.95c0.06-0.47,0.48-0.8,0.95-0.74
					l100.62,12.23c0.47,0.06,0.8,0.48,0.74,0.95C359.9,337.19,359.54,337.51,359.11,337.51z"/>
				<path d="M315.12,347.38c-0.03,0-0.07,0-0.1-0.01l-29.21-3.55c-0.47-0.06-0.8-0.48-0.74-0.95c0.06-0.47,0.48-0.8,0.95-0.74
					l29.21,3.55c0.47,0.06,0.8,0.48,0.74,0.95C315.91,347.06,315.54,347.38,315.12,347.38z"/>
				<path class="st1" d="M210.94,349.15c-0.03,0-0.07,0-0.1-0.01l-29.21-3.55c-0.47-0.06-0.8-0.48-0.74-0.95
					c0.06-0.47,0.48-0.8,0.95-0.74l29.21,3.55c0.47,0.06,0.8,0.48,0.74,0.95C211.73,348.84,211.37,349.15,210.94,349.15z"/>
			</g>
		</g>
	</g>
	<g>
		<g>
			<g>
				<path class="st2" d="M157.15,295.94c0-0.63-34.91-6.14-37.16-12.52c-3.36-9.52-7.55-20.96-7.55-20.96l-8.72,5.51l5.61,27.39
					L157.15,295.94z"/>
				<path d="M157.15,296.79c0,0-0.01,0-0.01,0l-47.81-0.59c-0.4,0-0.74-0.29-0.82-0.68l-5.61-27.39c-0.07-0.35,0.08-0.7,0.38-0.89
					l8.72-5.5c0.22-0.14,0.49-0.17,0.73-0.09c0.24,0.08,0.44,0.27,0.52,0.51c0.04,0.11,4.23,11.56,7.55,20.97
					c1.54,4.36,23.1,8.95,31.21,10.68c6,1.28,6,1.28,5.99,2.12c0,0.23-0.09,0.44-0.25,0.6C157.59,296.7,157.38,296.79,157.15,296.79
					z M110.03,294.51l39.33,0.48c-14.12-3.05-28.55-6.68-30.17-11.29c-2.75-7.79-6.1-16.98-7.19-19.97l-7.33,4.63L110.03,294.51z"/>
			</g>
			<path class="st3" d="M57.59,233.03c8.32-2.72,21.01-4.66,36.17,0.16c5.53,1.76,9.49,6.63,10.18,12.39l12.35,71.11
				c0.61,5.17-6.3,10.2-11.17,12.04c-5.09,1.93-12.77,3.75-23.66,3.75c-11.67,0-20.15,0.68-24.88-1.4
				c-3.93-1.72-9.84-5.88-10.04-10.17l0.86-73.09C47.09,241.16,51.25,235.09,57.59,233.03z"/>
			<path class="st3" d="M115.91,263.58c0,0-9.86-27.31-20.91-29.93l5.62,38.69L115.91,263.58z"/>
			<path class="st3" d="M34.6,277.01c0,0,1.08-18.27,2.66-25.33c3.32-14.85,17.49-17.1,17.49-17.1l1.72,39.89L34.6,277.01z"/>
			<g>
				<path class="st2" d="M37.36,276.25c0,0-1.06,13.93,4.46,23.29c6.59,11.17,39.85-3.87,39.85-3.87l3.87-2.19
					c2.62-1.48,5.73-1.8,8.6-0.88l6.25,2.02c0,0-5.16-6.19-9.55-8.55c-2.06-1.11-4.72-0.06-6.98,1.37
					c-3.88,2.45-8.44,3.61-13.02,3.47l-13.23-0.39c-2.22-0.07-4.04-1.78-4.23-4l-1.01-11.53L37.36,276.25z"/>
				<path d="M51.9,304.5c-4.81,0-8.85-1.2-10.82-4.52c-5.59-9.48-4.62-23.21-4.57-23.79c0.03-0.42,0.36-0.75,0.78-0.78l15-1.27
					c0.46-0.03,0.88,0.31,0.92,0.77l1.01,11.53c0.16,1.78,1.62,3.17,3.41,3.22l13.23,0.39c4.54,0.14,8.88-1.02,12.54-3.34
					c3.18-2.01,5.82-2.48,7.84-1.4c4.48,2.42,9.58,8.5,9.8,8.76c0.24,0.29,0.26,0.71,0.05,1.02c-0.21,0.31-0.61,0.45-0.97,0.33
					l-6.25-2.02c-2.63-0.85-5.51-0.55-7.91,0.81l-3.87,2.19c-0.02,0.01-0.05,0.02-0.07,0.03C81.02,296.89,64.01,304.5,51.9,304.5z
					 M38.17,277.04c-0.12,2.94-0.24,14.25,4.38,22.07c6.04,10.24,37.51-3.66,38.73-4.2l3.83-2.17c2.82-1.59,6.2-1.94,9.28-0.95
					l3.23,1.04c-1.87-1.97-4.69-4.67-7.2-6.02c-1.79-0.96-4.32,0.19-6.12,1.34c-3.95,2.5-8.61,3.74-13.5,3.6l-13.23-0.39
					c-2.65-0.08-4.83-2.13-5.06-4.78l-0.93-10.68L38.17,277.04z"/>
			</g>
		</g>
		<g>
			<g>
				<g>
					<path class="st2" d="M88.39,429.49L81.18,451c0,0,7.85-0.67,8.6-0.52c0.75,0.15,9.94-19.62,9.94-19.62L88.39,429.49z"/>
					<path d="M81.18,451.86c-0.26,0-0.51-0.12-0.67-0.32c-0.18-0.23-0.23-0.52-0.14-0.8l7.21-21.51c0.13-0.38,0.5-0.62,0.91-0.57
						l11.33,1.37c0.27,0.03,0.51,0.19,0.64,0.43c0.13,0.24,0.14,0.53,0.03,0.77c-0.02,0.05-2.33,5-4.69,9.88
						c-5.07,10.43-5.37,10.37-6.18,10.22c-0.52-0.07-4.67,0.22-8.37,0.54C81.23,451.85,81.21,451.86,81.18,451.86z M88.98,430.42
						l-6.58,19.63c2.33-0.19,5.75-0.44,7.07-0.43c1.09-1.53,5.25-10.04,8.99-18.05L88.98,430.42z M89.89,449.64
						c0.02,0,0.04,0.01,0.06,0.01C89.93,449.64,89.91,449.64,89.89,449.64z"/>
				</g>
				<g>
					<path class="st1" d="M82.83,446.28c0,0,10.84-4.44,12.85,1.13c2.55,7.1,6.54,17.92,6.54,17.92c0.68,1.88-0.62,3.89-2.62,4.05
						c-3.96,0.32-9.87,0.58-12.63-0.39c-4.35-1.52-11.56-15.28-11.56-15.28l2.22-11.71C77.64,442.01,81.57,441.45,82.83,446.28z"/>
					<path d="M93.23,470.52c-2.58,0-4.99-0.18-6.53-0.73c-4.53-1.59-11.28-14.25-12.03-15.69c-0.09-0.17-0.12-0.36-0.08-0.55
						l2.22-11.71c0.07-0.36,0.36-0.63,0.72-0.68c1.5-0.21,4.51,0.4,5.85,4c2.05-0.72,7.23-2.27,10.52-0.8
						c1.26,0.56,2.13,1.49,2.59,2.76c2.52,7.01,6.49,17.81,6.53,17.91c0.42,1.16,0.27,2.4-0.39,3.43c-0.66,1.03-1.74,1.67-2.96,1.77
						C97.68,470.39,95.39,470.52,93.23,470.52z M76.31,453.58c2.09,3.93,7.72,13.48,10.95,14.61c1.99,0.7,6.35,0.82,12.28,0.34
						c0.69-0.06,1.29-0.42,1.67-1c0.37-0.58,0.45-1.28,0.22-1.92c-0.04-0.1-4.01-10.9-6.54-17.92c-0.3-0.83-0.85-1.41-1.68-1.78
						c-3.43-1.53-9.98,1.12-10.05,1.15c-0.23,0.09-0.48,0.08-0.7-0.03c-0.22-0.11-0.38-0.31-0.44-0.55
						c-0.79-3.01-2.69-3.57-3.66-3.65L76.31,453.58z"/>
				</g>
				<path d="M99.44,465.55H88.31c-0.47,0-0.85-0.38-0.85-0.85s0.38-0.85,0.85-0.85h11.14c0.47,0,0.85,0.38,0.85,0.85
					S99.91,465.55,99.44,465.55z"/>
			</g>
			<g>
				<polygon class="st2" points="67.95,434.78 70.4,456.42 80.25,453.71 79.5,434.22 				"/>
				<path d="M70.4,457.27c-0.17,0-0.33-0.05-0.48-0.15c-0.21-0.14-0.34-0.36-0.37-0.61l-2.45-21.64c-0.03-0.23,0.04-0.47,0.2-0.65
					c0.15-0.18,0.37-0.29,0.61-0.3l11.55-0.56c0.23-0.01,0.45,0.07,0.62,0.22c0.17,0.15,0.27,0.37,0.28,0.59l0.76,19.5
					c0.02,0.4-0.24,0.75-0.63,0.85l-9.85,2.7C70.55,457.26,70.47,457.27,70.4,457.27z M68.9,435.58l2.24,19.75l8.25-2.26l-0.7-17.96
					L68.9,435.58z"/>
			</g>
			<g>
				<path class="st1" d="M69.47,472.36h15.59c2.11,0,3.73-1.87,3.42-3.96c-0.52-3.52-2.22-9.36-7.3-17.4
					c-0.55-0.88-1.52-1.41-2.56-1.41h-4.74c-0.82,0-1.5,0.62-1.59,1.43l-0.36,3.42l-2.06-2.73c0,0-3.69,7.76-3.86,17.12
					C65.98,470.77,67.54,472.36,69.47,472.36z"/>
				<path d="M85.06,473.21H69.47c-1.17,0-2.26-0.46-3.08-1.29c-0.82-0.83-1.25-1.93-1.23-3.09c0.17-9.43,3.79-17.14,3.94-17.47
					c0.13-0.27,0.39-0.45,0.68-0.48c0.3-0.03,0.59,0.1,0.77,0.33l0.76,1.01l0.13-1.28c0.13-1.25,1.18-2.19,2.43-2.19h4.74
					c1.34,0,2.56,0.67,3.28,1.81c5.18,8.18,6.89,14.16,7.42,17.73c0.18,1.24-0.18,2.49-1,3.44
					C87.51,472.67,86.32,473.21,85.06,473.21z M70.08,453.41c-1.02,2.57-3.09,8.61-3.22,15.45c-0.01,0.7,0.25,1.37,0.75,1.87
					c0.49,0.5,1.16,0.78,1.86,0.78h15.59c0.76,0,1.48-0.33,1.98-0.9c0.49-0.57,0.71-1.33,0.6-2.08c-0.5-3.41-2.16-9.14-7.18-17.07
					c-0.4-0.63-1.1-1.01-1.84-1.01h-4.74c-0.38,0-0.7,0.29-0.74,0.67l-0.36,3.42c-0.04,0.35-0.28,0.64-0.62,0.73
					c-0.33,0.09-0.7-0.03-0.91-0.31L70.08,453.41z"/>
			</g>
			<path d="M86.98,469.48H68.31c-0.47,0-0.85-0.38-0.85-0.85c0-0.47,0.38-0.85,0.85-0.85h18.67c0.47,0,0.85,0.38,0.85,0.85
				C87.83,469.1,87.44,469.48,86.98,469.48z"/>
			<path d="M104.96,304.83c-0.41-1-1.23-1.76-2.26-2.08c-5.7-1.79-25.58-6.5-46.04,6.62c-0.97,0.62-1.58,1.66-1.66,2.8
				c-0.74,10.4-3.5,64.76,13.7,129.12l11.58-0.82l2.36-110.05c0,0,17.16,40.34,3.21,104.55l12.05,2.22c0,0,17.63-23.18,20.79-58.61
				C121.47,347.24,108.09,312.44,104.96,304.83z"/>
			<path class="st2" d="M71.64,390.53c-0.01,0-0.02,0-0.04,0c-11.05-0.48-12.3-15.42-12.31-15.57c-0.03-0.47,0.32-0.88,0.78-0.91
				c0.47-0.04,0.88,0.32,0.91,0.78c0.01,0.14,1.14,13.59,10.68,14c0.47,0.02,0.83,0.42,0.81,0.89
				C72.47,390.18,72.09,390.53,71.64,390.53z"/>
			<path class="st2" d="M83.64,341.35c-0.46,0-0.84-0.36-0.85-0.83l-0.41-13.77c-0.01-0.29,0.13-0.56,0.36-0.72l7.22-5.08
				c0.38-0.27,0.91-0.18,1.18,0.21c0.27,0.38,0.18,0.91-0.21,1.18l-6.85,4.81l0.39,13.31c0.01,0.47-0.36,0.86-0.82,0.88
				C83.66,341.35,83.65,341.35,83.64,341.35z"/>
		</g>
		<g>
			<path d="M78.2,206.92c4.41-3.79,5.41-4.3,6.69-6.48c1.05-1.77,3.38-5.72,1.8-9.9c-1.37-3.61-5.14-5.8-8.61-5.98
				c-3.12-0.17-5.39,1.31-6.59,2.08c-0.53,0.34-5.16,3.43-6.08,8.49c-0.25,1.37-0.06,2-0.69,2.86c-1.41,1.93-3.96,0.95-5.72,2.55
				c-2.22,2.02-1.19,6.31-1.1,6.65c1.16,4.58,6.11,7.62,10.14,7.2C70.37,214.14,70.12,213.86,78.2,206.92z"/>
			<g>
				<path class="st2" d="M66.06,229.58c2.13-1.41,3.37-3.82,3.31-6.38l-0.24-10.59c-0.07-0.07-0.14-0.13-0.21-0.2
					c0,0-4.24,0.28-4.86-1.88c-0.62-2.16,2.38-2.58,2.38-2.58s-2.83-5.96,4.5-5.89c1.97,0.02,2.67-3.24,5.9-3.98
					c0,0,1.6-0.14,3.22,4.05l3.55,5.25l-1.77,0.97c0.44,2,0.62,4.2,0.36,6.53c-0.08,0.67-0.54,1.24-1.18,1.44
					c-0.53,0.17-1.25,0.36-2.1,0.45l0.57,7.09c0.25,3.1,1.88,5.93,4.43,7.72c2.46,1.73,4.73,2.95,4.73,2.95s-13.07,1.79-28.1-1.64
					C60.54,232.91,63.44,231.32,66.06,229.58z"/>
				<path d="M79.92,235.85c-5.19,0-12.17-0.43-19.57-2.12c-0.34-0.08-0.6-0.36-0.65-0.71c-0.05-0.35,0.12-0.69,0.43-0.86
					c0.03-0.02,2.9-1.59,5.46-3.29c1.89-1.25,2.98-3.36,2.93-5.65l-0.23-9.95c-1.41-0.01-4.43-0.3-5.06-2.51
					c-0.22-0.77-0.13-1.49,0.27-2.1c0.45-0.69,1.2-1.08,1.82-1.3c-0.29-1.03-0.54-2.7,0.34-4.08c0.9-1.4,2.65-2.1,5.28-2.08
					c0.5,0,0.98-0.47,1.68-1.26c0.91-1,2.04-2.25,4.02-2.7c0.04-0.01,0.08-0.01,0.12-0.02c0.38-0.03,2.3,0.04,4.05,4.5l3.49,5.17
					c0.13,0.2,0.18,0.44,0.12,0.68c-0.06,0.23-0.21,0.43-0.42,0.55l-1.22,0.67c0.39,2.09,0.48,4.16,0.24,6.18
					c-0.12,1-0.81,1.85-1.77,2.16c-0.47,0.15-0.96,0.27-1.45,0.37l0.51,6.3c0.23,2.85,1.71,5.44,4.07,7.09
					c2.39,1.68,4.63,2.88,4.65,2.89c0.33,0.17,0.5,0.54,0.44,0.9c-0.07,0.36-0.36,0.64-0.72,0.69
					C88.69,235.4,85.25,235.85,79.92,235.85z M62.9,232.54c9.95,1.97,18.82,1.71,23.03,1.41c-0.75-0.46-1.62-1.02-2.51-1.65
					c-2.77-1.94-4.52-4.99-4.79-8.35l-0.57-7.09c-0.04-0.46,0.29-0.86,0.75-0.91c0.66-0.08,1.31-0.22,1.93-0.42
					c0.33-0.11,0.56-0.39,0.6-0.73c0.23-2.03,0.12-4.14-0.34-6.25c-0.08-0.37,0.09-0.75,0.42-0.93l0.95-0.52l-3.02-4.48
					c-0.04-0.05-0.07-0.11-0.09-0.17c-1.12-2.91-2.13-3.41-2.38-3.5c-1.37,0.36-2.2,1.27-3,2.15c-0.81,0.89-1.65,1.81-2.93,1.81
					c-0.05,0-0.09,0-0.14,0c-1.35,0-3.04,0.23-3.72,1.29c-0.84,1.31,0.1,3.37,0.11,3.39c0.12,0.24,0.11,0.53-0.02,0.77
					c-0.13,0.24-0.36,0.4-0.63,0.44c-0.32,0.05-1.3,0.29-1.63,0.8c-0.08,0.12-0.16,0.32-0.06,0.7c0.32,1.13,2.83,1.34,3.99,1.26
					c0.24-0.02,0.47,0.07,0.64,0.23l0.21,0.2c0.17,0.16,0.27,0.37,0.27,0.6l0.24,10.59c0.07,2.87-1.32,5.53-3.69,7.1
					C65.27,231.12,63.95,231.93,62.9,232.54z M76.83,198.94L76.83,198.94L76.83,198.94z"/>
			</g>
			<g>
				<path class="st2" d="M78.91,216.79c0,0-4.65,0.16-6.5-2.37L78.91,216.79z"/>
				<path d="M78.72,217.64c-1,0-5.13-0.16-7-2.72c-0.28-0.38-0.19-0.91,0.19-1.19c0.38-0.28,0.91-0.19,1.19,0.19
					c1.55,2.13,5.74,2.02,5.78,2.02c0.45-0.01,0.86,0.35,0.88,0.82c0.02,0.47-0.35,0.86-0.82,0.88
					C78.91,217.64,78.84,217.64,78.72,217.64z"/>
			</g>
		</g>
		<g>
			<g>
				<path d="M164.9,293.18h-44.5l32.99-50.74c1.03-1.59,2.83-2.55,4.76-2.55h36.12c2.29,0,3.69,2.46,2.46,4.34L164.9,293.18z"/>
				<path class="st0" d="M174.39,257.68c-1.45,2.22-4.56,4.03-6.95,4.03s-3.16-1.8-1.71-4.03c1.45-2.22,4.56-4.03,6.95-4.03
					S175.84,255.46,174.39,257.68z"/>
				<path d="M160.46,297.42H86.37c-2.54,0-4.6-2.06-4.6-4.6h83.29C165.06,295.36,163,297.42,160.46,297.42z"/>
				<path class="st2" d="M162.59,294.08h-38.22c-0.47,0-0.85-0.38-0.85-0.85c0-0.47,0.38-0.85,0.85-0.85h38.22
					c0.47,0,0.85,0.38,0.85,0.85C163.44,293.7,163.06,294.08,162.59,294.08z"/>
			</g>
		</g>
	</g>
	<g>
		<g>
			<g>
				<path class="st2" d="M167.38,209.9c0.97-1.3,1.82-2.67,2.53-4.09l7.68,0.62l1.93-6.64l-6.76-3.81c0.16-1.6,0.19-3.22,0.08-4.84
					l6.88-3.25l-1.72-6.79l-7.69-0.01c-0.67-1.48-1.47-2.91-2.4-4.29l4.22-6.25l-4.91-5.12l-6.58,3.79
					c-1.35-0.99-2.75-1.86-4.21-2.61l0.43-7.57l-6.78-2.08l-3.69,6.58c-1.63-0.2-3.27-0.27-4.91-0.2l-3.47-6.87l-6.84,1.52
					l0.18,7.59c-1.48,0.62-2.91,1.38-4.29,2.25l-6.44-4.33l-5.07,4.71l4.01,6.59c-0.97,1.3-1.82,2.67-2.53,4.09l-7.68-0.62
					l-1.93,6.64l6.76,3.81c-0.16,1.6-0.19,3.22-0.08,4.84l-6.88,3.25l1.72,6.79l7.69,0.01c0.67,1.48,1.47,2.91,2.39,4.29l-4.22,6.25
					l4.91,5.12l6.58-3.79c1.35,0.99,2.75,1.86,4.21,2.61l-0.43,7.57l6.78,2.08l3.69-6.58c1.63,0.2,3.27,0.27,4.91,0.2l3.47,6.87
					l6.84-1.52l-0.18-7.59c1.48-0.62,2.91-1.38,4.29-2.25l6.44,4.33l5.07-4.71L167.38,209.9z M156.1,205.53
					c-7.2,6.7-18.69,6.23-25.67-1.06c-6.97-7.28-6.79-18.62,0.41-25.32c7.2-6.7,18.69-6.23,25.67,1.06
					C163.49,187.5,163.31,198.83,156.1,205.53z"/>
				<path d="M148.93,229.1c-0.32,0-0.61-0.18-0.76-0.47l-3.23-6.39c-1.31,0.03-2.62-0.02-3.93-0.16l-3.41,6.09
					c-0.2,0.35-0.61,0.51-0.99,0.4l-6.78-2.08c-0.37-0.11-0.62-0.47-0.6-0.86l0.4-7.02c-1.16-0.62-2.29-1.32-3.38-2.09l-6.1,3.51
					c-0.34,0.2-0.77,0.13-1.04-0.15l-4.91-5.12c-0.28-0.29-0.31-0.73-0.09-1.06l3.9-5.78c-0.72-1.12-1.36-2.27-1.92-3.44l-7.15-0.01
					c-0.39,0-0.73-0.27-0.82-0.64l-1.72-6.79c-0.1-0.39,0.09-0.8,0.46-0.98l6.36-3.01c-0.06-1.28-0.04-2.57,0.06-3.85l-6.28-3.54
					c-0.34-0.19-0.51-0.6-0.4-0.98l1.93-6.64c0.11-0.39,0.48-0.64,0.89-0.61l7.12,0.57c0.59-1.11,1.26-2.2,2.01-3.24l-3.71-6.11
					c-0.21-0.34-0.15-0.79,0.15-1.06l5.07-4.71c0.29-0.27,0.73-0.3,1.05-0.08l5.99,4.02c1.11-0.68,2.25-1.28,3.41-1.79l-0.17-7.02
					c-0.01-0.41,0.27-0.76,0.67-0.85l6.84-1.52c0.38-0.08,0.77,0.1,0.94,0.45l3.23,6.39c1.31-0.03,2.62,0.02,3.93,0.16l3.41-6.09
					c0.2-0.35,0.61-0.51,0.99-0.4l6.78,2.08c0.37,0.11,0.62,0.47,0.6,0.86l-0.4,7.02c1.16,0.62,2.29,1.32,3.38,2.09l6.1-3.51
					c0.34-0.2,0.77-0.13,1.04,0.15l4.91,5.12c0.28,0.29,0.32,0.73,0.09,1.06l-3.9,5.78c0.72,1.12,1.36,2.27,1.92,3.44l7.15,0.01
					c0.39,0,0.73,0.27,0.82,0.64l1.72,6.79c0.1,0.39-0.09,0.8-0.46,0.98l-6.36,3.01c0.06,1.28,0.04,2.57-0.06,3.85l6.28,3.54
					c0.34,0.19,0.51,0.6,0.4,0.98l-1.93,6.64c-0.11,0.39-0.48,0.65-0.89,0.61l-7.12-0.57c-0.59,1.11-1.26,2.19-2.01,3.24l3.71,6.11
					c0.21,0.34,0.15,0.79-0.15,1.06l-5.07,4.71c-0.29,0.27-0.73,0.3-1.05,0.08l-5.99-4.02c-1.1,0.68-2.25,1.28-3.41,1.79l0.17,7.02
					c0.01,0.41-0.27,0.76-0.67,0.85l-6.84,1.52C149.05,229.09,148.99,229.1,148.93,229.1z M145.46,220.52
					c0.32,0,0.61,0.18,0.76,0.47l3.17,6.28l5.51-1.22l-0.17-6.89c-0.01-0.35,0.2-0.67,0.52-0.8c1.42-0.6,2.82-1.33,4.16-2.19
					c0.29-0.18,0.65-0.18,0.93,0.01l5.88,3.95l4.06-3.78l-3.65-6c-0.18-0.3-0.16-0.67,0.04-0.95c0.94-1.27,1.77-2.6,2.45-3.97
					c0.16-0.31,0.48-0.5,0.83-0.47l6.99,0.56l1.55-5.33l-6.17-3.48c-0.29-0.17-0.46-0.49-0.43-0.83c0.16-1.55,0.18-3.13,0.08-4.7
					c-0.02-0.35,0.17-0.68,0.48-0.83l6.25-2.95l-1.38-5.47l-7.03-0.01c-0.33,0-0.64-0.2-0.77-0.5c-0.64-1.42-1.43-2.83-2.33-4.17
					c-0.19-0.29-0.19-0.66,0-0.95l3.83-5.68l-3.97-4.15l-6,3.46c-0.29,0.17-0.66,0.15-0.93-0.05c-1.31-0.96-2.69-1.82-4.09-2.53
					c-0.3-0.15-0.48-0.47-0.46-0.81l0.39-6.9l-5.49-1.68l-3.36,5.98c-0.17,0.3-0.5,0.47-0.85,0.43c-1.58-0.2-3.19-0.26-4.77-0.2
					c-0.33,0.02-0.64-0.17-0.79-0.47l-3.17-6.28l-5.51,1.22l0.17,6.89c0.01,0.35-0.2,0.67-0.52,0.8c-1.42,0.6-2.82,1.33-4.16,2.19
					c-0.28,0.18-0.65,0.18-0.93-0.01l-5.88-3.95l-4.06,3.78l3.65,6c0.18,0.3,0.16,0.67-0.04,0.95c-0.94,1.26-1.77,2.6-2.45,3.97
					c-0.16,0.31-0.48,0.5-0.83,0.47l-6.99-0.56l-1.55,5.33l6.17,3.48c0.29,0.17,0.46,0.49,0.43,0.83c-0.16,1.55-0.18,3.13-0.08,4.7
					c0.02,0.35-0.17,0.68-0.48,0.83l-6.25,2.95l1.38,5.47l7.03,0.01c0.33,0,0.64,0.2,0.77,0.5c0.64,1.43,1.43,2.83,2.33,4.17
					c0.19,0.29,0.19,0.66,0,0.95l-3.83,5.68l3.97,4.15l6-3.46c0.29-0.17,0.66-0.15,0.93,0.05c1.31,0.96,2.68,1.82,4.09,2.53
					c0.3,0.15,0.48,0.47,0.46,0.81l-0.39,6.9l5.49,1.68l3.36-5.98c0.17-0.3,0.5-0.47,0.85-0.43c1.58,0.19,3.19,0.26,4.77,0.2
					C145.43,220.52,145.45,220.52,145.46,220.52z M143.95,211.1c-5.13,0-10.29-2.03-14.13-6.04c-3.59-3.75-5.49-8.62-5.34-13.72
					c0.14-4.92,2.2-9.47,5.79-12.81c7.53-7,19.58-6.51,26.86,1.09c3.59,3.75,5.49,8.62,5.34,13.72c-0.14,4.92-2.2,9.47-5.79,12.81
					C153.12,209.47,148.55,211.1,143.95,211.1z M143,175.28c-4.18,0-8.34,1.49-11.58,4.5c-3.25,3.03-5.12,7.15-5.25,11.62
					c-0.13,4.64,1.6,9.07,4.87,12.49c6.64,6.94,17.62,7.4,24.48,1.02c3.25-3.03,5.12-7.15,5.25-11.62c0.13-4.64-1.6-9.07-4.87-12.49
					C152.4,177.14,147.68,175.28,143,175.28z M156.1,205.53L156.1,205.53L156.1,205.53z"/>
			</g>
		</g>
		<g>
			<g>
				<path class="st2" d="M342.03,89.33c0.5-1.82,0.85-3.66,1.03-5.5l8.59-2.55l-0.69-8.02l-8.94-1.3c-0.5-1.81-1.15-3.58-1.95-5.28
					l6.1-6.42l-4.71-6.65l-8.35,3.21c-1.34-1.32-2.82-2.54-4.4-3.65l1.95-8.55l-7.47-3.5l-5.54,6.87c-1.88-0.51-3.77-0.87-5.66-1.06
					l-2.71-8.39l-8.23,0.59l-1.24,8.69c-1.85,0.47-3.66,1.08-5.41,1.84l-6.65-6l-6.78,4.52l3.39,8.16c-1.34,1.3-2.58,2.72-3.71,4.25
					l-8.81-1.99l-3.52,7.24l7.12,5.47c-0.5,1.82-0.85,3.66-1.03,5.5l-8.59,2.55l0.69,8.02l8.94,1.3c0.5,1.81,1.15,3.58,1.95,5.28
					l-6.1,6.42l4.71,6.65l8.35-3.21c1.34,1.32,2.82,2.54,4.4,3.65l-1.95,8.55l7.47,3.5l5.54-6.87c1.88,0.51,3.77,0.87,5.66,1.06
					l2.71,8.39l8.23-0.59l1.24-8.69c1.85-0.47,3.66-1.08,5.41-1.84l6.65,6l6.78-4.52l-3.39-8.16c1.34-1.3,2.58-2.72,3.71-4.25
					l8.81,1.99l3.52-7.24L342.03,89.33z M327.97,89.33c-5,10.29-17.67,14.6-28.29,9.63s-15.19-17.35-10.18-27.64
					c5-10.29,17.67-14.6,28.29-9.63C328.41,66.66,332.97,79.03,327.97,89.33z"/>
			</g>
			<path d="M304.36,124.25c-0.37,0-0.69-0.24-0.81-0.59l-2.54-7.87c-1.57-0.19-3.14-0.48-4.71-0.88l-5.2,6.44
				c-0.25,0.3-0.67,0.4-1.02,0.24l-7.47-3.5c-0.36-0.17-0.56-0.57-0.47-0.96l1.83-8c-1.3-0.94-2.52-1.95-3.65-3.03l-7.84,3.02
				c-0.36,0.14-0.77,0.02-1-0.3l-4.71-6.65c-0.24-0.33-0.2-0.78,0.08-1.08l5.7-6c-0.63-1.41-1.17-2.87-1.6-4.35l-8.39-1.22
				c-0.39-0.06-0.69-0.38-0.72-0.77l-0.69-8.02c-0.03-0.4,0.22-0.77,0.61-0.89l8.05-2.39c0.17-1.51,0.46-3.02,0.85-4.52l-6.67-5.12
				c-0.32-0.25-0.42-0.68-0.25-1.05l3.52-7.24c0.17-0.36,0.57-0.55,0.95-0.46l8.27,1.87c0.94-1.24,1.97-2.42,3.05-3.5l-3.17-7.63
				c-0.16-0.38-0.02-0.81,0.31-1.03l6.78-4.52c0.32-0.22,0.75-0.19,1.04,0.08l6.25,5.64c1.45-0.6,2.96-1.12,4.48-1.53l1.16-8.13
				c0.06-0.4,0.38-0.7,0.78-0.73l8.23-0.59c0.38-0.03,0.75,0.21,0.87,0.59l2.54,7.87c1.57,0.19,3.14,0.48,4.71,0.88l5.2-6.44
				c0.25-0.3,0.67-0.4,1.02-0.24l7.47,3.5c0.36,0.17,0.56,0.57,0.47,0.96l-1.83,8c1.3,0.94,2.52,1.95,3.65,3.03l7.84-3.02
				c0.36-0.14,0.78-0.02,1,0.3l4.71,6.65c0.24,0.33,0.2,0.78-0.08,1.08l-5.7,6c0.63,1.41,1.17,2.87,1.6,4.35l8.39,1.22
				c0.39,0.06,0.69,0.38,0.72,0.77l0.69,8.02c0.03,0.4-0.22,0.77-0.61,0.89l-8.05,2.39c-0.17,1.5-0.46,3.02-0.85,4.52l6.67,5.12
				c0.32,0.25,0.42,0.68,0.25,1.05l-3.52,7.24c-0.17,0.36-0.57,0.55-0.95,0.46l-8.27-1.87c-0.94,1.24-1.97,2.42-3.05,3.5l3.17,7.63
				c0.16,0.38,0.02,0.81-0.31,1.03l-6.78,4.52c-0.32,0.22-0.75,0.18-1.04-0.08l-6.25-5.64c-1.45,0.6-2.96,1.12-4.48,1.53l-1.16,8.13
				c-0.06,0.4-0.38,0.7-0.78,0.73l-8.23,0.59C304.4,124.25,304.38,124.25,304.36,124.25z M295.99,113.1c0.07,0,0.15,0.01,0.22,0.03
				c1.83,0.5,3.69,0.85,5.53,1.03c0.34,0.03,0.62,0.26,0.72,0.58l2.51,7.76l6.88-0.49l1.15-8.01c0.05-0.34,0.3-0.62,0.63-0.7
				c1.8-0.45,3.58-1.06,5.28-1.8c0.31-0.13,0.66-0.07,0.91,0.15l6.16,5.56l5.65-3.77l-3.12-7.52c-0.13-0.32-0.06-0.7,0.2-0.94
				c1.3-1.25,2.52-2.65,3.61-4.14c0.2-0.27,0.54-0.4,0.87-0.33l8.15,1.84l2.92-6.01l-6.57-5.05c-0.27-0.21-0.39-0.57-0.3-0.9
				c0.49-1.78,0.83-3.58,1-5.36c0.03-0.34,0.27-0.63,0.6-0.73l7.93-2.36l-0.57-6.66l-8.27-1.2c-0.33-0.05-0.61-0.29-0.7-0.62
				c-0.49-1.76-1.12-3.49-1.9-5.15c-0.15-0.32-0.09-0.69,0.15-0.95l5.61-5.91l-3.93-5.54l-7.73,2.98c-0.31,0.12-0.66,0.05-0.9-0.19
				c-1.3-1.28-2.75-2.48-4.29-3.56c-0.28-0.2-0.42-0.55-0.34-0.89l1.8-7.89l-6.25-2.93l-5.12,6.35c-0.21,0.26-0.56,0.38-0.89,0.29
				c-1.83-0.5-3.69-0.85-5.53-1.03c-0.34-0.03-0.62-0.26-0.72-0.58l-2.51-7.76l-6.88,0.49l-1.14,8.01c-0.05,0.34-0.3,0.62-0.63,0.7
				c-1.8,0.45-3.58,1.06-5.28,1.8c-0.31,0.13-0.66,0.08-0.91-0.15l-6.16-5.56l-5.65,3.77l3.12,7.52c0.13,0.32,0.06,0.7-0.2,0.94
				c-1.3,1.25-2.52,2.65-3.61,4.14c-0.2,0.27-0.54,0.4-0.87,0.33l-8.15-1.84l-2.92,6.01l6.57,5.05c0.27,0.21,0.39,0.57,0.3,0.9
				c-0.49,1.77-0.83,3.58-1,5.36c-0.03,0.34-0.27,0.63-0.6,0.73l-7.93,2.36l0.57,6.66l8.27,1.2c0.33,0.05,0.61,0.29,0.7,0.62
				c0.48,1.76,1.12,3.49,1.9,5.15c0.15,0.32,0.09,0.69-0.15,0.95l-5.61,5.91l3.93,5.54l7.73-2.98c0.31-0.12,0.66-0.05,0.9,0.19
				c1.3,1.28,2.75,2.48,4.29,3.56c0.28,0.2,0.42,0.55,0.34,0.89l-1.8,7.89l6.25,2.93l5.12-6.35
				C295.49,113.21,295.74,113.1,295.99,113.1z M305.09,103.17c-3.22,0-6.49-0.69-9.6-2.14c-5.44-2.55-9.52-7.01-11.48-12.56
				c-1.9-5.37-1.58-11.13,0.89-16.23c5.2-10.69,18.39-15.19,29.42-10.03c5.44,2.55,9.52,7.01,11.48,12.56
				c1.9,5.37,1.58,11.13-0.89,16.23C321.18,98.68,313.31,103.17,305.09,103.17z M304.72,61.77c-7.59,0-14.85,4.13-18.29,11.21
				c-2.28,4.68-2.57,9.98-0.82,14.92c1.81,5.12,5.58,9.24,10.6,11.59c10.19,4.77,22.38,0.63,27.17-9.23
				c2.28-4.68,2.57-9.98,0.82-14.92c-1.81-5.12-5.58-9.24-10.6-11.59C310.73,62.41,307.7,61.77,304.72,61.77z"/>
		</g>
		<g>
			<g>
				<path class="st3" d="M252.17,81.96l-1.71-12.3l-13.52-1.14c-0.91-2.78-2.03-5.45-3.35-7.98l8.6-10.47l-7.63-9.8l-12.28,5.78
					c-2.15-1.93-4.46-3.67-6.89-5.21l2.21-13.39l-11.51-4.67l-7.73,11.13c-2.8-0.59-5.67-0.94-8.59-1.05l-4.78-12.7l-12.3,1.71
					l-1.14,13.52c-2.78,0.91-5.44,2.03-7.98,3.35l-10.47-8.6l-9.8,7.63l5.78,12.28c-1.93,2.15-3.67,4.46-5.21,6.89l-13.39-2.21
					l-4.67,11.51l11.13,7.73c-0.59,2.8-0.94,5.67-1.05,8.59l-12.7,4.78l1.71,12.3l13.52,1.14c0.91,2.78,2.03,5.45,3.35,7.98
					l-8.6,10.47l7.63,9.8l12.28-5.78c2.15,1.93,4.46,3.67,6.89,5.21l-2.21,13.39l11.51,4.67L177,135.4c2.8,0.59,5.67,0.94,8.59,1.05
					l4.78,12.7l12.3-1.71l1.14-13.52c2.78-0.91,5.45-2.03,7.98-3.35l10.47,8.6l9.8-7.63l-5.78-12.28c1.93-2.15,3.67-4.46,5.21-6.89
					l13.39,2.21l4.67-11.51l-11.13-7.73c0.59-2.8,0.94-5.67,1.05-8.59L252.17,81.96z M192.08,116.32
					c-17.49,2.43-33.64-9.78-36.07-27.27c-2.43-17.49,9.78-33.64,27.27-36.07c17.49-2.43,33.64,9.78,36.07,27.27
					C221.78,97.74,209.57,113.89,192.08,116.32z"/>
			</g>
			<path d="M185.5,146.31c-0.35,0-0.67-0.22-0.8-0.55l-4.58-12.17c-2.58-0.13-5.14-0.44-7.61-0.93l-7.41,10.67
				c-0.23,0.33-0.65,0.45-1.02,0.3l-11.51-4.67c-0.37-0.15-0.58-0.53-0.52-0.93l2.12-12.83c-2.14-1.39-4.19-2.94-6.11-4.62
				l-11.77,5.54c-0.36,0.17-0.79,0.07-1.03-0.25l-7.63-9.8c-0.24-0.31-0.24-0.75,0.01-1.06l8.24-10.04
				c-1.15-2.25-2.15-4.62-2.97-7.07l-12.96-1.09c-0.4-0.03-0.72-0.34-0.77-0.73l-1.71-12.3c-0.05-0.39,0.17-0.77,0.54-0.91
				l12.17-4.58c0.13-2.58,0.44-5.14,0.93-7.61l-10.67-7.41c-0.33-0.23-0.45-0.65-0.3-1.02l4.67-11.51c0.15-0.37,0.53-0.58,0.93-0.52
				l12.83,2.12c1.39-2.14,2.94-4.19,4.62-6.11l-5.54-11.77c-0.17-0.36-0.07-0.79,0.25-1.03l9.8-7.63c0.31-0.24,0.75-0.24,1.06,0.01
				l10.04,8.24c2.25-1.15,4.62-2.15,7.07-2.97l1.09-12.96c0.03-0.4,0.34-0.72,0.73-0.77l12.3-1.71c0.4-0.06,0.77,0.17,0.91,0.54
				l4.58,12.17c2.58,0.13,5.13,0.44,7.61,0.93l7.41-10.66c0.23-0.33,0.65-0.45,1.02-0.3l11.51,4.67c0.37,0.15,0.58,0.53,0.52,0.93
				l-2.12,12.83c2.14,1.39,4.19,2.94,6.11,4.62l11.77-5.54c0.36-0.17,0.79-0.07,1.03,0.25l7.63,9.8c0.24,0.31,0.24,0.75-0.01,1.06
				l-8.24,10.04c1.15,2.25,2.15,4.62,2.97,7.07l12.96,1.09c0.4,0.03,0.72,0.34,0.77,0.73l1.71,12.3c0.05,0.39-0.17,0.77-0.54,0.91
				l-12.17,4.58c-0.13,2.58-0.44,5.14-0.93,7.61l10.67,7.41c0.33,0.23,0.45,0.65,0.3,1.02l-4.67,11.51
				c-0.15,0.37-0.54,0.58-0.93,0.52l-12.84-2.12c-1.39,2.14-2.94,4.19-4.62,6.11l5.54,11.77c0.17,0.36,0.07,0.79-0.25,1.03
				l-9.8,7.63c-0.31,0.24-0.76,0.24-1.06-0.01l-10.04-8.24c-2.25,1.15-4.62,2.14-7.07,2.97l-1.09,12.96
				c-0.03,0.4-0.34,0.72-0.73,0.77l-12.3,1.71C185.57,146.31,185.53,146.31,185.5,146.31z M172.13,130.86
				c0.06,0,0.12,0.01,0.17,0.02c2.73,0.58,5.57,0.92,8.45,1.04c0.34,0.01,0.64,0.23,0.76,0.55l4.54,12.06l10.96-1.52l1.08-12.84
				c0.03-0.34,0.26-0.63,0.58-0.74c2.73-0.89,5.37-2,7.85-3.3c0.3-0.16,0.67-0.12,0.94,0.1l9.95,8.16l8.73-6.8l-5.49-11.66
				c-0.15-0.31-0.09-0.68,0.14-0.93c1.89-2.11,3.61-4.39,5.13-6.78c0.18-0.29,0.52-0.44,0.86-0.38l12.72,2.1l4.16-10.25l-10.57-7.35
				c-0.28-0.19-0.42-0.54-0.35-0.87c0.57-2.73,0.92-5.57,1.04-8.45c0.01-0.34,0.23-0.64,0.55-0.76l12.06-4.54l-1.52-10.95L232,65.69
				c-0.34-0.03-0.63-0.26-0.74-0.58c-0.89-2.73-2-5.37-3.3-7.85c-0.16-0.3-0.12-0.67,0.1-0.93l8.16-9.95l-6.8-8.73l-11.66,5.49
				c-0.31,0.14-0.67,0.09-0.93-0.14c-2.11-1.89-4.39-3.61-6.78-5.13c-0.29-0.18-0.44-0.52-0.38-0.86l2.1-12.72l-10.25-4.16
				l-7.35,10.57c-0.2,0.28-0.54,0.42-0.87,0.35c-2.74-0.58-5.58-0.92-8.45-1.04c-0.34-0.01-0.64-0.23-0.76-0.55l-4.54-12.06
				l-10.96,1.52l-1.08,12.84c-0.03,0.34-0.26,0.63-0.58,0.74c-2.73,0.89-5.37,2-7.84,3.3c-0.3,0.16-0.67,0.12-0.94-0.1l-9.95-8.16
				l-8.73,6.8l5.49,11.66c0.15,0.31,0.09,0.67-0.14,0.93c-1.89,2.11-3.61,4.39-5.13,6.78c-0.18,0.29-0.52,0.44-0.86,0.38L126.14,52
				l-4.16,10.25l10.57,7.34c0.28,0.2,0.42,0.54,0.35,0.87c-0.58,2.73-0.92,5.57-1.04,8.45c-0.01,0.34-0.23,0.64-0.55,0.76
				l-12.06,4.54l1.52,10.96l12.84,1.08c0.34,0.03,0.63,0.26,0.74,0.58c0.89,2.73,2,5.37,3.3,7.84c0.16,0.3,0.12,0.67-0.1,0.93
				l-8.16,9.95l6.8,8.73l11.66-5.49c0.31-0.15,0.67-0.09,0.93,0.14c2.11,1.89,4.39,3.61,6.78,5.13c0.29,0.18,0.44,0.52,0.38,0.86
				l-2.1,12.72l10.25,4.16l7.34-10.57C171.59,131,171.86,130.86,172.13,130.86z M182.74,113.8c-7.1,0-13.97-2.29-19.73-6.65
				c-6.99-5.29-11.51-12.98-12.72-21.67c-1.21-8.68,1.04-17.32,6.33-24.31c5.29-6.99,12.98-11.51,21.67-12.72
				c17.92-2.49,34.54,10.07,37.03,27.99c1.21,8.68-1.04,17.32-6.33,24.31c-5.29,6.99-12.98,11.51-21.67,12.72
				C185.79,113.69,184.26,113.8,182.74,113.8z M182.83,49.84c-1.42,0-2.86,0.1-4.3,0.3c-8.23,1.14-15.53,5.43-20.54,12.06
				c-5.01,6.63-7.14,14.82-6,23.05c1.14,8.23,5.43,15.53,12.06,20.54c6.63,5.01,14.82,7.14,23.05,6
				c8.23-1.14,15.53-5.43,20.54-12.06c5.01-6.63,7.14-14.82,6-23.05C211.47,61.13,198.1,49.84,182.83,49.84z"/>
		</g>
	</g>
	<g>
		<g>
			<g>
				<polygon class="st2" points="393.31,437.08 392.64,449.05 384.42,450.4 383.69,436.29 				"/>
				<path d="M384.42,451.25c-0.19,0-0.38-0.07-0.53-0.19c-0.19-0.15-0.3-0.38-0.32-0.62l-0.73-14.11c-0.01-0.25,0.08-0.48,0.26-0.65
					c0.18-0.17,0.42-0.26,0.66-0.24l9.62,0.8c0.46,0.04,0.8,0.43,0.78,0.89l-0.67,11.96c-0.02,0.4-0.32,0.73-0.71,0.79l-8.22,1.35
					C384.51,451.24,384.47,451.25,384.42,451.25z M384.59,437.21l0.63,12.19l6.61-1.08l0.58-10.46L384.59,437.21z"/>
			</g>
			<g>
				<path class="st3" d="M384.19,471.18c3.47,0.3,9.14,0.44,15.73-0.78c2.16-0.4,3.49-2.52,2.86-4.57
					c-1.76-5.71-4.84-16.54-9.43-21.41l-0.93,2.81l-1.62-2.52c-0.22-0.35-0.6-0.57-1.02-0.6l-3.27-0.24
					c-0.68-0.05-1.29,0.42-1.4,1.08l-0.39,2.42l-1.29-3.08l-2.59,23.03C380.69,469.27,382.17,471,384.19,471.18z"/>
				<path d="M389.1,472.24c-1.92,0-3.6-0.09-4.98-0.21c-2.47-0.22-4.32-2.36-4.12-4.79l2.6-23.05c0.04-0.38,0.34-0.69,0.72-0.75
					c0.39-0.05,0.76,0.16,0.91,0.51l0.18,0.43c0.34-0.86,1.22-1.43,2.18-1.36l3.27,0.24c0.68,0.05,1.3,0.42,1.67,0.99l0.65,1.02
					l0.37-1.11c0.09-0.28,0.33-0.5,0.62-0.56c0.29-0.06,0.6,0.03,0.8,0.25c4.41,4.68,7.44,14.59,9.25,20.52l0.38,1.22
					c0.37,1.19,0.21,2.48-0.44,3.55c-0.67,1.1-1.79,1.87-3.08,2.11C395.98,471.99,392.22,472.24,389.1,472.24z M383.92,447.61
					l-2.23,19.78c-0.12,1.47,1.03,2.8,2.57,2.93c3.52,0.31,9.07,0.42,15.5-0.77c0.81-0.15,1.52-0.63,1.93-1.32
					c0.4-0.66,0.5-1.43,0.27-2.16l-0.38-1.23c-1.63-5.33-4.27-13.96-7.91-18.72l-0.45,1.37c-0.1,0.31-0.38,0.54-0.7,0.58
					c-0.34,0.04-0.65-0.11-0.82-0.38l-1.62-2.52c-0.08-0.12-0.21-0.2-0.36-0.21l-3.27-0.24c-0.25-0.02-0.46,0.14-0.5,0.36
					l-0.39,2.41c-0.06,0.37-0.36,0.66-0.74,0.71c-0.37,0.04-0.74-0.17-0.88-0.52L383.92,447.61z"/>
			</g>
			<path d="M391.67,468.29c-4.64,0-8.13-0.77-8.36-0.82c-0.46-0.1-0.75-0.56-0.64-1.02c0.1-0.46,0.56-0.75,1.02-0.64
				c0.08,0.02,8.61,1.89,16.52-0.28c0.45-0.12,0.92,0.14,1.04,0.6c0.12,0.45-0.14,0.92-0.6,1.05
				C397.55,468.02,394.41,468.29,391.67,468.29z"/>
			<path d="M387.35,459.43c-0.46,0-0.84-0.37-0.85-0.84c-0.01-0.47,0.37-0.86,0.84-0.86l7.76-0.13c0.45,0,0.86,0.37,0.86,0.84
				c0.01,0.47-0.37,0.86-0.84,0.86l-7.76,0.13C387.36,459.43,387.35,459.43,387.35,459.43z"/>
			<g>
				<polygon class="st2" points="354.25,432.65 353.91,450.07 343.96,450.56 342.6,433.22 				"/>
				<path d="M343.96,451.41c-0.44,0-0.81-0.34-0.85-0.78l-1.36-17.34c-0.02-0.23,0.06-0.46,0.21-0.63c0.15-0.17,0.37-0.28,0.6-0.29
					l11.65-0.57c0.23-0.01,0.47,0.08,0.63,0.24c0.17,0.16,0.26,0.39,0.26,0.63l-0.34,17.43c-0.01,0.45-0.36,0.81-0.81,0.83
					l-9.95,0.49C343.99,451.41,343.97,451.41,343.96,451.41z M343.51,434.03l1.23,15.65l8.33-0.41l0.31-15.72L343.51,434.03z"/>
			</g>
			<g>
				<path class="st3" d="M357.02,459.75c0.11,1.64-0.97,3.14-2.59,3.59c-5.65,1.58-18.39,5.09-22.04,5.81
					c-4.73,0.93-10.67-0.21-13.33-2.8c-2.66-2.59,5.17-9.48,8.92-12.02c5.57-3.79,10.75-10.98,13.05-11.41
					c2.3-0.43,6.97,5.91,6.97,5.91l6.93-3.24C354.92,445.59,356.46,451.43,357.02,459.75z"/>
				<path d="M328.97,470.32c-4.17,0-8.36-1.27-10.51-3.36c-0.59-0.58-0.86-1.35-0.78-2.23c0.34-3.85,7.38-9.45,9.82-11.11
					c2.71-1.84,5.31-4.5,7.6-6.84c2.78-2.84,4.41-4.45,5.77-4.7c2.38-0.44,5.87,3.7,7.39,5.68l6.3-2.95c0.23-0.11,0.49-0.11,0.72,0
					c0.23,0.11,0.4,0.31,0.46,0.55c0.06,0.24,1.57,6.01,2.12,14.33c0.14,2.03-1.22,3.91-3.21,4.47c-5.41,1.51-18.41,5.1-22.1,5.82
					C331.39,470.21,330.18,470.32,328.97,470.32z M341.28,443.74c-0.04,0-0.07,0-0.11,0.01c-0.89,0.16-2.91,2.23-4.86,4.22
					c-2.35,2.4-5.01,5.12-7.86,7.06c-3.57,2.43-8.86,7.33-9.08,9.85c-0.04,0.48,0.13,0.71,0.28,0.86c2.37,2.31,8.02,3.47,12.58,2.58
					c3.64-0.71,16.58-4.29,21.97-5.79c1.23-0.34,2.06-1.48,1.97-2.72c-0.42-6.18-1.38-11.01-1.83-13.01l-5.98,2.8
					c-0.37,0.17-0.81,0.06-1.04-0.27C345.27,446.57,342.43,443.74,341.28,443.74z"/>
			</g>
			<path d="M328.53,467.13c-3.15,0-5.93-0.59-7.85-2.12c-0.37-0.29-0.43-0.83-0.14-1.19c0.29-0.37,0.83-0.43,1.19-0.14
				c7.58,6.01,32.05-5.04,32.3-5.15c0.43-0.19,0.93-0.01,1.13,0.42c0.2,0.43,0.01,0.93-0.42,1.13
				C353.93,460.44,339.12,467.13,328.53,467.13z"/>
			<path d="M340.32,456.05c-0.18,0-0.37-0.06-0.53-0.18l-5.29-4.19c-0.37-0.29-0.43-0.83-0.14-1.19c0.29-0.37,0.83-0.43,1.19-0.14
				l5.29,4.19c0.37,0.29,0.43,0.83,0.14,1.19C340.81,455.94,340.57,456.05,340.32,456.05z"/>
			<path d="M386.67,316.66c0,0,9.16,54.87,11.75,73.54c2.58,18.66-1.24,49.05-1.24,49.05l-15.4-0.03c0,0-2.95-36.58-4.62-46.69
				c0,0-7.2-13.47-9.76-25.67c-2.56-12.2-10.12-31.31-10.12-31.31s-0.29,97.22-0.41,104.86c0,0-12.02,1.11-16.47-1.32
				c0,0-9.48-34.98-9.38-54.27c0.1-19.29,0.32-67.56,0.32-67.56L386.67,316.66z"/>
			<path class="st2" d="M379.98,393.23c-0.45,0-0.83-0.35-0.85-0.81c-0.02-0.47,0.34-0.87,0.81-0.89l4.69-0.23
				c0.47-0.03,0.87,0.34,0.89,0.81c0.02,0.47-0.34,0.87-0.81,0.89l-4.69,0.23C380.01,393.23,380,393.23,379.98,393.23z"/>
			<path class="st2" d="M348,423.07c-0.44,0-0.82-0.34-0.85-0.79c-0.61-8.59-11.69-24.37-11.8-24.52c-0.27-0.38-0.18-0.91,0.2-1.19
				c0.38-0.27,0.91-0.18,1.18,0.2c0.47,0.66,11.47,16.32,12.11,25.39c0.03,0.47-0.32,0.88-0.79,0.91
				C348.04,423.07,348.02,423.07,348,423.07z"/>
		</g>
		<g>
			<g>
				<path class="st2" d="M344.85,236.34c-17.62,32.11-15.94,46.26-40.75,13.14l-2.67,13.08c0,0,47.34,70.38,38.95,2.08
					L344.85,236.34z"/>
				<path d="M334.37,295.31c-4.82,0-11.61-4.99-20.26-14.88c-7.29-8.34-13.33-17.3-13.4-17.39c-0.13-0.19-0.17-0.42-0.13-0.65
					l2.67-13.08c0.07-0.33,0.32-0.59,0.65-0.66c0.33-0.07,0.67,0.05,0.87,0.32c10.28,13.72,15.81,18.93,19.69,18.57
					c3.95-0.37,7.13-6.84,11.95-16.63c2.17-4.4,4.62-9.39,7.69-14.98c0.2-0.36,0.63-0.53,1.02-0.4c0.39,0.13,0.63,0.53,0.56,0.94
					l-4.45,28.18c2.24,18.35,0.69,28.26-4.74,30.29C335.83,295.19,335.13,295.31,334.37,295.31z M302.33,262.38
					c6.74,9.94,25.3,34.05,33.56,30.97c3.12-1.16,6.28-7.07,3.64-28.61c-0.01-0.08-0.01-0.16,0-0.24l3.69-23.33
					c-1.99,3.81-3.72,7.3-5.28,10.49c-5.25,10.67-8.42,17.11-13.32,17.57c-4.51,0.42-9.85-4.25-20.07-17.74L302.33,262.38z"/>
			</g>
			<g>
				<path class="st2" d="M386.41,318.98l-55.69,2.44l5.72-54.15l-9.49-3.72l6.22-16.54c3.34-8.89,11.66-15.11,21.35-15.94
					c8.13-0.7,18.99-1.23,31.79-0.89c6.97,0.18,13.58,3,18.46,7.84c6.79,6.72,16.02,17,18.54,25.33l-30.41,11.17l-2.89-4.15
					C390.02,270.36,385.14,296.13,386.41,318.98z"/>
				<path d="M329.77,322.31l5.76-54.48l-9.67-3.79l6.52-17.33c3.45-9.16,12.11-15.64,22.07-16.49c10.26-0.88,20.99-1.18,31.88-0.89
					c7.21,0.19,13.97,3.06,19.04,8.08c7.15,7.09,16.21,17.3,18.76,25.68l0.23,0.77l-31.78,11.67l-2.09-3
					c-1.1,6.51-4.29,27.58-3.24,46.4l0.05,0.86L329.77,322.31z M328.04,263.06l9.31,3.65l-0.07,0.64l-5.62,53.16l53.85-2.36
					c-1.1-22.48,3.62-47.72,3.67-47.97l0.38-1.99l3.68,5.27l29.03-10.66c-2.75-7.91-11.28-17.48-18.08-24.21
					c-4.76-4.72-11.11-7.41-17.89-7.59c-10.83-0.28-21.49,0.01-31.7,0.89c-9.31,0.8-17.41,6.84-20.63,15.39L328.04,263.06z"/>
			</g>
			<path d="M390.02,271.21c-0.32,0-0.62-0.18-0.77-0.48l-5.36-11.17c-0.2-0.42-0.02-0.93,0.4-1.13c0.42-0.2,0.93-0.02,1.13,0.4
				l5.36,11.17c0.2,0.42,0.02,0.93-0.4,1.13C390.27,271.18,390.14,271.21,390.02,271.21z"/>
		</g>
		<g>
			<g>
				<path d="M349.24,210.54c-0.26,0-0.51-0.06-0.74-0.17c-0.42-0.21-0.72-0.58-0.89-1.08c-0.32-0.97-0.07-2.37,0.65-3.75
					c1.12-2.15,2.84-3.26,4.1-2.64c0.42,0.21,0.72,0.58,0.89,1.08c0.32,0.97,0.07,2.37-0.65,3.75
					C351.68,209.48,350.37,210.54,349.24,210.54z M351.57,204.42c-0.19,0-1.09,0.54-1.81,1.91c-0.72,1.37-0.64,2.36-0.49,2.53
					c0.18,0.03,1.08-0.52,1.81-1.91C351.8,205.58,351.73,204.58,351.57,204.42C351.58,204.42,351.58,204.42,351.57,204.42z
					 M351.84,207.34L351.84,207.34L351.84,207.34z"/>
				<g>
					<g>
						<path class="st2" d="M361.59,234.79c2.19,0,4.3-0.35,6.28-0.97c1.79-0.57,3.47-1.36,5-2.36c-6.66-2.28-4.32-12.15-4.32-12.15
							c5.03-10.79,1.12-17.66-4.83-19.09c-8.44-2.03-9.51,2.74-9.51,2.74c-0.64,1.28-2.13,4.27-2.71,4.61
							c-0.71,0.42-2.4,0.84-2.68,1.19c-0.28,0.34-0.12,1.46,0.94,2.41c0,0-3.07,6.24-2.05,8.12c1.02,1.88,8.31,3.45,8.31,3.45
							s1.71,7.58-3.02,10.18c1.8,0.82,3.74,1.39,5.78,1.67C359.71,234.72,360.64,234.79,361.59,234.79z"/>
						<path d="M361.59,235.64c-0.95,0-1.93-0.07-2.92-0.2c-2.08-0.28-4.1-0.86-6.02-1.73c-0.29-0.13-0.49-0.42-0.5-0.74
							c-0.01-0.32,0.16-0.62,0.44-0.78c3.46-1.9,2.96-7.07,2.7-8.73c-2.01-0.47-7.29-1.86-8.32-3.75c-1.04-1.9,0.84-6.37,1.77-8.36
							c-0.99-1.16-1.11-2.46-0.59-3.11c0.29-0.36,0.79-0.55,1.72-0.9c0.44-0.16,0.94-0.34,1.19-0.49c0.18-0.17,0.78-1.06,2.35-4.19
							c0.12-0.41,0.63-1.74,2.18-2.71c1.96-1.22,4.76-1.41,8.32-0.55c2.96,0.71,5.31,2.61,6.63,5.33c1.33,2.75,2.19,7.56-1.19,14.86
							c-0.19,0.9-1.78,9.17,3.78,11.07c0.31,0.11,0.53,0.38,0.57,0.7c0.04,0.32-0.11,0.64-0.38,0.82c-1.6,1.04-3.35,1.87-5.21,2.45
							C366.01,235.3,363.81,235.64,361.59,235.64z M354.74,232.72c1.35,0.49,2.74,0.84,4.16,1.03c3.03,0.41,5.92,0.14,8.71-0.75
							c1.21-0.38,2.36-0.87,3.45-1.46c-4.29-2.68-4.13-9.11-3.34-12.43c0.01-0.06,0.03-0.11,0.06-0.16
							c2.45-5.26,2.89-10.05,1.24-13.49c-1.09-2.26-3.04-3.83-5.49-4.42c-7.42-1.78-8.45,1.95-8.49,2.11
							c-0.02,0.06-0.04,0.13-0.07,0.18c-1.88,3.78-2.52,4.66-3.03,4.96c-0.39,0.23-0.94,0.43-1.47,0.63
							c-0.28,0.1-0.68,0.25-0.9,0.35c0.03,0.25,0.22,0.75,0.78,1.26c0.28,0.25,0.36,0.67,0.19,1.01c-1.38,2.81-2.57,6.42-2.06,7.34
							c0.52,0.95,4.42,2.31,7.74,3.02c0.32,0.07,0.58,0.32,0.65,0.64C356.93,222.86,358.34,229.35,354.74,232.72z M349.42,209.36
							L349.42,209.36L349.42,209.36z"/>
					</g>
					<path d="M368.46,197.27c-2.12-0.6-4.61-0.48-5.63-0.91c-1.64-0.7-1.44-2.6-3.81-2.99c-2.09-0.34-4.08-0.12-5.28,1.35
						c-0.2,0.25-0.38,0.53-0.53,0.84c-2.05,4.29,0.05,6.62,1,7.39c0,0,6.14,3.53,7.17,4.49c0.96,0.89,2.01,2.91,1.1,5.63
						c-0.12,0.35,0.01,0.73,0.32,0.93l0.02,0.01c0.37,0.25,0.87,0.18,1.15-0.15c0.89-1.05,2.83-3.06,4.08-2.46
						c1.52,0.74,1.65,4.78-1.62,5.19c-0.59,0.07-0.94,0.68-0.7,1.21c0.38,0.84,1.17,1.76,2.82,1.5c0,0,7.32-4.2,8.69-10.44
						C378.62,202.64,371.28,198.06,368.46,197.27z"/>
				</g>
				<path d="M354.15,212.31c-0.35,0-0.69-0.07-1-0.23c-0.56-0.28-0.98-0.78-1.19-1.44c-0.34-1.03-0.15-2.38,0.49-3.61
					c1.09-2.08,3.09-3.13,4.56-2.41c0.56,0.28,0.98,0.78,1.19,1.44c0.34,1.03,0.15,2.38-0.49,3.61c0,0,0,0,0,0
					C356.86,211.31,355.43,212.31,354.15,212.31z M355.99,206.09c-0.58,0-1.48,0.65-2.04,1.72c-0.51,0.98-0.53,1.83-0.38,2.3
					c0.07,0.22,0.18,0.37,0.33,0.45c0.53,0.26,1.64-0.41,2.3-1.67c0.51-0.98,0.53-1.83,0.38-2.3c-0.07-0.22-0.18-0.37-0.33-0.45
					C356.17,206.11,356.08,206.09,355.99,206.09z M356.96,209.28L356.96,209.28L356.96,209.28z"/>
				<path d="M353.26,208.02c-0.32,0-0.62-0.18-0.77-0.49c-0.06-0.11-0.17-0.23-0.21-0.23c0,0-0.02,0-0.04,0
					c-0.45,0-0.83-0.36-0.85-0.82c-0.02-0.47,0.35-0.87,0.82-0.88c0.97-0.04,1.61,0.74,1.82,1.21c0.2,0.43,0.01,0.93-0.42,1.13
					C353.5,208,353.38,208.02,353.26,208.02z"/>
				<path d="M364.58,211.92c-0.12,0-0.23-0.02-0.35-0.07l-7.09-3.18c-0.43-0.19-0.62-0.7-0.43-1.12c0.19-0.43,0.69-0.62,1.12-0.43
					l7.09,3.18c0.43,0.19,0.62,0.7,0.43,1.12C365.22,211.74,364.91,211.92,364.58,211.92z"/>
			</g>
		</g>
		<g>
			<path class="st1" d="M463.64,335.91c-13.49-14.7-34.1-18.95-51.7-12.36L298.12,199.58c8.07-16.98,5.58-37.87-7.91-52.57
				c-10.99-11.97-26.69-17.01-41.65-14.91c-0.25,0.04-0.47,0.21-0.56,0.45c-0.09,0.24-0.03,0.51,0.14,0.7l22.27,24.25
				c0.83,0.9,1.09,2.18,0.7,3.33l-8.52,24.85c-0.37,1.08-1.26,1.89-2.37,2.16l-25.07,6.02c-1.18,0.28-2.41-0.1-3.23-0.99
				L209.9,168.9c-0.18-0.19-0.44-0.27-0.69-0.2c-0.25,0.07-0.44,0.27-0.49,0.52c-3.09,14.54,0.65,30.3,11.47,42.09
				c13.35,14.54,33.65,18.87,51.13,12.58l114.12,124.29c-7.75,16.88-5.17,37.48,8.18,52.01c10.82,11.78,26.21,16.86,40.96,15.01
				c0.26-0.03,0.48-0.2,0.56-0.45c0.09-0.24,0.04-0.52-0.14-0.71l-22.02-23.98c-0.82-0.89-1.09-2.16-0.71-3.3l8.13-24.47
				c0.36-1.08,1.25-1.9,2.35-2.18l25.48-6.37c1.18-0.3,2.44,0.08,3.26,0.98l22.27,24.25c0.17,0.19,0.44,0.27,0.69,0.2
				c0.25-0.07,0.44-0.26,0.5-0.52C478.31,363.95,474.63,347.87,463.64,335.91z"/>
			<path d="M428.67,416.43c-13.47,0-26.48-5.63-35.69-15.66c-13.09-14.26-16.42-34.78-8.56-52.43L271.06,224.88
				c-18.26,6.33-38.42,1.26-51.51-13c-10.57-11.51-14.94-27.53-11.68-42.84c0.12-0.57,0.54-1.02,1.1-1.17
				c0.56-0.15,1.15,0.02,1.54,0.45l22.02,23.98c0.61,0.66,1.53,0.95,2.41,0.73l25.07-6.02c0.83-0.2,1.49-0.8,1.77-1.61l8.52-24.85
				c0.3-0.86,0.1-1.81-0.52-2.48l-22.27-24.25c-0.39-0.42-0.51-1.02-0.32-1.57c0.19-0.54,0.67-0.93,1.24-1.01
				c15.79-2.21,31.64,3.46,42.4,15.18c13.27,14.46,16.5,35.2,8.3,52.99l113.04,123.12c18.43-6.66,38.82-1.68,52.09,12.78
				c10.76,11.72,15.06,27.99,11.51,43.54c-0.13,0.56-0.55,1-1.11,1.15c-0.55,0.15-1.14-0.02-1.53-0.45l-22.27-24.26
				c-0.62-0.67-1.55-0.95-2.43-0.73l-25.48,6.37c-0.83,0.21-1.48,0.81-1.75,1.62l-8.13,24.47c-0.28,0.85-0.08,1.8,0.53,2.46
				l22.02,23.98c0.39,0.43,0.51,1.03,0.31,1.58c-0.2,0.54-0.68,0.93-1.26,1C432.67,416.31,430.67,416.43,428.67,416.43z
				 M271.31,223.04c0.23,0,0.46,0.1,0.63,0.28l114.12,124.29c0.23,0.25,0.29,0.62,0.15,0.93c-7.87,17.14-4.72,37.19,8.03,51.08
				c10.13,11.03,25.03,16.55,39.92,14.78l-21.81-23.76c-1.03-1.12-1.37-2.71-0.89-4.15l8.13-24.47c0.45-1.36,1.56-2.39,2.95-2.74
				l25.48-6.37c1.49-0.37,3.06,0.1,4.09,1.23l22.07,24.03c3.31-14.91-0.86-30.48-11.17-41.71c-12.93-14.08-32.86-18.85-50.78-12.14
				c-0.32,0.12-0.69,0.03-0.92-0.22L297.5,200.16c-0.23-0.26-0.29-0.63-0.14-0.94c8.21-17.28,5.16-37.54-7.77-51.63
				c-10.31-11.23-25.48-16.71-40.61-14.69l22.07,24.03c1.04,1.13,1.37,2.73,0.88,4.18l-8.52,24.85c-0.47,1.36-1.58,2.37-2.98,2.71
				l-25.07,6.02c-1.48,0.35-3.03-0.12-4.06-1.24l-21.81-23.76c-3.03,14.68,1.2,30,11.33,41.03c12.76,13.89,32.47,18.74,50.21,12.36
				C271.12,223.06,271.21,223.04,271.31,223.04z"/>
		</g>
		<g>
			<g>
				<path class="st2" d="M417.73,264.75l-22.59,8.11c0,0,3.82,34.35-20.58,46.16c0,0-13.22-1.59-17.8,6.05c0,0,9.26-0.41,17.01,1.67
					C381.51,328.83,427.67,315.87,417.73,264.75z"/>
				<path d="M375.99,327.83c-0.98,0-1.81-0.09-2.45-0.26c-7.54-2.02-16.66-1.64-16.75-1.64c-0.32,0.01-0.61-0.15-0.77-0.41
					c-0.16-0.27-0.16-0.6,0-0.87c4.5-7.52,16.42-6.68,18.38-6.49c23.34-11.51,19.92-43.62,19.88-43.95
					c-0.05-0.47,0.28-0.89,0.75-0.94c0.46-0.06,0.89,0.28,0.94,0.75c0.04,0.34,0.95,8.53-1.15,18.3
					c-2.8,13.03-9.68,22.53-19.9,27.47c-0.15,0.07-0.31,0.1-0.47,0.08c-0.12-0.01-11.08-1.25-16,4.32
					c3.09-0.01,9.67,0.16,15.53,1.73c3.95,1.06,19.04-1.89,30.34-12.43c8.37-7.8,17.32-22.34,12.47-47.28
					c-0.09-0.46,0.21-0.91,0.67-1c0.46-0.09,0.91,0.21,1,0.67c5,25.71-4.3,40.75-12.98,48.85
					C395.49,324.06,382.41,327.83,375.99,327.83z"/>
			</g>
			<path d="M392.91,275.36c-0.35,0-0.67-0.21-0.8-0.56c-0.16-0.44,0.06-0.93,0.5-1.09l30.41-11.17c0.44-0.16,0.93,0.06,1.09,0.51
				c0.16,0.44-0.06,0.93-0.5,1.09l-30.41,11.17C393.11,275.34,393.01,275.36,392.91,275.36z"/>
		</g>
		<g>
			<path class="st2" d="M304.68,263.03c-4.7-0.62-13.31-3.08-8.43-12.89c0.47-0.94,1.64-1.32,2.61-0.87
				c2.97,1.41,7.61,6.25,8.54,10.99C307.7,261.83,306.31,263.24,304.68,263.03z"/>
			<path d="M305,263.9c-0.14,0-0.29-0.01-0.43-0.03c-3.47-0.46-7.98-1.72-9.82-5.18c-1.27-2.39-1.02-5.39,0.74-8.94
				c0.67-1.35,2.34-1.92,3.74-1.26c3.04,1.44,7.99,6.39,9.01,11.59c0.2,1-0.1,2.01-0.81,2.77C306.79,263.53,305.91,263.9,305,263.9z
				 M298,249.93c-0.41,0-0.81,0.22-0.99,0.59c-1.5,3.03-1.76,5.51-0.76,7.38c1.58,2.96,6.03,3.96,8.54,4.29
				c0.52,0.07,1.03-0.11,1.39-0.49c0.33-0.35,0.47-0.82,0.38-1.27c-0.88-4.48-5.29-9.07-8.07-10.38
				C298.33,249.96,298.16,249.93,298,249.93z"/>
		</g>
	</g>
	<g>
		<g>
			<path d="M439.59,74.34c0,0-0.01,0-0.01,0l-3.14-0.04c-0.47-0.01-0.85-0.39-0.84-0.86c0.01-0.47,0.39-0.84,0.85-0.84
				c0,0,0.01,0,0.01,0l3.14,0.04c0.47,0.01,0.85,0.39,0.84,0.86C440.43,73.97,440.05,74.34,439.59,74.34z"/>
			<path d="M428.61,74.21c0,0-0.01,0-0.01,0l-3.14-0.04c-0.47-0.01-0.85-0.39-0.84-0.86c0.01-0.47,0.39-0.84,0.85-0.84
				c0,0,0.01,0,0.01,0l3.14,0.04c0.47,0.01,0.85,0.39,0.84,0.86C429.46,73.84,429.08,74.21,428.61,74.21z"/>
			<path d="M432.56,70.34C432.56,70.34,432.55,70.34,432.56,70.34c-0.48,0-0.85-0.39-0.85-0.86l0.02-3.14
				c0-0.47,0.38-0.85,0.85-0.85c0,0,0,0,0,0c0.47,0,0.85,0.39,0.85,0.86l-0.02,3.14C433.41,69.96,433.03,70.34,432.56,70.34z"/>
			<path d="M432.49,81.31C432.49,81.31,432.49,81.31,432.49,81.31c-0.48,0-0.85-0.39-0.85-0.86l0.02-3.14
				c0-0.47,0.38-0.85,0.85-0.85c0,0,0,0,0,0c0.47,0,0.85,0.39,0.85,0.86l-0.02,3.14C433.34,80.94,432.96,81.31,432.49,81.31z"/>
		</g>
		<g>
			<path d="M286.12,450.8c-0.35,0-0.68-0.22-0.8-0.57c-0.16-0.44,0.08-0.93,0.52-1.08l3.08-1.08c0.45-0.16,0.93,0.08,1.08,0.52
				c0.16,0.44-0.08,0.93-0.52,1.08l-3.08,1.08C286.31,450.78,286.21,450.8,286.12,450.8z"/>
			<path d="M275.35,454.58c-0.35,0-0.68-0.22-0.8-0.57c-0.16-0.44,0.08-0.93,0.52-1.08l3.08-1.08c0.45-0.16,0.93,0.08,1.08,0.52
				c0.16,0.44-0.08,0.93-0.52,1.08l-3.08,1.08C275.54,454.56,275.45,454.58,275.35,454.58z"/>
			<path d="M280.9,448.31c-0.35,0-0.68-0.22-0.8-0.56l-1.1-3.07c-0.16-0.44,0.07-0.93,0.51-1.09c0.44-0.16,0.93,0.07,1.09,0.51
				l1.1,3.07c0.16,0.44-0.07,0.93-0.51,1.09C281.09,448.3,281,448.31,280.9,448.31z"/>
			<path d="M284.74,459.06c-0.35,0-0.68-0.22-0.8-0.56l-1.1-3.07c-0.16-0.44,0.07-0.93,0.51-1.09c0.44-0.16,0.93,0.07,1.09,0.51
				l1.1,3.07c0.16,0.44-0.07,0.93-0.51,1.09C284.94,459.04,284.84,459.06,284.74,459.06z"/>
		</g>
		<g>
			<path d="M221.86,451.28c-17.36,0-34.88-2.16-51.73-6.44c-0.46-0.12-0.73-0.58-0.62-1.03c0.12-0.46,0.58-0.73,1.03-0.62
				c25.46,6.46,52.46,8.06,78.08,4.62c0.46-0.06,0.89,0.26,0.96,0.73c0.06,0.47-0.26,0.89-0.73,0.96
				C239.98,450.69,230.95,451.28,221.86,451.28z"/>
			<path d="M224.3,460.27c-14.49,0-29.15-1.55-43.82-4.64c-0.46-0.1-0.75-0.55-0.66-1.01c0.1-0.46,0.55-0.75,1.01-0.66
				c24.35,5.13,48.65,5.98,72.22,2.52c0.46-0.07,0.9,0.25,0.97,0.72c0.07,0.46-0.25,0.9-0.72,0.96
				C243.74,459.56,234.06,460.27,224.3,460.27z"/>
		</g>
		<g>
			<path d="M41.72,111.51c-0.14,0-0.28-0.03-0.41-0.11c-0.41-0.23-0.56-0.74-0.33-1.16c4.79-8.66,10.54-16.82,17.08-24.28
				C68.52,74.04,80.88,64.06,94.81,56.3c0.41-0.23,0.93-0.08,1.16,0.33c0.23,0.41,0.08,0.93-0.33,1.16
				c-13.76,7.67-25.97,17.53-36.31,29.31c-6.46,7.36-12.14,15.43-16.87,23.98C42.31,111.35,42.02,111.51,41.72,111.51z"/>
			<path d="M36.06,104.83c-0.13,0-0.26-0.03-0.39-0.09c-0.42-0.21-0.58-0.73-0.37-1.15c5.44-10.59,12.18-20.51,20.04-29.46
				c13.74-15.66,30.5-28.04,49.8-36.81c0.43-0.19,0.93,0,1.13,0.42c0.19,0.43,0,0.93-0.42,1.13c-19.08,8.66-35.64,20.9-49.22,36.38
				c-7.76,8.85-14.43,18.64-19.81,29.11C36.66,104.66,36.37,104.83,36.06,104.83z"/>
			<path d="M30.63,131.61c-1.57,0-3.05-0.61-4.17-1.72c-1.12-1.11-1.74-2.6-1.75-4.18c-0.01-1.58,0.6-3.07,1.72-4.19
				c2.3-2.32,6.05-2.33,8.37-0.03c1.12,1.11,1.74,2.6,1.75,4.18c0.01,1.58-0.6,3.07-1.72,4.19c-1.11,1.12-2.6,1.74-4.18,1.75
				C30.64,131.61,30.63,131.61,30.63,131.61z M30.63,121.47c-0.01,0-0.01,0-0.02,0c-1.13,0-2.18,0.45-2.98,1.25
				c-0.79,0.8-1.23,1.86-1.22,2.99c0,1.13,0.45,2.18,1.25,2.98c0.8,0.79,1.85,1.22,2.97,1.22c0.01,0,0.01,0,0.02,0
				c1.13,0,2.18-0.45,2.98-1.25c0.79-0.8,1.23-1.86,1.22-2.99c0-1.13-0.45-2.18-1.25-2.98C32.8,121.9,31.75,121.47,30.63,121.47z"/>
		</g>
		<path d="M408.12,54.37c-1.27,0-2.53-0.49-3.49-1.46c-0.92-0.93-1.41-2.16-1.4-3.47c0.01-1.31,0.53-2.53,1.46-3.44
			c0.93-0.92,2.16-1.39,3.47-1.4c1.31,0.01,2.53,0.53,3.44,1.46c1.89,1.92,1.86,5.03-0.06,6.92
			C410.59,53.9,409.36,54.37,408.12,54.37z M408.12,46.29c-0.84,0-1.63,0.32-2.23,0.91c-0.61,0.6-0.95,1.39-0.96,2.25
			c-0.01,0.85,0.32,1.66,0.91,2.26c1.23,1.25,3.26,1.27,4.51,0.04c1.25-1.23,1.27-3.26,0.04-4.51c-0.6-0.61-1.39-0.95-2.25-0.95
			C408.14,46.29,408.13,46.29,408.12,46.29z"/>
	</g>
	<g>
		<g>
			<path class="st1" d="M91.33,94.28c-0.18-0.31-0.52-0.51-0.88-0.51c-0.36,0-0.7,0.19-0.88,0.51l-30.45,52.73
				c-0.18,0.31-0.18,0.7,0,1.01c0.18,0.31,0.52,0.51,0.88,0.51h60.89c0.36,0,0.7-0.19,0.88-0.51c0.18-0.31,0.18-0.7,0-1.01
				L91.33,94.28z"/>
			<path d="M120.9,149.38H60.01c-0.66,0-1.28-0.36-1.61-0.93c-0.33-0.57-0.33-1.29,0-1.86l30.45-52.73
				c0.33-0.57,0.95-0.93,1.61-0.93c0.66,0,1.28,0.36,1.61,0.93l30.45,52.73c0.33,0.57,0.33,1.29,0,1.86
				C122.18,149.03,121.56,149.38,120.9,149.38z M90.45,94.63c-0.06,0-0.11,0.03-0.14,0.08l-30.45,52.73c-0.03,0.05-0.03,0.11,0,0.16
				c0.03,0.05,0.08,0.08,0.14,0.08h60.89c0.06,0,0.11-0.03,0.14-0.08c0.03-0.05,0.03-0.11,0-0.16L90.59,94.71
				C90.57,94.66,90.51,94.63,90.45,94.63z"/>
		</g>
		<g>
			<path class="st2" d="M87.06,136.79c0-0.91,0.32-1.66,0.95-2.24c0.64-0.58,1.43-0.88,2.38-0.88c0.95,0,1.74,0.29,2.38,0.88
				c0.64,0.58,0.95,1.33,0.95,2.24c0,0.91-0.32,1.66-0.95,2.24c-0.64,0.58-1.43,0.88-2.38,0.88c-0.95,0-1.74-0.29-2.38-0.88
				C87.38,138.44,87.06,137.7,87.06,136.79z M92.87,131.07h-4.86l-0.77-18.35h6.4L92.87,131.07z"/>
		</g>
	</g>
</g>
</svg>
