<?xml version="1.0" encoding="utf-8"?>
<!-- Generator: Adobe Illustrator 25.1.0, SVG Export Plug-In . SVG Version: 6.00 Build 0)  -->
<svg version="1.1" id="Слой_1" xmlns="http://www.w3.org/2000/svg" xmlns:xlink="http://www.w3.org/1999/xlink" x="0px" y="0px"
	 viewBox="0 0 484 479" style="enable-background:new 0 0 484 479;" xml:space="preserve">
<style type="text/css">
	.st0{fill:#CADDFF;}
	.st1{fill:#FFFFFF;}
	.st2{fill:#5479F7;}
	.st3{fill:#99B9FF;}
</style>
<path class="st0" d="M358.18,118.27c48.97,48.91,79.81,34.9,102.38,68.42c36.4,54.05,4.69,147.41-43.43,203.97
	c-58.94,69.28-166.43,104.92-263.59,64.03C50.07,411.14-3.52,296.86,12.81,194.96C27.39,103.97,99.05,14.6,184.87,5.75
	c9.3-0.96,59.58-5.18,102.89,24.96C323.55,55.62,319.36,79.5,358.18,118.27z"/>
<g>
	<g>
		<path d="M229.77,70.01c0.29-0.15,11.11-9.13,11.11-9.13l2.83,3.61c0,0,1.67,8.57,1.38,8.57C244.8,73.06,229.77,70.01,229.77,70.01
			z"/>
		<path d="M412.68,461.6H112.3c-4.58,0-8.25-2.74-9.23-6.9L17.25,94.83c-0.85-3.59,0.43-7.31,2.91-10.1
			c2.39-2.68,9.33-10.61,9.33-10.61l300.75,6.11c4.58,0,8.25,2.74,9.23,6.9l90.86,361.61c0,0-5.61,5.94-8.35,8.77
			C419.61,459.97,416.28,461.6,412.68,461.6z"/>
		<g>
			<path class="st1" d="M421.67,450.87H121.29c-4.58,0-8.25-2.74-9.23-6.9L26.98,85.12c-1.67-7.04,4.86-14.6,12.61-14.6h300.38
				c4.58,0,8.25,2.74,9.23,6.9l85.08,358.85C435.95,443.31,429.42,450.87,421.67,450.87z"/>
			<path d="M421.67,451.72H121.29c-4.94,0-8.98-3.03-10.05-7.55L26.16,85.32c-0.81-3.41,0.12-7.13,2.56-10.2
				c2.69-3.41,6.76-5.44,10.88-5.44h300.38c4.94,0,8.98,3.03,10.06,7.55l85.08,358.85c0.81,3.41-0.12,7.13-2.56,10.2
				C429.86,449.69,425.79,451.72,421.67,451.72z M39.59,71.37c-3.61,0-7.18,1.79-9.56,4.8c-2.11,2.67-2.93,5.86-2.24,8.77
				l85.08,358.85c0.9,3.8,4.2,6.25,8.41,6.25h300.38c3.61,0,7.18-1.79,9.56-4.8c2.11-2.67,2.93-5.86,2.24-8.77L348.39,77.62
				c-0.9-3.8-4.2-6.25-8.41-6.25H39.59z"/>
		</g>
		<path class="st0" d="M400.36,428.97H135.69c-4.03,0-7.27-2.42-8.14-6.08L52.6,106.71c-1.47-6.2,4.28-12.87,11.11-12.87h264.66
			c4.03,0,7.27,2.42,8.14,6.08l74.96,316.18C412.94,422.31,407.19,428.97,400.36,428.97z"/>
		<path d="M69.81,180.13c-0.38,0-0.73-0.26-0.82-0.65l-17.22-72.64c-0.72-3.03,0.11-6.34,2.27-9.07c2.39-3.02,6-4.83,9.67-4.83
			h239.6c0.47,0,0.84,0.38,0.84,0.84c0,0.47-0.38,0.84-0.84,0.84H63.7c-3.15,0-6.27,1.57-8.34,4.19c-1.84,2.33-2.55,5.11-1.95,7.64
			l17.22,72.64c0.11,0.45-0.17,0.91-0.63,1.02C69.94,180.12,69.87,180.13,69.81,180.13z"/>
		<path d="M165.07,429.75h-29.38c-4.4,0-8-2.7-8.96-6.73l-18.59-78.43c-0.11-0.45,0.17-0.91,0.63-1.02
			c0.45-0.11,0.91,0.17,1.02,0.63l18.59,78.43c0.78,3.3,3.65,5.43,7.31,5.43h29.38c0.47,0,0.84,0.38,0.84,0.84
			C165.91,429.38,165.53,429.75,165.07,429.75z"/>
		<path d="M367.62,231.98c-0.38,0-0.73-0.26-0.82-0.65l-7-29.53c-0.11-0.45,0.17-0.91,0.63-1.02c0.45-0.11,0.91,0.17,1.02,0.63
			l7,29.53c0.11,0.45-0.17,0.91-0.63,1.02C367.75,231.97,367.69,231.98,367.62,231.98z"/>
		<g>
			<path class="st2" d="M319.39,137.2l-31.04-19.98l-29.24,19.98c-0.92,0-1.66-0.55-1.85-1.38L240.2,63.81
				c-0.33-1.41,0.98-2.93,2.53-2.93H303c0.92,0,1.66,0.55,1.85,1.38l17.07,72.01C322.26,135.68,320.95,137.2,319.39,137.2z"/>
			<path d="M319.39,138.04c-0.16,0-0.32-0.05-0.46-0.13l-30.57-19.68L259.6,137.9c-0.14,0.1-0.31,0.15-0.48,0.15
				c-1.31,0-2.39-0.82-2.67-2.03l-17.07-72.01c-0.21-0.89,0.02-1.84,0.64-2.62c0.67-0.84,1.68-1.35,2.71-1.35H303
				c1.31,0,2.39,0.82,2.67,2.03l17.07,72.01c0.21,0.89-0.02,1.84-0.64,2.62C321.44,137.54,320.42,138.04,319.39,138.04z
				 M288.36,116.38c0.16,0,0.32,0.04,0.46,0.13l30.8,19.83c0.44-0.06,0.87-0.31,1.17-0.69c0.29-0.37,0.41-0.8,0.32-1.18
				l-17.07-72.01c-0.11-0.45-0.5-0.74-1.03-0.74h-60.27c-0.52,0-1.04,0.26-1.39,0.71c-0.29,0.37-0.41,0.8-0.32,1.18l17.07,72.01
				c0.09,0.38,0.39,0.65,0.8,0.72l28.99-19.81C288.02,116.43,288.19,116.38,288.36,116.38z"/>
		</g>
	</g>
</g>
<g>
	<g>
		<g>
			<path class="st1" d="M220.04,414.58c-4.31-8.87-4.72-17.81,0-26.84l-3.39-4.06l-92.68,3.05l3.19,29.44l89.72,1.03L220.04,414.58z
				"/>
			<path d="M216.88,418.04C216.88,418.04,216.87,418.04,216.88,418.04l-89.73-1.03c-0.43,0-0.78-0.33-0.83-0.75l-3.19-29.44
				c-0.03-0.23,0.05-0.47,0.2-0.64c0.15-0.18,0.37-0.28,0.61-0.29l92.68-3.05c0.27-0.01,0.51,0.1,0.68,0.3l3.39,4.06
				c0.22,0.26,0.26,0.63,0.1,0.93c-4.42,8.45-4.41,16.98,0.01,26.08c0.17,0.35,0.08,0.77-0.22,1.02l-3.16,2.62
				C217.27,417.97,217.08,418.04,216.88,418.04z M127.92,415.33l88.66,1.02l2.42-2c-4.24-9.1-4.22-18.01,0.04-26.5l-2.77-3.32
				l-91.36,3L127.92,415.33z"/>
		</g>
		<g>
			<path class="st1" d="M49.74,380.43h122.15h49.87c2.01,0,3.64,1.63,3.64,3.64c0,2.01-1.63,3.64-3.64,3.64h-79.09
				c-5.79,0-10.49,4.69-10.49,10.49v5.9c0,5.79,4.69,10.49,10.49,10.49h79.09c2.01,0,3.64,1.63,3.64,3.64s-1.63,3.64-3.64,3.64
				H49.74c-10.68,0-19.33-8.66-19.33-19.33v-2.76C30.4,389.09,39.06,380.43,49.74,380.43z"/>
			<path d="M221.76,422.7H49.74c-11.13,0-20.18-9.05-20.18-20.18v-2.76c0-11.13,9.05-20.18,20.18-20.18h172.03
				c2.47,0,4.48,2.01,4.48,4.48s-2.01,4.48-4.48,4.48h-79.09c-5.32,0-9.64,4.33-9.64,9.64v5.9c0,5.32,4.33,9.64,9.64,9.64h79.09
				c2.47,0,4.48,2.01,4.48,4.48C226.25,420.69,224.23,422.7,221.76,422.7z M49.74,381.27c-10.2,0-18.49,8.29-18.49,18.49v2.76
				c0,10.2,8.29,18.49,18.49,18.49h172.03c1.54,0,2.8-1.25,2.8-2.8s-1.25-2.8-2.8-2.8h-79.09c-6.25,0-11.33-5.08-11.33-11.33v-5.9
				c0-6.25,5.08-11.33,11.33-11.33h79.09c1.54,0,2.8-1.25,2.8-2.8c0-1.54-1.25-2.8-2.8-2.8H49.74z"/>
		</g>
		<path d="M176.88,396.36h-6.77c-0.47,0-0.84-0.38-0.84-0.84c0-0.47,0.38-0.84,0.84-0.84h6.77c0.47,0,0.84,0.38,0.84,0.84
			C177.72,395.99,177.35,396.36,176.88,396.36z"/>
		<path d="M216.98,396.36h-35.86c-0.47,0-0.84-0.38-0.84-0.84c0-0.47,0.38-0.84,0.84-0.84h35.86c0.47,0,0.84,0.38,0.84,0.84
			C217.82,395.99,217.44,396.36,216.98,396.36z"/>
		<path d="M216.65,400.75h-42.43c-0.47,0-0.84-0.38-0.84-0.84c0-0.47,0.38-0.84,0.84-0.84h42.43c0.47,0,0.84,0.38,0.84,0.84
			C217.49,400.37,217.11,400.75,216.65,400.75z"/>
		<path d="M171.26,408.61h-7.71c-0.47,0-0.84-0.38-0.84-0.84c0-0.47,0.38-0.84,0.84-0.84h7.71c0.47,0,0.84,0.38,0.84,0.84
			C172.1,408.23,171.73,408.61,171.26,408.61z"/>
		<path d="M216.98,408.61h-42.43c-0.47,0-0.84-0.38-0.84-0.84c0-0.47,0.38-0.84,0.84-0.84h42.43c0.47,0,0.84,0.38,0.84,0.84
			C217.82,408.23,217.44,408.61,216.98,408.61z"/>
	</g>
	<g>
		<g>
			<path class="st1" d="M217.37,464.18H61.98v-38.07l155.38,0C212.78,438.97,212.65,451.67,217.37,464.18z"/>
			<path d="M217.37,465.03H61.98c-0.47,0-0.84-0.38-0.84-0.84v-38.07c0-0.47,0.38-0.84,0.84-0.84l155.38,0
				c0.27,0,0.53,0.13,0.69,0.36c0.16,0.22,0.2,0.51,0.1,0.77c-4.56,12.78-4.56,25.39,0,37.49c0.1,0.26,0.06,0.55-0.1,0.78
				C217.9,464.89,217.64,465.03,217.37,465.03z M62.83,463.34h153.33c-4.15-11.77-4.15-24,0.02-36.38l-153.35,0V463.34z"/>
		</g>
		<g>
			<path class="st3" d="M80.69,427.99h137.75c1.66,0,3-1.34,3-3c0-1.66-1.34-3-3-3H39.69c-7.28,0-13.18,5.9-13.18,13.18v20.72
				c0,7.28,5.9,13.18,13.18,13.18h178.75c1.66,0,3-1.34,3-3c0-1.66-1.34-3-3-3H80.69c-5.14,0-9.31-4.17-9.31-9.31V437.3
				C71.38,432.16,75.55,427.99,80.69,427.99z"/>
			<path d="M218.43,469.92H39.69c-7.73,0-14.03-6.29-14.03-14.03v-20.72c0-7.73,6.29-14.02,14.03-14.02h178.75
				c2.12,0,3.84,1.72,3.84,3.84c0,2.12-1.72,3.84-3.84,3.84H80.69c-4.67,0-8.47,3.8-8.47,8.47v16.46c0,4.67,3.8,8.47,8.47,8.47
				h137.75c2.12,0,3.84,1.72,3.84,3.84C222.28,468.2,220.55,469.92,218.43,469.92z M39.69,422.84c-6.8,0-12.34,5.53-12.34,12.34
				v20.72c0,6.8,5.53,12.34,12.34,12.34h178.75c1.19,0,2.16-0.97,2.16-2.16s-0.97-2.16-2.16-2.16H80.69
				c-5.6,0-10.16-4.56-10.16-10.16V437.3c0-5.6,4.56-10.16,10.16-10.16h137.75c1.19,0,2.16-0.97,2.16-2.16
				c0-1.19-0.97-2.16-2.16-2.16H39.69z"/>
		</g>
		<path d="M214.62,436h-22.94c-0.47,0-0.84-0.38-0.84-0.84c0-0.47,0.38-0.84,0.84-0.84h22.94c0.47,0,0.84,0.38,0.84,0.84
			C215.46,435.62,215.08,436,214.62,436z"/>
		<path d="M187.74,436h-41.71c-0.47,0-0.84-0.38-0.84-0.84c0-0.47,0.38-0.84,0.84-0.84h41.71c0.47,0,0.84,0.38,0.84,0.84
			C188.58,435.62,188.21,436,187.74,436z"/>
		<path d="M214.13,441.08H156.8c-0.47,0-0.84-0.38-0.84-0.84c0-0.47,0.38-0.84,0.84-0.84h57.34c0.47,0,0.84,0.38,0.84,0.84
			C214.98,440.7,214.6,441.08,214.13,441.08z"/>
		<path d="M151.95,441.08h-11.67c-0.47,0-0.84-0.38-0.84-0.84c0-0.47,0.38-0.84,0.84-0.84h11.67c0.47,0,0.84,0.38,0.84,0.84
			C152.79,440.7,152.41,441.08,151.95,441.08z"/>
		<path d="M214.13,451.68h-60.8c-0.47,0-0.84-0.38-0.84-0.84c0-0.47,0.38-0.84,0.84-0.84h60.8c0.47,0,0.84,0.38,0.84,0.84
			C214.98,451.31,214.6,451.68,214.13,451.68z"/>
		<path d="M149.06,451.68h-3.03c-0.47,0-0.84-0.38-0.84-0.84c0-0.47,0.38-0.84,0.84-0.84h3.03c0.47,0,0.84,0.38,0.84,0.84
			C149.91,451.31,149.53,451.68,149.06,451.68z"/>
	</g>
</g>
<g>
	<g>
		<path class="st3" d="M418.99,444.57c0,0,12.12-3.79,31.98-42.32c16.76-32.52,1.82-63.96-1.2-84.98c-0.31-2.15-3.24-2.46-3.97-0.42
			c-5.02,14.13-13.11,39.81-11.8,55.63C435.88,395.27,418.99,444.57,418.99,444.57z"/>
		<path class="st3" d="M432.13,423.5l4.32-34.14c1.87-14.82-0.55-29.87-6.98-43.33c-9.37-19.61-10.11-42.3-2.03-62.48l6.94-17.33
			c0.88-2.19-1.91-3.97-3.5-2.23l-9.74,10.71c-22.1,24.31-29.56,58.72-19.54,90.12l17.95,56.25L432.13,423.5z"/>
		<path class="st0" d="M434.21,407.89c-0.04,0-0.07,0-0.11-0.01c-0.46-0.06-0.79-0.48-0.73-0.94l2.24-17.69
			c1.13-8.97,0.69-17.99-1.32-26.8c-0.1-0.45,0.18-0.91,0.64-1.01c0.46-0.1,0.91,0.18,1.01,0.64c2.05,9.01,2.51,18.22,1.35,27.39
			l-2.24,17.69C434.99,407.58,434.63,407.89,434.21,407.89z"/>
		<path class="st3" d="M426.56,424.62l-14.98-38.26c-4.26-10.88-13.23-19.2-24.33-22.56l-10.21-3.09c-2.48-0.75-4.14,2.53-2.09,4.12
			l6.28,4.88c6.8,5.29,10.86,13.41,11.04,22.07c0.11,5.09,1.55,10.06,4.2,14.4l10.15,16.65L426.56,424.62z"/>
		<path class="st0" d="M424.35,407.49c-0.03,0-0.05,0-0.08,0c-0.46-0.04-0.8-0.45-0.76-0.92c2.28-24.38-2.62-40.08-6.94-53.93
			c-2-6.42-3.9-12.49-5.02-19.02c-5.32-30.86,12.81-57.64,12.99-57.91c0.26-0.38,0.79-0.48,1.17-0.22c0.38,0.26,0.48,0.79,0.22,1.17
			c-0.18,0.26-17.92,26.49-12.72,56.66c1.11,6.42,2.98,12.44,4.97,18.81c4.37,14,9.32,29.88,7.01,54.59
			C425.14,407.16,424.78,407.49,424.35,407.49z"/>
		<path class="st0" d="M417.99,396.23c-0.35,0-0.68-0.22-0.8-0.58c-1.92-5.82-6.27-11.88-9.59-15.94c-0.29-0.36-0.24-0.89,0.12-1.19
			c0.36-0.29,0.89-0.24,1.19,0.12c3.4,4.17,7.88,10.41,9.88,16.47c0.15,0.44-0.09,0.92-0.54,1.07
			C418.17,396.21,418.08,396.23,417.99,396.23z"/>
		<path class="st0" d="M444.3,391.15c-0.05,0-0.09,0-0.14-0.01c-0.46-0.08-0.77-0.51-0.69-0.97c4.08-24.1,2.66-61.21,2.65-61.59
			c-0.02-0.47,0.34-0.86,0.81-0.88c0.49-0.02,0.86,0.34,0.88,0.81c0.01,0.37,1.43,37.66-2.67,61.94
			C445.06,390.86,444.7,391.15,444.3,391.15z"/>
		<path class="st0" d="M408.53,411.14c-0.46,0-0.84-0.37-0.84-0.84c-0.29-29.89-24.14-42.99-24.38-43.12
			c-0.41-0.22-0.57-0.73-0.35-1.14c0.22-0.41,0.73-0.57,1.14-0.35c0.25,0.13,24.98,13.72,25.27,44.6
			C409.38,410.76,409.01,411.14,408.53,411.14C408.54,411.14,408.53,411.14,408.53,411.14z"/>
		<path class="st0" d="M411.78,354.9c-0.25,0-0.5-0.11-0.67-0.33c-6.54-8.4-9.35-19.39-9.46-19.86c-0.11-0.45,0.16-0.91,0.61-1.02
			c0.45-0.11,0.91,0.16,1.02,0.61c0.03,0.11,2.84,11.12,9.16,19.23c0.29,0.37,0.22,0.9-0.15,1.18
			C412.15,354.84,411.96,354.9,411.78,354.9z"/>
	</g>
	<path class="st2" d="M432.4,469.08h-18.78c-10.49,0-18.99-8.5-18.99-18.99v-34.72h56.75v34.72
		C451.39,460.58,442.89,469.08,432.4,469.08z"/>
	<path class="st3" d="M445.83,425.7H400.2c-0.47,0-0.84-0.38-0.84-0.84c0-0.47,0.38-0.84,0.84-0.84h45.63
		c0.47,0,0.84,0.38,0.84,0.84C446.67,425.32,446.29,425.7,445.83,425.7z"/>
</g>
<g>
	<g>
		<g>
			<path d="M452.32,304.41c-0.12,0-0.24-0.02-0.35-0.08c-0.42-0.2-0.61-0.7-0.41-1.12c14.56-31.52,14.98-59.21,12.77-76.89
				c-2.4-19.17-8.33-31.04-8.39-31.15c-0.21-0.42-0.04-0.92,0.37-1.13c0.41-0.21,0.92-0.05,1.13,0.37
				c0.06,0.12,6.1,12.19,8.55,31.63c2.25,17.92,1.85,45.97-12.9,77.88C452.95,304.23,452.64,304.41,452.32,304.41z"/>
			<path d="M445.12,293.16c-0.1,0-0.2-0.02-0.3-0.05c-0.44-0.16-0.66-0.65-0.5-1.09c14.47-38.79,8.3-56.17,8.24-56.34
				c-0.16-0.44,0.06-0.92,0.49-1.09c0.44-0.16,0.92,0.05,1.09,0.49c0.27,0.72,6.5,18.03-8.24,57.52
				C445.78,292.95,445.46,293.16,445.12,293.16z"/>
		</g>
		<g>
			<path d="M449.88,221.2c-0.46,0-0.84-0.37-0.84-0.83c-0.01-0.47,0.36-0.85,0.83-0.86l3.83-0.07c0,0,0.01,0,0.02,0
				c0.46,0,0.84,0.37,0.84,0.83c0.01,0.47-0.36,0.85-0.83,0.86l-3.83,0.07C449.89,221.2,449.88,221.2,449.88,221.2z"/>
			<path d="M436.47,221.44c-0.46,0-0.84-0.37-0.84-0.83c-0.01-0.47,0.36-0.85,0.83-0.86l3.83-0.07c0,0,0.01,0,0.02,0
				c0.46,0,0.84,0.37,0.84,0.83c0.01,0.47-0.36,0.85-0.83,0.86l-3.83,0.07C436.48,221.44,436.48,221.44,436.47,221.44z"/>
			<path d="M445.08,216.57c-0.46,0-0.84-0.38-0.84-0.84l-0.01-3.77c0-0.47,0.38-0.85,0.84-0.85c0,0,0,0,0,0
				c0.46,0,0.84,0.38,0.84,0.84l0.01,3.77C445.92,216.18,445.55,216.56,445.08,216.57C445.08,216.57,445.08,216.57,445.08,216.57z"
				/>
			<path d="M445.12,229.78c-0.46,0-0.84-0.38-0.84-0.84l-0.01-3.77c0-0.47,0.38-0.85,0.84-0.85c0,0,0,0,0,0
				c0.46,0,0.84,0.38,0.84,0.84l0.01,3.77C445.96,229.4,445.58,229.78,445.12,229.78C445.12,229.78,445.12,229.78,445.12,229.78z"/>
		</g>
	</g>
	<g>
		<g>
			<path d="M122.02,49.46c-0.25,0-0.49-0.11-0.66-0.32c-0.29-0.36-0.23-0.9,0.13-1.19c13.37-10.69,40.04-29.43,68.34-34.75
				c0.46-0.09,0.9,0.22,0.99,0.67c0.09,0.46-0.22,0.9-0.67,0.99c-27.95,5.26-54.35,23.82-67.6,34.41
				C122.39,49.4,122.2,49.46,122.02,49.46z"/>
			<path d="M99.38,58.15c-0.22,0-0.43-0.08-0.6-0.25c-0.33-0.33-0.33-0.86,0-1.19c24.4-24.31,46.99-33.27,47.22-33.36
				c0.43-0.17,0.92,0.05,1.09,0.48c0.17,0.43-0.05,0.92-0.48,1.09c-0.22,0.09-22.51,8.94-46.64,32.98
				C99.81,58.07,99.59,58.15,99.38,58.15z"/>
		</g>
		<path d="M204.04,19.26c-0.45,0-0.9-0.06-1.34-0.17c-2.79-0.73-4.46-3.6-3.73-6.39c0.73-2.79,3.6-4.46,6.39-3.73
			c1.35,0.36,2.48,1.22,3.19,2.42s0.9,2.62,0.54,3.97c-0.36,1.35-1.22,2.48-2.42,3.19C205.85,19.02,204.95,19.26,204.04,19.26z
			 M204.03,10.49c-1.57,0-3.01,1.05-3.43,2.64c-0.5,1.89,0.63,3.83,2.52,4.33c0.92,0.24,1.87,0.11,2.69-0.37
			c0.82-0.48,1.4-1.24,1.64-2.16c0.24-0.92,0.11-1.87-0.37-2.69c-0.48-0.82-1.24-1.4-2.16-1.64
			C204.63,10.53,204.33,10.49,204.03,10.49z"/>
	</g>
	<g>
		<g>
			<path d="M41.6,264.9c-0.11,0-0.22-0.02-0.33-0.07l-3.53-1.49c-0.43-0.18-0.63-0.68-0.45-1.11c0.18-0.43,0.68-0.63,1.11-0.45
				l3.53,1.49c0.43,0.18,0.63,0.68,0.45,1.11C42.24,264.71,41.93,264.9,41.6,264.9z"/>
			<path d="M29.25,259.68c-0.11,0-0.22-0.02-0.33-0.07l-3.53-1.49c-0.43-0.18-0.63-0.68-0.45-1.11c0.18-0.43,0.68-0.63,1.11-0.45
				l3.53,1.49c0.43,0.18,0.63,0.68,0.45,1.11C29.89,259.48,29.58,259.68,29.25,259.68z"/>
			<path d="M35.56,257.22c-0.11,0-0.23-0.02-0.34-0.07c-0.43-0.19-0.62-0.69-0.43-1.11l1.52-3.45c0.19-0.43,0.69-0.62,1.11-0.43
				c0.43,0.19,0.62,0.69,0.43,1.11l-1.52,3.45C36.19,257.04,35.88,257.22,35.56,257.22z"/>
			<path d="M30.24,269.32c-0.11,0-0.23-0.02-0.34-0.07c-0.43-0.19-0.62-0.69-0.43-1.11l1.52-3.45c0.19-0.43,0.69-0.62,1.11-0.43
				c0.43,0.19,0.62,0.69,0.43,1.11l-1.52,3.45C30.87,269.13,30.56,269.32,30.24,269.32z"/>
		</g>
		<path d="M28.37,229.71c-0.38,0-0.77-0.05-1.16-0.15c-1.18-0.31-2.16-1.06-2.78-2.11c-0.61-1.05-0.78-2.28-0.47-3.45
			c0.64-2.43,3.14-3.88,5.56-3.25c2.43,0.64,3.88,3.14,3.25,5.56C32.24,228.36,30.39,229.71,28.37,229.71z M28.37,222.29
			c-1.27,0-2.43,0.85-2.77,2.14c-0.2,0.74-0.09,1.51,0.3,2.17c0.39,0.66,1.01,1.13,1.75,1.33c1.53,0.4,3.1-0.51,3.5-2.04
			c0.4-1.53-0.51-3.1-2.04-3.5C28.86,222.32,28.61,222.29,28.37,222.29z"/>
	</g>
</g>
<g>
	<g>
		<g>
			<g>
				<path class="st1" d="M176.47,448.96c1-1.01,6.76-18.93,6.76-18.93l11.38,8.12l-12.48,16.77L176.47,448.96z"/>
				<path d="M182.13,455.77c-0.23,0-0.45-0.09-0.61-0.26l-5.66-5.97c-0.31-0.32-0.31-0.83-0.01-1.15
					c0.68-0.93,3.89-10.27,6.57-18.62c0.08-0.26,0.28-0.46,0.54-0.54c0.26-0.08,0.54-0.04,0.76,0.11l11.38,8.12
					c0.18,0.13,0.31,0.33,0.34,0.56c0.04,0.22-0.02,0.45-0.16,0.63l-12.48,16.77c-0.15,0.2-0.38,0.32-0.63,0.34
					C182.17,455.77,182.15,455.77,182.13,455.77z M177.51,448.82l4.55,4.79l11.37-15.28l-9.74-6.95
					C181.99,436.6,178.87,446.04,177.51,448.82z"/>
			</g>
			<g>
				<path d="M196.99,471.62l-7.57-0.04c-5.01-0.03-9.67-2.57-12.4-6.77l-7.49-11.85c-2.07-3.28-0.91-7.61,2.51-9.43
					c3.12-1.66,6.4-3.28,7.17-3.21c1.56,0.15,2.19,7.52,2.19,7.52l6.74,0.26c0,0,3.33,13.86,6.26,15.43
					c2.14,1.15,3.63,2.83,4.63,4.37C200.08,469.5,198.91,471.63,196.99,471.62z"/>
				<path class="st1" d="M196.22,469.51c-0.04,0-0.08,0-0.13-0.01l-10.36-1.56c-2.58-0.39-4.83-1.9-6.17-4.14l-9.15-15.29
					c-0.24-0.4-0.11-0.92,0.29-1.16c0.4-0.24,0.92-0.11,1.16,0.29l9.15,15.29c1.08,1.81,2.89,3.02,4.98,3.33l10.36,1.56
					c0.46,0.07,0.78,0.5,0.71,0.96C196.99,469.21,196.64,469.51,196.22,469.51z"/>
				<path class="st1" d="M183.44,458.01c-0.37,0-0.71-0.25-0.81-0.62c-0.12-0.45,0.14-0.91,0.59-1.04l5.77-1.57
					c0.45-0.12,0.91,0.14,1.04,0.59c0.12,0.45-0.14,0.91-0.59,1.04l-5.77,1.57C183.59,458,183.51,458.01,183.44,458.01z"/>
				<path class="st1" d="M186.45,460.97c-0.38,0-0.72-0.26-0.82-0.64c-0.11-0.45,0.17-0.91,0.62-1.02l3.87-0.95
					c0.45-0.11,0.91,0.17,1.02,0.62c0.11,0.45-0.17,0.91-0.62,1.02l-3.87,0.95C186.58,460.96,186.51,460.97,186.45,460.97z"/>
			</g>
			<g>
				<polygon class="st1" points="215.31,445.54 228.53,458.82 235.54,456.24 223.35,439.25 				"/>
				<path d="M228.53,459.66c-0.22,0-0.44-0.09-0.6-0.25l-13.22-13.28c-0.17-0.17-0.26-0.41-0.24-0.65c0.02-0.24,0.13-0.46,0.32-0.61
					l8.04-6.28c0.18-0.14,0.41-0.2,0.64-0.17c0.23,0.03,0.43,0.16,0.57,0.34l12.18,16.99c0.15,0.21,0.2,0.49,0.12,0.74
					c-0.08,0.25-0.27,0.45-0.52,0.54l-7.01,2.57C228.73,459.64,228.63,459.66,228.53,459.66z M216.58,445.62l12.16,12.22l5.46-2
					l-11.02-15.37L216.58,445.62z"/>
			</g>
			<g>
				<path d="M224.36,456.74c0,0-0.64,5.65,0.45,10.64c0.58,2.66,2.97,4.53,5.7,4.53h32.44c2.32,0,3.37-2.89,1.59-4.38
					c-5.77-4.83-16.38-12.21-29.42-14.38l-3.64,5.09L224.36,456.74z"/>
				<path class="st1" d="M261.39,468.3h-33.62c-0.47,0-0.84-0.38-0.84-0.84c0-0.47,0.38-0.84,0.84-0.84h33.62
					c0.47,0,0.84,0.38,0.84,0.84C262.24,467.92,261.86,468.3,261.39,468.3z"/>
				<path class="st1" d="M242.63,462.33c-0.11,0-0.22-0.02-0.32-0.06c-0.43-0.18-0.64-0.67-0.46-1.1l1.78-4.32
					c0.18-0.43,0.67-0.64,1.1-0.46c0.43,0.18,0.64,0.67,0.46,1.1l-1.78,4.32C243.28,462.13,242.97,462.33,242.63,462.33z"/>
				<path class="st1" d="M248.49,463.46c-0.09,0-0.18-0.01-0.26-0.04c-0.44-0.15-0.68-0.62-0.54-1.07l1.29-3.89
					c0.15-0.44,0.62-0.68,1.07-0.54c0.44,0.15,0.68,0.62,0.54,1.07l-1.29,3.89C249.17,463.24,248.84,463.46,248.49,463.46z"/>
			</g>
			<path d="M145.35,352.61c0,0,60.4-7.03,78.37,8.52c17.96,15.55-28.35,82.41-28.35,82.41l-14.65-10.86l13.89-47.26l-55.84-15.86
				L145.35,352.61z"/>
			<path d="M112.11,383.39c8.77,2.78,24.47,6.38,46.42,6.09c6.23-0.08,11.99,3.36,14.82,8.91c6.5,12.75,20.57,35.7,43.48,50.57
				l10.94-5.9l-27.93-62.88c-2.55-5.74-7.32-10.2-13.22-12.37l-55.36-20.3c0,0-17.17-4.8-25.58,10.53c-1.5,2.74-4.29-2.16-4.96,0.05
				C98.45,365.67,104.57,380.99,112.11,383.39z"/>
			<path class="st1" d="M212.47,409.44c-0.32,0-0.63-0.19-0.77-0.5l-12.62-28.41c-2.44-5.5-7.09-9.84-12.74-11.92l-26.51-9.72
				c-0.44-0.16-0.66-0.65-0.5-1.08c0.16-0.44,0.65-0.66,1.08-0.5l26.51,9.72c6.08,2.23,11.07,6.9,13.7,12.82l12.62,28.41
				c0.19,0.43,0,0.92-0.43,1.11C212.7,409.42,212.58,409.44,212.47,409.44z"/>
			<path class="st1" d="M197.73,433.87c-0.22,0-0.44-0.09-0.61-0.26c-2.55-2.65-5.05-5.49-7.45-8.45c-0.29-0.36-0.24-0.89,0.13-1.19
				c0.36-0.29,0.89-0.24,1.19,0.13c2.36,2.92,4.84,5.73,7.35,8.35c0.32,0.34,0.31,0.87-0.02,1.19
				C198.15,433.79,197.94,433.87,197.73,433.87z"/>
			<path class="st1" d="M190.33,425.47c-0.25,0-0.49-0.11-0.66-0.31c-1.18-1.45-2.35-2.96-3.48-4.49c-0.28-0.37-0.2-0.9,0.17-1.18
				c0.37-0.28,0.9-0.2,1.18,0.17c1.12,1.51,2.28,3,3.44,4.44c0.29,0.36,0.24,0.89-0.13,1.19
				C190.7,425.41,190.51,425.47,190.33,425.47z"/>
		</g>
		<g>
			<g>
				<path class="st1" d="M159.08,303.82c0,0,5.31,48.24,40.99,51.4l-40.99,0.58c0,0-15.18-30.75-15.79-42.73
					C142.67,301.1,159.08,303.82,159.08,303.82z"/>
				<path d="M159.08,356.65c-0.32,0-0.61-0.18-0.76-0.47c-0.62-1.26-15.26-31.05-15.88-43.06c-0.16-3.15,0.76-5.64,2.75-7.42
					c4.7-4.2,13.64-2.77,14.02-2.71c0.37,0.06,0.66,0.36,0.7,0.74c0.01,0.12,1.39,12.1,7.06,24.29
					c7.54,16.21,18.7,25.08,33.16,26.36c0.45,0.04,0.79,0.42,0.77,0.87c-0.02,0.45-0.38,0.81-0.83,0.81l-40.99,0.58
					C159.09,356.65,159.08,356.65,159.08,356.65z M155.29,304.4c-2.81,0-6.61,0.45-8.97,2.56c-1.59,1.42-2.32,3.46-2.19,6.07
					c0.56,10.86,13.56,37.98,15.47,41.92l32.4-0.46c-11.21-3.51-20.3-12.29-26.58-25.8c-5.01-10.79-6.73-21.41-7.1-24.12
					C157.68,304.5,156.59,304.4,155.29,304.4z"/>
			</g>
			<path class="st2" d="M108.3,273.16c6.92-1.63,9.81-1.65,34.96-0.74c6.15,0.22,13.46,7.94,14.19,14.05
				c-1.95,5.86-10.97,34.8,4.77,57.41c2.23,3.21,5.27,6.73,9.44,10.1c-2.34,1.89-5.98,4.36-10.87,5.81c-8.12,2.41-12.2-0.2-18.74,0
				c-17.3,0.52-23.65,19.79-34.82,17.37c-2.98-0.65-6.94-2.97-10.65-10.78c-2.1-6.47-3.97-14.08-5.01-22.67
				c-2.82-23.29,1.8-42.68,5.92-54.85C98.72,285.02,100.14,275.08,108.3,273.16z"/>
			<path class="st2" d="M163.77,309.23c0,0-4.07-32.62-15.79-35.4c4.52,10.32,5.58,24.79,4.97,41.26L163.77,309.23z"/>
			<g>
				<g>
					<path class="st1" d="M86.99,308.04c-0.09,3.87-0.07,7.42,0.09,10.29c1.03,18.54,3.53,38.06,5.07,54.2
						c0.32,3.42-5.1-1.16-12.1-1.13c-2.01,0.01-3.96,0.73-5.52,2c-2.85,2.31-7.8,6.39-7.22,6.39H93.1c4.07,0,7.43-3.2,7.62-7.26
						l3.46-71.9L86.99,308.04z"/>
					<path d="M93.1,380.64H66.72l-0.24-0.58c-0.25-0.7-0.33-0.93,7.53-7.3c1.73-1.4,3.87-2.18,6.05-2.19
						c3.32-0.02,6.31,0.96,8.48,1.68c1.06,0.35,2.35,0.78,2.78,0.71c0.01-0.06,0.02-0.17,0-0.35c-0.47-4.98-1.03-10.22-1.62-15.77
						c-1.34-12.6-2.73-25.62-3.44-38.46c-0.15-2.78-0.19-6.26-0.1-10.36l0.01-0.54l18.92-8.16l-3.52,73.25
						C101.34,377.1,97.63,380.64,93.1,380.64z M69.22,378.95H93.1c3.63,0,6.6-2.84,6.78-6.46l3.39-70.55l-15.44,6.66
						c-0.07,3.82-0.04,7.08,0.1,9.69c0.71,12.8,2.1,25.8,3.44,38.37c0.59,5.56,1.15,10.81,1.63,15.79c0.08,0.83-0.12,1.45-0.6,1.83
						c-0.9,0.72-2.29,0.26-4.4-0.43c-2.04-0.67-4.83-1.6-7.86-1.6c-0.03,0-0.05,0-0.07,0c-1.79,0.01-3.56,0.65-4.99,1.81
						C71.94,376.6,70.19,378.09,69.22,378.95z"/>
				</g>
				<g>
					<path class="st1" d="M104.18,300.52c-5.36,2.27-11.64,4.94-17.18,7.32c0,0.07,0,0.14,0,0.21l17.18-7.41L104.18,300.52z"/>
					<path d="M86.12,309.34l0.05-2.06l0.5-0.21c4.7-2.02,10.64-4.55,17.19-7.32l1.24-0.52l-0.1,1.98L86.12,309.34z"/>
				</g>
			</g>
			<path class="st2" d="M83.99,315.21c0,0,1.15-19.38,2.82-26.86c3.52-15.75,22.25-15.73,22.25-15.73
				c-4.74,13.02-0.19,28.97-3.38,41.07L83.99,315.21z"/>
		</g>
		<g>
			<g>
				<path class="st1" d="M128.32,272.44l0.69-9.8c0.47-0.03,0.79-0.05,0.89-0.05c2.73-0.03,3.62-0.92,3.86-3.16
					c0.15-1.4,0.2-3.49-0.49-6.1c-0.07-0.28-0.06-0.57,0.06-0.84l0.47-1.1c0.1-0.36-0.03-0.75-0.32-0.98l-0.25-0.2
					c-0.89-0.73-1.63-1.63-2.23-2.63c-0.55-0.92-1.48-2.64-2.11-2.94c-1.8-0.86-9.09-4.67-13.16,1.99
					c-3.18,5.2,2.01,12.35,3.9,14.69c0.46,0.57-3.08,11.67-3.08,11.67l-4.57,1.1c0,0,3.53,6.26,14.24,3.67
					c7.63-1.85,6.42-4.68,6.42-4.68L128.32,272.44z"/>
				<path d="M121.28,279.24c-7.27,0-9.91-4.51-10.04-4.74c-0.13-0.23-0.14-0.51-0.04-0.75c0.11-0.24,0.32-0.42,0.58-0.48l4.11-0.99
					c1.43-4.53,2.84-9.48,2.93-10.62c-2.37-2.99-7.11-10.08-3.81-15.47c2.88-4.71,7.61-5.52,14.05-2.4l0.19,0.09
					c0.73,0.35,1.38,1.4,2.23,2.86l0.24,0.42c0.57,0.96,1.26,1.77,2.04,2.41l0.25,0.2c0.54,0.45,0.78,1.17,0.59,1.85
					c-0.01,0.04-0.02,0.07-0.04,0.11l-0.47,1.1c-0.04,0.09-0.04,0.19-0.02,0.3c0.57,2.16,0.73,4.26,0.51,6.4
					c-0.29,2.75-1.65,3.88-4.69,3.92c-0.02,0-0.06,0-0.11,0l-0.58,8.29l3.54,0.52c0.29,0.04,0.54,0.23,0.65,0.5
					c0.04,0.09,0.37,0.94-0.17,2.03c-0.82,1.63-3.11,2.91-6.82,3.8C124.5,279.05,122.79,279.24,121.28,279.24z M113.44,274.6
					c1.43,1.51,5.13,4.14,12.58,2.34c4.09-0.99,5.31-2.2,5.67-2.84c0.06-0.11,0.1-0.2,0.13-0.29l-3.62-0.53
					c-0.44-0.06-0.75-0.45-0.72-0.89l0.69-9.8c0.03-0.42,0.36-0.75,0.78-0.78c0.49-0.03,0.83-0.05,0.93-0.06
					c2.36-0.03,2.85-0.65,3.03-2.41c0.2-1.94,0.05-3.84-0.46-5.8c-0.12-0.46-0.09-0.96,0.1-1.38l0.43-1.01
					c0-0.03-0.02-0.06-0.04-0.08l-0.25-0.2c-0.93-0.77-1.75-1.72-2.42-2.85l-0.25-0.43c-0.35-0.59-1.15-1.98-1.51-2.19l-0.19-0.09
					c-2.06-1-8.34-4.03-11.88,1.77c-2.81,4.59,1.75,11.13,3.84,13.72c0.31,0.39,0.74,0.92-2.93,12.46c-0.09,0.28-0.32,0.5-0.61,0.56
					L113.44,274.6z"/>
			</g>
			<path d="M117.98,238.15c1.98-0.43,4.25-0.12,5.2-0.47c1.55-0.57,1.59-2.42,3.73-2.94c2.59-0.63,3.67,0.48,4.68,2.02
				c0.17,0.26,0.32,0.54,0.44,0.87c1.63,4.37-0.43,6.5-1.34,7.19c0,0-5.83,3.01-6.82,3.87c-0.93,0.8-2.01,2.71-1.33,5.45
				c0.09,0.35-0.07,0.72-0.37,0.9l0,0c-0.35,0.21-0.8,0.11-1.04-0.24c-0.76-1.1-2.41-3.22-3.59-2.72c-1.48,0.63-1.02,5.07,2.25,5.58
				c1,0.16,1.82,1.18,1.72,2.23c-0.06,0.68-0.71,1.52-1.67,1.74c-0.59,0.13-1.16-0.1-1.68-0.43c-2.13-1.36-8.14-7.13-8.88-12.3
				C108.36,242.66,115.35,238.72,117.98,238.15z"/>
			<path d="M129.75,263.33c-0.01,0-0.02,0-0.03,0c-0.1,0-2.56-0.11-4.34-1.62c-0.33-0.28-0.37-0.77-0.09-1.1
				c0.28-0.33,0.77-0.37,1.1-0.09c1.37,1.16,3.36,1.25,3.38,1.25c0.43,0.02,0.77,0.38,0.75,0.81
				C130.52,262.99,130.17,263.33,129.75,263.33z"/>
		</g>
	</g>
	<g>
		<g>
			<g>
				<path class="st1" d="M226.62,360.17h-79.87c-2.25,0-4.07-1.82-4.07-4.07v-0.66h88v0.66
					C230.69,358.35,228.86,360.17,226.62,360.17z"/>
				<path d="M226.21,361.01h-79.04c-2.93,0-5.32-2.39-5.32-5.32v-0.25c0-0.47,0.38-0.84,0.84-0.84h88c0.47,0,0.84,0.38,0.84,0.84
					v0.25C231.53,358.62,229.14,361.01,226.21,361.01z M143.58,356.29c0.29,1.72,1.78,3.04,3.59,3.04h79.04
					c1.8,0,3.3-1.32,3.59-3.04H143.58z"/>
			</g>
			<g>
				<path class="st1" d="M230.69,355.53h-50.35l16-47.09c0.96-1.47,2.63-2.37,4.42-2.37h42.57c1.93,0,3.17,1.87,2.54,3.53
					c-0.25,0.66-0.52,1.31-0.74,1.98L230.69,355.53z"/>
				<path d="M230.69,356.37h-50.35c-0.27,0-0.53-0.13-0.69-0.35c-0.16-0.22-0.2-0.51-0.11-0.76l16-47.09
					c0.02-0.07,0.05-0.13,0.09-0.19c1.12-1.72,3.04-2.75,5.13-2.75h42.57c1.2,0,2.27,0.56,2.94,1.53c0.64,0.93,0.79,2.11,0.39,3.15
					l-0.22,0.56c-0.18,0.47-0.36,0.92-0.51,1.38l-14.43,43.95C231.38,356.14,231.05,356.37,230.69,356.37z M181.51,354.68h48.56
					l14.24-43.37c0.16-0.5,0.36-0.99,0.54-1.46l0.21-0.55c0.2-0.53,0.13-1.11-0.21-1.59c-0.35-0.51-0.91-0.8-1.55-0.8h-42.57
					c-1.48,0-2.84,0.71-3.65,1.9L181.51,354.68z"/>
			</g>
			<path class="st0" d="M212,330.16c-0.6,1.99,0.32,4.03,2.05,4.55c1.73,0.52,3.62-0.67,4.22-2.66c0.6-1.99-0.32-4.03-2.05-4.55
				C214.49,326.98,212.6,328.17,212,330.16z"/>
			<path class="st1" d="M217.85,356.37h-27.74c-0.47,0-0.84-0.38-0.84-0.84c0-0.47,0.38-0.84,0.84-0.84h27.74
				c0.47,0,0.84,0.38,0.84,0.84C218.69,355.99,218.31,356.37,217.85,356.37z"/>
			<path class="st1" d="M231.97,356.37h-4.92c-0.47,0-0.84-0.38-0.84-0.84c0-0.47,0.38-0.84,0.84-0.84h4.92
				c0.47,0,0.84,0.38,0.84,0.84C232.82,355.99,232.44,356.37,231.97,356.37z"/>
		</g>
	</g>
</g>
<g>
	<g>
		<g>
			<path class="st3" d="M188.99,180.01l3.29-4.84l-4.37-4.67c0.56-1.26,1.01-2.54,1.35-3.85l6.31-0.94l0.43-5.84l-6.12-1.86
				c-0.14-1.35-0.4-2.69-0.76-4l5-3.98l-2.55-5.27l-6.22,1.44c-0.79-1.09-1.68-2.12-2.67-3.08l2.34-5.95l-4.84-3.29l-4.67,4.37
				c-1.26-0.56-2.54-1.01-3.85-1.35l-0.94-6.31l-5.84-0.43l-1.86,6.12c-1.35,0.14-2.69,0.4-4,0.76l-3.98-5l-5.27,2.55l1.44,6.22
				c-1.09,0.79-2.12,1.68-3.08,2.67l-5.95-2.34l-3.29,4.84l4.37,4.67c-0.56,1.26-1.01,2.54-1.35,3.85l-6.31,0.94l-0.43,5.84
				l6.12,1.86c0.14,1.35,0.4,2.69,0.76,4l-5,3.98l2.55,5.27l6.22-1.44c0.79,1.09,1.68,2.12,2.67,3.08l-2.34,5.95l4.84,3.29
				l4.67-4.37c1.26,0.56,2.54,1.01,3.85,1.35l0.94,6.31l5.84,0.43l1.86-6.12c1.35-0.14,2.69-0.4,4-0.76l3.98,5l5.27-2.55l-1.44-6.22
				c1.09-0.79,2.12-1.68,3.08-2.67L188.99,180.01z M157.13,173.03c-6.88-4.68-8.67-14.05-3.99-20.93
				c4.68-6.88,14.05-8.67,20.93-3.99c6.88,4.68,8.67,14.05,3.99,20.93C173.38,175.92,164.01,177.71,157.13,173.03z"/>
		</g>
		<path class="st1" d="M150.11,185.19c-0.04-0.02-0.08-0.04-0.12-0.07l-4.84-3.29c-0.33-0.22-0.46-0.64-0.31-1.01l2.14-5.43
			c-0.73-0.75-1.41-1.53-2.03-2.34l-5.68,1.32c-0.38,0.09-0.78-0.1-0.95-0.45l-2.55-5.27c-0.17-0.36-0.07-0.78,0.23-1.03l4.57-3.64
			c-0.25-1-0.45-2.02-0.58-3.04l-5.59-1.7c-0.38-0.11-0.62-0.48-0.6-0.87l0.43-5.84c0.03-0.39,0.33-0.71,0.72-0.77l5.77-0.86
			c0.28-0.98,0.62-1.96,1.02-2.92l-3.99-4.26c-0.27-0.29-0.3-0.72-0.08-1.05l3.29-4.84c0.22-0.33,0.64-0.46,1.01-0.31l5.43,2.14
			c0.75-0.73,1.53-1.41,2.34-2.03l-1.32-5.68c-0.09-0.38,0.1-0.78,0.45-0.95l5.27-2.55c0.35-0.17,0.78-0.07,1.03,0.23l3.64,4.57
			c1-0.25,2.01-0.45,3.04-0.58l1.7-5.59c0.11-0.38,0.48-0.62,0.87-0.6l5.84,0.43c0.39,0.03,0.71,0.33,0.77,0.72l0.86,5.77
			c0.98,0.28,1.96,0.62,2.92,1.02l4.26-3.99c0.29-0.27,0.72-0.3,1.05-0.08l4.84,3.29c0.33,0.22,0.46,0.64,0.31,1.01l-2.14,5.43
			c0.73,0.75,1.41,1.53,2.03,2.34l5.68-1.32c0.38-0.09,0.78,0.1,0.95,0.45l2.55,5.27c0.17,0.36,0.07,0.78-0.23,1.03l-4.57,3.64
			c0.25,1,0.45,2.02,0.58,3.04l5.59,1.7c0.38,0.11,0.63,0.48,0.6,0.87l-0.43,5.84c-0.03,0.39-0.33,0.71-0.72,0.77l-5.77,0.86
			c-0.28,0.98-0.62,1.96-1.02,2.92l3.99,4.26c0.27,0.29,0.3,0.72,0.08,1.05l-3.29,4.84c-0.22,0.33-0.64,0.46-1.01,0.31l-5.43-2.14
			c-0.75,0.73-1.53,1.41-2.34,2.03l1.32,5.68c0.09,0.38-0.1,0.78-0.45,0.95l-5.27,2.55c-0.36,0.17-0.78,0.07-1.03-0.23l-3.64-4.57
			c-1,0.25-2.02,0.45-3.04,0.58l-1.7,5.59c-0.11,0.38-0.48,0.62-0.87,0.6l-5.84-0.43c-0.39-0.03-0.71-0.33-0.77-0.72l-0.86-5.77
			c-0.98-0.28-1.96-0.62-2.92-1.02l-4.26,3.99C150.78,185.28,150.41,185.33,150.11,185.19z M146.65,180.82l3.72,2.53l4.18-3.91
			c0.25-0.23,0.61-0.29,0.92-0.15c1.21,0.54,2.46,0.98,3.71,1.3c0.33,0.08,0.57,0.36,0.62,0.69l0.84,5.65l4.49,0.33l1.66-5.47
			c0.1-0.32,0.38-0.56,0.72-0.59c1.3-0.14,2.6-0.39,3.86-0.74c0.33-0.09,0.68,0.02,0.89,0.29l3.56,4.48l4.05-1.96l-1.29-5.56
			c-0.08-0.33,0.05-0.67,0.33-0.87c1.04-0.76,2.05-1.63,2.98-2.58c0.24-0.24,0.6-0.32,0.91-0.2l5.32,2.1l2.53-3.72l-3.91-4.18
			c-0.23-0.25-0.29-0.61-0.15-0.92c0.54-1.22,0.98-2.47,1.3-3.71c0.08-0.33,0.36-0.57,0.69-0.62l5.65-0.84l0.33-4.49l-5.47-1.66
			c-0.33-0.1-0.56-0.38-0.59-0.72c-0.14-1.3-0.39-2.6-0.74-3.86c-0.09-0.33,0.02-0.68,0.29-0.89l4.48-3.56l-1.96-4.05l-5.56,1.29
			c-0.33,0.08-0.67-0.05-0.87-0.33c-0.76-1.04-1.63-2.05-2.58-2.98c-0.24-0.24-0.32-0.6-0.2-0.91l2.1-5.32l-3.72-2.53l-4.18,3.9
			c-0.25,0.23-0.61,0.29-0.92,0.15c-1.21-0.54-2.46-0.98-3.71-1.3c-0.33-0.08-0.57-0.36-0.62-0.69l-0.84-5.65l-4.49-0.33l-1.66,5.47
			c-0.1,0.32-0.38,0.56-0.72,0.59c-1.3,0.14-2.6,0.39-3.86,0.74c-0.33,0.09-0.67-0.02-0.89-0.29l-3.56-4.48l-4.05,1.96l1.29,5.56
			c0.08,0.33-0.05,0.67-0.33,0.87c-1.04,0.76-2.04,1.62-2.98,2.58c-0.24,0.24-0.6,0.32-0.91,0.2l-5.32-2.09l-2.53,3.72l3.9,4.18
			c0.23,0.25,0.29,0.61,0.15,0.92c-0.54,1.21-0.98,2.46-1.3,3.71c-0.08,0.33-0.36,0.57-0.69,0.62l-5.65,0.84l-0.33,4.49l5.47,1.66
			c0.32,0.1,0.56,0.38,0.59,0.72c0.14,1.3,0.39,2.6,0.74,3.86c0.09,0.33-0.02,0.68-0.29,0.89l-4.48,3.56l1.96,4.05l5.56-1.29
			c0.33-0.08,0.67,0.05,0.87,0.33c0.76,1.04,1.62,2.04,2.58,2.98c0.24,0.24,0.32,0.6,0.2,0.91L146.65,180.82z M188.46,177.18
			L188.46,177.18L188.46,177.18z M158.42,172.2c-0.79-0.37-1.56-0.8-2.3-1.3c-3.51-2.39-5.89-6-6.68-10.18
			c-0.8-4.17,0.08-8.41,2.47-11.92c2.39-3.51,6-5.89,10.18-6.68s8.41,0.08,11.92,2.47c3.51,2.39,5.89,6,6.68,10.18
			c0.8,4.17-0.08,8.41-2.47,11.92c-2.39,3.51-6,5.89-10.18,6.68C164.74,174,161.4,173.58,158.42,172.2z M171,144.82
			c-2.67-1.24-5.66-1.61-8.6-1.05c-3.73,0.71-6.96,2.83-9.1,5.98c-2.14,3.14-2.92,6.93-2.21,10.66c0.71,3.73,2.83,6.96,5.98,9.1
			c3.14,2.14,6.93,2.92,10.66,2.21c3.73-0.71,6.96-2.83,9.1-5.98c2.14-3.14,2.92-6.93,2.21-10.66c-0.71-3.73-2.83-6.96-5.98-9.1
			C172.4,145.53,171.71,145.14,171,144.82z"/>
	</g>
	<g>
		<path class="st2" d="M311.8,252.51l6.58-9.68l-8.73-9.34c1.12-2.51,2.03-5.09,2.7-7.7l12.63-1.89l0.86-11.68l-12.24-3.72
			c-0.29-2.71-0.8-5.38-1.53-8l10.01-7.96l-5.09-10.54l-12.44,2.89c-1.58-2.18-3.37-4.24-5.34-6.17l4.69-11.9l-9.68-6.58l-9.34,8.73
			c-2.51-1.12-5.09-2.03-7.7-2.7l-1.89-12.63l-11.68-0.86l-3.72,12.24c-2.71,0.29-5.38,0.8-8,1.53l-7.96-10.01l-10.54,5.09
			l2.89,12.44c-2.18,1.58-4.24,3.37-6.17,5.34l-11.9-4.69l-6.58,9.68l8.73,9.34c-1.12,2.51-2.03,5.09-2.7,7.7l-12.63,1.89
			l-0.86,11.68l12.24,3.72c0.29,2.71,0.8,5.38,1.53,8l-10.01,7.96l5.09,10.54l12.44-2.89c1.58,2.18,3.37,4.24,5.34,6.17l-4.69,11.9
			l9.68,6.58l9.34-8.73c2.51,1.12,5.09,2.03,7.7,2.7l1.89,12.63l11.68,0.86l3.72-12.24c2.71-0.29,5.38-0.8,8-1.53l7.96,10.01
			l10.54-5.09l-2.89-12.44c2.18-1.58,4.24-3.37,6.17-5.34L311.8,252.51z M248.05,238.54c-13.77-9.36-17.34-28.1-7.98-41.87
			c9.36-13.77,28.1-17.34,41.87-7.98c13.77,9.36,17.34,28.1,7.98,41.87C280.56,244.32,261.82,247.9,248.05,238.54z"/>
		<path d="M234.92,264.31c-0.04-0.02-0.08-0.04-0.12-0.07l-9.68-6.58c-0.33-0.22-0.46-0.64-0.31-1.01l4.48-11.38
			c-1.71-1.71-3.29-3.53-4.7-5.43l-11.9,2.76c-0.38,0.09-0.78-0.1-0.95-0.45l-5.09-10.54c-0.17-0.36-0.07-0.78,0.23-1.03l9.57-7.62
			c-0.61-2.31-1.06-4.67-1.34-7.04l-11.71-3.56c-0.38-0.11-0.62-0.48-0.6-0.87l0.86-11.68c0.03-0.39,0.33-0.71,0.72-0.77l12.08-1.81
			c0.62-2.28,1.41-4.55,2.37-6.78l-8.35-8.93c-0.27-0.29-0.3-0.72-0.08-1.05l6.58-9.68c0.22-0.33,0.64-0.46,1.01-0.31l11.38,4.48
			c1.71-1.71,3.53-3.29,5.43-4.7l-2.76-11.9c-0.09-0.38,0.1-0.78,0.45-0.95l10.54-5.09c0.35-0.17,0.78-0.08,1.03,0.23l7.62,9.57
			c2.31-0.61,4.67-1.06,7.04-1.34l3.56-11.71c0.11-0.38,0.48-0.63,0.87-0.6l11.68,0.86c0.39,0.03,0.71,0.33,0.77,0.72l1.81,12.08
			c2.28,0.62,4.56,1.41,6.78,2.37l8.93-8.35c0.29-0.27,0.72-0.31,1.05-0.08l9.68,6.58c0.33,0.22,0.46,0.64,0.31,1.01l-4.48,11.38
			c1.71,1.71,3.29,3.53,4.7,5.43l11.9-2.76c0.38-0.09,0.78,0.1,0.95,0.45l5.09,10.54c0.17,0.36,0.07,0.78-0.23,1.03l-9.57,7.62
			c0.61,2.31,1.06,4.67,1.34,7.04l11.71,3.56c0.38,0.12,0.62,0.48,0.6,0.87l-0.86,11.68c-0.03,0.39-0.33,0.71-0.72,0.77l-12.08,1.81
			c-0.62,2.28-1.41,4.56-2.38,6.78l8.35,8.93c0.27,0.29,0.3,0.72,0.08,1.05l-6.58,9.68c-0.22,0.33-0.64,0.46-1.01,0.31l-11.38-4.48
			c-1.71,1.71-3.53,3.29-5.43,4.7l2.76,11.9c0.09,0.38-0.1,0.78-0.45,0.95l-10.54,5.09c-0.36,0.17-0.78,0.07-1.03-0.23l-7.62-9.57
			c-2.31,0.61-4.67,1.06-7.04,1.34l-3.56,11.71c-0.11,0.38-0.48,0.63-0.87,0.6l-11.68-0.86c-0.39-0.03-0.71-0.33-0.77-0.72
			l-1.81-12.08c-2.28-0.62-4.55-1.41-6.78-2.37l-8.93,8.35C235.59,264.4,235.22,264.45,234.92,264.31z M226.62,256.64l8.57,5.82
			l8.85-8.27c0.25-0.23,0.61-0.29,0.92-0.15c2.47,1.1,5.02,2,7.56,2.65c0.33,0.08,0.57,0.36,0.62,0.69l1.79,11.96l10.33,0.76
			l3.53-11.59c0.1-0.32,0.38-0.56,0.72-0.59c2.65-0.28,5.3-0.78,7.87-1.5c0.33-0.09,0.68,0.02,0.89,0.29l7.54,9.48l9.33-4.51
			l-2.74-11.78c-0.08-0.33,0.05-0.67,0.33-0.87c2.13-1.55,4.17-3.31,6.06-5.25c0.24-0.24,0.6-0.32,0.91-0.2l11.27,4.44l5.82-8.57
			l-8.27-8.85c-0.23-0.25-0.29-0.61-0.15-0.92c1.1-2.47,2-5.02,2.65-7.56c0.08-0.33,0.36-0.57,0.69-0.62l11.96-1.79l0.76-10.33
			l-11.59-3.53c-0.33-0.1-0.56-0.38-0.59-0.72c-0.28-2.65-0.78-5.3-1.5-7.87c-0.09-0.33,0.02-0.68,0.29-0.89l9.48-7.54l-4.51-9.33
			l-11.78,2.74c-0.33,0.08-0.67-0.05-0.87-0.33c-1.55-2.13-3.31-4.17-5.25-6.06c-0.24-0.24-0.32-0.6-0.19-0.91l4.44-11.27
			l-8.57-5.82l-8.85,8.27c-0.25,0.23-0.61,0.29-0.92,0.15c-2.47-1.1-5.02-2-7.56-2.65c-0.33-0.08-0.57-0.36-0.62-0.69l-1.79-11.96
			l-10.33-0.76l-3.53,11.59c-0.1,0.32-0.38,0.56-0.72,0.59c-2.65,0.28-5.3,0.79-7.87,1.5c-0.33,0.09-0.68-0.02-0.89-0.29l-7.54-9.48
			l-9.33,4.51l2.74,11.78c0.08,0.33-0.05,0.67-0.33,0.87c-2.13,1.54-4.16,3.31-6.06,5.25c-0.24,0.24-0.6,0.32-0.91,0.2L218,172.3
			l-5.82,8.57l8.27,8.85c0.23,0.25,0.29,0.61,0.15,0.92c-1.1,2.47-2,5.02-2.65,7.56c-0.08,0.33-0.36,0.57-0.69,0.62l-11.96,1.79
			l-0.76,10.33l11.59,3.53c0.33,0.1,0.56,0.38,0.59,0.72c0.28,2.65,0.78,5.3,1.5,7.87c0.09,0.33-0.02,0.68-0.29,0.89l-9.48,7.54
			l4.51,9.33l11.78-2.74c0.33-0.08,0.67,0.05,0.87,0.33c1.54,2.13,3.31,4.17,5.25,6.06c0.24,0.24,0.32,0.6,0.19,0.91L226.62,256.64z
			 M311.28,249.06L311.28,249.06L311.28,249.06z M251.49,238.3c-1.52-0.7-3-1.54-4.43-2.51c-6.84-4.65-11.47-11.69-13.02-19.82
			c-1.55-8.13,0.16-16.38,4.81-23.22c9.6-14.13,28.91-17.81,43.04-8.21c6.84,4.65,11.47,11.69,13.02,19.82
			c1.55,8.13-0.16,16.38-4.81,23.22C281.47,240.28,265,244.54,251.49,238.3z M248.01,234.39c13.35,9.08,31.62,5.6,40.7-7.76
			c4.4-6.47,6.02-14.27,4.55-21.96c-1.47-7.69-5.84-14.34-12.31-18.74c-13.36-9.08-31.62-5.6-40.7,7.76
			c-4.4,6.47-6.02,14.27-4.55,21.96C237.17,223.34,241.54,229.99,248.01,234.39z"/>
	</g>
	<g>
		<g>
			<path class="st3" d="M346.13,332.1l4.49-6.06l-5.37-6.23c0.79-1.59,1.44-3.22,1.94-4.88l8.17-0.89l0.86-7.49l-7.77-2.71
				c-0.11-1.75-0.37-3.48-0.77-5.19l6.65-4.86l-3-6.91l-8.08,1.54c-0.96-1.44-2.06-2.81-3.27-4.1l3.33-7.53l-6.05-4.48l-6.24,5.37
				c-1.59-0.79-3.22-1.43-4.88-1.93l-0.88-8.17l-7.49-0.86l-2.72,7.77c-1.75,0.11-3.48,0.37-5.19,0.77l-4.86-6.64l-6.91,3l1.53,8.07
				c-1.44,0.96-2.82,2.06-4.11,3.27l-7.53-3.32l-4.49,6.06l5.37,6.23c-0.79,1.59-1.44,3.22-1.94,4.88l-8.17,0.89l-0.86,7.49
				l7.77,2.71c0.11,1.75,0.37,3.48,0.77,5.19l-6.65,4.86l3,6.91l8.08-1.54c0.96,1.44,2.06,2.81,3.27,4.1l-3.33,7.53l6.05,4.48
				l6.24-5.37c1.59,0.79,3.22,1.43,4.88,1.93l0.88,8.17l7.49,0.86l2.72-7.77c1.75-0.11,3.48-0.37,5.19-0.77l4.86,6.64l6.91-3
				l-1.53-8.07c1.44-0.96,2.82-2.06,4.11-3.27L346.13,332.1z M305.5,321.46c-8.61-6.37-10.41-18.52-4.03-27.13
				c6.38-8.61,18.53-10.42,27.14-4.05c8.61,6.37,10.41,18.52,4.03,27.13C326.26,326.03,314.11,327.84,305.5,321.46z"/>
		</g>
		<path class="st1" d="M296.28,337.35c-0.05-0.02-0.1-0.05-0.15-0.09l-6.05-4.48c-0.32-0.23-0.43-0.66-0.27-1.02l3.1-7.02
			c-0.97-1.06-1.86-2.18-2.66-3.34l-7.53,1.43c-0.39,0.07-0.78-0.13-0.93-0.49l-3-6.91c-0.16-0.36-0.04-0.78,0.28-1.02l6.2-4.53
			c-0.3-1.39-0.51-2.8-0.63-4.22l-7.25-2.53c-0.37-0.13-0.61-0.5-0.56-0.89l0.86-7.49c0.04-0.39,0.36-0.7,0.75-0.74l7.62-0.83
			c0.43-1.34,0.96-2.67,1.58-3.97l-5.01-5.81c-0.26-0.3-0.27-0.74-0.04-1.05l4.49-6.06c0.23-0.32,0.66-0.43,1.02-0.27l7.02,3.1
			c1.06-0.97,2.18-1.86,3.34-2.66l-1.43-7.53c-0.07-0.39,0.13-0.77,0.49-0.93l6.91-3c0.36-0.16,0.78-0.04,1.02,0.28l4.53,6.2
			c1.39-0.3,2.8-0.51,4.22-0.63l2.53-7.25c0.13-0.37,0.5-0.6,0.89-0.56l7.49,0.86c0.39,0.04,0.7,0.36,0.74,0.75l0.82,7.62
			c1.34,0.43,2.68,0.96,3.97,1.57l5.82-5.01c0.3-0.26,0.74-0.27,1.05-0.04l6.05,4.48c0.32,0.23,0.43,0.66,0.27,1.02l-3.1,7.02
			c0.97,1.06,1.86,2.18,2.66,3.34l7.53-1.43c0.39-0.07,0.77,0.13,0.93,0.49l3,6.91c0.16,0.36,0.04,0.78-0.28,1.02l-6.2,4.53
			c0.3,1.39,0.51,2.8,0.63,4.22l7.25,2.53c0.37,0.13,0.61,0.5,0.56,0.89l-0.86,7.49c-0.05,0.39-0.36,0.7-0.75,0.74l-7.62,0.83
			c-0.43,1.34-0.96,2.67-1.58,3.97l5.01,5.81c0.26,0.3,0.27,0.74,0.04,1.05l-4.49,6.06c-0.23,0.32-0.66,0.43-1.02,0.27l-7.02-3.1
			c-1.06,0.97-2.18,1.86-3.34,2.66l1.43,7.53c0.07,0.39-0.13,0.77-0.49,0.93l-6.91,3c-0.36,0.16-0.78,0.04-1.02-0.28l-4.53-6.2
			c-1.39,0.3-2.8,0.51-4.22,0.63l-2.53,7.25c-0.13,0.37-0.5,0.6-0.89,0.56l-7.49-0.86c-0.39-0.05-0.7-0.36-0.74-0.75l-0.82-7.62
			c-1.34-0.43-2.68-0.96-3.97-1.57l-5.82,5.01C296.93,337.45,296.57,337.49,296.28,337.35z M291.62,331.83l4.97,3.68l5.73-4.93
			c0.26-0.22,0.63-0.27,0.93-0.12c1.54,0.77,3.14,1.4,4.75,1.88c0.33,0.09,0.56,0.38,0.6,0.72l0.81,7.5l6.15,0.7l2.49-7.14
			c0.11-0.32,0.4-0.54,0.74-0.56c1.69-0.11,3.39-0.36,5.05-0.75c0.33-0.08,0.67,0.05,0.87,0.32l4.46,6.1l5.68-2.46l-1.4-7.41
			c-0.06-0.33,0.08-0.67,0.36-0.86c1.4-0.93,2.74-2,4-3.18c0.25-0.23,0.61-0.29,0.92-0.16l6.91,3.05l3.68-4.97l-4.93-5.72
			c-0.22-0.26-0.27-0.62-0.12-0.93c0.77-1.55,1.4-3.14,1.89-4.75c0.1-0.32,0.38-0.56,0.72-0.6l7.5-0.81l0.71-6.15l-7.13-2.49
			c-0.32-0.11-0.54-0.4-0.56-0.74c-0.11-1.7-0.36-3.39-0.75-5.05c-0.08-0.33,0.05-0.67,0.32-0.87l6.1-4.46l-2.46-5.67l-7.41,1.41
			c-0.33,0.06-0.67-0.08-0.86-0.36c-0.93-1.4-2-2.74-3.18-3.99c-0.23-0.25-0.3-0.61-0.16-0.92l3.05-6.91l-4.97-3.68l-5.73,4.93
			c-0.26,0.22-0.61,0.28-0.93,0.12c-1.54-0.77-3.14-1.4-4.75-1.88c-0.33-0.1-0.56-0.38-0.6-0.72l-0.81-7.5l-6.15-0.7l-2.49,7.14
			c-0.11,0.32-0.4,0.54-0.74,0.56c-1.7,0.11-3.39,0.36-5.05,0.75c-0.33,0.08-0.68-0.05-0.87-0.32l-4.46-6.1l-5.68,2.46l1.4,7.41
			c0.06,0.33-0.08,0.67-0.36,0.86c-1.4,0.93-2.74,2-4,3.18c-0.25,0.23-0.61,0.3-0.92,0.16l-6.91-3.05l-3.68,4.97l4.93,5.72
			c0.22,0.26,0.27,0.62,0.12,0.93c-0.77,1.55-1.4,3.14-1.89,4.75c-0.1,0.32-0.38,0.56-0.72,0.6l-7.5,0.81l-0.71,6.15l7.13,2.49
			c0.32,0.11,0.54,0.4,0.56,0.74c0.11,1.7,0.36,3.39,0.75,5.05c0.08,0.33-0.05,0.67-0.32,0.87l-6.1,4.46l2.46,5.67l7.41-1.41
			c0.33-0.06,0.67,0.08,0.86,0.36c0.93,1.39,2,2.74,3.18,3.99c0.23,0.25,0.29,0.61,0.16,0.92L291.62,331.83z M345.9,329.24
			L345.9,329.24L345.9,329.24z M308.33,321.4c-1.23-0.57-2.42-1.27-3.56-2.11c-4.34-3.22-7.17-7.93-7.97-13.28
			c-0.79-5.35,0.54-10.68,3.76-15.03c6.65-8.97,19.35-10.86,28.32-4.22c4.34,3.22,7.17,7.93,7.97,13.28
			c0.79,5.35-0.54,10.68-3.76,15.03C327.28,322.9,316.85,325.34,308.33,321.4z M324.62,286.18c-7.81-3.61-17.37-1.38-22.7,5.8
			c-2.95,3.98-4.18,8.87-3.45,13.78c0.73,4.9,3.32,9.22,7.3,12.17c1.04,0.77,2.13,1.41,3.26,1.93c7.81,3.61,17.37,1.38,22.7-5.8
			c2.95-3.98,4.18-8.87,3.45-13.78c-0.73-4.9-3.32-9.22-7.3-12.17C326.84,287.34,325.75,286.7,324.62,286.18z"/>
	</g>
	<g>
		<path class="st1" d="M134.82,124.72c-0.15-0.07-0.27-0.18-0.36-0.32c-0.24-0.4-0.12-0.92,0.28-1.16c0.97-0.59,1.97-1.17,2.96-1.71
			c0.41-0.22,0.92-0.07,1.14,0.34c0.22,0.41,0.07,0.92-0.34,1.14c-0.97,0.53-1.94,1.09-2.89,1.66
			C135.36,124.83,135.06,124.83,134.82,124.72z"/>
		<path class="st1" d="M143.16,120.42c-0.18-0.08-0.34-0.24-0.42-0.44c-0.18-0.43,0.02-0.92,0.45-1.11c1.89-0.8,3.81-1.5,5.73-2.09
			c0.45-0.14,0.92,0.11,1.05,0.56c0.14,0.45-0.11,0.92-0.56,1.05c-1.86,0.57-3.74,1.26-5.57,2.03
			C143.61,120.53,143.37,120.52,143.16,120.42z M154.64,116.91c-0.24-0.11-0.42-0.33-0.48-0.61c-0.09-0.46,0.21-0.9,0.67-0.99
			c2.02-0.39,4.05-0.66,6.06-0.8c0.47-0.04,0.87,0.32,0.9,0.78c0.03,0.46-0.32,0.87-0.78,0.9c-1.94,0.14-3.91,0.4-5.86,0.78
			C154.98,117.01,154.8,116.98,154.64,116.91z M166.61,116.05c-0.3-0.14-0.51-0.46-0.49-0.81c0.02-0.47,0.42-0.82,0.89-0.8
			c2.04,0.11,4.09,0.35,6.08,0.71c0.46,0.09,0.76,0.53,0.68,0.98c-0.09,0.46-0.53,0.76-0.98,0.68c-1.92-0.35-3.89-0.59-5.86-0.69
			C166.81,116.12,166.7,116.1,166.61,116.05z M178.4,118.24c-0.38-0.18-0.58-0.62-0.45-1.03c0.15-0.44,0.62-0.68,1.07-0.54
			c1.92,0.63,3.83,1.4,5.68,2.29c0.42,0.2,0.6,0.71,0.39,1.13c-0.2,0.42-0.72,0.6-1.13,0.39c-1.78-0.86-3.61-1.6-5.47-2.21
			C178.46,118.27,178.43,118.26,178.4,118.24z"/>
		<path class="st1" d="M191.99,125.4c-0.05-0.02-0.1-0.06-0.15-0.09c-0.89-0.67-1.8-1.31-2.72-1.9c-0.39-0.25-0.5-0.78-0.25-1.17
			c0.25-0.39,0.78-0.5,1.17-0.25c0.95,0.62,1.89,1.28,2.81,1.97c0.37,0.28,0.45,0.81,0.17,1.18
			C192.78,125.46,192.35,125.56,191.99,125.4z"/>
	</g>
	<g>
		<path class="st1" d="M366.68,282.68c-0.15-0.07-0.27-0.18-0.36-0.32c-0.58-0.93-1.19-1.87-1.84-2.77
			c-0.27-0.38-0.18-0.91,0.2-1.18c0.38-0.27,0.91-0.18,1.18,0.2c0.66,0.93,1.3,1.9,1.9,2.86c0.25,0.4,0.12,0.92-0.28,1.16
			C367.23,282.79,366.93,282.8,366.68,282.68z"/>
		<path class="st1" d="M330.51,361.93c-0.23-0.11-0.42-0.32-0.47-0.59c-0.1-0.46,0.2-0.9,0.65-1c2.05-0.43,4.08-0.98,6.05-1.63
			c0.44-0.15,0.92,0.09,1.07,0.54c0.15,0.44-0.09,0.92-0.53,1.07c-2.03,0.67-4.13,1.24-6.24,1.68
			C330.85,362.03,330.67,362.01,330.51,361.93z M342.57,357.93c-0.17-0.08-0.32-0.22-0.41-0.41c-0.2-0.42-0.01-0.92,0.41-1.12
			c1.89-0.88,3.75-1.88,5.51-2.97c0.4-0.24,0.92-0.12,1.16,0.28c0.24,0.4,0.12,0.92-0.27,1.16c-1.82,1.12-3.74,2.16-5.69,3.07
			C343.04,358.04,342.79,358.03,342.57,357.93z M353.38,351.26c-0.12-0.05-0.22-0.14-0.31-0.24c-0.29-0.37-0.23-0.9,0.14-1.19
			c1.63-1.29,3.2-2.69,4.68-4.17c0.33-0.33,0.87-0.33,1.19,0c0.33,0.33,0.33,0.86,0,1.19c-1.52,1.52-3.14,2.97-4.82,4.3
			C354,351.36,353.66,351.39,353.38,351.26z M362.36,342.28c-0.06-0.03-0.12-0.06-0.17-0.1c-0.37-0.29-0.43-0.82-0.14-1.19
			c1.29-1.63,2.5-3.36,3.6-5.13c0.25-0.4,0.77-0.52,1.16-0.27c0.4,0.25,0.52,0.77,0.27,1.16c-1.13,1.83-2.38,3.61-3.71,5.29
			C363.13,342.34,362.7,342.44,362.36,342.28z M369.04,331.47C369.04,331.47,369.04,331.47,369.04,331.47
			c-0.43-0.2-0.61-0.7-0.41-1.12l0.13-0.28c0.83-1.8,1.57-3.66,2.2-5.54c0.15-0.44,0.63-0.68,1.07-0.53
			c0.44,0.14,0.68,0.63,0.53,1.07c-0.64,1.93-1.41,3.85-2.27,5.71l-0.13,0.29C369.96,331.49,369.46,331.67,369.04,331.47z
			 M373.06,319.42c-0.35-0.16-0.55-0.54-0.47-0.94c0.42-2.05,0.72-4.13,0.89-6.2c0.04-0.46,0.45-0.81,0.91-0.77
			c0.47,0.04,0.81,0.45,0.77,0.91c-0.17,2.13-0.48,4.28-0.92,6.4c-0.09,0.46-0.54,0.75-1,0.66
			C373.18,319.47,373.12,319.45,373.06,319.42z M374.09,306.76c-0.28-0.13-0.48-0.4-0.49-0.73c-0.09-2.09-0.31-4.18-0.66-6.22
			c-0.08-0.46,0.23-0.9,0.69-0.97c0.46-0.08,0.9,0.23,0.97,0.69c0.36,2.11,0.59,4.28,0.69,6.43c0.02,0.47-0.34,0.86-0.81,0.88
			C374.34,306.85,374.21,306.82,374.09,306.76z M371.94,294.25c-0.21-0.1-0.38-0.28-0.45-0.52c-0.61-1.98-1.36-3.95-2.22-5.85
			c-0.19-0.42-0.01-0.92,0.42-1.12c0.42-0.19,0.92-0.01,1.12,0.42c0.89,1.96,1.67,4,2.3,6.05c0.14,0.45-0.11,0.92-0.56,1.05
			C372.34,294.35,372.12,294.33,371.94,294.25z"/>
		<path class="st1" d="M320.83,363.13c-0.28-0.13-0.48-0.4-0.49-0.73c-0.02-0.47,0.34-0.86,0.81-0.88c1.12-0.05,2.23-0.12,3.32-0.23
			c0.46-0.04,0.88,0.29,0.92,0.76c0.05,0.46-0.29,0.88-0.76,0.92c-1.12,0.11-2.27,0.19-3.41,0.24
			C321.08,363.22,320.95,363.19,320.83,363.13z"/>
	</g>
	<path class="st1" d="M231.66,287.4C231.66,287.4,231.65,287.4,231.66,287.4c-2.01-0.96-4.03-2.06-6.01-3.27
		c-0.4-0.24-0.52-0.76-0.28-1.16c0.24-0.4,0.76-0.52,1.16-0.28c1.93,1.18,3.9,2.25,5.85,3.18c0.42,0.2,0.6,0.71,0.4,1.13
		C232.57,287.42,232.08,287.6,231.66,287.4z M237.9,289.96c-0.39-0.18-0.58-0.63-0.44-1.04c0.15-0.44,0.63-0.68,1.07-0.52
		c2.13,0.73,4.28,1.32,6.4,1.74c0.46,0.1,0.75,0.54,0.66,0.99c-0.09,0.46-0.54,0.75-0.99,0.66c-2.19-0.44-4.42-1.04-6.62-1.8
		C237.95,289.99,237.93,289.98,237.9,289.96z M251.1,292.58c-0.3-0.14-0.51-0.45-0.49-0.81c0.02-0.47,0.42-0.82,0.89-0.8
		c1.99,0.1,3.99,0.07,5.95-0.11c0.46-0.04,0.87,0.3,0.92,0.77c0.04,0.46-0.3,0.87-0.77,0.92c-2.04,0.18-4.12,0.22-6.19,0.11
		C251.3,292.65,251.2,292.63,251.1,292.58z"/>
	<path class="st1" d="M337.22,241.8c-0.41-0.19-0.6-0.68-0.42-1.1c0.91-2.09,1.72-4.19,2.41-6.23c0.15-0.44,0.63-0.68,1.07-0.53
		c0.44,0.15,0.68,0.63,0.53,1.07c-0.71,2.09-1.53,4.23-2.46,6.36c-0.19,0.43-0.68,0.62-1.11,0.44
		C337.24,241.81,337.23,241.8,337.22,241.8z M341.51,229.02c-0.36-0.16-0.56-0.56-0.47-0.96c0.51-2.19,0.9-4.39,1.16-6.55
		c0.06-0.46,0.48-0.79,0.94-0.74c0.46,0.06,0.79,0.48,0.74,0.94c-0.27,2.22-0.67,4.48-1.2,6.73c-0.11,0.45-0.56,0.74-1.01,0.63
		C341.62,229.07,341.56,229.05,341.51,229.02z M343.1,215.65c-0.29-0.13-0.49-0.43-0.49-0.77c0-2.21-0.13-4.44-0.39-6.63
		c-0.06-0.46,0.27-0.88,0.74-0.94c0.46-0.06,0.88,0.27,0.94,0.74c0.27,2.26,0.41,4.56,0.4,6.83c0,0.47-0.38,0.84-0.85,0.84
		C343.33,215.73,343.21,215.7,343.1,215.65z M341.5,202.28c-0.23-0.1-0.4-0.31-0.47-0.57c-0.52-2.11-1.17-4.26-1.94-6.36
		c-0.16-0.44,0.07-0.92,0.5-1.08c0.44-0.16,0.92,0.06,1.08,0.5c0.79,2.17,1.46,4.37,1.99,6.54c0.11,0.45-0.17,0.91-0.62,1.02
		C341.86,202.38,341.66,202.36,341.5,202.28z M336.9,189.62c-0.17-0.08-0.32-0.22-0.41-0.4c-0.94-1.95-2-3.93-3.16-5.88
		c-0.24-0.4-0.11-0.92,0.29-1.16c0.4-0.24,0.92-0.11,1.16,0.29c1.18,1.99,2.27,4.01,3.23,6c0.2,0.42,0.03,0.92-0.39,1.13
		C337.38,189.73,337.12,189.72,336.9,189.62z"/>
</g>
</svg>
