<?xml version="1.0" encoding="utf-8"?>
<!-- Generator: Adobe Illustrator 25.1.0, SVG Export Plug-In . SVG Version: 6.00 Build 0)  -->
<svg version="1.1" id="Слой_1" xmlns="http://www.w3.org/2000/svg" xmlns:xlink="http://www.w3.org/1999/xlink" x="0px" y="0px"
	 viewBox="0 0 322.71 319.77" style="enable-background:new 0 0 322.71 319.77;" xml:space="preserve">
<style type="text/css">
	.st0{fill:#5479f7;}
</style>
<g>
	<g>
		<path class="st0" d="M11,300.77c-3.86,0-7-3.14-7-7s3.14-7,7-7s7,3.14,7,7S14.86,300.77,11,300.77z M11,289.77c-2.21,0-4,1.79-4,4
			s1.79,4,4,4s4-1.79,4-4S13.21,289.77,11,289.77z"/>
	</g>
	<g>
		<path class="st0" d="M8.58,19.15L0.42,1.01l21.56,2.72L8.58,19.15z M5.35,4.65l4.04,8.99L16.04,6L5.35,4.65z"/>
	</g>
	<g>
		<path class="st0" d="M229.85,84.77H5.15C2.86,84.77,1,86.63,1,88.92v168.71c0,2.29,1.86,4.15,4.15,4.15H151v-14H15v-149h205v67.68
			l14-19.85V88.92C234,86.63,232.14,84.77,229.85,84.77z"/>
		<g>
			<polygon class="st0" points="166.29,230.27 182.86,213.71 173.99,204.04 157.27,219.7 			"/>
			<g>
				
					<rect x="176.45" y="201.43" transform="matrix(0.7071 -0.7071 0.7071 0.7071 -94.961 186.7567)" class="st0" width="3" height="13.16"/>
			</g>
			<path class="st0" d="M223.64,277.82c-1.82-1.75-4.27-2-6.18-3.39c-2.93-2.14-1.13-0.79-1.52-4.58c-0.48-4.7-3.72-7.95-8.25-9.07
				c-3.25-0.81-3.21-0.36-4.68-3.53c-0.88-1.91-1.8-4.77-3.33-6.3c-3.57-3.57-12.58-0.44-12.58-0.44l-3.82-8.47l9.04-9.15
				c0,0,8.89,5.15,11.65,5.9c2.01,0.55,3.97,0.75,5.89,0.69l30.46,30.46c4.67,4.67,4.67,12.3,0,16.97
				c-2.99,2.99-7.2,4.06-11.06,3.21c-0.87-0.18-1.71-0.48-2.53-0.86C227.37,285.14,226.89,280.95,223.64,277.82z"/>
			<g>
				<path class="st0" d="M231.11,291.6c-2.08,0-4.18-0.48-6.13-1.47l1.35-2.68c4.07,2.06,8.97,1.28,12.18-1.93
					c4.09-4.09,4.09-10.75,0-14.84l-28.92-28.92l2.12-2.12l28.92,28.92c5.26,5.26,5.26,13.82,0,19.09
					C238.04,290.24,234.6,291.6,231.11,291.6z"/>
			</g>
			<g>
				<path class="st0" d="M243.74,280.15l-1.41-2.65c2.06-1.09,5.76-4.58,7.01-5.83c2.32-2.31,8.76-9.38,10.38-11.56
					c2.47-3.31,4.46-6.73,6.25-10.75c0.97-2.18,2.04-5.01,2.99-7.51c0.58-1.52,1.11-2.94,1.57-4.07l2.78,1.13
					c-0.45,1.11-0.98,2.5-1.54,4c-0.96,2.54-2.05,5.41-3.05,7.67c-1.89,4.23-3.98,7.83-6.59,11.32c-1.73,2.31-8.24,9.47-10.67,11.89
					C251.27,273.99,246.62,278.62,243.74,280.15z"/>
			</g>
			<g>
				<path class="st0" d="M68.76,171.94h-3c0-0.9,0.02-1.8,0.06-2.69l3,0.13C68.78,170.24,68.76,171.09,68.76,171.94z M69.12,165.51
					l-2.98-0.34c0.16-1.36,0.36-2.72,0.61-4.06l2.95,0.55C69.46,162.92,69.27,164.22,69.12,165.51z M70.54,157.85l-2.91-0.75
					c0.34-1.32,0.73-2.64,1.16-3.93l2.85,0.95C71.23,155.35,70.86,156.61,70.54,157.85z M73.01,150.47l-2.77-1.15
					c0.52-1.26,1.09-2.51,1.7-3.73l2.69,1.34C74.04,148.09,73.5,149.28,73.01,150.47z M76.47,143.51l-2.59-1.52
					c0.69-1.17,1.43-2.33,2.2-3.46l2.47,1.7C77.83,141.3,77.13,142.4,76.47,143.51z M80.87,137.1l-2.35-1.86
					c0.85-1.07,1.74-2.12,2.66-3.12l2.22,2.02C82.52,135.08,81.67,136.08,80.87,137.1z M86.11,131.34l-2.07-2.17
					c0.98-0.94,2.01-1.86,3.06-2.73l1.92,2.31C88.02,129.58,87.05,130.45,86.11,131.34z M92.1,126.36l-1.76-2.43
					c1.11-0.8,2.25-1.57,3.41-2.28l1.58,2.55C94.24,124.87,93.15,125.6,92.1,126.36z M98.72,122.25l-1.4-2.65
					c1.2-0.64,2.45-1.24,3.7-1.79l1.21,2.74C101.04,121.08,99.86,121.65,98.72,122.25z M105.84,119.1l-1.02-2.82
					c1.28-0.46,2.6-0.89,3.9-1.26l0.82,2.89C108.3,118.26,107.06,118.66,105.84,119.1z M113.33,116.97l-0.62-2.94
					c1.33-0.28,2.69-0.52,4.04-0.7l0.41,2.97C115.88,116.48,114.59,116.71,113.33,116.97z M121.03,115.91l-0.21-2.99
					c1.36-0.09,2.73-0.14,4.1-0.14v3C123.63,115.77,122.32,115.82,121.03,115.91z"/>
			</g>
			<g>
				<path class="st0" d="M124.93,231.12c-32.63,0-59.17-26.54-59.17-59.17h3c0,30.97,25.2,56.17,56.17,56.17
					c30.97,0,56.17-25.2,56.17-56.17c0-30.97-25.2-56.17-56.17-56.17v-3c32.63,0,59.17,26.54,59.17,59.17
					S157.55,231.12,124.93,231.12z"/>
			</g>
			<g>
				<path class="st0" d="M168.24,268.16c-2.81,0-5.45-1.09-7.42-3.06c-1.98-1.98-3.06-4.61-3.06-7.42c0-2.81,1.09-5.45,3.06-7.42
					l5.69-5.69l2.12,2.12l-5.69,5.69c-1.41,1.41-2.18,3.29-2.18,5.3c0,2.01,0.78,3.89,2.18,5.3c1.41,1.41,3.29,2.19,5.3,2.19
					c2.01,0,3.89-0.78,5.3-2.19l8.48-8.48c2.92-2.92,2.92-7.68,0-10.6l2.12-2.12c4.09,4.09,4.09,10.75,0,14.85l-8.48,8.48
					C173.68,267.07,171.05,268.16,168.24,268.16z"/>
			</g>
			<g>
				<path class="st0" d="M180.52,281.32c-2.81,0-5.45-1.09-7.42-3.06c-4.09-4.09-4.09-10.75,0-14.85l13.16-13.16
					c4.09-4.09,10.75-4.09,14.85,0c1.98,1.98,3.06,4.61,3.06,7.42c0,2.81-1.09,5.45-3.06,7.42l-13.16,13.16
					C185.97,280.23,183.34,281.32,180.52,281.32z M193.69,250.18c-1.92,0-3.84,0.73-5.3,2.19l-13.16,13.16
					c-2.92,2.92-2.92,7.68,0,10.6c1.41,1.41,3.29,2.19,5.3,2.19c2.01,0,3.89-0.78,5.3-2.19c0,0,13.16-13.16,13.16-13.16
					c1.41-1.41,2.19-3.29,2.19-5.3c0-2.01-0.78-3.89-2.19-5.3C197.53,250.91,195.61,250.18,193.69,250.18z"/>
			</g>
			<g>
				<path class="st0" d="M193.69,293.61c-2.81,0-5.45-1.09-7.42-3.06c-4.09-4.09-4.09-10.75,0-14.85l13.16-13.16
					c4.09-4.09,10.75-4.09,14.85,0c1.98,1.98,3.06,4.61,3.06,7.42c0,2.81-1.09,5.45-3.06,7.42l-13.16,13.16
					C199.13,292.52,196.5,293.61,193.69,293.61z M206.85,262.46c-1.92,0-3.84,0.73-5.3,2.19l-13.16,13.16
					c-2.92,2.92-2.92,7.68,0,10.6c1.41,1.41,3.29,2.19,5.3,2.19c2.01,0,3.89-0.78,5.3-2.19l13.16-13.16
					c1.41-1.41,2.19-3.29,2.19-5.3c0-2.01-0.78-3.89-2.19-5.3C210.69,263.19,208.77,262.46,206.85,262.46z"/>
			</g>
			<g>
				<path class="st0" d="M211.59,301.16c-2.81,0-5.45-1.09-7.42-3.06c-1.98-1.98-3.06-4.61-3.06-7.42c0-2.81,1.09-5.45,3.06-7.42
					l6.18-6.18c1.98-1.98,4.61-3.06,7.42-3.06c2.81,0,5.45,1.09,7.42,3.06c1.98,1.98,3.06,4.61,3.06,7.42s-1.09,5.45-3.06,7.42
					l-6.18,6.18C217.03,300.07,214.4,301.16,211.59,301.16z M217.76,277c-2.01,0-3.89,0.78-5.3,2.19l-6.18,6.18
					c-1.41,1.41-2.19,3.29-2.19,5.3s0.78,3.89,2.19,5.3c1.41,1.41,3.29,2.19,5.3,2.19c2.01,0,3.89-0.78,5.3-2.19
					c0,0,6.18-6.18,6.18-6.18c1.41-1.41,2.19-3.29,2.19-5.3s-0.78-3.89-2.19-5.3C221.66,277.78,219.77,277,217.76,277z"/>
			</g>
			<g>
				<path class="st0" d="M172.75,246.88c-5.78,0-14.06-2.71-14.84-7.91c-0.5-3.35,2.4-5.74,6.42-9.03c1.4-1.15,2.98-2.45,4.66-3.97
					c5.95-5.39,11.21-11.87,15.62-19.27l0.17-0.29l0.28-0.19c5.06-3.39,10.4-6.37,15.85-8.87c8.98-4.11,17.31-6.36,24.75-6.7l0.14,3
					c-7.05,0.32-15,2.48-23.63,6.43c-5.21,2.38-10.31,5.22-15.15,8.44c-4.53,7.54-9.92,14.15-16.01,19.67
					c-1.73,1.57-3.35,2.89-4.77,4.06c-3.38,2.77-5.6,4.6-5.35,6.27c0.41,2.71,6.52,5.4,12.02,5.35
					c10.19-0.1,16.63-10.01,17.81-11.99l0.88-1.46l1.34,1.06c4.46,3.52,9.74,5.98,15.28,7.13c7.69,1.59,14.27,0.37,18.43-0.93
					l0.9,2.86c-4.5,1.41-11.61,2.73-19.93,1c-5.45-1.13-10.68-3.44-15.22-6.72c-2.54,3.72-9.32,11.95-19.46,12.05
					C172.87,246.88,172.81,246.88,172.75,246.88z"/>
			</g>
			<g>
				<polygon class="st0" points="276.4,244.95 219.13,187.69 246.34,160.48 248.46,162.6 223.38,187.69 276.4,240.7 303.66,213.44 
					305.78,215.56 				"/>
			</g>
			<g>
				
					<rect x="160.16" y="217.64" transform="matrix(0.7071 -0.7071 0.7071 0.7071 -111.5092 180.1088)" class="st0" width="3" height="14.03"/>
			</g>
			
				<ellipse transform="matrix(0.2298 -0.9732 0.9732 0.2298 -71.1207 254.025)" class="st0" cx="124.93" cy="171.94" rx="43.57" ry="43.57"/>
			<g>
				<path class="st0" d="M119.58,183.77c0-1.89,0.1-3.59,0.31-5.08c0.21-1.49,0.56-2.86,1.06-4.12c0.5-1.25,1.16-2.42,1.97-3.49
					c0.81-1.07,1.81-2.15,3.01-3.24c0.95-0.84,1.82-1.65,2.64-2.45c0.81-0.79,1.5-1.59,2.09-2.38c0.58-0.79,1.04-1.63,1.36-2.51
					c0.32-0.88,0.48-1.82,0.48-2.82c0-2.37-0.55-4.14-1.65-5.31c-1.1-1.17-2.73-1.76-4.87-1.76c-0.86,0-1.71,0.13-2.53,0.4
					c-0.82,0.27-1.55,0.69-2.19,1.27c-0.64,0.59-1.16,1.33-1.55,2.24c-0.39,0.91-0.6,1.98-0.63,3.24h-12.12
					c0.03-2.93,0.54-5.45,1.54-7.59c1-2.13,2.36-3.89,4.06-5.29c1.7-1.39,3.7-2.43,6-3.11c2.3-0.68,4.77-1.03,7.42-1.03
					c2.93,0,5.54,0.36,7.86,1.09c2.31,0.73,4.26,1.78,5.85,3.16c1.59,1.38,2.81,3.09,3.66,5.14c0.85,2.05,1.27,4.38,1.27,7
					c0,1.84-0.28,3.5-0.84,4.97c-0.56,1.48-1.31,2.87-2.26,4.18c-0.95,1.31-2.03,2.57-3.26,3.78c-1.23,1.21-2.52,2.45-3.89,3.7
					c-0.78,0.72-1.43,1.45-1.94,2.17c-0.52,0.73-0.94,1.49-1.25,2.28c-0.32,0.79-0.54,1.64-0.67,2.55c-0.12,0.91-0.2,1.9-0.23,2.99
					H119.58z M118.47,196.71c0-0.91,0.16-1.74,0.47-2.51c0.32-0.77,0.76-1.44,1.34-2c0.58-0.56,1.28-1.01,2.1-1.34
					c0.82-0.33,1.74-0.5,2.76-0.5c1.02,0,1.94,0.17,2.76,0.5c0.82,0.33,1.52,0.78,2.1,1.34c0.58,0.56,1.02,1.23,1.34,2
					c0.32,0.77,0.48,1.61,0.48,2.51c0,0.88-0.16,1.7-0.48,2.47c-0.31,0.77-0.76,1.44-1.34,2c-0.58,0.56-1.28,1-2.1,1.32
					c-0.82,0.32-1.74,0.47-2.76,0.47c-1.02,0-1.93-0.16-2.76-0.47c-0.82-0.32-1.53-0.76-2.1-1.32c-0.58-0.56-1.02-1.23-1.34-2
					C118.63,198.41,118.47,197.58,118.47,196.71z"/>
			</g>
		</g>
		<g>
			<rect x="34" y="316.77" class="st0" width="28" height="3"/>
		</g>
		<g>
			<rect x="172" y="316.77" class="st0" width="39" height="3"/>
		</g>
		<g>
			<rect x="229" y="316.77" class="st0" width="14" height="3"/>
		</g>
		<path class="st0" d="M126,262.77v14.16c0,3.75-2.44,7.2-6.08,8.1c-5.21,1.28-9.92-2.86-9.92-8.07v-14.19H126z"/>
		<g>
			<path class="st0" d="M175,319.77H60v-17h115V319.77z M63,316.77h109v-11H63V316.77z"/>
		</g>
		<g>
			<path class="st0" d="M84.9,304.17l-2.5-1.67c3.66-5.48,5.59-11.88,5.59-18.48v-22.25h3v22.25C91,291.23,88.89,298.19,84.9,304.17
				z"/>
		</g>
		<g>
			<path class="st0" d="M153.1,304.17c-3.99-5.98-6.1-12.95-6.1-20.15v-22.25h3v22.25c0,6.61,1.93,13,5.59,18.48L153.1,304.17z"/>
		</g>
		<g>
			<path class="st0" d="M155,262.77H5.65c-3.11,0-5.65-2.53-5.65-5.65V88.42c0-3.11,2.53-5.65,5.65-5.65h224.71
				c3.11,0,5.65,2.53,5.65,5.65v65.35h-3V88.42c0-1.46-1.19-2.65-2.65-2.65H5.65C4.19,85.77,3,86.96,3,88.42v168.71
				c0,1.46,1.19,2.65,2.65,2.65H155V262.77z"/>
		</g>
		<g>
			<polygon class="st0" points="154,248.77 14,248.77 14,96.77 222,96.77 222,170.77 219,170.77 219,99.77 17,99.77 17,245.77 
				154,245.77 			"/>
		</g>
		<g>
			<path class="st0" d="M289.66,230.9l-0.36-0.36l2.12-2.12l0.36,0.36L289.66,230.9z M286.47,227.71l-2.83-2.83l2.12-2.12l2.83,2.83
				L286.47,227.71z M280.81,222.05l-2.83-2.83l2.12-2.12l2.83,2.83L280.81,222.05z M275.15,216.4l-2.83-2.83l2.12-2.12l2.83,2.83
				L275.15,216.4z M269.5,210.74l-2.83-2.83l2.12-2.12l2.83,2.83L269.5,210.74z M263.84,205.08l-2.83-2.83l2.12-2.12l2.83,2.83
				L263.84,205.08z"/>
		</g>
	</g>
	<g>
		<g>
			<g>
				<path class="st0" d="M192,75.77h-3V28.64c0-4.89,4.15-8.87,9.25-8.87H223v3h-24.75c-3.45,0-6.25,2.63-6.25,5.87V75.77z"/>
			</g>
			<g>
				<path class="st0" d="M306.76,178.77H263v-3h43.76c3.44,0,6.24-2.63,6.24-5.86V28.63c0-3.23-2.8-5.86-6.24-5.86H292v-3h14.76
					c5.09,0,9.24,3.97,9.24,8.86v141.28C316,174.8,311.86,178.77,306.76,178.77z"/>
			</g>
			<g>
				<polygon class="st0" points="303,165.77 262,165.77 262,162.77 300,162.77 300,41.77 205,41.77 205,74.77 202,74.77 202,38.77 
					303,38.77 				"/>
			</g>
			<g>
				<path class="st0" d="M283,41.77h-62V23.74c0-5.49,4.47-9.97,9.97-9.97h42.07c5.5,0,9.97,4.47,9.97,9.97V41.77z M224,38.77h56
					V23.74c0-3.84-3.12-6.97-6.97-6.97h-42.07c-3.84,0-6.97,3.12-6.97,6.97V38.77z"/>
			</g>
			<g>
				<path class="st0" d="M270,16.77h-36V8.11c0-4.04,3.29-7.33,7.33-7.33h21.34c4.04,0,7.33,3.29,7.33,7.33V16.77z M237,13.77h30
					V8.11c0-2.39-1.94-4.33-4.33-4.33h-21.34c-2.39,0-4.33,1.94-4.33,4.33V13.77z"/>
			</g>
		</g>
		<g>
			<polygon class="st0" points="280.85,76.06 272.85,68.58 274.9,66.39 280.36,71.5 287.93,60.6 290.39,62.32 			"/>
		</g>
		<g>
			<polygon class="st0" points="280.85,110 272.85,102.52 274.9,100.33 280.36,105.44 287.93,94.54 290.39,96.26 			"/>
		</g>
		<g>
			<polygon class="st0" points="280.85,143.94 272.85,136.46 274.9,134.27 280.36,139.38 287.93,128.48 290.39,130.19 			"/>
		</g>
		<g>
			<rect x="218" y="63.77" class="st0" width="46" height="3"/>
		</g>
		<g>
			<rect x="248" y="72.77" class="st0" width="16" height="3"/>
		</g>
		<g>
			<rect x="248" y="97.77" class="st0" width="16" height="3"/>
		</g>
		<g>
			<rect x="248" y="106.77" class="st0" width="16" height="3"/>
		</g>
		<g>
			<rect x="248" y="131.77" class="st0" width="16" height="3"/>
		</g>
		<g>
			<rect x="248" y="139.77" class="st0" width="16" height="3"/>
		</g>
	</g>
	<g>
		<polygon class="st0" points="28.58,228.96 25.92,227.59 43.1,194.04 57.06,215.74 68.11,205.76 70.13,207.99 56.44,220.34 
			43.4,200.04 		"/>
	</g>
	<g>
		<polygon class="st0" points="210,130.77 207,130.77 207,114.77 192,114.77 192,111.77 210,111.77 		"/>
	</g>
	<g>
		
			<rect x="179.36" y="123.71" transform="matrix(0.7072 -0.7071 0.7071 0.7072 -31.0245 175.5136)" class="st0" width="34.02" height="3"/>
	</g>
	<g>
		<g id="gear-5-icon_6_">
			<path class="st0" d="M288.51,318.4l-12.34-0.25l-3.14-9.42c-1.74-0.59-3.42-1.33-5.02-2.2l-9.05,4.08l-8.55-8.9l4.44-8.89
				c-0.93-1.87-1.67-3.84-2.21-5.86l2.9-0.77c0.54,2.05,1.32,4.04,2.31,5.92l0.36,0.68l-4.18,8.36l5.61,5.85l8.52-3.84l0.67,0.39
				c1.83,1.06,3.79,1.92,5.82,2.56l0.73,0.23l2.95,8.86l8.11,0.17l3.31-8.73l0.74-0.2c2.05-0.55,4.05-1.33,5.92-2.32l0.68-0.36
				l8.36,4.18l5.85-5.61l-3.84-8.52l0.39-0.67c1.07-1.85,1.93-3.81,2.55-5.82l0.23-0.74l8.87-2.95l0.16-8.1l-8.74-3.31l-0.2-0.74
				c-0.54-2.04-1.32-4.03-2.31-5.92l-0.36-0.68l4.18-8.36l-5.61-5.84l-8.52,3.84l-0.67-0.39c-1.83-1.06-3.79-1.92-5.82-2.55
				l-0.74-0.23l-3.28-9.87l2.85-0.95l2.8,8.42c1.74,0.59,3.42,1.33,5.02,2.2l9.06-4.09l8.55,8.9l-4.45,8.89
				c0.81,1.65,1.48,3.36,2,5.11l9.29,3.52l-0.25,12.33l-9.42,3.14c-0.58,1.73-1.32,3.41-2.2,5.02l4.08,9.06l-8.9,8.55l-8.88-4.44
				c-1.64,0.81-3.35,1.48-5.11,2L288.51,318.4z M283.14,294.25c-0.11,0-0.21,0-0.32,0c-6.13-0.12-11.6-3.86-13.94-9.53l2.77-1.15
				c1.89,4.56,6.29,7.58,11.23,7.68c3.32,0.07,6.46-1.16,8.86-3.46c2.39-2.3,3.75-5.39,3.81-8.71c0.07-3.32-1.16-6.46-3.46-8.85
				c-2.3-2.39-5.39-3.75-8.7-3.81l0.06-3c4.12,0.08,7.95,1.76,10.81,4.74s4.38,6.87,4.29,10.99c-0.08,4.12-1.76,7.96-4.74,10.81
				C290.93,292.73,287.14,294.25,283.14,294.25z"/>
		</g>
	</g>
	<g>
		<g>
			<path class="st0" d="M139.81,68.77H106v-3h31.11c0.13-3.06-0.12-11.05-5.16-18.83c-6.33-9.76-22.49-11.65-22.65-11.67l-1.48-0.16
				l0.15-1.48c0.01-0.12,1.13-12.26-6.87-21.11C95.39,6.2,86.44,3,74.5,3c-11.44,0-20.21,3.2-26.06,9.51
				c-9.01,9.71-8.09,23.69-8.08,23.83l0.1,1.38l-1.37,0.21c-0.11,0.02-10.79,1.78-17.84,10.33c-4.29,5.21-4.71,12.89-4.29,18.41
				l-2.99,0.22c-0.45-6.07,0.04-14.55,4.97-20.54c6.34-7.7,15.08-10.36,18.38-11.13c-0.04-3.95,0.6-15.78,8.9-24.74
				C52.67,3.53,62.18,0,74.5,0c12.84,0,22.55,3.54,28.85,10.53c7.27,8.06,7.77,18.22,7.68,21.96c4.34,0.71,17.43,3.57,23.43,12.82
				c7.01,10.81,5.59,21.71,5.52,22.17L139.81,68.77z"/>
		</g>
		<g>
			<polygon class="st0" points="56.05,48.78 53.71,46.91 74.33,21.13 94.95,46.91 92.61,48.78 74.33,25.93 			"/>
		</g>
		<g>
			<rect x="73" y="23.77" class="st0" width="3" height="52"/>
		</g>
		<g>
			<rect x="84" y="65.77" class="st0" width="10" height="3"/>
		</g>
	</g>
	<g>
		<polygon class="st0" points="148.55,34.8 145.55,34.65 146.15,22.78 157.24,22.75 149.77,1.24 173.07,11.42 171.87,14.17 
			154.85,6.73 161.45,25.74 149.01,25.77 		"/>
	</g>
</g>
</svg>
