<?xml version="1.0" encoding="utf-8"?>
<!-- Generator: Adobe Illustrator 25.1.0, SVG Export Plug-In . SVG Version: 6.00 Build 0)  -->
<svg version="1.1" id="Слой_1" xmlns="http://www.w3.org/2000/svg" xmlns:xlink="http://www.w3.org/1999/xlink" x="0px" y="0px"
	 viewBox="0 0 327.4 319.77" style="enable-background:new 0 0 327.4 319.77;" xml:space="preserve">
<style type="text/css">
	.st0{fill:#5479f7;}
</style>
<g>
	<g>
		<path class="st0" d="M271.33,155.28h-29.44l-14.72-25.5l14.72-25.5h29.44l14.72,25.5L271.33,155.28z M243.62,152.28h25.98
			l12.99-22.5l-12.99-22.5h-25.98l-12.99,22.5L243.62,152.28z"/>
	</g>
	<g>
		<polygon class="st0" points="8.76,276.3 5.77,276.15 6.37,264.28 17.45,264.25 9.98,242.74 33.28,252.92 32.08,255.67 
			15.06,248.24 21.67,267.24 9.22,267.27 		"/>
	</g>
	<g>
		<path class="st0" d="M312.4,196.28c-4.41,0-8-3.59-8-8c0-4.41,3.59-8,8-8s8,3.59,8,8C320.4,192.69,316.81,196.28,312.4,196.28z
			 M312.4,183.28c-2.76,0-5,2.24-5,5c0,2.76,2.24,5,5,5s5-2.24,5-5C317.4,185.52,315.15,183.28,312.4,183.28z"/>
	</g>
	<g>
		<path class="st0" d="M13.55,81.22L5.4,63.08l21.56,2.72L13.55,81.22z M10.32,66.72l4.04,8.99l6.65-7.65L10.32,66.72z"/>
	</g>
	<g>
		<g>
			<path class="st0" d="M40.02,214.33c-16.55-6.05-26.83-18.95-30.48-24.21c-12.4-17.86-12.95-44.27-1.4-67.29l3.38-6.74l7.62,1.48
				c4.04,0.79,8.31,0.79,12.35,0c3.28-0.64,13.8-5.56,17.58-7.4l0.74-0.36l0.7,0.42c3.01,1.83,11.53,6.7,14.75,7.33
				c4.04,0.79,8.31,0.79,12.35,0l7.62-1.48l3.38,6.74c8.09,16.13,10.39,34.44,6.31,50.22l-2.9-0.75
				c3.91-15.09,1.69-32.63-6.08-48.13l-2.36-4.71l-5.38,1.05c-4.41,0.86-9.08,0.86-13.5,0c-3.84-0.75-12.37-5.71-15.03-7.29
				c-2.95,1.42-13.78,6.55-17.59,7.29c-4.41,0.86-9.08,0.86-13.5,0l-5.38-1.05l-2.36,4.71c-11.06,22.05-10.6,47.26,1.18,64.23
				c3.49,5.03,13.3,17.35,29.05,23.1L40.02,214.33z"/>
		</g>
		<g>
			<path class="st0" d="M43.88,200.16c-12.09-4.41-19.7-13.96-22.4-17.86c-9.11-13.12-9.38-32.78-0.71-50.08l0.51-1.02l1.12,0.22
				c4.37,0.85,8.79,0.85,13.15,0c6.33-1.23,12.23-4.94,13.35-5.67l0.82-0.53l0.82,0.53c0.58,0.38,1.16,0.82,1.78,1.3
				c2.06,1.58,4.63,3.54,8.86,4.37c4.36,0.85,8.79,0.85,13.15,0l1.12-0.22l0.51,1.02c5.65,11.25,7.62,23.57,5.55,34.69l-2.95-0.55
				c1.89-10.15,0.19-21.4-4.79-31.79c-4.37,0.71-8.8,0.65-13.16-0.2c-4.92-0.96-7.92-3.25-10.11-4.93
				c-0.29-0.22-0.56-0.43-0.82-0.62c-2.39,1.47-7.72,4.42-13.56,5.55c-4.37,0.85-8.79,0.92-13.16,0.2
				c-7.69,16.08-7.34,34.04,0.98,46.02c2.54,3.67,9.68,12.64,20.97,16.75L43.88,200.16z"/>
		</g>
		<g>
			<rect x="48.4" y="111.28" class="st0" width="3" height="16"/>
		</g>
		<g>
			<path class="st0" d="M54.34,168.76l-3-0.15l1.07-21.98c0.04-0.78-0.24-1.51-0.77-2.07c-1.07-1.12-3-1.12-4.07,0
				c-0.54,0.56-0.81,1.3-0.77,2.07l1.07,21.98l-3,0.15l-1.07-21.98c-0.08-1.6,0.49-3.13,1.6-4.29c1.11-1.16,2.6-1.8,4.21-1.8
				s3.1,0.64,4.21,1.8c1.11,1.16,1.67,2.69,1.6,4.29L54.34,168.76z"/>
		</g>
		<g>
			<g>
				<path class="st0" d="M49.9,182.28c-3.03,0-5.5-2.47-5.5-5.5c0-3.03,2.47-5.5,5.5-5.5s5.5,2.47,5.5,5.5
					C55.4,179.81,52.93,182.28,49.9,182.28z M49.9,174.28c-1.38,0-2.5,1.12-2.5,2.5c0,1.38,1.12,2.5,2.5,2.5
					c1.38,0,2.5-1.12,2.5-2.5C52.4,175.4,51.27,174.28,49.9,174.28z"/>
			</g>
		</g>
	</g>
	<g>
		<path class="st0" d="M208.4,190.93v88.34h-17.95c-2.23,0-4.05-1.82-4.05-4.05v-21.87c0-3.05-2.19-5.78-5.22-6.14
			c-3.61-0.43-6.66,2.41-6.66,5.98c0,0-6.9,25.08-13.48,25.08l-59.57,1c-1.15,0-2.08-0.93-2.08-2.08v-88.67
			c5.27-3.84,16-4.38,16-4.38v27.55c0,2.81,3.53,15.17,13.49,22.21c9.97,7.04,26.37,8.77,26.37,8.77
			c19.41,0,35.14-15.73,35.14-35.14v-21.86C190.4,185.68,204.8,186.27,208.4,190.93z"/>
		<g>
			<path class="st0" d="M150.9,242.2l-1.53-0.03c-20.15,0-35.97-16.02-35.97-36.47v-25.42h3v25.42c0,18.77,14.5,33.47,33,33.47
				l1.53,0.03c18.44,0,33.47-15.03,33.47-33.5v-26.42h3v26.42C187.4,225.82,171.02,242.2,150.9,242.2z"/>
		</g>
		<g>
			<path class="st0" d="M161.4,279.28h-60.71c-4.57,0-8.29-3.72-8.29-8.29v-84.71h3v84.71c0,2.92,2.37,5.29,5.29,5.29h60.71V279.28z
				"/>
		</g>
		<g>
			<rect x="205.4" y="181.28" class="st0" width="3" height="97"/>
		</g>
		<g>
			<path class="st0" d="M77.15,181.09l-1.7-2.47c1.64-1.13,3.35-2.21,5.08-3.2l1.5,2.6C80.37,178.97,78.73,180,77.15,181.09z"/>
		</g>
		<g>
			<path class="st0" d="M46.4,283.28h-3v-44.21c0-22.06,9.82-42.75,26.95-56.78l1.9,2.32c-16.43,13.45-25.85,33.3-25.85,54.46
				V283.28z"/>
		</g>
		<g>
			<path class="st0" d="M257.4,294.28h-3v-59.14c0-12.8-3.47-25.35-10.02-36.3l2.57-1.54c6.84,11.41,10.45,24.49,10.45,37.84V294.28
				z"/>
		</g>
		<g>
			<path class="st0" d="M198.4,318.28h-20.43c-6.87,0-14.53-4.94-16.71-6.45l1.71-2.47c2,1.39,9,5.92,15,5.92h20.43V318.28z"/>
		</g>
		<g>
			<path class="st0" d="M202.76,318.28H186.4v-3h16.36c1.92,0,3.69-0.89,4.74-2.37l3.08-4.32c1.85-2.59,2.82-5.65,2.82-8.83v-17.68
				c0-1.54-1.37-2.79-3.06-2.79h-20.22c-3.16,0-5.73-2.46-5.73-5.48v-21.37c0-2.4-2.11-4.35-4.71-4.35c-2.6,0-4.71,1.95-4.71,4.35
				l-0.03,0.32c-0.97,4.43-6.2,26.53-13.89,26.53v-3c3.49,0,8.38-12.44,10.93-24.02c0.1-3.97,3.52-7.18,7.71-7.18
				c4.25,0,7.71,3.3,7.71,7.35v21.37c0,1.34,1.25,2.48,2.73,2.48h20.22c3.34,0,6.06,2.6,6.06,5.79v17.68
				c0,3.81-1.17,7.47-3.38,10.57l-3.07,4.32C208.33,316.92,205.65,318.28,202.76,318.28z"/>
		</g>
		<g>
			<rect x="206.4" y="289.28" class="st0" width="8" height="3"/>
		</g>
		<g>
			<rect x="206.4" y="300.28" class="st0" width="8" height="3"/>
		</g>
		<g>
			<rect x="215.4" y="77.28" class="st0" width="27" height="3"/>
		</g>
		<g>
			<polygon class="st0" points="299.4,164.28 212.4,164.28 212.4,112.28 215.4,112.28 215.4,161.28 296.4,161.28 296.4,80.28 
				269.4,80.28 269.4,77.28 299.4,77.28 			"/>
		</g>
		<g>
			<rect x="278.4" y="163.28" class="st0" width="3" height="19"/>
		</g>
		<g>
			<rect x="254.4" y="154.28" class="st0" width="3" height="28"/>
		</g>
		<g>
			<rect x="231.4" y="163.28" class="st0" width="3" height="19"/>
		</g>
		<g>
			<rect x="298.4" y="143.28" class="st0" width="21" height="3"/>
		</g>
		<g>
			<rect x="298.4" y="117.28" class="st0" width="21" height="3"/>
		</g>
		<g>
			<rect x="298.4" y="93.28" class="st0" width="21" height="3"/>
		</g>
		<g>
			<path class="st0" d="M265.4,97.28h-3V64.91l5.36-1.49c10.74-4.37,17.41-14.18,17.41-25.64c0-8.8-3.4-17.27-9.1-22.66
				c-1.28-1.22-3.31-2.11-4.77-2.64l-0.94,20l-14.58,9.64l-14.38-9.67v-19.9c-2.34,0.28-4.47,1.2-6.1,2.67
				c-5.48,4.93-8.76,13.13-8.76,21.92c0,10.42,6.46,20.04,16.47,24.52l6.39,2.21v33.41h-3V66l-4.55-1.58
				c-11.12-4.96-18.31-15.67-18.31-27.29c0-9.77,3.55-18.58,9.75-24.15c2.53-2.27,5.94-3.52,9.61-3.52v0.37l1.5,0l0,2.63
				c0,0,0,18.38,0,18.38l11.4,7.66l11.64-7.69l1.05-22.27L270.27,9c0.21,0.05,5.11,1.34,7.86,3.94
				c6.28,5.95,10.04,15.24,10.04,24.84c0,12.73-7.42,23.64-19.36,28.45l-0.16,0.05l-3.25,0.9V97.28z"/>
		</g>
		<g>
			<path class="st0" d="M256.4,141.28c-6.62,0-12-5.38-12-12c0-6.62,5.38-12,12-12c6.62,0,12,5.38,12,12
				C268.4,135.89,263.01,141.28,256.4,141.28z M256.4,120.28c-4.96,0-9,4.04-9,9c0,4.96,4.04,9,9,9c4.96,0,9-4.04,9-9
				C265.4,124.31,261.36,120.28,256.4,120.28z"/>
		</g>
		<g>
			<path class="st0" d="M163.4,318.28H84.35c-17.07,0-30.96-13.89-30.96-30.96v-48.95c0-33.77,27.48-61.25,61.25-61.25h0.6
				l0.44,0.42c10.64,10.21,23.61,16.31,34.7,16.31v3c-11.68,0-25.23-6.24-36.33-16.72c-31.84,0.32-57.65,26.33-57.65,58.24v48.95
				c0,15.41,12.54,27.96,27.96,27.96h76.04v-37h3V318.28z"/>
		</g>
		<g>
			<path class="st0" d="M247.4,314.28h-3v-79.85c0-29.86-24.29-54.15-54.15-54.15h-4.25c-6.76,6.38-20,16.57-35.62,16.57v-3
				c10.89,0,23.27-5.89,33.98-16.16l0.44-0.42h5.45c31.51,0,57.15,25.64,57.15,57.15V314.28z"/>
		</g>
		<g>
			<rect x="254.4" y="301.28" class="st0" width="3" height="6"/>
		</g>
		<g>
			<g>
				<path class="st0" d="M107.52,96.5l-2.93-0.63c2.17-10.11,7.34-23.55,13.56-29.15l1.53-1.38l0.84,1.87
					c2.15,4.76,6.96,10.52,11.99,14.33c6.32,4.79,20.01,7.29,31.98,3.18c6.48-2.23,14.87-7.34,17.99-19.03l2.9,0.77
					c-3.46,12.97-12.74,18.63-19.91,21.1c-12.91,4.44-27.82,1.64-34.77-3.63c-4.73-3.59-9.31-8.82-11.94-13.56
					C113.84,76.02,109.47,87.39,107.52,96.5z"/>
			</g>
			<g>
				<path class="st0" d="M200.03,96.07l-2.93-0.65c0.03-0.12,2.6-11.86,2.74-24.18c0.11-9.83,0.35-30.29-31.61-41.75
					c-0.23-0.07-29.84-8.86-46.56,13.99l-0.5,0.68l-0.84-0.07c-4.04-0.34-7.88,1.1-11.41,4.26c-5.87,5.26-9.09,13.74-9.24,19.39
					c-0.33,3.91,0.64,17.54,2.86,26.92l-2.92,0.69c-2.38-10.03-3.26-23.88-2.93-27.78c0.16-6.02,3.43-15.36,10.23-21.46
					c3.87-3.47,8.29-5.21,12.82-5.06c18.07-23.77,49.12-14.51,49.44-14.41c30,10.76,33.85,28.6,33.66,44.63
					C202.7,83.92,200.14,95.58,200.03,96.07z"/>
			</g>
			<g>
				<path class="st0" d="M191.45,97.11c-0.42-4.73-1.14-11.57-2.63-16.38c-0.75-2.44-1.81-5.27-2.9-7.77l2.75-1.2
					c1.14,2.6,2.24,5.54,3.02,8.09c1.57,5.09,2.32,12.14,2.75,17L191.45,97.11z"/>
			</g>
			<g>
				<path class="st0" d="M149.75,166.34c-8.28,0-16.07-3.22-21.92-9.08l-10.98-10.98c-8.03-8.03-12.45-18.71-12.45-30.06V94.28h3
					v21.94c0,10.55,4.11,20.48,11.57,27.94l10.98,10.98c5.29,5.29,12.32,8.2,19.8,8.2c7.54,0,14.87-3.1,20.11-8.52l10.4-10.73
					c7.18-7.41,11.13-17.17,11.13-27.49V95.28h3v21.32c0,11.1-4.25,21.61-11.98,29.58l-10.4,10.73
					C166.21,162.91,158.1,166.34,149.75,166.34z"/>
			</g>
			<g>
				<g>
					<path class="st0" d="M149.96,142.34c-5.15,0-12.03-3.75-12.32-3.91l1.45-2.63c0.06,0.04,6.49,3.54,10.87,3.54
						c4.87,0,10.77-3.48,10.83-3.52l1.54,2.58C162.06,138.56,155.65,142.34,149.96,142.34z"/>
				</g>
				<g>
					<path class="st0" d="M150.03,128.4c-4.29,0-6.98-2.16-7.09-2.26l-0.55-0.45l-0.02-24.99c0-2.44-1.99-4.43-4.44-4.43H123.4v-3
						h14.54c4.1,0,7.43,3.33,7.44,7.43l0.02,23.48c0.8,0.46,2.43,1.22,4.64,1.22c3.18,0,5.16-1.56,5.18-1.57l1.91,2.32
						C157.01,126.24,154.32,128.4,150.03,128.4z"/>
				</g>
				<g>
					<rect x="160.4" y="93.28" class="st0" width="16" height="3"/>
				</g>
				<g>
					<path class="st0" d="M122.12,175.51l-1.66-2.5c8.19-5.43,7.74-16.89,7.73-17.01l3-0.15
						C131.22,156.4,131.75,169.13,122.12,175.51z"/>
				</g>
				<g>
					<path class="st0" d="M178.56,175.95c-9.62-6.38-9.16-19.71-9.14-20.27l3,0.13c0,0.12-0.39,12.21,7.8,17.64L178.56,175.95z"/>
				</g>
				<g>
					<path class="st0" d="M155.74,151.42c-0.03-0.01-2.92-1.51-6.05-1.51c-3.04,0-5.35,1.43-5.38,1.45l-1.62-2.52
						c0.12-0.08,3.04-1.93,7-1.93c3.89,0,7.31,1.79,7.45,1.86L155.74,151.42z"/>
				</g>
				<g>
					<circle class="st0" cx="129.9" cy="105.78" r="3.5"/>
				</g>
				<g>
					<circle class="st0" cx="167.9" cy="105.78" r="3.5"/>
				</g>
			</g>
			<g>
				<path class="st0" d="M194.6,120.73l-2.94-0.58c0.39-1.97,1.78-3.22,3.26-4.55c2.03-1.83,4.33-3.9,5.49-8.64
					c1.15-4.74,0.66-8.07-1.39-9.38c-1.67-1.07-4.15-0.59-5.48,0.48l-1.87-2.35c2.15-1.72,6.03-2.53,8.96-0.66
					c1.86,1.19,4.69,4.41,2.69,12.62c-1.38,5.65-4.28,8.26-6.39,10.16C195.56,119.05,194.79,119.79,194.6,120.73z"/>
			</g>
			<g>
				<path class="st0" d="M105.08,120.56c-0.19-0.95-0.92-1.67-2.21-2.85c-2.02-1.86-4.79-4.4-6.16-10.04
					c-1.8-7.4,0.31-10.79,2.41-12.33c2.79-2.05,6.5-1.53,8.76-0.17l-1.54,2.57c-1.49-0.89-3.83-1.17-5.44,0.01
					c-1.92,1.42-2.37,4.68-1.27,9.2c1.16,4.75,3.35,6.77,5.27,8.54c1.41,1.29,2.74,2.52,3.12,4.48L105.08,120.56z"/>
			</g>
		</g>
	</g>
	<g>
		<g>
			<g>
				<polygon class="st0" points="327.4,287.28 263.4,287.28 263.4,284.28 324.4,284.28 324.4,237.28 263.4,237.28 263.4,234.28 
					327.4,234.28 				"/>
			</g>
			<g>
				
					<rect x="308.26" y="260.03" transform="matrix(0.7071 -0.7071 0.7071 0.7071 -102.0461 298.8755)" class="st0" width="3" height="25.17"/>
			</g>
			<g>
				
					<rect x="263.9" y="268.39" transform="matrix(0.7181 -0.6959 0.6959 0.7181 -110.7469 266.3661)" class="st0" width="19.05" height="3"/>
			</g>
			<g>
				<path class="st0" d="M290.47,270.14c-0.02,0-0.04,0-0.06,0c-1.12-0.02-2.18-0.47-2.96-1.28l-19.71-20.41l2.16-2.08l19.7,20.4
					c0.22,0.23,0.52,0.36,0.85,0.36c0.3,0,0.63-0.12,0.86-0.34l26.42-25.72l2.09,2.15l-26.42,25.72
					C292.61,269.71,291.57,270.14,290.47,270.14z"/>
			</g>
		</g>
		<g>
			<g>
				<rect x="290.4" y="214.28" class="st0" width="3" height="8"/>
			</g>
			<g>
				
					<rect x="273.46" y="219.65" transform="matrix(0.7768 -0.6298 0.6298 0.7768 -79.4043 223.0512)" class="st0" width="3" height="7.79"/>
			</g>
			<g>
				
					<rect x="306.02" y="222.04" transform="matrix(0.6298 -0.7768 0.7768 0.6298 -58.9071 323.4818)" class="st0" width="7.79" height="3"/>
			</g>
		</g>
	</g>
	<g>
		<g id="gear-5-icon_8_">
			<path class="st0" d="M90.32,90.57l-12.66-0.26l-3.54-10.66c-2.02-0.68-3.99-1.54-5.85-2.57l-10.24,4.62l-9.5-9.89l5.03-10.05
				c-0.96-1.91-1.74-3.91-2.33-5.95l-10.5-3.98L41,38.13l10.66-3.54c0.67-2.01,1.53-3.97,2.57-5.85l-4.61-10.24l9.89-9.5l10.05,5.02
				c1.91-0.95,3.9-1.73,5.95-2.33l3.98-10.5l13.72,0.28l3.55,10.65c2.03,0.68,3.99,1.54,5.85,2.57l10.24-4.61l9.5,9.89l-5.03,10.05
				c1.07,2.14,1.92,4.39,2.54,6.7l-2.9,0.77c-0.62-2.34-1.51-4.62-2.64-6.76l-0.36-0.68l4.77-9.53l-6.57-6.84l-9.7,4.37l-0.67-0.39
				c-2.08-1.21-4.32-2.19-6.65-2.92l-0.73-0.23L91.01,4.42l-9.49-0.19l-3.77,9.95l-0.74,0.2c-2.34,0.63-4.62,1.52-6.77,2.65
				l-0.68,0.36l-9.52-4.76l-6.84,6.57l4.37,9.71l-0.39,0.67c-1.23,2.11-2.21,4.35-2.91,6.65l-0.23,0.74l-10.1,3.36l-0.19,9.48
				l9.95,3.77l0.2,0.74c0.62,2.33,1.51,4.6,2.64,6.76l0.36,0.68l-4.77,9.52l6.57,6.84l9.71-4.38l0.67,0.39
				c2.09,1.22,4.33,2.2,6.65,2.92l0.74,0.23l3.36,10.1l10.54,0.21L90.32,90.57z M85.07,63.18c-4.62-0.09-8.92-1.98-12.12-5.31
				c-3.2-3.33-4.91-7.71-4.82-12.33c0.19-9.53,8.08-17.14,17.64-16.94c6.88,0.14,13.02,4.34,15.64,10.69l-2.77,1.15
				c-2.17-5.25-7.25-8.72-12.93-8.84c-7.86-0.16-14.43,6.12-14.59,14c-0.08,3.82,1.34,7.44,3.98,10.19
				c2.64,2.75,6.2,4.31,10.02,4.39L85.07,63.18z"/>
		</g>
	</g>
</g>
</svg>
