<?xml version="1.0" encoding="utf-8"?>
<!-- Generator: Adobe Illustrator 25.1.0, SVG Export Plug-In . SVG Version: 6.00 Build 0)  -->
<svg version="1.1" id="Слой_1" xmlns="http://www.w3.org/2000/svg" xmlns:xlink="http://www.w3.org/1999/xlink" x="0px" y="0px"
	 viewBox="0 0 330.31 335.15" style="enable-background:new 0 0 330.31 335.15;" xml:space="preserve">
<style type="text/css">
	.st0{fill:#5479f7;}
</style>
<g>
	<g>
		<polygon class="st0" points="285.49,225.31 282.97,223.69 289.37,213.67 299.01,219.14 303.18,196.75 318.37,217.14 
			315.97,218.93 304.87,204.04 301.19,223.83 290.36,217.69 		"/>
	</g>
	<g>
		<path class="st0" d="M277.31,280.12c-3.86,0-7-3.14-7-7s3.14-7,7-7s7,3.14,7,7S281.17,280.12,277.31,280.12z M277.31,269.12
			c-2.21,0-4,1.79-4,4s1.79,4,4,4s4-1.79,4-4S279.52,269.12,277.31,269.12z"/>
	</g>
	<g>
		<path class="st0" d="M144.4,30.41l-8.15-18.15l21.56,2.72L144.4,30.41z M141.17,15.91l4.04,8.99l6.65-7.65L141.17,15.91z"/>
	</g>
	<g>
		<g>
			<path class="st0" d="M46.02,80.08c-2.56,0-4.89-0.6-6.43-1.99c-3.66-3.3-2.34-11.42,0.77-17.38l2.66,1.39
				c-2.84,5.46-3.51,11.89-1.42,13.77c2.3,2.08,9.15,1.36,13.56-1.42l1.6,2.54C53.76,78.87,49.65,80.08,46.02,80.08z"/>
		</g>
		<g>
			<path class="st0" d="M72.56,50.67c-2.15,0-4.31-0.76-6.03-2.31c-1.79-1.61-2.84-3.82-2.97-6.23c-0.13-2.4,0.69-4.71,2.31-6.5
				c1.61-1.79,3.82-2.84,6.23-2.97c2.4-0.13,4.71,0.69,6.5,2.31c1.79,1.61,2.84,3.82,2.97,6.23c0.12,2.4-0.69,4.71-2.31,6.5
				C77.48,49.67,75.03,50.67,72.56,50.67z M72.57,35.65c-0.11,0-0.21,0-0.32,0.01c-1.6,0.08-3.08,0.79-4.16,1.98
				c-1.08,1.19-1.62,2.73-1.54,4.34c0.08,1.6,0.79,3.08,1.98,4.16c2.46,2.22,6.27,2.02,8.49-0.44c1.08-1.19,1.62-2.73,1.54-4.34
				c-0.08-1.6-0.79-3.08-1.98-4.16C75.48,36.19,74.06,35.65,72.57,35.65z"/>
		</g>
		<g>
			<polygon class="st0" points="57.28,47.18 53.88,32.78 63.61,23.18 65.72,25.31 57.19,33.73 60.2,46.49 			"/>
		</g>
		<g>
			<polygon class="st0" points="17.46,69.39 16.15,66.69 29.65,60.12 44.31,60.08 44.31,63.08 30.35,63.12 			"/>
		</g>
		<g>
			
				<rect x="16.3" y="49.77" transform="matrix(0.9946 -0.1035 0.1035 0.9946 -5.1811 2.7287)" class="st0" width="14.79" height="3"/>
		</g>
		<g>
			<polygon class="st0" points="82.67,58.71 70.02,57.09 70.4,54.11 81.38,55.52 88.86,46.16 91.21,48.04 			"/>
		</g>
		<g>
			<path class="st0" d="M81.87,70.1l-16.39-6.49l0.74-1.47c2.27-4.48,1.77-8.98-1.29-11.75c-2.95-2.66-7.32-2.78-11.42-0.32
				l-1.29,0.77l-9.6-16.06l3.06-12.84l2.92,0.7l-2.78,11.65l7.46,12.48c4.89-2.38,10.01-1.9,13.65,1.38
				c3.7,3.33,4.67,8.64,2.63,13.84l12.37,4.9l11.34-3.99l1,2.83L81.87,70.1z"/>
		</g>
		<g>
			<polygon class="st0" points="52.07,98.39 49.25,97.36 54.18,83.79 54.54,73.34 57.54,73.44 57.17,84.37 			"/>
		</g>
		<g>
			
				<rect x="65.25" y="82.5" transform="matrix(0.9978 -0.0657 0.0657 0.9978 -5.785 4.5822)" class="st0" width="3" height="15.44"/>
		</g>
		<g>
			<path class="st0" d="M54.43,112.52c-12.71,0-24.89-4.45-34.7-12.76C8.76,90.48,2.06,77.47,0.87,63.14
				c-1.19-14.33,3.27-28.28,12.56-39.26C32.61,1.23,66.64-1.6,89.29,17.58c10.98,9.29,17.69,22.3,18.88,36.64
				c1.19,14.33-3.27,28.27-12.56,39.24c-9.29,10.98-22.3,17.68-36.63,18.87C57.46,112.46,55.94,112.52,54.43,112.52z M15.72,25.82
				C6.94,36.19,2.73,49.36,3.86,62.89c1.13,13.53,7.45,25.81,17.81,34.58c10.37,8.78,23.53,12.99,37.06,11.87
				c13.53-1.12,25.82-7.45,34.59-17.82c8.77-10.36,12.99-23.52,11.86-37.05c-1.13-13.53-7.46-25.82-17.83-34.6
				C65.97,1.76,33.83,4.43,15.72,25.82L15.72,25.82z"/>
		</g>
		<g>
			
				<rect x="50.72" y="8.89" transform="matrix(0.6742 -0.7385 0.7385 0.6742 -28.0297 58.4316)" class="st0" width="3" height="104.19"/>
		</g>
	</g>
	<g>
		<path class="st0" d="M164.31,153.36v-51.24h-60.59c-8.81,10.03-20.81,17.14-34.41,19.75v106.25h95v-11.48
			c-3.17-1.68-4.45-5.53-4.6-8.93c-0.08-1.79,4.6-9.7,4.6-9.7c-5.82,0.44-12.21-7.15-11.11-11.59c0.56-2.25,1.92-3.96,3.68-5.1
			c0.06-0.05,0.11-0.1,0.17-0.15c0.74-0.58,1.56-0.97,2.4-1.23c0.37-0.83,0.88-1.59,1.47-2.17c0.9-0.91,5.9-2.2,7.17-2.52
			c0,0-7.65-3.89-8.96-8.66c-0.77-1.59-1-3.42-0.5-5.23C159.07,159.72,163.05,153.64,164.31,153.36z"/>
		<path class="st0" d="M260.18,255.25l0.86-11.3l-10.27-4.29c-0.54-2.45-1.37-4.81-2.46-7.04l5.54-9.29l-7.79-8.57l-10.46,3.88
			c-2.16-1.34-4.5-2.47-6.97-3.33l-2.99-10.29l-11.87-0.82l-4.51,9.78c-2.58,0.52-5.06,1.31-7.4,2.34l-6.55-4.87v10.04
			c0,4.21-3.42,7.63-7.63,7.63h-7.37v23l1.94,1.36c0.55,2.45,1.38,4.81,2.46,7.04l-5.53,9.29l7.79,8.57l10.46-3.88
			c2.16,1.34,4.49,2.46,6.97,3.33l2.98,10.29l11.87,0.82l4.52-9.77c2.57-0.52,5.05-1.31,7.4-2.34l9.76,5.27l9-7.42l-4.08-9.95
			c1.41-2.05,2.6-4.27,3.5-6.63L260.18,255.25z M229.89,246.32c-0.62,8.5-8,14.89-16.5,14.28c-8.5-0.61-14.89-8-14.27-16.5
			c0.62-8.5,8-14.89,16.5-14.27C224.11,230.44,230.51,237.83,229.89,246.32z"/>
		<path class="st0" d="M114.87,280.12c-11.99,0-21.48,0-30.37,0c-17.91,0-26.07-12.17-24.22-28.67c0.4-3.59,1.54-6.41,2.44-8.22
			c0.6,5.73-0.17,16.44,7.49,21.96c6.96,5.01,17.9,3.11,25.4,2.49c11.05-0.92,26.65-1.41,46.8,0.5c7.77,0.27,3.52,6.67-0.19,10.91
			c0,0-18.8,17.68-27.46,16.51C126.35,292.35,121.24,280.12,114.87,280.12z"/>
		<g>
			<path class="st0" d="M171.31,152.12h-3V94.51c0-8.49-6.9-15.39-15.39-15.39h-38.61v-3h38.61c10.14,0,18.39,8.25,18.39,18.39
				V152.12z"/>
		</g>
		<g>
			<path class="st0" d="M152.92,270.12H80.7c-10.14,0-18.39-8.25-18.39-18.39V133.12h3v118.61c0,8.49,6.9,15.39,15.39,15.39h72.22
				c8.49,0,15.39-6.9,15.39-15.39v-29.61h3v29.61C171.31,261.87,163.06,270.12,152.92,270.12z"/>
		</g>
		<g>
			<path class="st0" d="M100.74,305.4l-1.76-2.43c3.43-2.48,7.89-4.31,13.05-6.44c11-4.53,24.68-10.16,33.65-25.12l2.57,1.54
				c-9.48,15.81-23.68,21.65-35.08,26.35C108.19,301.36,103.88,303.13,100.74,305.4z"/>
		</g>
		<g>
			<path class="st0" d="M34.82,252.22l-2.94-0.58c1.55-7.91-3.93-25.01-6.87-34.2c-0.57-1.79-1.08-3.36-1.45-4.61
				c-2.8-9.34,1.73-20.58,6.97-33.59c5.38-13.34,11.48-28.47,11.65-45.65c0.08-7.83,5.37-12.22,10.55-12.52
				c5.19-0.3,10.91,3.39,12.03,12.29l-2.98,0.37c-0.93-7.45-5.36-9.87-8.88-9.66c-3.67,0.21-7.66,3.29-7.72,9.56
				c-0.18,17.75-6.39,33.15-11.87,46.74c-5.03,12.49-9.38,23.27-6.88,31.61c0.37,1.24,0.87,2.79,1.44,4.56
				C31.1,226.63,36.52,243.55,34.82,252.22z"/>
		</g>
		<g>
			<path class="st0" d="M168.92,176.09c-3.92,0-7.75-1.94-10.01-5.49c-3.5-5.51-1.86-12.83,3.65-16.33l11.33-7.19
				c5.51-3.5,12.83-1.86,16.33,3.65c3.5,5.51,1.86,12.83-3.65,16.33l-11.33,7.19C173.28,175.5,171.09,176.09,168.92,176.09z
				 M180.21,148.25c-1.62,0-3.25,0.44-4.72,1.37l-11.33,7.19c-4.11,2.61-5.33,8.08-2.72,12.19c2.61,4.11,8.08,5.33,12.19,2.72
				l11.33-7.19c4.11-2.61,5.33-8.08,2.72-12.19C186,149.7,183.13,148.25,180.21,148.25z"/>
		</g>
		<g>
			<path class="st0" d="M163.88,199.64c-1.86,0-3.72-0.45-5.42-1.34c-2.79-1.45-4.85-3.89-5.79-6.87
				c-1.95-6.18,1.49-12.79,7.67-14.74l12.95-4.09c6.18-1.95,12.79,1.49,14.74,7.67c1.95,6.18-1.49,12.79-7.67,14.74l-12.95,4.09
				C166.25,199.45,165.06,199.64,163.88,199.64z M176.81,175.05c-0.87,0-1.75,0.13-2.63,0.41l-12.95,4.09
				c-4.6,1.45-7.16,6.37-5.71,10.97c0.7,2.22,2.23,4.03,4.31,5.12c2.08,1.08,4.44,1.29,6.66,0.59l12.95-4.09
				c4.6-1.45,7.16-6.37,5.71-10.97C183.98,177.44,180.53,175.05,176.81,175.05z"/>
		</g>
		<g>
			<path class="st0" d="M169.27,218.95c-2.95,0-5.75-1.12-7.9-3.18c-2.22-2.12-3.47-4.96-3.54-8.01c-0.07-3.05,1.06-5.95,3.18-8.16
				c2.12-2.22,4.96-3.47,8.01-3.54l4.97-0.11c3.06-0.07,5.95,1.06,8.16,3.18c2.22,2.12,3.47,4.96,3.54,8.01
				c0.14,6.31-4.88,11.56-11.19,11.7l-4.97,0.11C169.44,218.95,169.35,218.95,169.27,218.95z M174.24,198.94c-0.06,0-0.13,0-0.19,0
				l-4.97,0.11c-2.25,0.05-4.35,0.98-5.91,2.62c-1.57,1.64-2.4,3.78-2.35,6.02c0.05,2.25,0.98,4.35,2.62,5.91
				c1.64,1.57,3.79,2.4,6.02,2.35l4.97-0.11c4.66-0.1,8.37-3.98,8.26-8.64c-0.05-2.25-0.98-4.35-2.62-5.91
				C178.48,199.77,176.42,198.94,174.24,198.94z"/>
		</g>
		<g>
			<path class="st0" d="M168.31,135.92v-28.59l6.19-3.93c4.78-3.03,11.08-2.49,14.99,1.28c2.72,2.62,4.07,6.26,3.69,9.96
				c-0.38,3.72-2.39,7-5.53,8.99L168.31,135.92z M171.31,108.98v21.48l14.74-9.36c2.36-1.49,3.87-3.96,4.15-6.76
				c0.28-2.79-0.73-5.52-2.79-7.5c-2.93-2.82-7.68-3.21-11.3-0.91C176.11,105.94,171.31,108.98,171.31,108.98z"/>
		</g>
		<g>
			<polygon class="st0" points="85.64,330.91 83.6,328.71 94.06,319.02 33.24,253.39 10.83,273.31 8.84,271.06 33.45,249.2 
				98.3,319.18 			"/>
		</g>
		<path class="st0" d="M34.27,275.76c1.67,2.77,0.78,6.37-1.99,8.04c-2.77,1.67-6.37,0.78-8.04-1.99c-1.67-2.77-0.78-6.37,1.99-8.04
			C29,272.1,32.6,273,34.27,275.76z"/>
		<g>
			<path class="st0" d="M133.31,205.12h-3v-35.35l0.68-0.44c8.92-5.86,14.47-15.87,14.47-26.12c0-11.19-6.4-21.81-16.14-27.14v23.6
				l-14,10.86l-14-10.86v-23.65c-9.61,5.08-16.14,15.92-16.14,27.18c0,10.25,5.54,20.26,14.47,26.12l0.68,0.44v24.35h-3v-22.75
				c-9.36-6.46-15.14-17.18-15.14-28.17c0-13.23,8.25-25.95,20.06-30.93l2.08-0.88v26.81l11,8.54l11-8.54v-26.86l2.11,0.94
				c11.98,5.36,20.03,17.78,20.03,30.92c0,10.99-5.78,21.71-15.14,28.17V205.12z"/>
		</g>
		<g>
			<rect x="130.31" y="210.12" class="st0" width="3" height="6"/>
		</g>
		<g>
			<g id="gear-5-icon_10_">
				<path class="st0" d="M219.05,291.84l-14.02-0.93l-3.14-11.12c-2.06-0.79-4.04-1.77-5.93-2.93l-10.73,4.26l-9.26-10.58
					l5.64-10.08c-1-2.25-1.76-4.61-2.28-7.02l2.93-0.63c0.53,2.45,1.33,4.83,2.39,7.08l0.33,0.7l-5.35,9.57l6.47,7.39l10.19-4.04
					l0.65,0.42c2.11,1.35,4.36,2.47,6.71,3.31l0.73,0.26l2.98,10.55l9.8,0.65l4.35-10.07l0.75-0.16c2.46-0.53,4.84-1.34,7.09-2.4
					l0.7-0.33l9.57,5.35l7.39-6.47l-4.04-10.19l0.42-0.65c1.34-2.08,2.46-4.34,3.31-6.71l0.26-0.72l10.55-2.98l0.65-9.8l-10.06-4.35
					l-0.16-0.75c-0.53-2.44-1.34-4.83-2.39-7.09l-0.32-0.7l5.35-9.56l-6.47-7.39l-10.18,4.04l-0.65-0.41
					c-2.12-1.35-4.38-2.47-6.71-3.31l-0.73-0.26l-2.98-10.55l-9.8-0.65l-4.35,10.07l-0.75,0.16c-2.44,0.53-4.82,1.33-7.08,2.39
					l-0.74,0.35l-6.5-4.03l1.58-2.55l5.12,3.18c2-0.89,4.09-1.59,6.22-2.1l4.59-10.6l14.02,0.93l3.14,11.11
					c2.05,0.79,4.04,1.77,5.93,2.93l10.73-4.25l9.26,10.58l-5.64,10.08c0.89,2.02,1.6,4.12,2.11,6.26l10.6,4.59l-0.93,14.02
					l-11.12,3.14c-0.8,2.07-1.78,4.06-2.93,5.93l4.26,10.73l-10.58,9.25l-10.08-5.63c-2.01,0.89-4.11,1.6-6.26,2.12L219.05,291.84z
					 M215.1,259.79c-0.32,0-0.64-0.01-0.96-0.03c-3.77-0.25-7.22-1.95-9.7-4.8c-2.49-2.84-3.72-6.49-3.47-10.26
					c0.25-3.77,1.95-7.22,4.8-9.7c2.84-2.49,6.48-3.72,10.25-3.47c3.77,0.25,7.21,1.95,9.7,4.8c5.14,5.87,4.54,14.83-1.33,19.96
					C221.8,258.56,218.53,259.79,215.1,259.79z M215.06,234.5c-2.7,0-5.27,0.97-7.32,2.76c-2.24,1.96-3.58,4.68-3.78,7.65
					c-0.2,2.97,0.77,5.84,2.74,8.08c1.96,2.24,4.67,3.58,7.64,3.78c2.96,0.2,5.84-0.77,8.08-2.73c4.62-4.05,5.09-11.1,1.04-15.73
					c-1.96-2.24-4.68-3.58-7.64-3.78C215.57,234.5,215.32,234.5,215.06,234.5z"/>
			</g>
			<g id="gear-5-icon_9_">
				<path class="st0" d="M190.59,335.15l-4.81-6.28c-1.35,0-2.71-0.11-4.06-0.33l-5.76,5.42l-9.06-4.65l1.05-7.84
					c-0.96-0.96-1.84-2-2.64-3.1l-7.9-0.24l-3.12-9.7l6.28-4.81c0-1.36,0.11-2.71,0.34-4.06l-5.5-5.84l4.87-7.54l10.14,1.52
					l-0.44,2.97l-8.22-1.23l-2.54,3.94l4.94,5.25l-0.15,0.76c-0.32,1.63-0.46,3.28-0.41,4.93l0.02,0.77l-5.81,4.45l1.82,5.67
					l7.31,0.22l0.43,0.64c0.92,1.37,2,2.64,3.2,3.77l0.56,0.53l-0.97,7.26l5.3,2.72l5.33-5.02l0.76,0.15
					c1.63,0.32,3.29,0.46,4.93,0.41l0.77-0.02l4.45,5.81l5.67-1.82l0.22-7.32l0.64-0.43c1.36-0.91,2.63-1.99,3.77-3.2l0.53-0.56
					l7.26,0.97l2.72-5.3l-4.48-4.77l2.19-2.05l5.93,6.31l-4.65,9.06l-7.84-1.05c-0.97,0.97-2,1.85-3.1,2.64l-0.24,7.9L190.59,335.15
					z M185.79,313.69c-1.57,0-3.14-0.37-4.58-1.11c-2.39-1.23-4.15-3.31-4.98-5.86c-0.82-2.56-0.6-5.28,0.63-7.67
					c1.23-2.39,3.31-4.16,5.86-4.98c2.55-0.82,5.28-0.6,7.67,0.63c2.39,1.23,4.15,3.31,4.98,5.86c0.82,2.56,0.6,5.28-0.63,7.67
					c-1.23,2.39-3.31,4.16-5.87,4.98C187.87,313.53,186.83,313.69,185.79,313.69z M185.82,296.59c-0.73,0-1.46,0.11-2.17,0.34
					c-1.79,0.58-3.25,1.82-4.11,3.49c-0.86,1.68-1.02,3.59-0.44,5.38c0.58,1.79,1.82,3.25,3.49,4.11c1.67,0.86,3.58,1.02,5.38,0.44
					c1.79-0.58,3.25-1.82,4.11-3.49c0.86-1.67,1.02-3.58,0.44-5.38c-0.58-1.79-1.82-3.25-3.49-4.11
					C188.02,296.85,186.92,296.59,185.82,296.59z"/>
			</g>
		</g>
		<path class="st0" d="M125.54,251.12h-14.68c-1.96,0-3.82-1.11-4.55-2.93c-1.47-3.62,1.15-7.07,4.58-7.07h14.68
			c1.96,0,3.82,1.11,4.55,2.93C131.6,247.67,128.97,251.12,125.54,251.12z"/>
	</g>
	<g>
		<g>
			<rect x="184.31" y="131.12" class="st0" width="60" height="3"/>
		</g>
		<g>
			<polygon class="st0" points="312.31,68.12 309.31,68.12 309.31,54.12 272.31,54.12 272.31,51.12 312.31,51.12 			"/>
		</g>
		<g>
			<polygon class="st0" points="312.31,150.12 191.31,150.12 191.31,147.12 309.31,147.12 309.31,139.12 312.31,139.12 			"/>
		</g>
		<g>
			<polygon class="st0" points="257.31,169.12 226.31,169.12 226.31,155.12 229.31,155.12 229.31,166.12 254.31,166.12 
				254.31,155.12 257.31,155.12 			"/>
		</g>
		<g>
			<polygon class="st0" points="271.31,180.12 211.31,180.12 211.31,166.12 227.31,166.12 227.31,169.12 214.31,169.12 
				214.31,177.12 268.31,177.12 268.31,169.12 263.31,169.12 263.31,166.12 271.31,166.12 			"/>
		</g>
	</g>
	<g>
		<path class="st0" d="M273.54,42.21l-5.02-5.02c-2.5-2.5-1.98-7.08,1.17-10.22l19.48-19.48l14.07,14.07l-19.48,19.48
			C280.61,44.18,276.04,44.71,273.54,42.21z"/>
		<g>
			<g>
				
					<rect x="200.4" y="86.18" transform="matrix(0.7071 -0.7071 0.7071 0.7071 0.7777 177.2277)" class="st0" width="27.88" height="3"/>
			</g>
			<g>
				
					<rect x="204.97" y="90.68" transform="matrix(0.7072 -0.7071 0.7071 0.7072 -1.0231 181.8915)" class="st0" width="28.21" height="3"/>
			</g>
			<g>
				<path class="st0" d="M277.18,44.78c-2.52,0-5.04-0.96-6.95-2.88l-6.54-6.54c-3.83-3.83-3.83-10.07,0-13.91L284.9,0.24
					l20.44,20.44L284.13,41.9C282.21,43.82,279.7,44.77,277.18,44.78z M284.9,4.48l-19.1,19.1c-2.66,2.66-2.66,7,0,9.66l6.54,6.54
					c2.66,2.66,7,2.66,9.66,0l19.1-19.1L284.9,4.48z"/>
			</g>
			<g>
				
					<rect x="221.71" y="51.61" transform="matrix(0.712 -0.7022 0.7022 0.712 33.9155 188.9074)" class="st0" width="51.1" height="3"/>
			</g>
			<g>
				
					<rect x="227.53" y="57.93" transform="matrix(0.7111 -0.7031 0.7031 0.7111 31.3973 195.2636)" class="st0" width="51.52" height="3"/>
			</g>
			<g>
				<path class="st0" d="M237.18,91.67l-22.11-22.11l7.32-7.32l22.11,22.11L237.18,91.67z M219.32,69.57l17.87,17.87l3.08-3.08
					l-17.87-17.87L219.32,69.57z"/>
			</g>
			<g>
				<polygon class="st0" points="213.73,109.27 197.64,93.17 215.4,75.39 217.52,77.51 201.88,93.17 213.73,105.03 229.37,89.37 
					231.49,91.49 				"/>
			</g>
		</g>
	</g>
	<g>
		<polygon class="st0" points="174.31,77.12 171.31,77.12 171.31,50.12 236.31,50.12 236.31,53.12 174.31,53.12 		"/>
	</g>
	<g>
		<g>
			<path class="st0" d="M320.69,135.12h-63.38c-0.74,0.04-1.5-0.04-2.24-0.29c-2.25-0.75-3.76-2.95-3.76-5.46V93.12h3v36.25
				c0,1.2,0.71,2.28,1.72,2.62c0.95,0.32,1.67,0.01,2.1-0.3c0.74-0.53,1.18-1.44,1.18-2.44V82.12h37.51l8.77-10l24.72,0.04v53.38
				C330.31,130.82,326,135.12,320.69,135.12z M261.61,132.12h59.08c3.65,0,6.62-2.95,6.62-6.58V75.16l-20.37-0.03l-8.77,10h-35.86
				v44.13C262.31,130.27,262.06,131.26,261.61,132.12z"/>
		</g>
		<g>
			<rect x="277.31" y="100.12" class="st0" width="37" height="3"/>
		</g>
		<g>
			<rect x="282.31" y="113.12" class="st0" width="27" height="3"/>
		</g>
	</g>
	<path class="st0" d="M309.94,297.12h-17.32l-8.66,15l8.66,15h17.32l8.66-15L309.94,297.12z M301.28,318.72
		c-3.61,0-6.53-2.92-6.53-6.53c0-3.61,2.92-6.53,6.53-6.53s6.53,2.92,6.53,6.53C307.82,315.8,304.89,318.72,301.28,318.72z"/>
</g>
</svg>
