<?xml version="1.0" encoding="utf-8"?>
<!-- Generator: Adobe Illustrator 25.1.0, SVG Export Plug-In . SVG Version: 6.00 Build 0)  -->
<svg version="1.1" id="Слой_1" xmlns="http://www.w3.org/2000/svg" xmlns:xlink="http://www.w3.org/1999/xlink" x="0px" y="0px"
	 viewBox="0 0 484 479" style="enable-background:new 0 0 484 479;" xml:space="preserve">
<style type="text/css">
	.st0{fill:#CADDFF;}
	.st1{fill:#FFFFFF;}
	.st2{fill:#99B9FF;}
	.st3{fill:#5479F7;}
</style>
<g id="Global_network_connection_2_">
	<path class="st0" d="M13.69,389.05c13.7,33.56,45.78,49.4,66.29,59.52c80.84,39.9,228.78,33.87,317.34-39.22
		c20.72-17.11,97.83-105.53,74.24-226.66C450.7,75.62,345.15,13.63,256.2,5.48C182.51-1.26,86.22,25.9,52.12,91.28
		c-21.45,41.11,4.24,54.13-13.38,147.25C23.49,319.12-3.06,348.01,13.69,389.05z"/>
	<g>
		<path d="M458.62,194.03c-0.41,0-0.77-0.3-0.84-0.72c-4.39-27.46-17.6-49.84-27.91-63.77c-11.19-15.12-21.47-23.84-21.57-23.93
			c-0.36-0.3-0.4-0.84-0.1-1.2c0.3-0.36,0.84-0.41,1.2-0.1c0.1,0.09,10.51,8.91,21.81,24.18c10.43,14.09,23.8,36.73,28.25,64.55
			c0.07,0.46-0.24,0.9-0.71,0.97C458.71,194.02,458.67,194.03,458.62,194.03z"/>
		<path d="M467.71,194.36c-0.43,0-0.8-0.33-0.84-0.77c-3.12-33.48-26.75-65.58-26.98-65.9c-0.28-0.38-0.2-0.91,0.17-1.19
			c0.38-0.28,0.91-0.2,1.19,0.17c0.24,0.32,24.15,32.8,27.31,66.76c0.04,0.47-0.3,0.88-0.77,0.92
			C467.76,194.36,467.73,194.36,467.71,194.36z"/>
	</g>
	<g>
		<path d="M80.59,95.16c-0.19,0-0.39-0.07-0.55-0.2c-0.36-0.3-0.41-0.84-0.11-1.2c23.14-27.58,53.69-47.6,88.35-57.9
			c14.43-4.29,29.3-6.8,44.19-7.47c0.46-0.02,0.87,0.34,0.89,0.81c0.02,0.47-0.34,0.87-0.81,0.89c-14.76,0.67-29.49,3.16-43.78,7.4
			c-34.34,10.2-64.61,30.04-87.53,57.36C81.07,95.05,80.83,95.16,80.59,95.16z"/>
		<path d="M77.44,99.01c-0.19,0-0.37-0.06-0.53-0.18c-0.37-0.29-0.43-0.83-0.14-1.19c1.04-1.3,2.1-2.61,3.16-3.88
			c0.3-0.36,0.84-0.41,1.2-0.11c0.36,0.3,0.41,0.84,0.11,1.2c-1.05,1.26-2.11,2.55-3.13,3.84C77.93,98.9,77.69,99.01,77.44,99.01z"
			/>
		<path d="M56.97,96.66c-0.18,0-0.36-0.06-0.52-0.18c-0.37-0.29-0.44-0.82-0.16-1.19c14.05-18.27,30.98-33.99,50.32-46.72
			c20.02-13.17,42.12-22.79,65.69-28.58c0.46-0.11,0.92,0.17,1.03,0.62c0.11,0.46-0.17,0.92-0.62,1.03
			C126.87,32.92,86,59.45,57.64,96.33C57.48,96.55,57.23,96.66,56.97,96.66z"/>
		<path d="M228.98,31.68c-0.92,0-1.83-0.23-2.66-0.68c-1.32-0.71-2.28-1.9-2.7-3.33c-0.88-2.96,0.81-6.09,3.78-6.97
			c2.96-0.88,6.09,0.81,6.97,3.78c0.88,2.96-0.81,6.09-3.78,6.97h0C230.06,31.6,229.52,31.68,228.98,31.68z M228.99,22.17
			c-0.37,0-0.74,0.05-1.11,0.16c-2.06,0.61-3.24,2.79-2.63,4.86c0.3,1,0.97,1.82,1.88,2.32c0.92,0.5,1.98,0.61,2.97,0.31h0
			c1-0.3,1.82-0.97,2.32-1.88c0.5-0.92,0.61-1.97,0.31-2.97C232.23,23.27,230.67,22.17,228.99,22.17z"/>
		<path d="M163.84,55.71c-0.1,0-0.2-0.02-0.29-0.05l-8.91-3.23c-0.31-0.11-0.53-0.39-0.56-0.72c-0.03-0.33,0.13-0.64,0.41-0.81
			l7.55-4.48c0.24-0.14,0.53-0.16,0.79-0.04c0.25,0.12,0.43,0.35,0.48,0.62l1.37,7.7c0.05,0.3-0.06,0.6-0.29,0.8
			C164.23,55.64,164.03,55.71,163.84,55.71z M156.9,51.45l5.84,2.11l-0.9-5.05L156.9,51.45z"/>
	</g>
	<g>
		<g>
			<g>
				<ellipse class="st1" cx="246.35" cy="268.51" rx="171.14" ry="172.3"/>
				<g>
					<path class="st0" d="M213.46,111.62c-0.7,1.04,1.39,4.53,5.54,4.53c4.16,0,6.24-0.7,7.97,3.84c1.73,4.53-0.69,19.88,1.73,25.46
						c2.42,5.58,6.58,9.07,9.7,5.93c3.12-3.14,2.77-11.51,6.58-13.6c3.81-2.09,17.67-10.46,18.36-17.44
						c0.69-6.98-4.16-12.21-16.28-13.6C234.94,105.34,218.65,103.95,213.46,111.62z"/>
					<path class="st2" d="M157.88,266.34c-1.81,0.91-2.89,2.66-2.81,4.52c0.27,5.85-2.19,20.43-7.36,25.08
						c-6.58,5.93-4.16,16.61-4.26,20.93c-0.21,8.76,0.73,12.66,11.19,16.84c10.46,4.19,14.55,4.42,15.33,12.79
						c0.77,8.37,1.98,40.71,5.08,49.08c3.1,8.37,9.68,21.97,13.17,25.11c3.49,3.14,11.62,4.88,6.58-6.98
						c-5.04-11.86-8.13-17.44-2.32-24.07c5.81-6.63,15.49-21.97,16.27-27.9c0.77-5.93,4.26-9.42,7.36-10.11
						c3.1-0.7,9.68-2.79,11.62-4.88c1.94-2.09-1.94-8.02-3.1-13.25c-1.16-5.23-1.16-8.37,8.52-12.56
						c9.68-4.19,5.04-16.04-8.13-19.18s-21.3-9.77-19.75-16.39c1.55-6.63-8.91-5.93-15.11-9.07c-6.2-3.14-6.01-8.07-12.91-10.42
						C167.92,262.71,161.38,264.58,157.88,266.34z"/>
					<path class="st2" d="M370.95,259.03c-2.92-4.41-2.55-11.39,4.74-20.94c5.73-7.5-2.49-15.01-6.29-17.88
						c-0.7-0.53-0.38-1.62,0.48-1.72c4.7-0.54,15.6,1.05,20.4,25.48c6.2,31.59,8.76,20.57,12.04,16.9
						c3.28-3.67-2.86-10.53,3.28-17.63c3.87-4.47,5.84-11,6.84-16.32c-12.34-50.11-46.46-91.57-91.67-113.59
						c0.07,5.5-1.25,24.67-23.55,16.76c0,0-13.87-6.61-10.58,20.21c3.28,26.82,14.6-1.84,16.79-2.94c2.19-1.1,8.03-2.57,5.47,15.43
						c0,0-0.36,6.25-11.68,5.14c-11.31-1.1-13.5,4.41-13.5,7.35c0,2.94,1.09,10.65-5.11,16.16c-6.2,5.51-4.38,19.84,4.01,15.06
						c8.39-4.78,14.23-19.84,21.89-21.31c7.66-1.47,14.6,8.45,21.89,5.88c7.3-2.57,4.01-15.06,7.66-15.06
						c3.65,0,11.31,7.35,10.22,12.86c-1.09,5.51-12.41,8.08-9.49,14.7c2.92,6.61,9.12,4.41,10.95,8.82
						c1.82,4.41-9.12,9.55-17.88,4.04c-8.76-5.51-10.22,2.57-14.6-1.1c-4.38-3.67-4.74-11.39-10.95-8.82
						c-6.2,2.57-9.85,7.71-17.88,11.39c-8.03,3.67-14.6,8.45-14.6,13.59c0,5.14,2.92,10.65,1.46,18.74
						c-1.46,8.08-4.01,30.12,22.26,25.72c26.27-4.41,22.99,9.18,22.99,10.65c0,1.47-0.37,20.57,2.19,23.88
						c2.55,3.31,8.39,12.86,0,25.35c-8.39,12.49-5.11,40.41,2.55,36.74c7.66-3.67,15.33-18,24.81-25.35
						c9.49-7.35,22.62-39.31,17.15-49.23c-5.47-9.92,7.66-18,9.49-24.61C374.6,266.74,373.87,263.44,370.95,259.03z"/>
					<path class="st2" d="M123.81,147.78c0.15,6.12-0.4,14.3-4.33,20.54c-11.86,18.83-11.47,28.25-12.62,47.08
						c-1.15,18.83,24.95,52.03,31.45,55.52c6.5,3.49,7.5-4.81,7.5-11.43c0-6.63-2.78-14.57-6.6-22.25
						c-3.82-7.67-3.82-12.56-2.68-15.7c1.15-3.14,5.74-4.18,8.8-1.05c3.06,3.14,10.41,5.92,13.95,3.96
						c4.34-2.41,2.65-11.85,4.18-14.99c1.53-3.14,9.94-5.23,13.38-11.86c3.44-6.63,9.18-9.42,16.06-12.56
						c6.88-3.14,13-4.53,14.15-6.63c1.15-2.09-0.38-6.98,1.53-12.56c1.91-5.58,6.5-12.21,4.59-15c-1.91-2.79-7.65-7.32-18.36-0.35
						c-10.71,6.98-13.38,6.98-16.44,1.74c-3.06-5.23,3.44-18.83,16.83-18.83s16.06-4.18,16.44-7.32s-3.82-6.63-8.41-7.32
						c-4.59-0.7-5.35,1.74-24.47,8.72c-12.76,4.66-24.62,2.04-30.68,0.8C139.39,134.17,131.27,140.68,123.81,147.78z"/>
					<path class="st2" d="M409.42,299.55c-2.59-0.58-2.01,5.78-5.46,6.94c-3.45,1.16-4.88,2.89-4.02,9.26
						c0.86,6.36-0.57,14.75-4.02,17.93c-3.45,3.18-8.33,5.5-8.62,13.3c-0.29,7.81-7.47,15.33-11.78,17.93
						c-4.31,2.6-10.92,6.65-10.92,13.3c0,4.28-0.11,9.76,0.88,13.97c22.8-22.27,39.47-50.87,47.19-82.99
						C412,304.93,410.9,299.88,409.42,299.55z"/>
				</g>
			</g>
			<g>
				<path class="st3" d="M246.35,441.65c-35.85,0-70.21-11-99.36-31.8c-0.38-0.27-0.47-0.8-0.2-1.18c0.27-0.38,0.8-0.47,1.18-0.2
					c28.86,20.6,62.87,31.48,98.37,31.48c28.48,0,56.65-7.21,81.48-20.87c0.41-0.22,0.93-0.08,1.15,0.34
					c0.23,0.41,0.08,0.93-0.34,1.15C303.57,434.37,275.11,441.65,246.35,441.65z"/>
				<path class="st3" d="M75.81,283.97c-0.44,0-0.81-0.34-0.85-0.78c-0.4-4.85-0.61-9.79-0.61-14.68
					c0-46.25,17.89-89.73,50.37-122.43c32.48-32.7,75.68-50.72,121.62-50.72c40.64,0,80.08,14.53,111.05,40.93
					c30.61,26.08,51.31,62.22,58.28,101.74c0.08,0.46-0.23,0.9-0.69,0.98c-0.46,0.08-0.9-0.23-0.98-0.69
					c-14.44-81.85-84.95-141.26-167.66-141.26c-93.9,0-170.29,76.91-170.29,171.45c0,4.85,0.2,9.74,0.6,14.54
					c0.04,0.47-0.31,0.88-0.78,0.92C75.86,283.97,75.84,283.97,75.81,283.97z"/>
			</g>
		</g>
		<path class="st3" d="M117.76,393.38c-1.15,0-2.3-0.01-3.42-0.04c-0.47-0.01-0.84-0.4-0.83-0.87c0.01-0.47,0.41-0.84,0.87-0.83
			c2.18,0.05,4.45,0.05,6.76,0c0.44-0.01,0.86,0.36,0.87,0.83c0.01,0.47-0.36,0.86-0.83,0.87
			C120.02,393.37,118.88,393.38,117.76,393.38z M127.94,393.07c-0.45,0-0.82-0.35-0.85-0.8c-0.03-0.47,0.33-0.87,0.8-0.9
			c2.18-0.13,4.45-0.3,6.75-0.51c0.46-0.05,0.88,0.3,0.92,0.77c0.04,0.47-0.3,0.88-0.77,0.92c-2.31,0.21-4.6,0.38-6.8,0.51
			C127.97,393.07,127.96,393.07,127.94,393.07z M107.57,393.01c-0.02,0-0.04,0-0.07,0c-2.35-0.18-4.64-0.43-6.81-0.73
			c-0.46-0.07-0.79-0.5-0.72-0.96c0.07-0.46,0.5-0.78,0.96-0.72c2.13,0.3,4.39,0.55,6.7,0.72c0.47,0.04,0.82,0.44,0.78,0.91
			C108.38,392.67,108.01,393.01,107.57,393.01z M141.47,391.85c-0.42,0-0.79-0.32-0.84-0.75c-0.06-0.47,0.28-0.89,0.74-0.94
			c2.2-0.26,4.45-0.56,6.72-0.89c0.46-0.07,0.9,0.25,0.96,0.72c0.07,0.46-0.25,0.9-0.72,0.96c-2.27,0.33-4.55,0.63-6.76,0.9
			C141.54,391.84,141.51,391.85,141.47,391.85z M94.13,391.06c-0.06,0-0.13-0.01-0.19-0.02c-2.34-0.53-4.57-1.17-6.62-1.88
			c-0.44-0.15-0.68-0.64-0.52-1.08c0.15-0.44,0.64-0.68,1.08-0.52c2,0.69,4.16,1.31,6.44,1.83c0.46,0.1,0.74,0.56,0.64,1.02
			C94.87,390.8,94.52,391.06,94.13,391.06z M154.92,389.89c-0.41,0-0.77-0.29-0.84-0.71c-0.08-0.46,0.23-0.9,0.7-0.98
			c2.18-0.37,4.42-0.78,6.67-1.21c0.46-0.09,0.91,0.21,0.99,0.67c0.09,0.46-0.21,0.91-0.67,0.99c-2.26,0.43-4.51,0.84-6.71,1.21
			C155.02,389.88,154.97,389.89,154.92,389.89z M168.27,387.33c-0.39,0-0.75-0.27-0.83-0.67c-0.1-0.46,0.2-0.91,0.65-1.01
			c2.18-0.46,4.4-0.95,6.62-1.47c0.46-0.1,0.91,0.18,1.02,0.64c0.11,0.46-0.18,0.91-0.64,1.02c-2.23,0.51-4.46,1.01-6.65,1.47
			C168.39,387.33,168.33,387.33,168.27,387.33z M81.36,386.52c-0.13,0-0.27-0.03-0.4-0.1c-2.16-1.14-4.11-2.44-5.8-3.85
			c-0.36-0.3-0.41-0.84-0.11-1.2c0.3-0.36,0.84-0.41,1.2-0.11c1.6,1.34,3.45,2.56,5.5,3.65c0.41,0.22,0.57,0.73,0.35,1.15
			C81.96,386.36,81.67,386.52,81.36,386.52z M181.52,384.28c-0.38,0-0.73-0.26-0.82-0.64c-0.11-0.46,0.16-0.92,0.62-1.03
			c2.16-0.54,4.37-1.11,6.57-1.69c0.45-0.12,0.92,0.15,1.04,0.6c0.12,0.45-0.15,0.92-0.6,1.04c-2.21,0.59-4.43,1.16-6.59,1.7
			C181.66,384.27,181.59,384.28,181.52,384.28z M194.65,380.79c-0.37,0-0.71-0.24-0.82-0.62c-0.13-0.45,0.13-0.92,0.59-1.05
			c2.16-0.61,4.35-1.25,6.51-1.89c0.45-0.13,0.92,0.12,1.06,0.57c0.13,0.45-0.12,0.92-0.57,1.06c-2.17,0.65-4.37,1.29-6.54,1.9
			C194.81,380.78,194.73,380.79,194.65,380.79z M71.16,377.77c-0.27,0-0.54-0.13-0.7-0.37c-0.67-0.98-1.26-2.02-1.76-3.09
			c-0.49-1.05-0.91-2.15-1.24-3.27c-0.13-0.45,0.13-0.92,0.58-1.05c0.45-0.13,0.92,0.13,1.05,0.58c0.3,1.04,0.69,2.05,1.14,3.02
			c0.46,0.99,1.01,1.95,1.63,2.86c0.26,0.39,0.16,0.92-0.23,1.18C71.49,377.73,71.32,377.77,71.16,377.77z M207.68,376.9
			c-0.36,0-0.7-0.23-0.81-0.6c-0.14-0.45,0.11-0.92,0.56-1.06c2.14-0.67,4.31-1.37,6.46-2.07c0.45-0.15,0.93,0.1,1.07,0.54
			c0.15,0.45-0.1,0.93-0.54,1.07c-2.16,0.71-4.34,1.41-6.48,2.08C207.85,376.89,207.77,376.9,207.68,376.9z M220.6,372.67
			c-0.35,0-0.68-0.22-0.8-0.57c-0.15-0.44,0.08-0.93,0.53-1.08c2.14-0.73,4.29-1.49,6.41-2.24c0.44-0.16,0.93,0.07,1.09,0.51
			c0.16,0.44-0.07,0.93-0.51,1.09c-2.12,0.76-4.28,1.51-6.43,2.25C220.78,372.65,220.69,372.67,220.6,372.67z M233.4,368.11
			c-0.35,0-0.67-0.21-0.8-0.55c-0.16-0.44,0.06-0.93,0.5-1.09c2.1-0.78,4.24-1.58,6.35-2.39c0.44-0.17,0.93,0.05,1.1,0.49
			c0.17,0.44-0.05,0.93-0.49,1.1c-2.12,0.81-4.26,1.62-6.37,2.4C233.6,368.09,233.5,368.11,233.4,368.11z M67.32,364.95
			c-0.47,0-0.84-0.37-0.85-0.84l0-0.18c0-2.15,0.25-4.42,0.73-6.75c0.1-0.46,0.55-0.76,1-0.66c0.46,0.1,0.75,0.55,0.66,1
			c-0.46,2.22-0.7,4.37-0.7,6.4l0,0.16C68.18,364.56,67.8,364.94,67.32,364.95C67.33,364.95,67.33,364.95,67.32,364.95z
			 M246.09,363.24c-0.34,0-0.66-0.2-0.79-0.54c-0.17-0.44,0.04-0.93,0.48-1.1c2.1-0.83,4.22-1.69,6.29-2.54
			c0.44-0.18,0.93,0.03,1.11,0.46c0.18,0.43-0.03,0.93-0.46,1.11c-2.08,0.85-4.2,1.71-6.31,2.55
			C246.3,363.22,246.2,363.24,246.09,363.24z M258.67,358.08c-0.33,0-0.65-0.19-0.78-0.52c-0.18-0.43,0.02-0.93,0.45-1.11
			c2.06-0.87,4.15-1.77,6.24-2.68c0.43-0.19,0.93,0.01,1.12,0.44c0.19,0.43-0.01,0.93-0.44,1.12c-2.09,0.91-4.19,1.81-6.25,2.69
			C258.89,358.06,258.78,358.08,258.67,358.08z M271.12,352.65c-0.32,0-0.63-0.19-0.78-0.5c-0.19-0.43,0-0.93,0.43-1.12
			c2.05-0.92,4.11-1.86,6.18-2.82c0.43-0.2,0.93-0.01,1.13,0.41c0.2,0.43,0.01,0.93-0.41,1.13c-2.07,0.96-4.13,1.9-6.19,2.82
			C271.36,352.62,271.24,352.65,271.12,352.65z M69.95,351.69c-0.1,0-0.2-0.02-0.3-0.05c-0.44-0.16-0.66-0.65-0.5-1.09
			c0.76-2.04,1.7-4.15,2.78-6.3c0.21-0.42,0.72-0.59,1.14-0.37c0.42,0.21,0.59,0.72,0.37,1.14c-1.06,2.09-1.97,4.15-2.7,6.13
			C70.62,351.48,70.29,351.69,69.95,351.69z M283.46,346.94c-0.32,0-0.62-0.18-0.77-0.49c-0.2-0.42-0.02-0.93,0.4-1.13
			c2.05-0.97,4.09-1.96,6.11-2.95c0.42-0.21,0.93-0.03,1.14,0.39c0.21,0.42,0.03,0.93-0.39,1.14c-2.03,0.99-4.07,1.98-6.13,2.95
			C283.71,346.91,283.58,346.94,283.46,346.94z M295.67,340.97c-0.31,0-0.61-0.17-0.76-0.47c-0.21-0.42-0.04-0.93,0.38-1.14
			c2.03-1.02,4.05-2.05,6.05-3.08c0.42-0.21,0.93-0.05,1.14,0.37c0.22,0.42,0.05,0.93-0.37,1.14c-2.01,1.04-4.03,2.06-6.07,3.09
			C295.93,340.95,295.8,340.97,295.67,340.97z M76.02,339.55c-0.15,0-0.31-0.04-0.44-0.13c-0.4-0.25-0.52-0.77-0.28-1.17
			c1.14-1.86,2.42-3.78,3.78-5.71c0.27-0.38,0.8-0.47,1.18-0.2c0.38,0.27,0.47,0.8,0.2,1.18c-1.34,1.9-2.6,3.79-3.72,5.62
			C76.58,339.41,76.3,339.55,76.02,339.55z M307.75,334.74c-0.3,0-0.6-0.16-0.75-0.45c-0.22-0.41-0.06-0.93,0.35-1.15
			c1.99-1.06,4.01-2.14,5.98-3.21c0.41-0.22,0.93-0.07,1.15,0.34c0.22,0.41,0.07,0.93-0.34,1.15c-1.98,1.08-4,2.16-6,3.22
			C308.02,334.71,307.89,334.74,307.75,334.74z M319.69,328.24c-0.3,0-0.59-0.16-0.74-0.43c-0.23-0.41-0.08-0.93,0.33-1.16
			c1.97-1.1,3.96-2.23,5.9-3.35c0.41-0.23,0.93-0.09,1.16,0.31c0.23,0.41,0.09,0.93-0.31,1.16c-1.95,1.12-3.94,2.25-5.92,3.36
			C319.97,328.2,319.83,328.24,319.69,328.24z M331.47,321.45c-0.29,0-0.57-0.15-0.73-0.42c-0.24-0.4-0.11-0.92,0.3-1.16
			c1.94-1.15,3.9-2.32,5.82-3.49c0.4-0.24,0.92-0.12,1.17,0.28c0.24,0.4,0.12,0.92-0.28,1.17c-1.93,1.17-3.89,2.35-5.84,3.5
			C331.77,321.42,331.62,321.45,331.47,321.45z M343.08,314.38c-0.28,0-0.56-0.14-0.72-0.4c-0.25-0.4-0.13-0.92,0.27-1.17
			c1.91-1.2,3.84-2.42,5.73-3.64c0.39-0.25,0.92-0.14,1.17,0.25c0.25,0.39,0.14,0.92-0.25,1.17c-1.9,1.22-3.83,2.45-5.75,3.65
			C343.39,314.34,343.23,314.38,343.08,314.38z M354.5,307.01c-0.27,0-0.54-0.13-0.71-0.38c-0.26-0.39-0.15-0.92,0.24-1.18
			c1.89-1.25,3.78-2.53,5.62-3.8c0.39-0.26,0.92-0.17,1.18,0.22c0.26,0.39,0.17,0.92-0.22,1.18c-1.85,1.27-3.75,2.55-5.64,3.81
			C354.83,306.97,354.66,307.01,354.5,307.01z M365.71,299.32c-0.27,0-0.53-0.12-0.69-0.36c-0.27-0.38-0.18-0.91,0.2-1.18
			c1.85-1.31,3.7-2.65,5.5-3.97c0.38-0.28,0.91-0.19,1.19,0.18c0.28,0.38,0.2,0.91-0.18,1.19c-1.81,1.32-3.67,2.66-5.53,3.98
			C366.05,299.27,365.88,299.32,365.71,299.32z M376.67,291.28c-0.26,0-0.51-0.12-0.68-0.34c-0.28-0.37-0.21-0.91,0.16-1.19
			c1.82-1.38,3.62-2.77,5.36-4.15c0.37-0.29,0.9-0.23,1.19,0.14c0.29,0.37,0.23,0.9-0.14,1.19c-1.75,1.38-3.56,2.78-5.39,4.17
			C377.03,291.23,376.85,291.28,376.67,291.28z M387.35,282.87c-0.25,0-0.49-0.11-0.66-0.31c-0.3-0.36-0.24-0.9,0.12-1.2
			c1.77-1.45,3.52-2.92,5.2-4.35c0.36-0.31,0.89-0.26,1.2,0.09c0.31,0.36,0.26,0.89-0.09,1.2c-1.68,1.44-3.44,2.91-5.22,4.38
			C387.73,282.8,387.54,282.87,387.35,282.87z M397.67,274.03c-0.23,0-0.46-0.1-0.63-0.28c-0.31-0.35-0.28-0.89,0.07-1.2
			c1.7-1.53,3.38-3.07,4.99-4.58c0.34-0.32,0.88-0.31,1.2,0.03c0.32,0.34,0.31,0.88-0.03,1.2c-1.62,1.53-3.31,3.08-5.02,4.61
			C398.08,273.95,397.88,274.03,397.67,274.03z M407.56,264.69c-0.22,0-0.44-0.08-0.6-0.25c-0.33-0.33-0.33-0.87,0-1.2
			c1.62-1.62,3.21-3.26,4.72-4.86c0.32-0.34,0.86-0.36,1.2-0.04c0.34,0.32,0.36,0.86,0.04,1.2c-1.52,1.61-3.12,3.26-4.75,4.9
			C407.99,264.61,407.77,264.69,407.56,264.69z M416.85,254.78c-0.2,0-0.4-0.07-0.56-0.21c-0.35-0.31-0.39-0.85-0.08-1.2
			c1.51-1.74,2.97-3.48,4.33-5.19c0.29-0.37,0.83-0.43,1.19-0.13c0.37,0.29,0.43,0.83,0.13,1.19c-1.38,1.72-2.85,3.49-4.38,5.24
			C417.33,254.68,417.09,254.78,416.85,254.78z M425.32,244.15c-0.17,0-0.34-0.05-0.49-0.16c-0.38-0.27-0.47-0.8-0.2-1.19
			c1.35-1.89,2.62-3.77,3.76-5.6c0.25-0.4,0.77-0.52,1.17-0.27c0.4,0.25,0.52,0.77,0.27,1.17c-1.16,1.85-2.44,3.77-3.82,5.69
			C425.84,244.03,425.58,244.15,425.32,244.15z M432.47,232.61c-0.13,0-0.26-0.03-0.39-0.09c-0.42-0.22-0.58-0.73-0.37-1.14
			c1.07-2.08,2-4.13,2.76-6.1c0.17-0.44,0.66-0.65,1.1-0.49c0.44,0.17,0.66,0.66,0.49,1.1c-0.78,2.03-1.74,4.14-2.84,6.27
			C433.08,232.44,432.78,232.61,432.47,232.61z M437.27,219.95c-0.06,0-0.12-0.01-0.19-0.02c-0.46-0.1-0.75-0.56-0.64-1.02
			c0.51-2.26,0.78-4.46,0.82-6.54c0.01-0.47,0.39-0.82,0.86-0.84c0.47,0.01,0.84,0.39,0.84,0.86c-0.04,2.19-0.32,4.51-0.86,6.88
			C438.01,219.68,437.66,219.95,437.27,219.95z M437.33,206.51c-0.38,0-0.72-0.25-0.82-0.63c-0.33-1.24-0.77-2.45-1.31-3.6
			c-0.38-0.81-0.82-1.6-1.3-2.36c-0.25-0.4-0.13-0.92,0.26-1.17c0.4-0.25,0.92-0.14,1.17,0.26c0.52,0.82,0.99,1.67,1.4,2.55
			c0.58,1.24,1.06,2.55,1.41,3.89c0.12,0.45-0.15,0.92-0.61,1.04C437.47,206.5,437.4,206.51,437.33,206.51z M430.19,195.19
			c-0.2,0-0.4-0.07-0.56-0.21c-1.56-1.37-3.39-2.64-5.42-3.75c-0.41-0.23-0.56-0.74-0.34-1.15c0.23-0.41,0.74-0.56,1.15-0.34
			c2.14,1.18,4.07,2.51,5.72,3.96c0.35,0.31,0.39,0.85,0.08,1.2C430.66,195.1,430.42,195.19,430.19,195.19z M418.42,188.56
			c-0.1,0-0.19-0.02-0.29-0.05c-1.99-0.72-4.15-1.35-6.42-1.9c-0.46-0.11-0.74-0.57-0.63-1.02c0.11-0.46,0.57-0.74,1.02-0.63
			c2.34,0.55,4.56,1.21,6.61,1.95c0.44,0.16,0.67,0.65,0.51,1.09C419.09,188.35,418.77,188.56,418.42,188.56z M405.24,185.37
			c-0.04,0-0.08,0-0.13-0.01c-2.12-0.32-4.38-0.57-6.69-0.76c-0.47-0.04-0.82-0.45-0.78-0.92c0.04-0.47,0.45-0.81,0.92-0.78
			c2.36,0.19,4.65,0.45,6.81,0.77c0.46,0.07,0.78,0.5,0.72,0.96C406.01,185.07,405.65,185.37,405.24,185.37z"/>
		<path class="st3" d="M339.57,371.5c-0.81,0-1.63,0-2.45-0.01c-0.47,0-0.85-0.39-0.84-0.85c0-0.47,0.38-0.84,0.85-0.84
			c0,0,0,0,0.01,0c2.29,0.02,4.55,0.01,6.78-0.02c0,0,0.01,0,0.01,0c0.46,0,0.84,0.37,0.85,0.84c0.01,0.47-0.37,0.85-0.84,0.86
			C342.49,371.49,341.04,371.5,339.57,371.5z M330.33,371.38c-0.01,0-0.01,0-0.02,0c-2.23-0.05-4.52-0.13-6.81-0.22
			c-0.47-0.02-0.83-0.42-0.81-0.88c0.02-0.47,0.42-0.83,0.88-0.81c2.27,0.09,4.55,0.17,6.78,0.22c0.47,0.01,0.84,0.4,0.83,0.87
			C331.17,371.02,330.79,371.38,330.33,371.38z M350.71,371.32c-0.46,0-0.83-0.36-0.85-0.82c-0.02-0.47,0.35-0.86,0.82-0.88
			c2.28-0.08,4.56-0.18,6.77-0.3c0.49-0.02,0.87,0.33,0.9,0.8c0.03,0.47-0.33,0.87-0.8,0.9c-2.23,0.12-4.52,0.23-6.81,0.3
			C350.73,371.32,350.72,371.32,350.71,371.32z M316.75,370.83c-0.02,0-0.03,0-0.05,0c-2.23-0.13-4.52-0.28-6.79-0.44
			c-0.47-0.03-0.82-0.44-0.79-0.91c0.03-0.47,0.46-0.82,0.91-0.79c2.27,0.16,4.54,0.31,6.77,0.44c0.47,0.03,0.83,0.43,0.8,0.9
			C317.57,370.48,317.2,370.83,316.75,370.83z M364.28,370.55c-0.44,0-0.81-0.34-0.85-0.78c-0.04-0.47,0.31-0.88,0.78-0.92
			c2.29-0.19,4.56-0.4,6.74-0.64c0.47-0.05,0.89,0.29,0.94,0.75c0.05,0.47-0.29,0.89-0.75,0.94c-2.2,0.24-4.49,0.46-6.79,0.65
			C364.33,370.55,364.31,370.55,364.28,370.55z M303.2,369.85c-0.02,0-0.05,0-0.07,0c-2.22-0.19-4.5-0.4-6.78-0.63
			c-0.47-0.05-0.81-0.46-0.76-0.93c0.05-0.47,0.46-0.82,0.93-0.76c2.27,0.23,4.54,0.44,6.75,0.63c0.47,0.04,0.81,0.45,0.77,0.92
			C304,369.52,303.63,369.85,303.2,369.85z M377.79,369.06c-0.42,0-0.78-0.31-0.84-0.73c-0.07-0.46,0.26-0.89,0.72-0.96
			c2.29-0.33,4.53-0.69,6.68-1.07c0.46-0.08,0.9,0.22,0.99,0.69c0.08,0.46-0.22,0.9-0.69,0.99c-2.17,0.39-4.43,0.75-6.74,1.08
			C377.87,369.06,377.83,369.06,377.79,369.06z M289.67,368.5c-0.03,0-0.06,0-0.1-0.01c-2.23-0.25-4.51-0.53-6.76-0.81
			c-0.47-0.06-0.8-0.48-0.74-0.95c0.06-0.47,0.48-0.8,0.95-0.74c2.24,0.28,4.51,0.56,6.74,0.81c0.47,0.05,0.8,0.47,0.75,0.94
			C290.47,368.18,290.1,368.5,289.67,368.5z M276.19,366.79c-0.04,0-0.08,0-0.12-0.01c-2.24-0.31-4.51-0.64-6.74-0.98
			c-0.46-0.07-0.78-0.5-0.71-0.97c0.07-0.46,0.51-0.78,0.97-0.71c2.22,0.34,4.48,0.66,6.71,0.97c0.47,0.06,0.79,0.49,0.72,0.96
			C276.97,366.49,276.61,366.79,276.19,366.79z M391.16,366.64c-0.39,0-0.74-0.27-0.83-0.66c-0.1-0.46,0.18-0.91,0.64-1.02
			c2.26-0.51,4.46-1.07,6.54-1.66c0.45-0.13,0.92,0.13,1.05,0.59c0.13,0.45-0.13,0.92-0.59,1.05c-2.11,0.6-4.34,1.16-6.63,1.68
			C391.29,366.63,391.22,366.64,391.16,366.64z M262.75,364.76c-0.05,0-0.09,0-0.14-0.01c-2.2-0.36-4.46-0.74-6.71-1.14
			c-0.46-0.08-0.77-0.52-0.69-0.98c0.08-0.46,0.52-0.77,0.98-0.69c2.25,0.39,4.5,0.77,6.69,1.13c0.46,0.08,0.78,0.51,0.7,0.98
			C263.52,364.47,263.16,364.76,262.75,364.76z M404.22,362.91c-0.35,0-0.68-0.22-0.8-0.56c-0.16-0.44,0.07-0.93,0.52-1.08
			c2.2-0.78,4.3-1.63,6.23-2.51c0.43-0.19,0.93-0.01,1.13,0.42c0.2,0.43,0.01,0.93-0.42,1.13c-1.98,0.91-4.12,1.77-6.37,2.57
			C404.42,362.9,404.32,362.91,404.22,362.91z M249.36,362.42c-0.05,0-0.1,0-0.16-0.01c-2.22-0.41-4.45-0.84-6.68-1.29
			c-0.46-0.09-0.76-0.54-0.67-1c0.09-0.46,0.54-0.76,1-0.67c2.23,0.44,4.45,0.87,6.66,1.28c0.46,0.09,0.77,0.53,0.68,0.99
			C250.12,362.13,249.76,362.42,249.36,362.42z M236.03,359.77c-0.06,0-0.12-0.01-0.18-0.02c-2.21-0.46-4.42-0.94-6.65-1.43
			c-0.46-0.1-0.75-0.56-0.65-1.01c0.1-0.46,0.55-0.74,1.01-0.65c2.22,0.49,4.43,0.97,6.63,1.43c0.46,0.1,0.75,0.55,0.66,1.01
			C236.78,359.5,236.43,359.77,236.03,359.77z M416.53,357.21c-0.29,0-0.57-0.14-0.73-0.41c-0.24-0.4-0.12-0.92,0.28-1.17
			c2.01-1.22,3.82-2.53,5.38-3.89c0.35-0.31,0.89-0.27,1.2,0.08c0.31,0.35,0.27,0.89-0.08,1.2c-1.64,1.42-3.52,2.78-5.61,4.06
			C416.83,357.17,416.68,357.21,416.53,357.21z M222.77,356.83c-0.06,0-0.13-0.01-0.19-0.02c-2.22-0.52-4.43-1.04-6.62-1.58
			c-0.46-0.11-0.73-0.57-0.62-1.03c0.11-0.45,0.57-0.73,1.03-0.62c2.19,0.53,4.39,1.06,6.6,1.57c0.46,0.11,0.74,0.56,0.63,1.02
			C223.5,356.57,223.15,356.83,222.77,356.83z M209.56,353.61c-0.07,0-0.14-0.01-0.21-0.03c-2.2-0.56-4.41-1.14-6.58-1.73
			c-0.45-0.12-0.72-0.59-0.6-1.04c0.12-0.45,0.59-0.72,1.04-0.6c2.16,0.58,4.37,1.16,6.57,1.72c0.45,0.12,0.73,0.58,0.61,1.03
			C210.28,353.35,209.94,353.61,209.56,353.61z M196.43,350.09c-0.08,0-0.15-0.01-0.23-0.03c-2.17-0.61-4.37-1.24-6.54-1.88
			c-0.45-0.13-0.71-0.6-0.58-1.05c0.13-0.45,0.61-0.71,1.05-0.58c2.17,0.64,4.36,1.26,6.52,1.87c0.45,0.13,0.72,0.6,0.59,1.05
			C197.14,349.84,196.8,350.09,196.43,350.09z M426.6,348.24c-0.17,0-0.34-0.05-0.49-0.15c-0.38-0.27-0.48-0.8-0.21-1.18
			c1.29-1.84,2.26-3.79,2.86-5.81c0.14-0.45,0.61-0.7,1.06-0.57c0.45,0.13,0.7,0.61,0.57,1.06c-0.66,2.19-1.7,4.31-3.1,6.3
			C427.13,348.12,426.87,348.24,426.6,348.24z M183.39,346.26c-0.08,0-0.17-0.01-0.25-0.04c-2.14-0.66-4.33-1.34-6.5-2.03
			c-0.45-0.14-0.69-0.62-0.55-1.07c0.14-0.45,0.62-0.69,1.07-0.55c2.16,0.69,4.34,1.37,6.48,2.03c0.45,0.14,0.7,0.61,0.56,1.06
			C184.09,346.03,183.75,346.26,183.39,346.26z M170.44,342.12c-0.09,0-0.18-0.01-0.27-0.04c-2.14-0.71-4.31-1.45-6.44-2.2
			c-0.44-0.15-0.68-0.64-0.52-1.08c0.15-0.44,0.64-0.68,1.08-0.52c2.13,0.74,4.29,1.48,6.42,2.19c0.45,0.15,0.69,0.63,0.54,1.07
			C171.12,341.9,170.79,342.12,170.44,342.12z M157.6,337.65c-0.1,0-0.19-0.02-0.29-0.05c-2.14-0.78-4.29-1.58-6.38-2.37
			c-0.44-0.17-0.66-0.66-0.49-1.1c0.17-0.44,0.66-0.66,1.1-0.49c2.08,0.79,4.22,1.58,6.36,2.36c0.44,0.16,0.67,0.65,0.51,1.09
			C158.27,337.44,157.95,337.65,157.6,337.65z M430.39,335.48c-0.45,0-0.83-0.35-0.85-0.81c-0.1-2.07-0.53-4.23-1.27-6.41
			c-0.15-0.44,0.09-0.93,0.53-1.08c0.44-0.15,0.93,0.09,1.08,0.53c0.79,2.33,1.25,4.65,1.35,6.87c0.02,0.47-0.34,0.87-0.81,0.89
			C430.41,335.48,430.4,335.48,430.39,335.48z M144.89,332.83c-0.1,0-0.21-0.02-0.31-0.06c-2.13-0.84-4.25-1.7-6.31-2.56
			c-0.43-0.18-0.64-0.68-0.46-1.11c0.18-0.43,0.68-0.64,1.11-0.46c2.05,0.85,4.17,1.71,6.29,2.55c0.44,0.17,0.65,0.67,0.48,1.1
			C145.55,332.63,145.23,332.83,144.89,332.83z M132.33,327.63c-0.11,0-0.23-0.02-0.34-0.07c-2.1-0.91-4.19-1.84-6.23-2.76
			c-0.43-0.19-0.62-0.7-0.42-1.12c0.19-0.43,0.7-0.62,1.12-0.42c2.03,0.92,4.11,1.84,6.2,2.75c0.43,0.19,0.63,0.69,0.44,1.12
			C132.97,327.44,132.66,327.63,132.33,327.63z M426.25,322.68c-0.29,0-0.58-0.15-0.74-0.43c-1.04-1.81-2.3-3.67-3.74-5.53
			c-0.29-0.37-0.22-0.9,0.15-1.19c0.37-0.29,0.9-0.22,1.19,0.15c1.48,1.92,2.78,3.84,3.87,5.72c0.23,0.41,0.09,0.93-0.31,1.16
			C426.54,322.64,426.39,322.68,426.25,322.68z M119.95,322c-0.12,0-0.25-0.03-0.36-0.08c-2.05-0.98-4.11-1.99-6.12-2.99
			c-0.42-0.21-0.59-0.72-0.38-1.14c0.21-0.42,0.72-0.59,1.14-0.38c2,1,4.05,2.01,6.09,2.98c0.42,0.2,0.6,0.71,0.4,1.13
			C120.57,321.82,120.27,322,119.95,322z M107.8,315.9c-0.13,0-0.27-0.03-0.4-0.1c-2.04-1.08-4.06-2.18-5.99-3.26
			c-0.41-0.23-0.55-0.75-0.32-1.16c0.23-0.41,0.75-0.56,1.16-0.32c1.92,1.08,3.92,2.17,5.95,3.24c0.41,0.22,0.57,0.73,0.35,1.15
			C108.4,315.74,108.11,315.9,107.8,315.9z M418.02,311.9c-0.23,0-0.45-0.09-0.62-0.27c-1.47-1.55-3.08-3.14-4.8-4.72
			c-0.35-0.32-0.37-0.85-0.05-1.2c0.32-0.35,0.85-0.37,1.2-0.05c1.75,1.6,3.4,3.22,4.89,4.8c0.32,0.34,0.31,0.88-0.04,1.2
			C418.44,311.82,418.23,311.9,418.02,311.9z M95.95,309.25c-0.15,0-0.3-0.04-0.43-0.12c-1.99-1.19-3.94-2.39-5.81-3.59
			c-0.4-0.25-0.51-0.78-0.26-1.17c0.25-0.4,0.78-0.51,1.17-0.26c1.85,1.18,3.79,2.38,5.76,3.56c0.4,0.24,0.53,0.76,0.29,1.16
			C96.52,309.1,96.24,309.25,95.95,309.25z M84.5,301.92c-0.17,0-0.33-0.05-0.48-0.15c-1.92-1.32-3.78-2.66-5.54-3.99
			c-0.37-0.28-0.45-0.81-0.17-1.19c0.28-0.38,0.82-0.45,1.19-0.17c1.74,1.31,3.59,2.64,5.49,3.95c0.39,0.27,0.48,0.8,0.22,1.18
			C85.04,301.79,84.77,301.92,84.5,301.92z M73.66,293.73c-0.19,0-0.38-0.06-0.54-0.2c-1.81-1.51-3.54-3.04-5.13-4.54
			c-0.34-0.32-0.36-0.86-0.04-1.2c0.32-0.34,0.86-0.36,1.2-0.04c1.57,1.48,3.26,2.98,5.05,4.47c0.36,0.3,0.41,0.84,0.11,1.2
			C74.14,293.63,73.9,293.73,73.66,293.73z M63.81,284.39c-0.23,0-0.46-0.09-0.63-0.28c-1.61-1.78-3.08-3.57-4.36-5.32
			c-0.28-0.38-0.19-0.91,0.18-1.19c0.38-0.28,0.91-0.19,1.19,0.18c1.24,1.7,2.67,3.44,4.25,5.18c0.32,0.35,0.29,0.88-0.06,1.2
			C64.21,284.32,64.01,284.39,63.81,284.39z M55.89,273.41c-0.31,0-0.6-0.16-0.75-0.45c-1.15-2.17-2.02-4.34-2.61-6.43
			c-0.13-0.45,0.14-0.92,0.59-1.05c0.45-0.13,0.92,0.14,1.05,0.59c0.55,1.98,1.39,4.03,2.48,6.1c0.22,0.42,0.06,0.93-0.36,1.15
			C56.16,273.38,56.02,273.41,55.89,273.41z M52.46,260.46c-0.01,0-0.01,0-0.02,0c-0.47-0.01-0.84-0.4-0.83-0.87
			c0.03-1.37,0.2-2.73,0.49-4.05c0.22-0.97,0.51-1.94,0.87-2.87c0.17-0.44,0.66-0.66,1.1-0.49c0.44,0.17,0.66,0.66,0.49,1.1
			c-0.33,0.86-0.6,1.74-0.8,2.64c-0.27,1.21-0.42,2.46-0.45,3.71C53.3,260.1,52.92,260.46,52.46,260.46z M57.16,247.98
			c-0.19,0-0.37-0.06-0.53-0.19c-0.37-0.29-0.43-0.83-0.13-1.19c1.37-1.71,3.04-3.35,4.96-4.89c0.37-0.29,0.9-0.23,1.19,0.14
			c0.29,0.37,0.23,0.9-0.13,1.19c-1.83,1.46-3.41,3.01-4.7,4.62C57.65,247.87,57.41,247.98,57.16,247.98z M67.63,239.45
			c-0.3,0-0.58-0.15-0.74-0.43c-0.23-0.41-0.09-0.93,0.32-1.16c1.88-1.07,3.96-2.1,6.17-3.06c0.43-0.19,0.93,0.01,1.12,0.44
			c0.19,0.43-0.01,0.93-0.44,1.12c-2.15,0.93-4.17,1.93-6,2.97C67.91,239.41,67.77,239.45,67.63,239.45z"/>
		<path class="st3" d="M391.23,301.39c-1.39,0-2.82-0.02-4.25-0.05c-0.47-0.01-0.84-0.4-0.83-0.87c0.01-0.47,0.39-0.84,0.87-0.83
			c2.31,0.05,4.58,0.06,6.76,0.03c0,0,0.01,0,0.01,0c0.46,0,0.84,0.37,0.85,0.84c0.01,0.47-0.37,0.85-0.84,0.86
			C392.96,301.39,392.1,301.39,391.23,301.39z M400.59,301.12c-0.45,0-0.82-0.35-0.85-0.8c-0.03-0.47,0.33-0.87,0.8-0.9
			c2.33-0.14,4.59-0.35,6.72-0.6c0.47-0.06,0.89,0.28,0.94,0.74c0.06,0.47-0.28,0.89-0.74,0.94c-2.16,0.26-4.45,0.47-6.82,0.61
			C400.62,301.12,400.6,301.12,400.59,301.12z M380.21,301.08c-0.02,0-0.03,0-0.05,0c-2.22-0.12-4.51-0.28-6.8-0.48
			c-0.47-0.04-0.81-0.45-0.78-0.92c0.04-0.47,0.45-0.8,0.92-0.78c2.28,0.19,4.55,0.35,6.76,0.47c0.47,0.03,0.83,0.43,0.8,0.9
			C381.03,300.73,380.66,301.08,380.21,301.08z M366.67,299.95c-0.03,0-0.06,0-0.09-0.01c-2.22-0.24-4.49-0.51-6.77-0.81
			c-0.47-0.06-0.79-0.49-0.73-0.95c0.06-0.47,0.49-0.79,0.95-0.73c2.26,0.3,4.52,0.57,6.73,0.81c0.47,0.05,0.8,0.47,0.75,0.94
			C367.46,299.63,367.09,299.95,366.67,299.95z M414.06,299.46c-0.4,0-0.75-0.28-0.83-0.68c-0.09-0.46,0.21-0.91,0.67-1
			c2.31-0.46,4.5-1,6.5-1.62c0.45-0.14,0.92,0.11,1.06,0.56c0.14,0.45-0.11,0.92-0.56,1.06c-2.06,0.64-4.3,1.2-6.68,1.67
			C414.17,299.46,414.12,299.46,414.06,299.46z M353.19,298.18c-0.04,0-0.09,0-0.13-0.01c-2.21-0.34-4.48-0.7-6.73-1.09
			c-0.46-0.08-0.77-0.52-0.69-0.98c0.08-0.46,0.52-0.77,0.98-0.69c2.24,0.38,4.49,0.75,6.69,1.08c0.46,0.07,0.78,0.5,0.71,0.97
			C353.96,297.88,353.6,298.18,353.19,298.18z M339.79,295.9c-0.05,0-0.11,0-0.16-0.01c-2.21-0.42-4.45-0.86-6.68-1.32
			c-0.46-0.09-0.76-0.54-0.66-1c0.09-0.46,0.55-0.75,1-0.66c2.22,0.46,4.46,0.9,6.66,1.31c0.46,0.09,0.76,0.53,0.68,0.99
			C340.55,295.61,340.19,295.9,339.79,295.9z M426.98,295.36c-0.31,0-0.62-0.18-0.76-0.48c-0.21-0.42-0.03-0.93,0.39-1.14
			c2.13-1.04,4-2.22,5.56-3.51c0.36-0.3,0.9-0.25,1.2,0.11c0.3,0.36,0.25,0.9-0.11,1.2c-1.66,1.38-3.65,2.63-5.9,3.73
			C427.23,295.33,427.1,295.36,426.98,295.36z M326.48,293.17c-0.06,0-0.12-0.01-0.18-0.02c-2.17-0.48-4.4-0.99-6.64-1.51
			c-0.46-0.11-0.74-0.56-0.63-1.02c0.11-0.46,0.56-0.74,1.02-0.63c2.23,0.52,4.46,1.03,6.61,1.51c0.46,0.1,0.75,0.55,0.65,1.01
			C327.22,292.9,326.86,293.17,326.48,293.17z M313.24,290.05c-0.07,0-0.14-0.01-0.21-0.03c-2.18-0.54-4.39-1.11-6.59-1.69
			c-0.45-0.12-0.72-0.58-0.6-1.04c0.12-0.45,0.58-0.73,1.04-0.6c2.19,0.58,4.4,1.15,6.57,1.69c0.46,0.11,0.73,0.57,0.62,1.03
			C313.97,289.79,313.63,290.05,313.24,290.05z M437.1,286.61c-0.14,0-0.29-0.04-0.42-0.11c-0.41-0.23-0.55-0.75-0.32-1.16
			c0.39-0.67,0.72-1.38,1-2.1c0.49-1.26,0.81-2.6,0.96-3.99c0.05-0.47,0.47-0.8,0.94-0.75c0.47,0.05,0.8,0.47,0.75,0.94
			c-0.16,1.53-0.52,3.02-1.06,4.42c-0.31,0.8-0.68,1.58-1.11,2.33C437.68,286.46,437.4,286.61,437.1,286.61z M300.1,286.59
			c-0.08,0-0.15-0.01-0.23-0.03c-2.2-0.61-4.4-1.23-6.55-1.86c-0.45-0.13-0.71-0.6-0.58-1.05c0.13-0.45,0.6-0.71,1.05-0.58
			c2.14,0.62,4.34,1.24,6.53,1.85c0.45,0.12,0.72,0.59,0.59,1.05C300.82,286.34,300.47,286.59,300.1,286.59z M287.05,282.8
			c-0.08,0-0.16-0.01-0.25-0.04c-2.15-0.65-4.33-1.33-6.5-2.01c-0.45-0.14-0.7-0.62-0.56-1.07c0.14-0.45,0.62-0.7,1.07-0.56
			c2.17,0.68,4.33,1.35,6.48,2c0.45,0.14,0.7,0.61,0.57,1.06C287.75,282.57,287.41,282.8,287.05,282.8z M274.08,278.72
			c-0.09,0-0.18-0.01-0.26-0.04c-2.14-0.7-4.3-1.42-6.46-2.15c-0.44-0.15-0.68-0.63-0.53-1.08c0.15-0.44,0.63-0.68,1.08-0.53
			c2.15,0.73,4.3,1.45,6.44,2.15c0.45,0.15,0.69,0.63,0.54,1.07C274.77,278.49,274.44,278.72,274.08,278.72z M261.21,274.35
			c-0.09,0-0.19-0.02-0.28-0.05c-2.13-0.75-4.27-1.51-6.41-2.29c-0.44-0.16-0.67-0.65-0.51-1.09c0.16-0.44,0.65-0.67,1.09-0.51
			c2.14,0.78,4.27,1.54,6.39,2.28c0.44,0.16,0.68,0.64,0.52,1.08C261.89,274.14,261.56,274.35,261.21,274.35z M438.72,273.45
			c-0.39,0-0.74-0.27-0.83-0.66c-0.44-1.98-1.17-4.08-2.16-6.24c-0.2-0.43-0.01-0.93,0.42-1.13c0.43-0.2,0.93-0.01,1.13,0.42
			c1.04,2.27,1.8,4.48,2.27,6.58c0.1,0.46-0.19,0.91-0.64,1.01C438.84,273.44,438.78,273.45,438.72,273.45z M248.43,269.72
			c-0.1,0-0.2-0.02-0.3-0.05c-2.11-0.79-4.23-1.6-6.36-2.42c-0.44-0.17-0.66-0.66-0.49-1.1c0.17-0.44,0.66-0.65,1.1-0.49
			c2.12,0.82,4.23,1.62,6.34,2.41c0.44,0.16,0.66,0.65,0.5,1.09C249.1,269.51,248.78,269.72,248.43,269.72z M235.75,264.82
			c-0.11,0-0.21-0.02-0.31-0.06c-2.12-0.84-4.22-1.69-6.31-2.55c-0.43-0.18-0.64-0.67-0.46-1.11c0.18-0.43,0.67-0.64,1.11-0.46
			c2.08,0.85,4.18,1.7,6.29,2.54c0.44,0.17,0.65,0.67,0.48,1.1C236.41,264.62,236.09,264.82,235.75,264.82z M433.23,261.09
			c-0.28,0-0.56-0.14-0.72-0.39c-1.13-1.78-2.44-3.62-3.88-5.48c-0.29-0.37-0.22-0.9,0.15-1.19c0.37-0.29,0.9-0.22,1.19,0.15
			c1.48,1.9,2.82,3.79,3.98,5.61c0.25,0.4,0.13,0.92-0.26,1.17C433.55,261.05,433.39,261.09,433.23,261.09z M223.18,259.66
			c-0.11,0-0.22-0.02-0.33-0.07c-2.1-0.89-4.19-1.78-6.26-2.68c-0.43-0.19-0.63-0.69-0.44-1.12c0.19-0.43,0.69-0.63,1.12-0.44
			c2.06,0.9,4.14,1.79,6.24,2.67c0.43,0.18,0.63,0.68,0.45,1.11C223.82,259.47,223.51,259.66,223.18,259.66z M210.71,254.24
			c-0.12,0-0.23-0.02-0.35-0.07c-2.08-0.93-4.15-1.87-6.2-2.82c-0.43-0.2-0.61-0.7-0.42-1.13c0.2-0.43,0.7-0.61,1.13-0.42
			c2.04,0.94,4.1,1.88,6.18,2.81c0.43,0.19,0.62,0.69,0.43,1.12C211.34,254.06,211.03,254.24,210.71,254.24z M424.94,250.34
			c-0.23,0-0.46-0.1-0.63-0.28c-1.44-1.6-3-3.25-4.65-4.89c-0.33-0.33-0.33-0.87,0-1.2c0.33-0.33,0.87-0.33,1.2,0
			c1.67,1.67,3.25,3.33,4.71,4.96c0.31,0.35,0.28,0.89-0.06,1.2C425.34,250.27,425.14,250.34,424.94,250.34z M198.37,248.55
			c-0.12,0-0.25-0.03-0.36-0.08c-2.06-0.98-4.12-1.97-6.13-2.96c-0.42-0.21-0.6-0.72-0.39-1.14c0.21-0.42,0.72-0.6,1.14-0.39
			c2,0.98,4.06,1.97,6.11,2.95c0.42,0.2,0.6,0.71,0.4,1.13C198.99,248.37,198.68,248.55,198.37,248.55z M186.16,242.57
			c-0.13,0-0.26-0.03-0.38-0.09c-2.06-1.04-4.1-2.08-6.06-3.1c-0.42-0.22-0.58-0.73-0.36-1.15c0.22-0.42,0.73-0.58,1.15-0.36
			c1.96,1.02,3.99,2.06,6.04,3.09c0.42,0.21,0.59,0.72,0.38,1.14C186.76,242.4,186.47,242.57,186.16,242.57z M174.09,236.3
			c-0.14,0-0.27-0.03-0.4-0.1c-2.01-1.08-4.02-2.17-5.98-3.26c-0.41-0.23-0.56-0.74-0.33-1.15c0.23-0.41,0.74-0.56,1.15-0.33
			c1.96,1.08,3.96,2.18,5.96,3.25c0.41,0.22,0.57,0.74,0.35,1.15C174.69,236.14,174.4,236.3,174.09,236.3z M162.2,229.72
			c-0.14,0-0.29-0.04-0.42-0.11c-1.97-1.13-3.95-2.28-5.88-3.43c-0.4-0.24-0.54-0.76-0.3-1.16c0.24-0.4,0.76-0.54,1.16-0.3
			c1.93,1.14,3.9,2.29,5.86,3.41c0.41,0.23,0.55,0.75,0.32,1.16C162.78,229.56,162.5,229.72,162.2,229.72z M150.51,222.78
			c-0.15,0-0.31-0.04-0.44-0.13c-1.94-1.19-3.88-2.41-5.77-3.61c-0.4-0.25-0.51-0.78-0.26-1.17c0.25-0.4,0.78-0.51,1.17-0.26
			c1.88,1.2,3.82,2.41,5.75,3.6c0.4,0.25,0.52,0.77,0.28,1.17C151.07,222.64,150.79,222.78,150.51,222.78z M139.05,215.47
			c-0.16,0-0.33-0.05-0.47-0.14c-1.91-1.27-3.81-2.56-5.64-3.83c-0.39-0.27-0.48-0.8-0.21-1.18c0.27-0.39,0.8-0.48,1.18-0.21
			c1.82,1.26,3.71,2.55,5.61,3.81c0.39,0.26,0.5,0.79,0.24,1.18C139.59,215.33,139.32,215.47,139.05,215.47z M127.88,207.71
			c-0.17,0-0.35-0.05-0.5-0.16c-1.87-1.36-3.71-2.73-5.47-4.08c-0.37-0.29-0.44-0.82-0.16-1.19c0.28-0.37,0.82-0.44,1.19-0.16
			c1.75,1.34,3.58,2.7,5.43,4.05c0.38,0.28,0.46,0.81,0.19,1.19C128.4,207.59,128.15,207.71,127.88,207.71z M117.1,199.44
			c-0.19,0-0.38-0.06-0.53-0.19c-1.8-1.46-3.56-2.93-5.23-4.38c-0.35-0.31-0.39-0.84-0.09-1.2c0.31-0.35,0.84-0.39,1.2-0.09
			c1.66,1.44,3.41,2.9,5.19,4.35c0.36,0.3,0.42,0.83,0.12,1.2C117.59,199.33,117.34,199.44,117.1,199.44z M106.84,190.53
			c-0.21,0-0.42-0.08-0.58-0.23c-1.71-1.6-3.36-3.21-4.88-4.78c-0.33-0.34-0.32-0.87,0.02-1.2c0.34-0.33,0.87-0.32,1.2,0.02
			c1.51,1.55,3.13,3.14,4.83,4.73c0.34,0.32,0.36,0.86,0.04,1.2C107.29,190.44,107.06,190.53,106.84,190.53z M97.38,180.77
			c-0.24,0-0.47-0.1-0.64-0.29c-1.56-1.8-3.01-3.6-4.3-5.34c-0.28-0.38-0.2-0.91,0.18-1.19c0.38-0.28,0.91-0.2,1.19,0.18
			c1.27,1.71,2.69,3.47,4.22,5.24c0.31,0.36,0.27,0.89-0.09,1.2C97.77,180.71,97.58,180.77,97.38,180.77z M89.35,169.84
			c-0.29,0-0.57-0.15-0.73-0.42c-1.25-2.11-2.28-4.19-3.08-6.18c-0.17-0.44,0.04-0.93,0.47-1.1c0.44-0.17,0.93,0.04,1.1,0.47
			c0.76,1.91,1.76,3.91,2.97,5.95c0.24,0.4,0.11,0.92-0.3,1.16C89.64,169.8,89.49,169.84,89.35,169.84z M84.52,157.25
			c-0.42,0-0.78-0.31-0.84-0.73c-0.15-1.04-0.22-2.07-0.22-3.07c0-1.37,0.14-2.71,0.42-3.98c0.1-0.46,0.56-0.75,1.01-0.65
			c0.46,0.1,0.75,0.55,0.65,1.01c-0.26,1.16-0.38,2.37-0.38,3.62c0,0.91,0.07,1.87,0.21,2.83c0.07,0.46-0.26,0.89-0.72,0.96
			C84.6,157.25,84.56,157.25,84.52,157.25z M87.49,144.36c-0.17,0-0.35-0.05-0.5-0.16c-0.38-0.28-0.46-0.81-0.19-1.19
			c1.31-1.79,3.01-3.44,5.06-4.88c0.38-0.27,0.91-0.18,1.18,0.2c0.27,0.38,0.18,0.91-0.2,1.18c-1.9,1.34-3.47,2.86-4.67,4.5
			C88.01,144.24,87.75,144.36,87.49,144.36z M98.3,136.41c-0.33,0-0.64-0.19-0.78-0.52c-0.18-0.43,0.02-0.93,0.45-1.11
			c1.97-0.84,4.17-1.6,6.53-2.24c0.45-0.13,0.92,0.14,1.04,0.59c0.12,0.45-0.14,0.92-0.59,1.04c-2.29,0.63-4.41,1.35-6.31,2.17
			C98.52,136.39,98.41,136.41,98.3,136.41z M111.35,132.75c-0.41,0-0.76-0.29-0.84-0.7c-0.08-0.46,0.23-0.9,0.69-0.98
			c2.14-0.37,4.42-0.68,6.79-0.93c0.48-0.04,0.88,0.29,0.93,0.76c0.05,0.47-0.29,0.88-0.76,0.93c-2.33,0.24-4.57,0.54-6.67,0.91
			C111.45,132.74,111.4,132.75,111.35,132.75z M124.86,131.33c-0.45,0-0.83-0.35-0.85-0.81c-0.02-0.47,0.34-0.87,0.81-0.89
			c2.19-0.11,4.49-0.16,6.83-0.17c0,0,0,0,0,0c0.47,0,0.85,0.38,0.85,0.85c0,0.47-0.38,0.85-0.85,0.85
			c-2.32,0.01-4.59,0.07-6.75,0.17C124.89,131.32,124.87,131.33,124.86,131.33z"/>
		<path class="st3" d="M109.26,254.27C109.26,254.27,109.26,254.27,109.26,254.27c-2.32,0-4.62-0.04-6.82-0.11
			c-0.47-0.01-0.84-0.41-0.82-0.88c0.01-0.46,0.39-0.82,0.85-0.82c0.01,0,0.02,0,0.03,0c2.19,0.07,4.46,0.11,6.77,0.11
			c0.47,0,0.85,0.38,0.85,0.85C110.11,253.89,109.73,254.27,109.26,254.27z M116.06,254.19c-0.46,0-0.84-0.37-0.85-0.83
			c-0.01-0.47,0.36-0.86,0.83-0.87c2.2-0.05,4.48-0.14,6.77-0.25c0.48-0.02,0.87,0.34,0.89,0.81c0.02,0.47-0.34,0.87-0.81,0.89
			c-2.31,0.11-4.6,0.19-6.81,0.25C116.07,254.19,116.06,254.19,116.06,254.19z M95.68,253.83c-0.02,0-0.04,0-0.06,0
			c-2.35-0.16-4.64-0.37-6.81-0.62c-0.47-0.05-0.8-0.48-0.75-0.94c0.05-0.47,0.48-0.8,0.94-0.75c2.14,0.25,4.41,0.46,6.73,0.62
			c0.47,0.03,0.82,0.44,0.79,0.91C96.5,253.48,96.12,253.83,95.68,253.83z M129.63,253.55c-0.44,0-0.82-0.34-0.85-0.79
			c-0.03-0.47,0.32-0.87,0.79-0.9c2.22-0.15,4.49-0.33,6.76-0.52c0.47-0.04,0.88,0.31,0.92,0.77c0.04,0.47-0.31,0.88-0.77,0.92
			c-2.28,0.2-4.56,0.37-6.79,0.52C129.67,253.55,129.65,253.55,129.63,253.55z M143.17,252.38c-0.43,0-0.8-0.33-0.84-0.76
			c-0.05-0.47,0.29-0.88,0.76-0.93c2.21-0.23,4.48-0.48,6.74-0.74c0.46-0.06,0.89,0.28,0.94,0.74c0.06,0.47-0.28,0.89-0.74,0.94
			c-2.27,0.27-4.55,0.52-6.77,0.75C143.23,252.38,143.2,252.38,143.17,252.38z M82.19,252.23c-0.05,0-0.1,0-0.15-0.01
			c-2.39-0.43-4.64-0.93-6.7-1.48c-0.45-0.12-0.72-0.59-0.6-1.04c0.12-0.45,0.59-0.72,1.04-0.6c2.01,0.54,4.22,1.03,6.56,1.45
			c0.46,0.08,0.77,0.52,0.69,0.99C82.95,251.94,82.59,252.23,82.19,252.23z M156.67,250.79c-0.42,0-0.78-0.31-0.84-0.74
			c-0.06-0.47,0.27-0.89,0.73-0.95c2.21-0.29,4.47-0.61,6.72-0.94c0.47-0.07,0.9,0.25,0.96,0.72c0.07,0.46-0.25,0.9-0.72,0.96
			c-2.26,0.33-4.53,0.65-6.74,0.94C156.75,250.79,156.71,250.79,156.67,250.79z M170.12,248.83c-0.41,0-0.77-0.3-0.84-0.72
			c-0.07-0.46,0.24-0.9,0.71-0.97c2.21-0.35,4.46-0.72,6.7-1.1c0.46-0.08,0.9,0.23,0.98,0.69c0.08,0.46-0.23,0.9-0.69,0.98
			c-2.24,0.38-4.5,0.76-6.72,1.11C170.21,248.83,170.17,248.83,170.12,248.83z M69.12,248.59c-0.11,0-0.22-0.02-0.33-0.07
			c-2.37-0.99-4.42-2.13-6.11-3.37c-0.38-0.28-0.46-0.81-0.18-1.19c0.28-0.38,0.81-0.46,1.19-0.18c1.58,1.16,3.52,2.23,5.76,3.17
			c0.43,0.18,0.64,0.68,0.45,1.11C69.77,248.4,69.45,248.59,69.12,248.59z M183.52,246.54c-0.4,0-0.76-0.29-0.83-0.7
			c-0.08-0.46,0.22-0.9,0.68-0.99c2.21-0.4,4.43-0.82,6.67-1.26c0.46-0.09,0.91,0.21,1,0.67c0.09,0.46-0.21,0.91-0.67,1
			c-2.25,0.44-4.47,0.85-6.69,1.26C183.62,246.54,183.57,246.54,183.52,246.54z M196.86,243.96c-0.39,0-0.75-0.28-0.83-0.68
			c-0.09-0.46,0.2-0.91,0.66-1c2.2-0.45,4.41-0.92,6.64-1.4c0.46-0.1,0.91,0.19,1.01,0.65c0.1,0.46-0.19,0.91-0.65,1.01
			c-2.23,0.48-4.45,0.95-6.66,1.4C196.98,243.95,196.92,243.96,196.86,243.96z M210.15,241.09c-0.39,0-0.74-0.27-0.83-0.66
			c-0.1-0.46,0.18-0.91,0.64-1.02c2.19-0.5,4.4-1.01,6.61-1.53c0.46-0.11,0.91,0.17,1.02,0.63c0.11,0.46-0.17,0.91-0.63,1.02
			c-2.22,0.52-4.43,1.03-6.63,1.53C210.28,241.09,210.21,241.09,210.15,241.09z M58.69,240.33c-0.31,0-0.6-0.16-0.75-0.45
			c-0.41-0.78-0.73-1.6-0.96-2.43c-0.28-1.03-0.43-2.12-0.43-3.22c0-0.46,0.02-0.93,0.07-1.41c0.05-0.47,0.47-0.8,0.93-0.76
			c0.47,0.05,0.81,0.47,0.76,0.93c-0.04,0.42-0.07,0.83-0.07,1.23c0,0.95,0.12,1.88,0.37,2.77c0.2,0.72,0.47,1.42,0.83,2.09
			c0.22,0.42,0.06,0.93-0.36,1.15C58.96,240.3,58.82,240.33,58.69,240.33z M223.38,237.97c-0.38,0-0.73-0.26-0.82-0.65
			c-0.11-0.46,0.17-0.92,0.62-1.03c2.19-0.54,4.38-1.09,6.58-1.65c0.46-0.12,0.92,0.16,1.03,0.61c0.12,0.45-0.16,0.92-0.61,1.03
			c-2.21,0.57-4.41,1.12-6.6,1.66C223.51,237.96,223.45,237.97,223.38,237.97z M236.55,234.6c-0.38,0-0.72-0.25-0.82-0.63
			c-0.12-0.45,0.15-0.92,0.6-1.04c1.74-0.46,3.49-0.94,5.24-1.42l1.31-0.36c0.45-0.12,0.92,0.14,1.05,0.59
			c0.12,0.45-0.14,0.92-0.59,1.05l-1.31,0.36c-1.75,0.48-3.51,0.95-5.25,1.42C236.69,234.59,236.62,234.6,236.55,234.6z
			 M249.65,230.98c-0.37,0-0.71-0.24-0.82-0.62c-0.13-0.45,0.13-0.92,0.58-1.05c2.19-0.62,4.36-1.26,6.52-1.9
			c0.45-0.13,0.92,0.12,1.06,0.57c0.13,0.45-0.12,0.92-0.57,1.06c-2.16,0.64-4.34,1.27-6.53,1.9
			C249.8,230.97,249.72,230.98,249.65,230.98z M59.56,227.34c-0.13,0-0.27-0.03-0.4-0.1c-0.42-0.22-0.57-0.73-0.36-1.15
			c0.98-1.85,2.28-3.79,3.89-5.76c0.3-0.36,0.83-0.42,1.2-0.12c0.36,0.3,0.42,0.83,0.12,1.2c-1.53,1.88-2.78,3.73-3.7,5.48
			C60.16,227.17,59.87,227.34,59.56,227.34z M262.68,227.12c-0.36,0-0.7-0.24-0.81-0.6c-0.14-0.45,0.11-0.92,0.56-1.06
			c2.18-0.67,4.34-1.34,6.48-2.02c0.45-0.14,0.92,0.11,1.07,0.55c0.14,0.45-0.11,0.92-0.55,1.07c-2.15,0.68-4.32,1.36-6.5,2.02
			C262.85,227.11,262.77,227.12,262.68,227.12z M275.64,223.01c-0.36,0-0.69-0.23-0.81-0.59c-0.15-0.45,0.1-0.93,0.54-1.07
			c2.16-0.71,4.31-1.42,6.44-2.15c0.44-0.15,0.93,0.09,1.08,0.53c0.15,0.44-0.09,0.93-0.53,1.08c-2.13,0.72-4.29,1.44-6.46,2.15
			C275.82,223,275.73,223.01,275.64,223.01z M288.52,218.65c-0.35,0-0.68-0.22-0.8-0.57c-0.15-0.44,0.08-0.93,0.52-1.08
			c2.15-0.75,4.28-1.51,6.39-2.28c0.44-0.16,0.93,0.07,1.09,0.51c0.16,0.44-0.07,0.93-0.51,1.09c-2.12,0.77-4.25,1.53-6.41,2.29
			C288.71,218.63,288.61,218.65,288.52,218.65z M67.97,216.73c-0.22,0-0.44-0.09-0.61-0.26c-0.33-0.34-0.32-0.87,0.02-1.2
			c1.54-1.49,3.26-3.03,5.12-4.57c0.36-0.3,0.9-0.25,1.2,0.11c0.3,0.36,0.25,0.9-0.11,1.2c-1.82,1.51-3.51,3.02-5.02,4.48
			C68.4,216.65,68.18,216.73,67.97,216.73z M301.3,214.02c-0.34,0-0.67-0.21-0.8-0.55c-0.16-0.44,0.06-0.93,0.5-1.09
			c2.13-0.8,4.26-1.61,6.34-2.42c0.44-0.17,0.93,0.05,1.1,0.48c0.17,0.44-0.05,0.93-0.48,1.1c-2.08,0.81-4.22,1.63-6.36,2.43
			C301.5,214,301.4,214.02,301.3,214.02z M313.97,209.1c-0.34,0-0.66-0.2-0.79-0.53c-0.18-0.44,0.04-0.93,0.47-1.1
			c2.09-0.84,4.21-1.71,6.28-2.57c0.43-0.18,0.93,0.02,1.11,0.46c0.18,0.43-0.02,0.93-0.46,1.11c-2.08,0.87-4.2,1.74-6.3,2.58
			C314.18,209.08,314.08,209.1,313.97,209.1z M78.39,208.02c-0.26,0-0.52-0.12-0.68-0.35c-0.28-0.38-0.2-0.91,0.18-1.19
			c1.75-1.29,3.63-2.62,5.59-3.93c0.39-0.26,0.92-0.16,1.18,0.23c0.26,0.39,0.16,0.92-0.23,1.18c-1.93,1.3-3.79,2.61-5.53,3.89
			C78.74,207.97,78.57,208.02,78.39,208.02z M326.52,203.86c-0.33,0-0.64-0.19-0.78-0.51c-0.19-0.43,0.01-0.93,0.44-1.12
			c2.09-0.91,4.18-1.83,6.21-2.74c0.43-0.19,0.93,0,1.12,0.43c0.19,0.43,0,0.93-0.43,1.12c-2.03,0.92-4.13,1.84-6.23,2.75
			C326.74,203.84,326.63,203.86,326.52,203.86z M338.91,198.27c-0.32,0-0.62-0.18-0.77-0.49c-0.2-0.42-0.02-0.93,0.41-1.13
			c2.06-0.97,4.12-1.95,6.12-2.93c0.42-0.21,0.93-0.03,1.14,0.39c0.21,0.42,0.03,0.93-0.39,1.14c-2.01,0.98-4.07,1.98-6.14,2.95
			C339.16,198.25,339.03,198.27,338.91,198.27z M351.12,192.28c-0.31,0-0.61-0.17-0.76-0.46c-0.21-0.42-0.05-0.93,0.37-1.14
			c2.04-1.05,4.06-2.11,6-3.16c0.41-0.22,0.93-0.07,1.15,0.34c0.22,0.41,0.07,0.93-0.34,1.15c-1.95,1.05-3.98,2.12-6.03,3.18
			C351.38,192.25,351.25,192.28,351.12,192.28z M363.07,185.8c-0.29,0-0.58-0.15-0.74-0.43c-0.23-0.41-0.09-0.93,0.32-1.16
			c2-1.14,3.96-2.3,5.83-3.44c0.4-0.24,0.92-0.12,1.17,0.28c0.24,0.4,0.12,0.92-0.28,1.17c-1.89,1.15-3.86,2.32-5.87,3.47
			C363.36,185.77,363.21,185.8,363.07,185.8z M374.67,178.71c-0.28,0-0.55-0.13-0.71-0.38c-0.26-0.39-0.15-0.92,0.24-1.18
			c1.95-1.28,3.82-2.56,5.58-3.82c0.38-0.27,0.91-0.19,1.19,0.2c0.27,0.38,0.19,0.91-0.2,1.19c-1.78,1.27-3.67,2.57-5.64,3.86
			C374.99,178.67,374.83,178.71,374.67,178.71z M385.71,170.78c-0.25,0-0.5-0.11-0.66-0.32c-0.29-0.37-0.23-0.9,0.13-1.19
			c1.85-1.47,3.57-2.94,5.12-4.37c0.35-0.32,0.88-0.3,1.2,0.05c0.32,0.35,0.29,0.88-0.05,1.2c-1.58,1.45-3.34,2.95-5.21,4.45
			C386.08,170.72,385.89,170.78,385.71,170.78z M395.65,161.55c-0.2,0-0.4-0.07-0.56-0.21c-0.35-0.31-0.38-0.85-0.07-1.2
			c1.6-1.81,2.96-3.58,4.02-5.28c0.25-0.4,0.77-0.52,1.17-0.27c0.4,0.25,0.52,0.77,0.27,1.17c-1.12,1.78-2.53,3.63-4.19,5.51
			C396.12,161.45,395.89,161.55,395.65,161.55z M402.53,150c-0.07,0-0.14-0.01-0.21-0.03c-0.45-0.12-0.73-0.58-0.61-1.03
			c0.28-1.1,0.43-2.18,0.43-3.21c0-0.95-0.12-1.88-0.37-2.77c-0.02-0.07-0.04-0.14-0.07-0.22c-0.15-0.45,0.09-0.93,0.54-1.07
			c0.45-0.15,0.93,0.09,1.07,0.54c0.03,0.1,0.06,0.2,0.09,0.3c0.28,1.04,0.43,2.12,0.43,3.22c0,1.17-0.16,2.39-0.48,3.63
			C403.25,149.75,402.91,150,402.53,150z M398.19,138.22c-0.18,0-0.35-0.05-0.5-0.17c-1.57-1.16-3.5-2.28-5.73-3.32
			c-0.43-0.2-0.61-0.7-0.41-1.13c0.2-0.43,0.7-0.61,1.13-0.41c2.33,1.09,4.36,2.26,6.02,3.49c0.38,0.28,0.46,0.81,0.18,1.19
			C398.7,138.1,398.45,138.22,398.19,138.22z M385.98,132.35c-0.09,0-0.17-0.01-0.26-0.04c-2.08-0.67-4.26-1.25-6.48-1.73
			c-0.46-0.1-0.75-0.55-0.65-1.01c0.1-0.46,0.55-0.75,1.01-0.65c2.28,0.49,4.52,1.08,6.65,1.77c0.45,0.14,0.69,0.62,0.55,1.07
			C386.67,132.13,386.34,132.35,385.98,132.35z M352.43,130.34c-0.39,0-0.74-0.27-0.83-0.66c-0.1-0.46,0.18-0.91,0.64-1.02
			c2.18-0.49,4.47-0.85,6.82-1.07c0.46-0.05,0.88,0.3,0.92,0.77c0.04,0.47-0.3,0.88-0.77,0.92c-2.28,0.21-4.5,0.56-6.6,1.03
			C352.56,130.34,352.49,130.34,352.43,130.34z M372.71,129.5c-0.03,0-0.07,0-0.1-0.01c-2.24-0.26-4.5-0.41-6.7-0.45
			c-0.47-0.01-0.84-0.39-0.84-0.86c0.01-0.47,0.39-0.84,0.86-0.84c2.26,0.04,4.57,0.19,6.86,0.46c0.47,0.05,0.8,0.48,0.75,0.94
			C373.5,129.18,373.14,129.5,372.71,129.5z"/>
	</g>
	<g>
		<g>
			<g>
				<path d="M78.81,205.25c-4.86-5.26-12.09-6.37-17.52-4.88c-6.87,1.88-10.34,7.82-12.79,12.02c-4.32,7.41-2.23,10.1-5.63,14.41
					c-6.02,7.63-20.61,2.58-27.71,8.44c-17.07,14.08-7.77,37.34,7.37,48.33c10.09,7.32,23.82,3.09,27.55,1.94
					c11.34-3.5,30.12-10.35,31.94-26.72c1.22-11-10.01-19.83-3.98-29c1.54-2.34,2.81-2.97,3.95-5.89
					C83.84,219.14,84.26,211.15,78.81,205.25z"/>
				<path d="M61.07,206.54c2.58-2.1,0.95-8.27-0.7-11.61c-0.62-1.25-3.39-6.84-7.04-6.62c-3.74,0.22-7.33,6.51-5.99,11.49
					C49,206.03,58.04,209,61.07,206.54z"/>
			</g>
			<g>
				<path class="st3" d="M43.63,244.48c7.79-2.54,19.66-4.37,33.85,0.15c5.17,1.65,8.89,6.2,9.52,11.6l11.56,66.56
					c0.57,4.84-5.89,9.54-10.45,11.27c-4.76,1.8-11.95,3.51-22.14,3.51c-10.92,0-24.11-0.06-28.54-2c-0.13-0.06-0.26-0.12-0.4-0.18
					c-5.7-2.66-9.05-8.67-8.49-14.93l2.35-9.78c2.6-10.79,3.8-21.86,3.58-32.96l-0.38-19.37C33.8,252.1,37.69,246.42,43.63,244.48z"
					/>
				<path class="st3" d="M98.21,273.08c0,0-9.23-25.56-19.57-28.02l5.26,36.22L98.21,273.08z"/>
				<path class="st3" d="M20.72,287.99c-3.95-3.13-5.62-8.34-4.21-13.18c1.27-4.35,2.87-9.6,4.26-13.39
					c4.76-12.97,14.63-15.87,18.48-16.79c0.61-0.14,7.45-1.05,7.45-1.05l-4.12,39.7l-17.59,7.2L20.72,287.99z"/>
			</g>
			<path d="M33.19,319.74c-0.13,0-0.27-0.03-0.4-0.1c-0.41-0.22-0.57-0.73-0.36-1.15c8.91-16.91,35.24-15.92,43.76-14.24
				c6.85,1.35,13.68,5.75,13.97,5.94c0.39,0.25,0.51,0.78,0.25,1.17c-0.25,0.39-0.78,0.5-1.17,0.25c-0.07-0.04-6.85-4.41-13.37-5.7
				c-10.31-2.04-34.12-1.45-41.92,13.36C33.79,319.58,33.49,319.74,33.19,319.74z"/>
			<g>
				<g>
					<g>
						<path class="st2" d="M61.66,293.96l45.31-0.07c1.15,0,2.15-0.79,2.42-1.9l7.69-31.97c0.39-1.58-0.81-3.1-2.43-3.1l-45.31,0.07
							c-1.15,0-2.15,0.79-2.42,1.9l-7.69,31.97C58.84,292.44,60.04,293.96,61.66,293.96z"/>
						<path d="M61.66,294.81c-1.04,0-2-0.47-2.63-1.28c-0.64-0.82-0.86-1.86-0.62-2.87l7.69-31.97c0.37-1.5,1.7-2.55,3.25-2.55
							l45.31-0.07c0,0,0,0,0.01,0c1.03,0,1.99,0.47,2.63,1.28c0.64,0.82,0.87,1.86,0.62,2.87l-7.69,31.97
							c-0.37,1.5-1.7,2.55-3.25,2.55L61.66,294.81C61.66,294.81,61.66,294.81,61.66,294.81z M114.66,257.77
							C114.66,257.77,114.66,257.77,114.66,257.77l-45.32,0.07c-0.76,0-1.42,0.52-1.6,1.25l-7.69,31.97
							c-0.12,0.5-0.01,1.02,0.3,1.42c0.31,0.4,0.79,0.63,1.3,0.63c0,0,0,0,0,0l45.31-0.07c0.76,0,1.42-0.52,1.6-1.25l7.69-31.97
							c0.12-0.5,0.01-1.02-0.3-1.42C115.65,258,115.17,257.77,114.66,257.77z"/>
					</g>
					<path class="st1" d="M92.14,276.04c-0.45,1.93-2.27,3.15-4.07,2.73c-1.8-0.42-2.89-2.33-2.43-4.26
						c0.45-1.93,2.27-3.15,4.07-2.73C91.5,272.21,92.59,274.11,92.14,276.04z"/>
				</g>
				<g>
					<path class="st1" d="M114.43,272.19l-0.58,2.3c-0.24,0.97-1.31,1.48-2.22,1.05l-7.67-3.64c-1.02-0.48-2.24,0.03-2.59,1.1
						c-0.72,2.18-0.11,6.06,9.65,10.02c5.96,2.42,6.17-4.13,5.2-8.12C115.8,273.12,114.43,272.19,114.43,272.19z"/>
					<path d="M113.34,284.39c-0.79,0-1.66-0.2-2.63-0.59c-10.05-4.07-11.06-8.27-10.13-11.07c0.24-0.74,0.79-1.33,1.51-1.64
						c0.72-0.31,1.54-0.29,2.25,0.04l7.67,3.64c0.27,0.13,0.51,0.06,0.63,0c0.12-0.06,0.33-0.19,0.4-0.49l0.58-2.3
						c0.07-0.27,0.26-0.49,0.52-0.59c0.26-0.1,0.55-0.07,0.78,0.09c0.07,0.05,1.65,1.14,2.15,3.2c0.72,2.95,0.82,7.03-1.26,8.82
						C115.13,284.09,114.3,284.39,113.34,284.39z M103.16,272.56c-0.14,0-0.28,0.03-0.41,0.08c-0.27,0.12-0.47,0.33-0.56,0.61
						c-0.98,2.99,2.27,6.17,9.16,8.97c1.51,0.61,2.63,0.61,3.34,0c1.33-1.15,1.37-4.46,0.72-7.14c-0.12-0.47-0.31-0.87-0.53-1.2
						l-0.2,0.8c-0.18,0.71-0.66,1.3-1.32,1.61c-0.66,0.31-1.42,0.31-2.08,0l-7.67-3.64C103.47,272.6,103.32,272.56,103.16,272.56z"
						/>
				</g>
			</g>
			<g>
				<path class="st1" d="M48.28,262.39c0,0-20.35,11.47-24.55,15.06c-4.2,3.6-8.75,6.33-2.81,14.17
					c5.04,6.67,13.93,0.71,29.59-21.76c0.73-1.05,1.93-1.71,3.19-1.99c1.57-0.35,3.85-1.59,4.9-5.71c0,0,7.42,1.05,8.08-2.56
					l-11.15-1.77c-1.49-0.26-3.02,0.23-4.08,1.31L48.28,262.39z"/>
				<path d="M25.55,295.04c-2.07,0-3.85-0.98-5.31-2.91c-5.96-7.88-1.93-11.25,1.97-14.51c0.32-0.27,0.64-0.54,0.97-0.81
					c4.1-3.51,22.81-14.1,24.58-15.1l3.08-3.16c1.26-1.29,3.06-1.88,4.84-1.56l11.13,1.77c0.23,0.04,0.43,0.16,0.56,0.35
					c0.13,0.19,0.18,0.42,0.14,0.64c-0.66,3.64-6.24,3.51-8.29,3.33c-1.28,4.12-3.86,5.29-5.34,5.62c-1.17,0.26-2.12,0.85-2.67,1.64
					c-11.67,16.73-19.78,24.58-25.52,24.69C25.64,295.04,25.59,295.04,25.55,295.04z M54.72,258.6c-1,0-1.97,0.4-2.67,1.13
					l-3.16,3.25c-0.06,0.06-0.12,0.11-0.19,0.15c-0.2,0.11-20.33,11.47-24.41,14.97c-0.33,0.28-0.66,0.56-0.98,0.83
					c-3.89,3.25-6.69,5.59-1.71,12.18c1.16,1.53,2.47,2.28,4.05,2.23c5.08-0.1,12.99-7.94,24.16-23.96c0.8-1.15,2.11-1.97,3.7-2.33
					c1.43-0.32,3.34-1.47,4.26-5.09c0.11-0.42,0.52-0.69,0.94-0.63c1.48,0.21,5.4,0.37,6.71-1.06l-10.03-1.6
					C55.16,258.62,54.94,258.6,54.72,258.6z M48.28,262.39L48.28,262.39L48.28,262.39z"/>
			</g>
			<g>
				<path class="st1" d="M69.16,232.23c1.1,0.55,2.42,0.32,3.28-0.55c0.98-0.98,1.76-2.02,2.41-3.08l1.24,0.03
					c0.4,0.01,0.73-0.3,0.75-0.7l0.21-4.86c0.96-1.56,1.34-2.88,1.43-3.95c0.15-1.81-1.46-5.05-3.09-5.84
					c-2.2-1.08-6.19-1.66-8.26,1.47c-0.89,1.34-2.34,2.31-3.22,2.15c-0.83-0.15-1.16-0.85-1.57-1.59c-0.76-1.36-2.65-2.65-4.46-0.49
					c-1.84,2.19-0.56,4.19,0.58,5.87c0.46,0.68-0.04,2.55-0.22,3.35l-2.69,11.46c-0.69,2.94-2.8,5.36-5.62,6.44l-2.88,1.1
					c0,0,3.18,9.64,15.91,9.37c9.72-0.21,8.97-8.18,8.97-8.18l-1.28-0.56c-3.34-1.47-5.17-5.11-4.36-8.67l0.86-3.78L69.16,232.23z"
					/>
				<path d="M62.43,253.26c-12.76,0-16.16-9.86-16.19-9.96c-0.14-0.43,0.08-0.9,0.5-1.06l2.88-1.1c2.56-0.98,4.47-3.17,5.1-5.84
					l2.73-11.64c0.41-1.73,0.39-2.31,0.3-2.5c-1.05-1.54-2.82-4.15-0.52-6.88c1.11-1.32,2.25-1.51,2.99-1.44
					c1.33,0.13,2.35,1.15,2.86,2.07l0.08,0.14c0.37,0.68,0.56,0.96,0.9,1.02c0.36,0.05,1.52-0.51,2.37-1.78
					c2.18-3.28,6.37-3.21,9.34-1.76c2.04,0.99,3.73,4.6,3.56,6.68c-0.11,1.31-0.59,2.7-1.44,4.13l-0.2,4.64
					c-0.04,0.84-0.74,1.51-1.58,1.51c-0.01,0-0.02,0-0.03,0l-0.76-0.02c-0.66,1.02-1.42,1.97-2.27,2.82
					c-1.13,1.14-2.85,1.42-4.27,0.71l-1.05-0.52l-0.62,2.72c-0.71,3.16,0.92,6.4,3.88,7.7l1.28,0.56c0.28,0.12,0.47,0.39,0.5,0.7
					c0.01,0.14,0.3,3.49-2.05,6.11c-1.71,1.91-4.31,2.92-7.75,3C62.79,253.26,62.61,253.26,62.43,253.26z M48.16,243.52
					c1.02,2.17,4.77,8.26,14.77,8.04c2.95-0.06,5.14-0.88,6.52-2.43c1.39-1.56,1.61-3.47,1.63-4.34l-0.78-0.35
					c-3.7-1.63-5.74-5.68-4.85-9.63l0.86-3.78c0.06-0.25,0.23-0.47,0.47-0.58c0.24-0.11,0.51-0.11,0.74,0.01l2.02,1.01c0,0,0,0,0,0
					c0.76,0.38,1.69,0.23,2.3-0.39c0.86-0.87,1.63-1.85,2.28-2.92c0.16-0.26,0.42-0.4,0.74-0.41l1.13,0.02l0.21-4.74
					c0.01-0.14,0.05-0.28,0.12-0.41c0.78-1.27,1.22-2.47,1.31-3.57c0.13-1.54-1.36-4.4-2.61-5.01c-1.67-0.82-5.32-1.62-7.18,1.18
					c-0.93,1.4-2.67,2.77-4.08,2.52c-1.17-0.21-1.68-1.13-2.09-1.87l-0.08-0.14c-0.31-0.55-0.9-1.14-1.54-1.2
					c-0.5-0.05-1.02,0.24-1.53,0.85c-1.37,1.63-0.6,3.03,0.63,4.85c0.59,0.87,0.3,2.37-0.06,3.84l-0.04,0.18l-2.69,11.46
					c-0.76,3.22-3.05,5.85-6.14,7.04L48.16,243.52z"/>
			</g>
		</g>
		<g>
			<g>
				<g>
					<path class="st1" d="M68.49,431.9l-6.75,20.13c0,0,7.35-0.63,8.05-0.49c0.7,0.14,9.3-18.36,9.3-18.36L68.49,431.9z"/>
					<path d="M61.74,452.88c-0.26,0-0.51-0.12-0.67-0.32c-0.18-0.22-0.23-0.52-0.14-0.79l6.75-20.13c0.13-0.38,0.5-0.62,0.91-0.57
						l10.6,1.28c0.27,0.03,0.51,0.19,0.64,0.43c0.13,0.24,0.14,0.52,0.03,0.77c-0.02,0.05-2.18,4.68-4.39,9.25
						c-4.76,9.8-5.03,9.75-5.84,9.59c-0.49-0.06-4.37,0.21-7.82,0.5C61.79,452.88,61.77,452.88,61.74,452.88z M69.08,432.82
						l-6.12,18.25c2.16-0.18,5.26-0.41,6.51-0.4c1.03-1.48,4.89-9.36,8.36-16.8L69.08,432.82z M69.89,450.7
						c0.03,0,0.05,0.01,0.07,0.01C69.93,450.7,69.91,450.7,69.89,450.7z"/>
				</g>
				<g>
					<g>
						<path class="st2" d="M63.29,447.61c0,0,10.15-4.16,12.03,1.06c2.39,6.64,6.12,16.77,6.12,16.77c0.63,1.76-0.58,3.64-2.45,3.79
							c-3.71,0.3-9.24,0.54-11.82-0.36c-4.07-1.43-10.82-14.3-10.82-14.3l2.08-10.96C58.43,443.61,62.11,443.09,63.29,447.61z"/>
						<path d="M73.02,470.36c-2.42,0-4.69-0.17-6.13-0.68c-4.26-1.49-10.58-13.36-11.29-14.71c-0.09-0.17-0.12-0.36-0.08-0.55
							l2.08-10.96c0.07-0.36,0.36-0.63,0.72-0.68c1.42-0.2,4.24,0.37,5.52,3.73c1.95-0.68,6.76-2.1,9.84-0.73
							c1.19,0.53,2.02,1.41,2.45,2.62c2.36,6.56,6.08,16.67,6.12,16.77c0.39,1.1,0.26,2.28-0.37,3.26
							c-0.63,0.97-1.65,1.59-2.81,1.68C77.19,470.23,75.05,470.36,73.02,470.36z M57.24,454.43c1.96,3.68,7.21,12.58,10.21,13.64
							c1.86,0.65,5.93,0.76,11.47,0.32c0.63-0.05,1.18-0.38,1.52-0.91c0.34-0.53,0.41-1.17,0.2-1.75
							c-0.03-0.09-3.76-10.21-6.12-16.77c-0.27-0.76-0.78-1.3-1.54-1.64c-2.65-1.18-7.66,0.38-9.36,1.08
							c-0.23,0.09-0.48,0.08-0.7-0.03c-0.22-0.11-0.38-0.31-0.44-0.54c-0.72-2.74-2.43-3.28-3.34-3.37L57.24,454.43z"/>
					</g>
					<path d="M78.83,465.7H68.41c-0.47,0-0.85-0.38-0.85-0.85s0.38-0.85,0.85-0.85h10.42c0.47,0,0.85,0.38,0.85,0.85
						S79.3,465.7,78.83,465.7z"/>
				</g>
			</g>
			<g>
				<g>
					<polygon class="st1" points="49.36,436.84 51.65,457.1 60.87,454.57 60.16,436.32 					"/>
					<path d="M51.65,457.95c-0.17,0-0.33-0.05-0.48-0.15c-0.21-0.14-0.34-0.36-0.37-0.61l-2.29-20.25c-0.03-0.23,0.04-0.47,0.2-0.65
						c0.15-0.18,0.37-0.29,0.61-0.3l10.81-0.52c0.23-0.01,0.45,0.07,0.62,0.22c0.17,0.15,0.27,0.37,0.27,0.59l0.71,18.25
						c0.02,0.39-0.24,0.75-0.62,0.85l-9.22,2.53C51.8,457.94,51.73,457.95,51.65,457.95z M50.3,437.65l2.08,18.37l7.62-2.09
						l-0.65-16.72L50.3,437.65z"/>
				</g>
				<g>
					<g>
						<path class="st2" d="M50.78,472.02h14.59c1.98,0,3.49-1.75,3.2-3.71c-0.49-3.3-2.08-8.76-6.83-16.28
							c-0.52-0.82-1.43-1.32-2.4-1.32h-4.44c-0.77,0-1.41,0.58-1.49,1.34l-0.34,3.2l-1.34-1.38c-0.53-0.54-1.45-0.33-1.68,0.39
							c-0.85,2.59-2.4,8.14-2.52,14.47C47.51,470.53,48.97,472.02,50.78,472.02z"/>
						<path d="M65.38,472.87H50.78c-1.11,0-2.14-0.43-2.92-1.22c-0.77-0.79-1.19-1.83-1.17-2.94c0.12-6.38,1.65-11.96,2.56-14.72
							c0.2-0.62,0.71-1.08,1.34-1.23c0.64-0.15,1.3,0.04,1.75,0.52l0.08,0.08l0.15-1.4c0.13-1.2,1.13-2.1,2.33-2.1h4.44
							c1.27,0,2.44,0.64,3.12,1.71c4.85,7.67,6.46,13.26,6.96,16.61c0.17,1.18-0.17,2.37-0.95,3.26
							C67.69,472.35,66.57,472.87,65.38,472.87z M51.02,454.42c-0.01,0-0.03,0-0.04,0c-0.06,0.01-0.09,0.05-0.11,0.1
							c-0.88,2.66-2.36,8.05-2.47,14.22c-0.01,0.64,0.23,1.25,0.68,1.72c0.45,0.46,1.06,0.72,1.7,0.72h14.59
							c0.7,0,1.35-0.3,1.81-0.83c0.45-0.52,0.65-1.22,0.55-1.91c-0.47-3.18-2.02-8.54-6.71-15.95c-0.36-0.57-1-0.92-1.68-0.92h-4.44
							c-0.33,0-0.61,0.25-0.64,0.58l-0.34,3.2c-0.03,0.33-0.26,0.61-0.57,0.71c-0.31,0.11-0.66,0.03-0.89-0.21l-1.34-1.38
							C51.1,454.43,51.06,454.42,51.02,454.42z"/>
					</g>
					<path d="M65.39,469.38H50.61c-0.47,0-0.85-0.38-0.85-0.85s0.38-0.85,0.85-0.85h14.78c0.47,0,0.85,0.38,0.85,0.85
						S65.86,469.38,65.39,469.38z"/>
				</g>
			</g>
			<g>
				<path d="M84,315.21c-0.38-0.93-1.16-1.65-2.12-1.95c-5.34-1.67-23.94-6.09-43.1,6.2c-0.9,0.58-1.48,1.55-1.56,2.62
					c-0.69,9.73-3.27,60.61,12.82,120.86l10.84-0.77l2.21-103c0,0,16.06,37.76,3,97.86l11.28,2.08c0,0,16.5-21.7,19.46-54.86
					C99.45,354.91,86.92,322.34,84,315.21z"/>
				<path class="st0" d="M52.81,395.49c-0.01,0-0.02,0-0.04,0c-10.39-0.45-11.56-14.48-11.57-14.62c-0.03-0.47,0.32-0.87,0.78-0.91
					c0.47-0.03,0.88,0.31,0.91,0.78c0.01,0.13,1.07,12.67,9.95,13.05c0.47,0.02,0.83,0.42,0.81,0.89
					C53.64,395.13,53.26,395.49,52.81,395.49z"/>
				<path class="st0" d="M64.04,349.45c-0.46,0-0.84-0.36-0.85-0.82l-0.29-9.79c-0.07-2.23,0.98-4.32,2.8-5.6l4.22-2.97
					c0.38-0.27,0.91-0.18,1.18,0.21c0.27,0.38,0.18,0.91-0.21,1.18l-4.22,2.97c-1.35,0.95-2.13,2.51-2.08,4.16l0.29,9.79
					c0.01,0.47-0.36,0.86-0.82,0.87C64.06,349.45,64.05,349.45,64.04,349.45z"/>
			</g>
		</g>
	</g>
	<g>
		<g>
			<g>
				<path class="st3" d="M303.83,439.69c-21.92-20.2-10.57-33.24-10.57-33.24s9.79-15.86,44.15,4.87
					c34.36,20.74,67.62,13.03,75.14,9.92c7.52-3.11,33.8-22.65,48.61-23.75c8.24-0.61,18.11,5.59,9.45,22.33
					c-17.9,34.64-66.49,38.59-66.49,38.59s-23.56,4.43-47.76,0.14C356.37,458.56,325.75,459.89,303.83,439.69z"/>
				<path d="M378.98,461.27c-6.98,0-14.81-0.47-22.67-1.85c-1.94,0.06-31.74,0.54-53.05-19.1c-11.55-10.65-13.87-19.38-13.78-24.83
					c0.1-5.7,2.71-9.06,3.1-9.53c0.36-0.54,3.05-4.31,9.71-5.67c9.16-1.87,21.13,1.6,35.57,10.32c14.59,8.8,30.47,13.44,47.22,13.78
					c13.3,0.28,23.34-2.34,27.17-3.92c2.21-0.91,6.29-3.41,11.01-6.3c11.53-7.06,27.33-16.73,37.87-17.51
					c3.91-0.29,9.1,0.9,11.89,5.12c2.03,3.06,3.39,8.75-1.62,18.45c-9.37,18.13-27.15,27.79-40.42,32.69
					c-13.89,5.14-25.89,6.28-26.72,6.35C403.47,459.41,392.91,461.27,378.98,461.27z M356.37,457.71c0.05,0,0.1,0,0.15,0.01
					c23.77,4.21,47.22-0.09,47.45-0.14c0.03,0,0.06-0.01,0.09-0.01c0.12-0.01,12.23-1.05,26.35-6.27
					c12.97-4.8,30.34-14.22,39.45-31.86c3.67-7.1,4.26-12.88,1.71-16.73c-2.38-3.61-6.91-4.62-10.35-4.37
					c-10.13,0.75-25.72,10.29-37.11,17.26c-4.98,3.05-8.91,5.46-11.25,6.42c-3.95,1.63-14.26,4.32-27.85,4.05
					c-17.05-0.35-33.21-5.07-48.06-14.02c-33.26-20.07-42.9-5.31-42.99-5.16c-0.02,0.04-0.05,0.08-0.08,0.11
					c-0.44,0.51-10.49,12.7,10.51,32.05c21.39,19.72,51.62,18.66,51.93,18.65C356.35,457.71,356.36,457.71,356.37,457.71z"/>
			</g>
			<g>
				<g>
					<polygon class="st1" points="360.93,442.64 374.69,450.72 364.6,456.22 358.18,452.11 					"/>
					<path d="M364.6,457.07c-0.16,0-0.32-0.04-0.46-0.13l-6.43-4.11c-0.32-0.2-0.46-0.59-0.36-0.95l2.75-9.47
						c0.07-0.25,0.26-0.46,0.5-0.55c0.24-0.1,0.52-0.08,0.74,0.06l13.77,8.09c0.26,0.15,0.42,0.44,0.42,0.75
						c0,0.31-0.17,0.59-0.44,0.73l-10.09,5.5C364.88,457.04,364.74,457.07,364.6,457.07z M359.17,451.74l5.47,3.5l8.33-4.54
						l-11.53-6.77L359.17,451.74z"/>
				</g>
				<g>
					<path class="st1" d="M364.65,452.58l2.06-2.08c0.74-0.75,1.9-0.89,2.8-0.35l1.46,0.89l0.77-1.13c0.34-0.74,1.22-1.2,1.95-0.84
						c8.73,4.19,19.83,7.4,25.05,11.26c6.17,4.57,1.79,14.74-8.97,13.7c-8.53-0.82-20.18-10.33-24.65-14.24
						c-0.88-0.77-0.66-2.19,0.41-2.66l0.01,0l-1.14-1.64C363.77,454.58,363.88,453.36,364.65,452.58z"/>
					<path d="M391.31,474.95c-0.52,0-1.07-0.03-1.63-0.08c-8.74-0.84-20.48-10.38-25.13-14.45c-0.63-0.55-0.93-1.38-0.81-2.21
						c0.08-0.49,0.29-0.94,0.62-1.29l-0.67-0.96c-0.86-1.24-0.72-2.91,0.34-3.98c0,0,0,0,0,0l2.06-2.08
						c1.02-1.03,2.6-1.23,3.84-0.48l0.77,0.47l0.28-0.41c0.29-0.58,0.8-1.04,1.4-1.26c0.56-0.2,1.14-0.17,1.65,0.07
						c3.4,1.63,7.17,3.12,10.82,4.55c5.71,2.25,11.11,4.37,14.37,6.79c2.86,2.12,3.89,5.63,2.62,8.93
						C400.69,471.63,397.25,474.95,391.31,474.95z M365.25,453.18c-0.48,0.49-0.55,1.25-0.16,1.82l1.14,1.64
						c0.15,0.21,0.19,0.48,0.12,0.73c-0.07,0.25-0.26,0.45-0.5,0.54c-0.32,0.14-0.4,0.44-0.42,0.56c-0.02,0.12-0.03,0.43,0.24,0.67
						c4.52,3.96,15.92,13.24,24.17,14.04c6,0.58,9.37-2.45,10.43-5.22c1-2.61,0.22-5.28-2.05-6.96c-3.08-2.28-8.37-4.36-13.98-6.57
						c-3.68-1.45-7.48-2.94-10.93-4.6c-0.1-0.05-0.21-0.05-0.34,0c-0.2,0.07-0.38,0.24-0.47,0.44c-0.02,0.04-0.04,0.08-0.07,0.12
						l-0.77,1.13c-0.25,0.38-0.76,0.48-1.14,0.25l-1.46-0.89c-0.57-0.35-1.29-0.25-1.75,0.22L365.25,453.18z"/>
				</g>
				<path d="M388.53,471.34c-1.12,0-2.35-0.17-3.66-0.54c-0.45-0.13-0.71-0.6-0.58-1.05c0.13-0.45,0.6-0.71,1.05-0.58
					c4.98,1.43,8.33-0.63,9.69-2.83c1.04-1.69,1.02-3.53-0.04-4.69c-0.32-0.35-0.3-0.88,0.05-1.2c0.35-0.32,0.88-0.3,1.2,0.05
					c1.6,1.74,1.69,4.38,0.24,6.73C395.18,469.32,392.45,471.34,388.53,471.34z"/>
				<path d="M383.28,466.52c-0.17,0-0.34-0.05-0.48-0.15c-0.39-0.27-0.48-0.8-0.22-1.18l5.08-7.34c0.27-0.39,0.8-0.48,1.18-0.22
					c0.39,0.27,0.48,0.8,0.22,1.18l-5.08,7.34C383.81,466.39,383.55,466.52,383.28,466.52z"/>
				<path d="M378.03,464.54c-0.12,0-0.25-0.03-0.36-0.08c-0.42-0.2-0.6-0.71-0.4-1.13l3.49-7.33c0.2-0.42,0.71-0.6,1.13-0.4
					c0.42,0.2,0.6,0.71,0.4,1.13l-3.49,7.33C378.65,464.37,378.35,464.54,378.03,464.54z"/>
			</g>
			<path d="M394.18,444.03c-0.24,0-0.47-0.1-0.64-0.29l-1.14-1.29c-0.15-0.17-0.23-0.39-0.21-0.62c0.02-0.23,0.12-0.44,0.29-0.59
				l5.74-4.91c8.83-7.56,18.5-14.17,28.75-19.66l4.13-2.21c0.41-0.22,0.93-0.07,1.15,0.35c0.22,0.41,0.07,0.93-0.35,1.15l-4.13,2.21
				c-10.14,5.43-19.71,11.97-28.45,19.45l-5.08,4.35l0.57,0.65c0.31,0.35,0.28,0.89-0.08,1.2
				C394.58,443.96,394.38,444.03,394.18,444.03z"/>
			<g>
				<g>
					<polygon class="st1" points="395.43,445.44 373.85,454.41 378.82,461.48 402.89,454.41 					"/>
					<path d="M378.82,462.33c-0.27,0-0.53-0.13-0.69-0.36l-4.98-7.07c-0.15-0.21-0.19-0.48-0.12-0.73c0.07-0.25,0.25-0.45,0.49-0.55
						l21.58-8.96c0.34-0.14,0.74-0.05,0.98,0.24l7.46,8.96c0.18,0.22,0.24,0.52,0.16,0.79c-0.08,0.27-0.3,0.49-0.57,0.57
						l-24.06,7.07C378.98,462.32,378.9,462.33,378.82,462.33z M375.15,454.78l4.02,5.71l22.24-6.54l-6.23-7.49L375.15,454.78z"/>
				</g>
				<g>
					<path class="st1" d="M382.71,456.09l-1.69-2.39c-0.61-0.86-1.73-1.19-2.7-0.8l-2.49,1.1l-0.2-0.72
						c-0.21-0.78-0.98-1.28-1.78-1.15c-4.89,0.77-20.25,3.04-26.03,6c-6.84,3.49-4.19,14.24,6.59,14.99
						c8.55,0.59,20.38-5.75,25.3-9.08c1.61-1.09,0.48-3.14,0.48-3.14l2.29-1.89C383.24,458.21,383.34,456.99,382.71,456.09z"/>
					<path d="M355.55,473.99c-0.41,0-0.81-0.01-1.2-0.04c-6.96-0.48-10.27-4.73-10.98-8.22c-0.71-3.47,0.88-6.76,4.06-8.38
						c5.55-2.83,19.37-5,25.27-5.92l1.02-0.16c1.15-0.18,2.26,0.47,2.66,1.55l1.6-0.7c1.38-0.55,2.9-0.1,3.74,1.09l1.69,2.39
						c0.87,1.23,0.73,2.91-0.32,3.98c-0.02,0.02-0.04,0.04-0.07,0.06l-1.8,1.49c0.35,1.06,0.4,2.62-1.04,3.59
						C375.31,468.03,364.18,473.99,355.55,473.99z M374.09,452.94c-0.04,0-0.08,0-0.12,0.01l-1.02,0.16
						c-5.32,0.83-19.46,3.04-24.76,5.75c-2.51,1.28-3.73,3.78-3.17,6.52c0.59,2.91,3.42,6.45,9.43,6.86
						c7.71,0.53,19.03-5.05,24.76-8.94c0.96-0.65,0.25-1.97,0.22-2.03c-0.2-0.36-0.11-0.81,0.2-1.07l2.25-1.86
						c0.45-0.49,0.51-1.24,0.12-1.79l-1.69-2.39c-0.38-0.54-1.08-0.75-1.69-0.5l-2.46,1.08c-0.23,0.1-0.48,0.1-0.71-0.01
						c-0.22-0.11-0.39-0.3-0.45-0.54l-0.2-0.72C374.72,453.16,374.42,452.94,374.09,452.94z M382.47,458.99L382.47,458.99
						L382.47,458.99z"/>
				</g>
				<path d="M367.67,465.69c-0.37,0-0.71-0.24-0.82-0.62l-2.23-7.8c-0.13-0.45,0.13-0.92,0.58-1.05c0.45-0.13,0.92,0.13,1.05,0.58
					l2.23,7.8c0.13,0.45-0.13,0.92-0.58,1.05C367.83,465.68,367.75,465.69,367.67,465.69z"/>
				<path d="M354.61,470.75c-0.09,0-0.18-0.01-0.28-0.05c-3.75-1.28-5.92-3.09-6.47-5.39c-0.73-3.04,1.75-5.64,1.86-5.75
					c0.33-0.34,0.86-0.34,1.2-0.02c0.34,0.33,0.35,0.86,0.02,1.2c-0.03,0.03-1.94,2.06-1.42,4.18c0.4,1.66,2.26,3.1,5.37,4.17
					c0.44,0.15,0.68,0.63,0.53,1.08C355.3,470.53,354.97,470.75,354.61,470.75z"/>
			</g>
			<path d="M361.44,441.42c-0.06,0-0.11-0.01-0.17-0.02c-0.46-0.09-0.76-0.54-0.66-1l0.3-1.48c-3.59-2.62-28.58-20.54-42.52-22.61
				c-0.46-0.07-0.78-0.5-0.72-0.96c0.07-0.46,0.5-0.79,0.96-0.72c15.39,2.28,42.57,22.39,43.72,23.24c0.26,0.2,0.39,0.53,0.33,0.85
				l-0.41,2.01C362.19,441.14,361.84,441.42,361.44,441.42z"/>
		</g>
		<path d="M433.27,389.77c-1.13-5.04-7.85-20.35-13.27-34.05c-4.33-10.93-16.21-20.7-28.66-22.28c-9.27-1.18-19.33-1.42-28.99-0.66
			c-16.12,1.27-29.96,9.73-35.3,23.87c-4.8,12.74-10.04,28.38-10.15,36.3c-0.13,8.44,4.97,16.51,10.54,22.77
			c7.02,7.9,17.04,12.83,27.85,13.83c15.45,1.43,39.56,2.87,50.51-0.71C422.58,423.35,435.99,401.98,433.27,389.77z"/>
		<g>
			<g>
				<path class="st2" d="M416.46,371.78h-66.21c-3,0-5.44,2.44-5.44,5.44v43.78c0,3,2.44,5.44,5.44,5.44h66.21
					c3,0,5.44-2.44,5.44-5.44v-43.78C421.9,374.21,419.46,371.78,416.46,371.78z"/>
				<path d="M416.46,427.28h-66.21c-3.47,0-6.29-2.82-6.29-6.29v-43.78c0-3.47,2.82-6.29,6.29-6.29h66.21
					c3.47,0,6.29,2.82,6.29,6.29v43.78C422.75,424.46,419.93,427.28,416.46,427.28z M350.25,372.63c-2.53,0-4.59,2.06-4.59,4.59
					v43.78c0,2.53,2.06,4.59,4.59,4.59h66.21c2.53,0,4.59-2.06,4.59-4.59v-43.78c0-2.53-2.06-4.59-4.59-4.59H350.25z"/>
			</g>
			<g>
				<path class="st2" d="M420.85,426.7h-76.11c-1.89,0-3.42,1.53-3.42,3.42c0,1.89,1.53,3.42,3.42,3.42h76.11
					c1.89,0,3.42-1.53,3.42-3.42C424.27,428.23,422.74,426.7,420.85,426.7z"/>
				<path d="M420.85,434.4h-76.11c-2.36,0-4.27-1.92-4.27-4.27c0-2.36,1.92-4.27,4.27-4.27h76.11c2.36,0,4.27,1.92,4.27,4.27
					C425.12,432.48,423.2,434.4,420.85,434.4z M344.74,427.55c-1.42,0-2.58,1.16-2.58,2.58c0,1.42,1.16,2.58,2.58,2.58h76.11
					c1.42,0,2.58-1.16,2.58-2.58c0-1.42-1.16-2.58-2.58-2.58H344.74z"/>
			</g>
			<g>
				<path class="st1" d="M386.23,396.77c0,2.19-1.78,3.97-3.97,3.97c-2.19,0-3.97-1.78-3.97-3.97c0-2.19,1.78-3.97,3.97-3.97
					C384.45,392.81,386.23,394.58,386.23,396.77z"/>
			</g>
		</g>
		<g>
			<g>
				<path class="st1" d="M382.5,328.53c3.86,0.39,7.3-2.43,7.69-6.28l1.06-10.58c0.37-3.64-2.27-6.9-5.91-7.31l-1.29-0.14
					c-2.15-0.24-4.28,0.57-5.73,2.18l-2.71,3c-0.4,0.45-1.06,0.58-1.59,0.31c-0.72-0.36-1.77-0.71-2.59-0.28
					c-1.4,0.74-3.01,6.33,2.11,7.8l-3.09,10.95c-0.78,2.78-2.7,5.1-5.28,6.38c-1.86,0.93-3.69,2-3.78,2.64
					c-0.44,3.51,9.95,4.79,12.91,4.86c5.48,0.13,13.17-2.07,13.75-5.19c0.26-1.42-6.49-2.11-6.2-3.53
					C382.42,330.35,382.5,328.53,382.5,328.53z"/>
				<path d="M374.74,342.91c-0.16,0-0.32,0-0.48-0.01c-1.99-0.05-10.58-0.85-13.03-3.69c-0.55-0.64-0.79-1.37-0.7-2.12
					c0.08-0.61,0.47-1.42,4.24-3.3c2.36-1.18,4.13-3.31,4.85-5.85l2.87-10.18c-2.56-1.06-3.16-3.1-3.29-4.29
					c-0.21-1.97,0.62-4.17,1.81-4.8c0.9-0.48,2.07-0.39,3.37,0.27c0.19,0.1,0.43,0.05,0.58-0.12l2.71-3
					c1.63-1.8,4.04-2.72,6.46-2.45l1.29,0.14c4.08,0.45,7.07,4.15,6.66,8.24l-1.06,10.58c-0.4,4.03-3.79,7.04-7.75,7.08
					c-0.08,0.8-0.24,2.14-0.59,3.89c0.4,0.31,1.69,0.73,2.49,0.99c2.12,0.69,3.95,1.29,3.68,2.73
					C388.17,340.75,380.34,342.91,374.74,342.91z M362.21,337.38c-0.01,0.17,0.03,0.41,0.3,0.73c1.77,2.05,9.05,3.04,11.79,3.1
					c5.56,0.13,12.11-2.1,12.85-4.32c-0.41-0.31-1.69-0.73-2.49-0.99c-2.12-0.69-3.96-1.29-3.67-2.74c0.58-2.87,0.66-4.65,0.66-4.67
					l0.04-0.9l0.9,0.09c1.65,0.16,3.25-0.32,4.52-1.36c1.28-1.04,2.07-2.52,2.23-4.16l1.06-10.58c0.32-3.17-2-6.03-5.16-6.38
					l-1.29-0.14c-1.87-0.21-3.75,0.5-5.01,1.9l-2.71,3c-0.66,0.73-1.73,0.94-2.6,0.5c-0.77-0.38-1.43-0.49-1.82-0.28
					c-0.36,0.19-1.08,1.57-0.92,3.12c0.11,1.08,0.7,2.49,2.87,3.11l0.81,0.23l-3.32,11.77c-0.85,3-2.93,5.52-5.72,6.91
					C362.9,336.62,362.32,337.22,362.21,337.38z"/>
			</g>
			<path d="M383.07,329.4c-0.03,0-0.06,0-0.1-0.01c-0.57-0.07-5.59-0.74-6.76-4.27c-0.15-0.45,0.09-0.93,0.54-1.07
				c0.45-0.15,0.93,0.09,1.07,0.54c0.85,2.57,5.16,3.09,5.34,3.11c0.47,0.05,0.8,0.47,0.75,0.94
				C383.86,329.08,383.49,329.4,383.07,329.4z"/>
			<path d="M370.38,309.57l-1.37-8.34c-0.06-3.68,2.43-6.9,5.99-7.79l10.33-2.56c1.05-0.26,2.05,0.55,2.03,1.63l0,0
				c-0.02,1.08,0.98,1.89,2.03,1.63l4.71-1.17c1.39-0.35,2.52,1.13,1.83,2.38l-0.25,0.44c-0.52,0.93-0.01,2.11,1.02,2.38l3.69,1.02
				c1.26,0.33,1.65,1.92,0.69,2.79l-9.54,8.03c0,0-1.53-6.94-8.39-5.91c-3.48,0.52-5.93,3.18-6.99,5.1
				c-0.41,0.74-1.2,2.06-2.47,0.89C373.69,310.07,374.53,307.23,370.38,309.57z"/>
		</g>
	</g>
	<g>
		<g>
			<g>
				<polygon class="st1" points="334.68,145.55 330.68,158.58 340.42,158.62 346.21,147.96 				"/>
				<path d="M340.42,159.47C340.42,159.47,340.42,159.47,340.42,159.47l-9.74-0.04c-0.27,0-0.52-0.13-0.68-0.35
					c-0.16-0.22-0.21-0.5-0.13-0.75l3.99-13.02c0.13-0.42,0.55-0.67,0.99-0.58l11.54,2.41c0.26,0.06,0.48,0.23,0.6,0.47
					c0.11,0.24,0.1,0.53-0.02,0.76l-5.8,10.65C341.02,159.3,340.73,159.47,340.42,159.47z M331.83,157.73l8.09,0.03l5.01-9.2
					l-9.66-2.02L331.83,157.73z"/>
			</g>
			<g>
				<path class="st1" d="M282.58,168.87l-5.78,19.2c0,0,6.65,7.07,6.26,6.54c-0.39-0.53,11.6-20.61,11.6-20.61L282.58,168.87z"/>
				<path d="M283.1,195.54c-0.38,0-0.78-0.42-1.64-1.31c-0.59-0.62-1.38-1.44-2.16-2.27c-1.56-1.65-3.12-3.3-3.12-3.3
					c-0.21-0.22-0.28-0.54-0.19-0.83l5.78-19.2c0.07-0.23,0.23-0.42,0.45-0.52c0.22-0.1,0.47-0.11,0.69-0.01l12.08,5.14
					c0.23,0.1,0.4,0.28,0.48,0.52c0.08,0.23,0.05,0.49-0.08,0.7c-4.2,7.03-10.92,18.55-11.47,20.16c0.01,0.26-0.09,0.52-0.3,0.69
					C283.43,195.46,283.26,195.54,283.1,195.54z M283.74,194.12L283.74,194.12L283.74,194.12z M277.75,187.85
					c1.61,1.71,3.79,4.01,4.99,5.26c0.7-1.47,2.21-4.18,5.24-9.42c2.21-3.82,4.47-7.64,5.45-9.28l-10.31-4.39L277.75,187.85z"/>
			</g>
			<g>
				<path class="st3" d="M326.86,167.8c0,0-0.14-7,3.95-11.68l8.8,1.38l2.7-1.38c0,0,17.12,6.32,17.88,11.68H326.86z"/>
				<path d="M355.18,166.4H328.6c-0.47,0-0.85-0.38-0.85-0.85c0-0.47,0.38-0.85,0.85-0.85h26.58c0.47,0,0.85,0.38,0.85,0.85
					C356.03,166.02,355.65,166.4,355.18,166.4z"/>
				<path d="M343.53,162.81c-0.19,0-0.37-0.06-0.53-0.18c-0.37-0.29-0.43-0.83-0.14-1.19l2.68-3.38c0.29-0.37,0.83-0.43,1.19-0.14
					c0.37,0.29,0.43,0.83,0.14,1.19l-2.68,3.38C344.03,162.7,343.78,162.81,343.53,162.81z"/>
				<path d="M349.05,163.73c-0.14,0-0.29-0.04-0.42-0.11c-0.41-0.23-0.55-0.75-0.32-1.16l1.24-2.17c0.23-0.41,0.75-0.55,1.16-0.32
					c0.41,0.23,0.55,0.75,0.32,1.16l-1.24,2.17C349.63,163.58,349.35,163.73,349.05,163.73z"/>
			</g>
			<g>
				<path class="st3" d="M269.73,192.66c0,0,2.18,15.26,7.41,23.97c0.88,1.47,2.99,1.51,3.97,0.1c0.56-0.81,1.22-1.93,1.96-3.46
					c2.78-5.72,2.52-23.09,2.52-23.09l-2.14-1.56c-0.75-0.55-1.81-0.33-2.28,0.48l-0.64,1.09l-2.05-3.49
					c-0.47-0.79-1.5-1.04-2.27-0.53C274.64,187.18,272.07,189.23,269.73,192.66z"/>
				<path d="M279.68,216.57c-0.31,0-0.61-0.17-0.76-0.47c-5.01-9.97-7.39-23.77-7.42-23.91c-0.08-0.46,0.23-0.9,0.69-0.98
					c0.46-0.08,0.9,0.23,0.98,0.69c0.02,0.14,2.37,13.69,7.26,23.44c0.21,0.42,0.04,0.93-0.38,1.14
					C279.94,216.54,279.81,216.57,279.68,216.57z"/>
				<path d="M284.19,205.28h-4.3c-0.47,0-0.85-0.38-0.85-0.85c0-0.47,0.38-0.85,0.85-0.85h4.3c0.47,0,0.85,0.38,0.85,0.85
					C285.04,204.9,284.66,205.28,284.19,205.28z"/>
				<path d="M284.11,200.29h-5.41c-0.47,0-0.85-0.38-0.85-0.85c0-0.47,0.38-0.85,0.85-0.85h5.41c0.47,0,0.85,0.38,0.85,0.85
					C284.96,199.91,284.58,200.29,284.11,200.29z"/>
			</g>
			<path d="M293.86,81.4c0,0,46.72-12.35,75.45-1.74c2.84,1.05,4.75,3.71,4.86,6.73c0.3,8.71-2.84,29.35-28.88,65.89l-14.71-0.55
				l13.65-47.18l-56.83,6.98L293.86,81.4z"/>
			<path d="M241.05,83.05c0,0-6.7,7.99-3.5,24.05c1.05,5.3,5.37,9.34,10.72,10.05l46.88,6.25c0,0-16.24,30.19-14.63,51.09
				c0,0,5.7,5.09,12.76,7.26c0,0,28.76-45.55,40.8-69.67c2.46-4.94,1.15-10.95-3.21-14.33c-7.13-5.53-20.61-12.44-43.57-12.5
				C248.94,85.16,241.05,83.05,241.05,83.05z"/>
			<path class="st0" d="M296.91,121.35c-0.14,0-0.28-0.03-0.41-0.11c-0.41-0.23-0.56-0.74-0.34-1.15l8.39-15.26
				c0.23-0.41,0.74-0.56,1.15-0.34c0.41,0.23,0.56,0.74,0.34,1.15l-8.39,15.26C297.5,121.19,297.21,121.35,296.91,121.35z"/>
			<path class="st0" d="M334.67,105.37c-0.43,0-0.8-0.32-0.84-0.76c-1-9.41-15.96-13.23-16.11-13.27c-0.46-0.11-0.73-0.57-0.62-1.03
				c0.11-0.46,0.57-0.73,1.03-0.62c0.66,0.16,16.26,4.14,17.39,14.74c0.05,0.47-0.29,0.89-0.75,0.93
				C334.73,105.37,334.7,105.37,334.67,105.37z"/>
		</g>
		<g>
			<path class="st3" d="M307.82,80.66c0,0-16.44,6.76-35.48,8.91c-19.04,2.15-35.66,0-35.66,0s11.43-55.63,51.89-58.19
				c14.21-0.9,33.84,1.49,31.66,8.54C314.69,57.76,307.82,80.66,307.82,80.66z"/>
			<g>
				<path class="st1" d="M352.41,46.31l3.2-5.47c0.79-1.35,0.93-2.99,0.38-4.46l-1.84-4.91l-4.84,14.23l-1.79,13.08l-15.08-8.14
					L320,65.81c0,0,14.16,10.38,27.9,11.86C361.49,79.13,364.21,65.64,352.41,46.31z"/>
				<path d="M349.85,78.63c-0.66,0-1.34-0.04-2.04-0.11C334,77.03,320.08,66.92,319.49,66.5c-0.19-0.14-0.31-0.35-0.34-0.58
					c-0.03-0.23,0.04-0.46,0.19-0.64l12.44-15.17c0.26-0.31,0.7-0.4,1.06-0.21l14,7.56l1.62-11.87c0.01-0.05,0.02-0.11,0.04-0.16
					l4.84-14.23c0.12-0.34,0.43-0.57,0.79-0.58c0.34,0,0.68,0.22,0.81,0.55l1.84,4.91c0.64,1.71,0.48,3.61-0.44,5.19l-2.95,5.03
					c7.1,11.79,9.18,22.21,5.56,27.92C357.11,77.12,353.99,78.63,349.85,78.63z M321.23,65.64c3.06,2.1,15.15,9.94,26.75,11.18
					c4.48,0.48,7.77-0.73,9.53-3.51c3.31-5.22,1.13-15.15-5.84-26.56c-0.16-0.27-0.17-0.6-0.01-0.87l3.2-5.47
					c0.67-1.14,0.78-2.5,0.32-3.73L354.19,34l-4.05,11.9l-1.77,13c-0.04,0.28-0.21,0.52-0.46,0.64c-0.25,0.13-0.54,0.12-0.79-0.01
					l-14.47-7.81L321.23,65.64z"/>
			</g>
			<polygon class="st3" points="334.68,51.49 318.73,35.87 309.05,64.49 323.01,71.75 			"/>
			<g>
				<polygon class="st3" points="343.75,48.05 342.85,47.7 349.46,28.73 356.28,27.49 357.18,27.84 				"/>
				<polygon points="350.56,46.8 343.75,48.05 350.37,29.08 357.18,27.84 				"/>
			</g>
			<g>
				<path class="st1" d="M296.62,56.84l19.24,13.65l21.22-29.54l7.15,0.64c0,0,0.94,2.37-4.3,2.18c0,0,1.17,5.42-1.34,6.76
					c-0.73,0.39-1.96,0.96-1.96,0.96s-0.17,34.68-24.2,37.14c-18.5,1.89-26.75-9.82-26.75-9.82L296.62,56.84z"/>
				<path d="M308.4,89.69c-15.9,0-23.1-9.93-23.42-10.39c-0.18-0.26-0.21-0.59-0.07-0.87l10.95-21.97c0.11-0.22,0.31-0.38,0.55-0.45
					c0.24-0.06,0.5-0.01,0.7,0.13l18.55,13.16l20.73-28.85c0.18-0.24,0.47-0.38,0.77-0.35l7.15,0.64c0.32,0.03,0.6,0.24,0.71,0.53
					c0.04,0.1,0.38,1.03-0.26,1.94c-0.63,0.89-1.88,1.35-3.82,1.4c0.24,1.82,0.38,5.42-1.95,6.65c-0.46,0.24-1.09,0.55-1.52,0.75
					c-0.06,2.05-0.47,9.54-3.12,17.38c-4.1,12.08-11.65,19.02-21.83,20.06C311.08,89.62,309.71,89.69,308.4,89.69z M286.67,78.71
					c1.63,1.97,9.82,10.7,25.67,9.08c22.98-2.35,23.43-35.96,23.43-36.3c0-0.33,0.19-0.63,0.49-0.77c0.01-0.01,1.22-0.57,1.92-0.94
					c1.59-0.84,1.18-4.59,0.91-5.83c-0.05-0.26,0.01-0.52,0.18-0.72c0.17-0.2,0.42-0.32,0.68-0.3c2.22,0.08,3.02-0.32,3.3-0.56
					l-5.77-0.52l-20.94,29.15c-0.27,0.38-0.8,0.47-1.18,0.2l-18.43-13.08L286.67,78.71z"/>
			</g>
			<path d="M298.07,55.47c-0.23,0-0.47-0.1-0.63-0.28l-9.71-10.85c-0.31-0.35-0.28-0.89,0.07-1.2c0.35-0.31,0.89-0.28,1.2,0.07
				l9.71,10.85c0.31,0.35,0.28,0.89-0.07,1.2C298.48,55.4,298.27,55.47,298.07,55.47z"/>
			<path d="M284.39,82.25c-0.23,0-0.45-0.09-0.61-0.25l-17.03-17.37c-0.33-0.34-0.32-0.87,0.01-1.2c0.34-0.33,0.87-0.32,1.2,0.01
				l16.2,16.51l0.76-1.52c0.21-0.42,0.72-0.59,1.14-0.38c0.42,0.21,0.59,0.72,0.38,1.14l-1.29,2.59c-0.12,0.25-0.36,0.42-0.63,0.46
				C284.47,82.25,284.43,82.25,284.39,82.25z"/>
		</g>
		<g>
			<g>
				<path class="st1" d="M294.91,28l-13.07,4.45c19.6,5.84,28.43,1.11,28.43,1.11l-5.11-2.41l1.27-2.92
					c1.29,0.61,2.51,1.28,3.42,0.91c2.12-0.86,3.27-4.38,3.27-4.38l0.96,0.12c0.14,0.02,0.28-0.03,0.39-0.12
					c0.11-0.09,0.17-0.23,0.18-0.37c0.06-1.91-0.02-3.33,0.53-4.95c0.54-1.6,0.95-1.58,1.45-5.47l-8.72-5.86l-4.43,6.51
					c0,0-0.76-1.76-2.39-1.16c-1.19,0.44-1.72,4.19-0.62,4.93L294.91,28z"/>
				<path d="M299.71,36.23c-4.53,0-10.53-0.7-18.11-2.97c-0.35-0.11-0.6-0.43-0.61-0.8c-0.01-0.37,0.23-0.7,0.58-0.82l12.77-4.34
					l5.1-8.82c-0.51-0.87-0.44-2.11-0.37-2.7c0.07-0.61,0.41-2.65,1.73-3.13c1.1-0.41,2.01-0.06,2.65,0.5l3.76-5.53
					c0.26-0.39,0.79-0.49,1.18-0.23l8.72,5.86c0.27,0.18,0.41,0.49,0.37,0.81c-0.38,2.98-0.73,3.8-1.11,4.67
					c-0.13,0.3-0.25,0.57-0.38,0.96c-0.41,1.23-0.44,2.37-0.47,3.8c-0.01,0.29-0.01,0.59-0.02,0.91c-0.01,0.38-0.18,0.74-0.47,0.99
					c-0.29,0.25-0.67,0.37-1.05,0.32l-0.29-0.04c-0.48,1.17-1.63,3.47-3.51,4.24c-1.04,0.42-2.19-0.02-3.31-0.55l-0.59,1.35
					l4.37,2.06c0.29,0.14,0.48,0.43,0.49,0.75c0.01,0.32-0.16,0.62-0.45,0.77C310.45,34.43,306.96,36.23,299.71,36.23z
					 M284.71,32.37c12.6,3.31,20.19,2.04,23.39,1.09l-3.29-1.55c-0.41-0.2-0.6-0.69-0.42-1.11l1.27-2.92
					c0.09-0.21,0.26-0.38,0.48-0.46c0.22-0.08,0.46-0.07,0.66,0.03l0.36,0.17c0.89,0.43,1.9,0.91,2.38,0.72
					c1.44-0.59,2.5-2.98,2.78-3.86c0.13-0.39,0.51-0.63,0.91-0.58l0.58,0.07c0-0.17,0.01-0.35,0.01-0.51
					c0.03-1.52,0.06-2.83,0.55-4.31c0.15-0.45,0.3-0.79,0.43-1.09c0.32-0.74,0.59-1.38,0.91-3.7l-7.58-5.09l-3.95,5.81
					c-0.17,0.26-0.47,0.4-0.78,0.37c-0.31-0.03-0.58-0.22-0.7-0.51c-0.11-0.23-0.52-0.99-1.32-0.7c-0.17,0.1-0.54,0.81-0.64,1.87
					c-0.09,0.98,0.12,1.49,0.21,1.56c0.37,0.25,0.48,0.74,0.26,1.13l-5.56,9.62c-0.1,0.18-0.27,0.31-0.46,0.38L284.71,32.37z
					 M294.91,28L294.91,28L294.91,28z"/>
			</g>
			<path d="M300.54,13.58c0,0,2.77-0.24,2.57,1.01c-0.27,1.74-0.62,2.09-0.3,2.78c0.17,0.37,0.64,0.63,1.02,0.63
				c0.81,0.01,1.08-1.34,2.52-2.85c0.61-0.64,1.25-1.11,1.61-1.33c2.8-1.66,5.97,2.09,9.37,1.01c2.26-0.72,4.05-3.39,3.61-5.19
				c-0.19-0.75-0.82-1.6-6.39-3.42c-5.64-1.85-8.46-2.77-10.15-1.92C300.45,6.31,300.53,13.08,300.54,13.58z"/>
			<path d="M306.43,29.08c-0.17,0-0.34-0.05-0.49-0.15l-2.23-1.56c-1.21-0.84-1.83-2.27-1.62-3.73l0.09-0.61
				c0.07-0.47,0.5-0.79,0.96-0.72c0.46,0.07,0.79,0.5,0.72,0.96l-0.09,0.61c-0.12,0.82,0.23,1.62,0.91,2.1l2.23,1.56
				c0.38,0.27,0.48,0.8,0.21,1.18C306.97,28.95,306.7,29.08,306.43,29.08z"/>
		</g>
	</g>
	<g>
		<g>
			<path d="M25.38,185.08c-0.47,0-0.85-0.38-0.85-0.85v-4.39c0-0.47,0.38-0.85,0.85-0.85c0.47,0,0.85,0.38,0.85,0.85v4.39
				C26.23,184.7,25.85,185.08,25.38,185.08z"/>
			<path d="M25.38,195.31c-0.47,0-0.85-0.38-0.85-0.85v-4.39c0-0.47,0.38-0.85,0.85-0.85c0.47,0,0.85,0.38,0.85,0.85v4.39
				C26.23,194.93,25.85,195.31,25.38,195.31z"/>
			<path d="M22.46,188h-4.39c-0.47,0-0.85-0.38-0.85-0.85c0-0.47,0.38-0.85,0.85-0.85h4.39c0.47,0,0.85,0.38,0.85,0.85
				C23.31,187.62,22.93,188,22.46,188z"/>
			<path d="M32.69,188H28.3c-0.47,0-0.85-0.38-0.85-0.85c0-0.47,0.38-0.85,0.85-0.85h4.39c0.47,0,0.85,0.38,0.85,0.85
				C33.54,187.62,33.16,188,32.69,188z"/>
		</g>
		<g>
			<path d="M56.99,159.62c-0.47,0-0.85-0.38-0.85-0.85v-4.39c0-0.47,0.38-0.85,0.85-0.85c0.47,0,0.85,0.38,0.85,0.85v4.39
				C57.84,159.24,57.46,159.62,56.99,159.62z"/>
			<path d="M56.99,169.85c-0.47,0-0.85-0.38-0.85-0.85v-4.39c0-0.47,0.38-0.85,0.85-0.85c0.47,0,0.85,0.38,0.85,0.85V169
				C57.84,169.47,57.46,169.85,56.99,169.85z"/>
			<path d="M54.07,162.54h-4.39c-0.47,0-0.85-0.38-0.85-0.85c0-0.47,0.38-0.85,0.85-0.85h4.39c0.47,0,0.85,0.38,0.85,0.85
				C54.92,162.16,54.54,162.54,54.07,162.54z"/>
			<path d="M64.3,162.54h-4.39c-0.47,0-0.85-0.38-0.85-0.85c0-0.47,0.38-0.85,0.85-0.85h4.39c0.47,0,0.85,0.38,0.85,0.85
				C65.15,162.16,64.77,162.54,64.3,162.54z"/>
		</g>
		<circle class="st0" cx="28.77" cy="212.58" r="4.15"/>
	</g>
	<g>
		<g>
			<path d="M364.3,15.96c-0.47,0-0.85-0.38-0.85-0.85v-4.39c0-0.47,0.38-0.85,0.85-0.85c0.47,0,0.85,0.38,0.85,0.85v4.39
				C365.15,15.58,364.77,15.96,364.3,15.96z"/>
			<path d="M364.3,26.19c-0.47,0-0.85-0.38-0.85-0.85v-4.39c0-0.47,0.38-0.85,0.85-0.85c0.47,0,0.85,0.38,0.85,0.85v4.39
				C365.15,25.81,364.77,26.19,364.3,26.19z"/>
			<path d="M361.38,18.88h-4.39c-0.47,0-0.85-0.38-0.85-0.85s0.38-0.85,0.85-0.85h4.39c0.47,0,0.85,0.38,0.85,0.85
				S361.85,18.88,361.38,18.88z"/>
			<path d="M371.62,18.88h-4.39c-0.47,0-0.85-0.38-0.85-0.85s0.38-0.85,0.85-0.85h4.39c0.47,0,0.85,0.38,0.85,0.85
				S372.08,18.88,371.62,18.88z"/>
		</g>
		
			<ellipse transform="matrix(0.7071 -0.7071 0.7071 0.7071 89.8558 282.7968)" class="st0" cx="386.29" cy="32.93" rx="4.15" ry="4.15"/>
	</g>
</g>
</svg>
