<?xml version="1.0" encoding="utf-8"?>
<!-- Generator: Adobe Illustrator 25.1.0, SVG Export Plug-In . SVG Version: 6.00 Build 0)  -->
<svg version="1.1" id="Слой_1" xmlns="http://www.w3.org/2000/svg" xmlns:xlink="http://www.w3.org/1999/xlink" x="0px" y="0px"
	 viewBox="0 0 484 479" style="enable-background:new 0 0 484 479;" xml:space="preserve">
<style type="text/css">
	.st0{fill:#CADDFF;}
	.st1{fill:#5479F7;}
	.st2{fill:#99B9FF;}
	.st3{fill:#FFFFFF;}
</style>
<path class="st0" d="M280.35,8.29C171.76-11.12,89.04,61.46,82.9,67.02c-9.72,8.81-78.14,72.94-74.96,173.52
	c2.8,88.63,60.13,171.48,141.27,203c126.56,49.17,299.44-31.06,324.01-173.63C494.35,147.3,397.09,29.16,280.35,8.29z"/>
<g>
	<g>
		<g>
			<path class="st1" d="M190,411.48l-43.07,38.74c-0.03,0.03-0.08,0.05-0.13,0.05L40.16,449.9c-0.16,0-0.24-0.18-0.13-0.28
				l42.75-38.45c0.03-0.03,0.08-0.05,0.13-0.05l106.97,0.08C190.04,411.2,190.12,411.38,190,411.48z"/>
			<path d="M146.81,451.11l-106.65-0.37c-0.43,0-0.81-0.26-0.96-0.66c-0.15-0.39-0.04-0.82,0.27-1.1l42.75-38.45
				c0.19-0.17,0.44-0.27,0.69-0.27l106.97,0.08c0.43,0,0.81,0.26,0.96,0.65c0.15,0.39,0.04,0.82-0.27,1.1l-43.07,38.74
				C147.31,451.02,147.07,451.11,146.81,451.11z M146.37,449.59C146.37,449.59,146.37,449.59,146.37,449.59L146.37,449.59z
				 M41.92,449.06l104.64,0.36l41.55-37.38l-104.95-0.08L41.92,449.06z M83.34,411.8L83.34,411.8
				C83.34,411.8,83.34,411.8,83.34,411.8z M189.44,410.85C189.44,410.85,189.44,410.85,189.44,410.85L189.44,410.85
				C189.44,410.85,189.44,410.85,189.44,410.85z"/>
		</g>
		<g>
			<path class="st2" d="M190.1,411.23v23.35l-42.78,38.5c-0.16,0.15-0.44,0.04-0.44-0.16v-22.65
				C146.88,450.27,189.49,411.26,190.1,411.23z"/>
			<path d="M147.14,474c-0.16,0-0.31-0.03-0.46-0.1c-0.39-0.17-0.64-0.56-0.64-0.98v-22.65c0-0.24,0.1-0.46,0.27-0.62
				c0.11-0.1,10.77-9.86,21.38-19.51c21.68-19.71,21.91-19.73,22.37-19.75c0.23-0.01,0.46,0.07,0.62,0.23
				c0.17,0.16,0.26,0.38,0.26,0.61v23.35c0,0.24-0.1,0.47-0.28,0.63l-42.78,38.5C147.68,473.9,147.41,474,147.14,474z
				 M147.73,450.64v20.94l41.53-37.38V413C183.81,417.71,162.48,437.14,147.73,450.64z"/>
		</g>
		<g>
			<path class="st3" d="M146.88,473.15L39.9,472.79l0.09-22.81l106.89,0.28C146.88,450.27,146.88,473.29,146.88,473.15z"/>
			<path d="M146.88,474C146.88,474,146.88,474,146.88,474L39.9,473.64c-0.22,0-0.44-0.09-0.6-0.25c-0.16-0.16-0.25-0.37-0.25-0.6
				l0.09-22.81c0-0.47,0.38-0.84,0.85-0.84c0,0,0,0,0,0l106.89,0.28c0.47,0,0.84,0.38,0.84,0.85v22.89c0,0.23-0.09,0.44-0.25,0.6
				C147.32,473.91,147.11,474,146.88,474z M40.75,471.95l105.29,0.36v-21.19l-105.2-0.28L40.75,471.95z"/>
		</g>
	</g>
	<g>
		<g>
			<g>
				<path class="st1" d="M328.98,333.44l-43.43,39.07l-117.6-0.37c-0.17,0-0.26-0.19-0.14-0.3l42.78-38.48L328.98,333.44z"/>
				<path d="M285.55,373.36C285.55,373.36,285.54,373.36,285.55,373.36l-117.6-0.37c-0.44,0-0.82-0.26-0.97-0.66
					c-0.15-0.39-0.04-0.83,0.27-1.11l42.78-38.48c0.16-0.14,0.36-0.22,0.57-0.22c0,0,0,0,0,0l118.39,0.08
					c0.35,0,0.66,0.22,0.79,0.54c0.13,0.33,0.04,0.7-0.22,0.93l-43.43,39.07C285.96,373.28,285.75,373.36,285.55,373.36z
					 M169.68,371.3l115.54,0.36l41.55-37.37l-115.86-0.08L169.68,371.3z"/>
			</g>
			<g>
				<path class="st2" d="M328.98,333.48v99.99l-42.77,38.5c-0.16,0.15-0.45,0.04-0.45-0.17v-99.29
					C285.76,372.51,328.36,333.51,328.98,333.48z"/>
				<path d="M286.02,472.89c-0.16,0-0.31-0.03-0.46-0.1c-0.39-0.18-0.65-0.56-0.65-0.98v-99.29c0-0.24,0.1-0.46,0.27-0.62
					c0.11-0.1,10.77-9.86,21.38-19.51c21.68-19.71,21.91-19.73,22.37-19.75c0.23-0.01,0.46,0.07,0.62,0.23
					c0.17,0.16,0.26,0.38,0.26,0.61v99.99c0,0.24-0.1,0.47-0.28,0.63l-42.77,38.5C286.56,472.79,286.29,472.89,286.02,472.89z
					 M286.6,372.88v97.59l41.53-37.38v-97.85C322.69,339.95,301.35,359.38,286.6,372.88z"/>
			</g>
			<g>
				<path class="st3" d="M285.76,472.04l-118.1-0.36c0.26,0.23,0.09-99.45,0.09-99.45l118,0.28
					C285.76,372.51,285.76,472.17,285.76,472.04z"/>
				<path d="M285.76,472.89C285.76,472.89,285.76,472.89,285.76,472.89l-118.08-0.36c-0.2,0.01-0.42-0.07-0.58-0.22
					c-0.23-0.2-0.32-0.51-0.26-0.8c0.18-2.64,0.13-65.95,0.07-99.28c0-0.23,0.09-0.44,0.25-0.6c0.16-0.16,0.37-0.25,0.6-0.25
					c0,0,0,0,0,0l118,0.28c0.47,0,0.84,0.38,0.84,0.85v99.53c0,0.23-0.09,0.44-0.25,0.6C286.2,472.8,285.98,472.89,285.76,472.89z
					 M168.54,470.84l116.37,0.36v-97.84l-116.31-0.28c0.01,4.55,0.04,26.69,0.05,48.84c0.01,14.43,0,25.93-0.02,34.18
					c-0.01,4.67-0.02,8.56-0.04,11.29C168.57,469.03,168.57,470.11,168.54,470.84z"/>
			</g>
		</g>
		<path class="st0" d="M217.91,433.61c-0.23,0-0.46-0.09-0.63-0.28c-0.31-0.35-0.28-0.88,0.06-1.2l34.2-30.76
			c0.35-0.31,0.88-0.28,1.2,0.06c0.31,0.35,0.28,0.88-0.06,1.2l-34.2,30.76C218.31,433.54,218.11,433.61,217.91,433.61z"/>
		<path class="st0" d="M216.7,410.45c-0.23,0-0.46-0.09-0.63-0.28c-0.31-0.35-0.28-0.88,0.06-1.2l10.86-9.77
			c0.35-0.31,0.88-0.28,1.2,0.06c0.31,0.35,0.28,0.88-0.06,1.2l-10.86,9.77C217.1,410.38,216.9,410.45,216.7,410.45z"/>
	</g>
	<g>
		<g>
			<g>
				<path class="st1" d="M473.11,383.24l-43.03,38.71l-119.18-0.37c-0.12,0-0.19-0.14-0.1-0.21l42.87-38.57l119.26,0.08
					C473.16,382.87,473.26,383.1,473.11,383.24z"/>
				<path d="M430.09,422.79C430.08,422.79,430.08,422.79,430.09,422.79l-119.18-0.37c-0.41,0-0.77-0.25-0.92-0.63
					c-0.14-0.37-0.04-0.79,0.26-1.06l42.87-38.57c0.16-0.14,0.36-0.22,0.57-0.22c0,0,0,0,0,0l119.26,0.08
					c0.45,0,0.85,0.27,1.01,0.69c0.16,0.41,0.05,0.86-0.28,1.15c0,0,0,0,0,0l-43.03,38.71C430.5,422.71,430.29,422.79,430.09,422.79
					z M312.77,420.73l116.99,0.36l41.55-37.37l-117.3-0.08L312.77,420.73z M473.11,383.24L473.11,383.24L473.11,383.24z
					 M472.55,382.61C472.55,382.61,472.55,382.61,472.55,382.61L472.55,382.61L472.55,382.61z"/>
			</g>
			<g>
				<path class="st2" d="M473.31,382.91v51.39l-42.89,38.6c-0.12,0.11-0.33,0.03-0.33-0.12v-50.84
					C430.09,421.94,472.69,382.94,473.31,382.91z"/>
				<path d="M430.28,473.8c-0.15,0-0.29-0.03-0.43-0.09c-0.37-0.16-0.61-0.53-0.61-0.93v-50.84c0-0.24,0.1-0.46,0.27-0.62
					c0.11-0.1,10.77-9.86,21.38-19.51c21.68-19.71,21.91-19.73,22.37-19.75c0.23-0.01,0.46,0.07,0.62,0.23
					c0.17,0.16,0.26,0.38,0.26,0.61v51.39c0,0.24-0.1,0.47-0.28,0.63l-42.89,38.6C430.78,473.71,430.53,473.8,430.28,473.8z
					 M430.93,422.31v48.98l41.53-37.38v-49.24C467.02,389.38,445.68,408.81,430.93,422.31z"/>
			</g>
			<g>
				<path class="st3" d="M430.09,473.15l-119.33-0.36c0.26,0.23,0.09-51.13,0.09-51.13l119.24,0.28
					C430.09,421.94,430.09,473.29,430.09,473.15z"/>
				<path d="M430.09,474C430.08,474,430.08,474,430.09,474l-119.3-0.36c-0.22,0.01-0.43-0.07-0.59-0.22
					c-0.24-0.21-0.33-0.54-0.25-0.84c0.16-1.95,0.13-31.38,0.06-50.92c0-0.23,0.09-0.44,0.25-0.6c0.16-0.16,0.37-0.25,0.6-0.25
					c0,0,0,0,0,0l119.24,0.28c0.47,0,0.84,0.38,0.84,0.85v51.21c0,0.22-0.09,0.44-0.25,0.6C430.52,473.91,430.31,474,430.09,474z
					 M311.64,471.95l117.6,0.36v-49.52l-117.54-0.28c0.01,3.05,0.04,13.86,0.05,24.68c0.01,7.42,0,13.33-0.02,17.58
					C311.71,468.65,311.7,470.77,311.64,471.95z"/>
			</g>
		</g>
		<path class="st0" d="M393.02,452.25c-0.23,0-0.46-0.09-0.63-0.28c-0.31-0.35-0.28-0.88,0.06-1.2l10.86-9.77
			c0.35-0.31,0.88-0.28,1.2,0.06c0.31,0.35,0.28,0.88-0.06,1.2l-10.86,9.77C393.42,452.18,393.22,452.25,393.02,452.25z"/>
	</g>
</g>
<g>
	<g>
		<path class="st2" d="M95.6,196.47c0-76.78,62.24-139.03,139.03-139.03s139.03,62.24,139.03,139.03S311.41,335.5,234.63,335.5
			S95.6,273.26,95.6,196.47L95.6,196.47z"/>
		<path d="M373.66,197.32c-0.47,0-0.85-0.38-0.85-0.85c0-56.93-35.72-108.82-88.88-129.13c-0.44-0.17-0.66-0.66-0.49-1.09
			c0.17-0.44,0.66-0.66,1.09-0.49c26.18,10,48.56,27.47,64.71,50.51c16.52,23.57,25.26,51.3,25.26,80.19
			C374.5,196.94,374.12,197.32,373.66,197.32z"/>
		<path class="st3" d="M122.96,196.47c0-61.67,49.99-111.67,111.67-111.67c61.67,0,111.67,49.99,111.67,111.67
			c0,61.67-49.99,111.67-111.67,111.67C172.96,308.14,122.96,258.15,122.96,196.47L122.96,196.47z"/>
		<path class="st2" d="M148.73,196.47c0-47.44,38.46-85.9,85.9-85.9c47.44,0,85.9,38.46,85.9,85.9c0,47.44-38.46,85.9-85.9,85.9
			C187.19,282.37,148.73,243.91,148.73,196.47L148.73,196.47z"/>
		<path class="st3" d="M179.17,196.47c0-30.63,24.83-55.46,55.46-55.46c30.63,0,55.46,24.83,55.46,55.46
			c0,30.63-24.83,55.46-55.46,55.46C204,251.94,179.17,227.11,179.17,196.47L179.17,196.47z"/>
	</g>
	<path class="st1" d="M283.17,327.64c-0.34,0-0.67-0.21-0.79-0.55c-0.16-0.44,0.06-0.93,0.5-1.09
		c23.84-8.88,44.78-24.22,60.56-44.34c0.29-0.37,0.82-0.43,1.19-0.14c0.37,0.29,0.43,0.82,0.14,1.19
		c-15.97,20.37-37.17,35.89-61.3,44.88C283.37,327.62,283.27,327.64,283.17,327.64z"/>
	<path class="st1" d="M152.6,222.86c-0.36,0-0.7-0.23-0.81-0.6c-2.59-8.32-3.9-17-3.9-25.79c0-0.47,0.38-0.85,0.85-0.85
		c0.47,0,0.85,0.38,0.85,0.85c0,8.63,1.29,17.13,3.82,25.29c0.14,0.45-0.11,0.92-0.56,1.06
		C152.76,222.85,152.68,222.86,152.6,222.86z"/>
	<path class="st1" d="M318.78,180.01c-0.39,0-0.75-0.28-0.83-0.68c-3.87-18.91-14.25-36.13-29.22-48.49
		c-0.36-0.3-0.41-0.83-0.11-1.19c0.3-0.36,0.83-0.41,1.19-0.11c15.27,12.6,25.86,30.17,29.8,49.45c0.09,0.46-0.2,0.91-0.66,1
		C318.89,180,318.84,180.01,318.78,180.01z"/>
	<path class="st1" d="M148.73,197.32c-0.47,0-0.85-0.38-0.85-0.85c0-47.83,38.91-86.74,86.74-86.74c9.03,0,17.93,1.38,26.46,4.11
		c0.45,0.14,0.69,0.62,0.55,1.06c-0.14,0.45-0.62,0.69-1.06,0.55c-8.36-2.67-17.08-4.03-25.94-4.03c-46.9,0-85.05,38.15-85.05,85.05
		C149.58,196.94,149.2,197.32,148.73,197.32z"/>
</g>
<g>
	<g>
		<g>
			<path class="st1" d="M303.29,324.79c13.63,3.9,28.29,7.59,30.83,9.83c3.31,2.91,5.29,6.03,5.74,11.6
				c0.45,5.57-0.67,21.04-18.42,22.95c-17.75,1.91-60.45-7.58-80.88-18.61c0,0-5.55-3.6-7.4-9.67l-10.12,1.66
				c6.16,7.25,6.87,15.32-7.64,18.9c-17.69,4.36-38.14,8.36-46.95,9.54c-3.6,0.48-7.26,0.47-10.86-0.06
				c-31.75-4.64-21.02-30.06-16.46-33.65c1.09-0.86,3.39-3.32,8.72-7.01l1.46-1.06c5.04-3.37,12.24-7.42,22.41-11.51
				c22.48-9.04,29.25-27.62,29.25-27.62l35.17-2.22l30.81,5.6c0,0,0.61,19.59,22.51,27.73c3.25,1.21,7.01,2.2,10.85,3.3
				L303.29,324.79z"/>
			<path d="M163.2,372.19c-1.92,0-3.84-0.14-5.73-0.42c-15.5-2.27-20.54-9.44-22.04-15.05c-2.33-8.73,2.57-18.05,5.18-20.11
				c0.25-0.2,0.6-0.51,1.04-0.91c1.38-1.25,3.69-3.34,7.72-6.13l1.45-1.05c6.29-4.21,13.88-8.11,22.59-11.61
				c21.87-8.8,28.71-26.94,28.77-27.13c0.12-0.32,0.41-0.53,0.74-0.55l35.17-2.22c0.07,0,0.14,0,0.2,0.01l30.81,5.6
				c0.39,0.07,0.68,0.41,0.69,0.81c0.01,0.19,0.88,19.13,21.96,26.97c2.56,0.95,5.43,1.76,8.47,2.62c0.77,0.22,1.54,0.44,2.32,0.66
				c0.19,0.06,0.35,0.17,0.46,0.32c0.16-0.06,0.34-0.07,0.52-0.02c2.79,0.8,5.62,1.59,8.38,2.36c12.77,3.56,20.71,5.83,22.77,7.65
				c3.85,3.4,5.6,6.92,6.03,12.17c0.18,2.21,1.17,21.67-19.17,23.86c-1.64,0.18-3.47,0.26-5.45,0.26
				c-20.46,0-57.48-9.02-75.93-18.97c-0.02-0.01-0.04-0.02-0.06-0.03c-0.23-0.15-5.41-3.57-7.52-9.43l-7.98,1.31
				c3.02,3.97,4.08,7.71,3.05,10.9c-1.22,3.79-5.28,6.56-12.05,8.22c-17.93,4.42-38.38,8.4-47.04,9.56
				C166.77,372.07,164.98,372.19,163.2,372.19z M203.55,290.89c-1.32,3.11-9.07,19.37-29.52,27.6c-8.6,3.46-16.08,7.3-22.25,11.43
				l-1.44,1.04c-3.96,2.74-6.21,4.78-7.56,6.01c-0.46,0.42-0.83,0.75-1.13,0.98c-2.28,1.79-6.7,10.44-4.59,18.34
				c1.96,7.35,9.1,12.12,20.65,13.81c3.49,0.51,7.07,0.53,10.62,0.06c8.62-1.15,28.99-5.12,46.86-9.52
				c6.17-1.52,9.82-3.91,10.85-7.1c1.19-3.67-1.33-7.7-3.65-10.43c-0.2-0.23-0.25-0.55-0.15-0.84c0.11-0.29,0.36-0.49,0.66-0.54
				l10.12-1.66c0.42-0.07,0.82,0.18,0.95,0.59c1.67,5.49,6.63,8.92,7.03,9.19c19.63,10.58,62.42,20.43,80.36,18.49
				c18.36-1.98,17.94-18.71,17.67-22.04c-0.45-5.56-2.51-8.43-5.46-11.03c-1.87-1.65-12.16-4.52-22.11-7.29
				c-2.77-0.77-5.6-1.56-8.39-2.36c-0.19-0.05-0.35-0.17-0.46-0.32c-0.16,0.06-0.34,0.07-0.52,0.02c-0.77-0.22-1.55-0.44-2.31-0.66
				c-3.07-0.87-5.98-1.69-8.6-2.67c-19.83-7.37-22.63-24.2-23-27.81l-30.07-5.47L203.55,290.89z"/>
		</g>
		<g>
			<path class="st3" d="M210.57,359.46c0,0,21.11-5.91,35.14-12.58c12.8-6.08,34.75-18.08,40.7-21.29c5.95-3.21,11-2.78,16.22-1.2
				c4.63,1.4,8.21,1.86,7.74-2.2c-0.36-3.13-4.48-1.26-10.11-5.97c-5.62-4.71-13.37-6.9-20.65-0.68c-7.28,6.22-17.71-0.82-23.43-2.2
				c-5.73-1.37-10.53,2.99-10.91,9.23c-0.38,6.24-25.61,18.73-25.61,18.73L210.57,359.46z"/>
			<path d="M210.57,360.31c-0.25,0-0.49-0.11-0.65-0.31c-0.21-0.26-0.25-0.62-0.1-0.92l9.09-18.16c0.08-0.16,0.22-0.3,0.38-0.38
				c9.59-4.74,24.89-13.83,25.14-18.02c0.21-3.54,1.78-6.64,4.3-8.51c2.19-1.62,4.91-2.15,7.65-1.49c1.44,0.34,3.14,1.03,4.95,1.75
				c5.61,2.24,12.6,5.03,17.74,0.63c6.58-5.63,14.51-5.38,21.74,0.68c2.69,2.25,5.04,2.93,6.75,3.42c1.83,0.53,3.41,0.98,3.66,3.1
				c0.18,1.54-0.16,2.68-1,3.38c-1.53,1.28-4.23,0.81-7.83-0.27c-4.48-1.36-9.47-2.16-15.57,1.13l-2.61,1.41
				c-8.01,4.34-26.77,14.49-38.13,19.89c-13.93,6.62-35.06,12.57-35.27,12.63C210.73,360.3,210.65,360.31,210.57,360.31z
				 M220.29,341.94l-8.1,16.18c5.45-1.6,21.75-6.58,33.15-11.99c11.32-5.38,30.05-15.52,38.05-19.85l2.61-1.41
				c6.67-3.59,12.27-2.66,16.87-1.26c1.4,0.42,5.11,1.55,6.25,0.59c0.38-0.32,0.51-0.95,0.4-1.89c-0.11-0.91-0.53-1.11-2.45-1.67
				c-1.86-0.53-4.4-1.27-7.37-3.75c-3.09-2.59-11.18-7.84-19.55-0.69c-5.92,5.06-13.75,1.93-19.47-0.35
				c-1.75-0.7-3.4-1.36-4.72-1.67c-2.25-0.54-4.47-0.11-6.25,1.21c-2.11,1.57-3.43,4.21-3.61,7.25
				C245.73,329,223.89,340.14,220.29,341.94z"/>
		</g>
		<g>
			<path class="st3" d="M238.37,348.37c0,0-14.56-3.62-32.68-14.83c-1.39-0.86-2.97-1.38-4.6-1.53c-3.87-0.36-11.79-1.74-18.72-6.99
				c-9.59-7.26-16.54-3.51-18.35-2.46s-10.06,2.97-4.57-6.05c5.49-9.02,11.86-9.16,16.91-8.19c5.04,0.96,12.31,4.33,17.54,3.36
				c5.23-0.98,13.14-7.08,17.25-4.01c4.11,3.08,2.59,3.67,5.7,9.58c3.11,5.92,20.75,10.75,20.75,10.75L238.37,348.37z"/>
			<path d="M238.37,349.22c-0.07,0-0.14-0.01-0.2-0.03c-0.15-0.04-14.9-3.79-32.92-14.93c-1.26-0.78-2.73-1.27-4.24-1.41
				c-4.14-0.39-12.12-1.83-19.15-7.15c-6.04-4.57-12.22-5.42-17.42-2.4c-1.27,0.74-5.2,1.86-6.93,0.1
				c-1.35-1.37-0.95-3.77,1.21-7.32c5.79-9.51,12.55-9.58,17.79-8.59c1.65,0.31,3.49,0.87,5.43,1.45c3.95,1.19,8.43,2.53,11.79,1.9
				c1.7-0.32,3.74-1.23,5.9-2.19c4.38-1.95,8.92-3.98,12.01-1.66c2.81,2.11,3.21,3.22,3.94,5.24c0.4,1.12,0.9,2.51,2.01,4.62
				c2.41,4.58,15.42,9.01,20.23,10.33c0.36,0.1,0.61,0.41,0.62,0.78l0.78,20.37c0.01,0.27-0.11,0.52-0.31,0.69
				C238.75,349.15,238.56,349.22,238.37,349.22z M170.96,319.81c3.87,0,7.94,1.52,11.91,4.53c6.7,5.07,14.33,6.45,18.29,6.82
				c1.77,0.17,3.49,0.74,4.97,1.66c14.98,9.27,27.64,13.35,31.35,14.43l-0.71-18.6c-3.2-0.93-17.73-5.4-20.68-11
				c-1.16-2.21-1.71-3.73-2.1-4.84c-0.67-1.88-0.95-2.66-3.36-4.46c-2.3-1.72-6.37,0.1-10.31,1.85c-2.25,1-4.38,1.95-6.28,2.31
				c-3.77,0.7-8.45-0.7-12.59-1.95c-1.9-0.57-3.7-1.11-5.26-1.41c-5-0.95-10.81-0.77-16.03,7.8c-1.58,2.6-2.13,4.57-1.45,5.25
				c0.87,0.89,3.76,0.27,4.87-0.37C165.91,320.48,168.39,319.81,170.96,319.81z"/>
		</g>
		<g>
			<path class="st1" d="M302.31,324.49c13.83,3.98,29.22,7.86,31.8,10.13c3.31,2.91,5.29,6.03,5.74,11.6
				c0.45,5.57-0.67,21.04-18.42,22.95c-17.75,1.91-60.45-7.58-80.88-18.61c0,0-13.49-8.75-5.42-21.98c0,0,0.63-6.98,34.67-1.95
				C286.03,329.04,302.31,324.49,302.31,324.49z"/>
			<path d="M316.08,370.28c-20.46,0-57.48-9.02-75.93-18.97c-0.02-0.01-0.04-0.02-0.06-0.03c-0.14-0.09-14.01-9.3-5.76-23.01
				c0.1-0.37,0.41-1.08,1.37-1.82c3-2.32,11.38-4.32,34.23-0.65c3.56,0.57,16.19,1.45,20.66-0.04c0.44-0.15,0.92,0.09,1.07,0.54
				c0.15,0.44-0.09,0.92-0.54,1.07c-5.03,1.68-18.02,0.66-21.46,0.1c-24.3-3.91-31.12-1.08-32.92,0.31
				c-0.62,0.48-0.76,0.88-0.77,0.88c-0.01,0.13-0.05,0.25-0.12,0.36c-7.44,12.19,4.31,20.27,5.13,20.81
				c19.63,10.58,62.42,20.43,80.36,18.5c18.36-1.98,17.94-18.71,17.67-22.04c-0.45-5.56-2.51-8.43-5.46-11.03
				c-1.89-1.67-12.42-4.61-22.6-7.45c-2.61-0.73-5.27-1.47-7.89-2.22c-0.15-0.04-0.93-0.26-1.75-0.49c-0.95-0.27-1.96-0.55-2.13-0.6
				c-0.45-0.13-0.71-0.6-0.58-1.05c0.13-0.45,0.6-0.71,1.05-0.58c0.17,0.05,1.18,0.33,2.12,0.59c0.83,0.23,1.61,0.45,1.76,0.49
				c2.62,0.75,5.28,1.49,7.88,2.22c11.31,3.16,21.08,5.89,23.26,7.81c3.85,3.4,5.6,6.92,6.03,12.17
				c0.18,2.21,1.17,21.67-19.17,23.86C319.89,370.2,318.06,370.28,316.08,370.28z"/>
		</g>
		<g>
			<path class="st1" d="M151.31,329.21c-6.09,4.08-9.02,7.15-10.18,8.07c-4.59,3.62-15.43,29.35,17.12,33.75
				c3.38,0.46,6.8,0.42,10.17-0.03c8.8-1.17,29.27-5.18,46.97-9.54c23.33-5.75,7.53-25.63-7.66-27.56
				c-15.18-1.94-24.36,0.28-46.6-2.84C157.99,330.61,151.31,329.21,151.31,329.21z"/>
			<path d="M163.13,372.2c-1.69,0-3.36-0.11-5-0.33c-15.94-2.15-21.14-9.38-22.69-15.06c-2.39-8.76,2.53-18.12,5.15-20.19
				c0.25-0.2,0.62-0.53,1.09-0.95c1.49-1.34,3.98-3.59,8.03-6.39c0.22-0.15,0.86-0.57,1.43-0.94c0.38-0.25,0.73-0.48,0.89-0.58
				c0.39-0.26,0.91-0.16,1.17,0.23c0.26,0.39,0.16,0.91-0.23,1.17c-0.16,0.11-0.51,0.34-0.9,0.59c-0.55,0.36-1.18,0.77-1.39,0.91
				c-3.96,2.74-6.4,4.94-7.86,6.26c-0.51,0.46-0.88,0.79-1.17,1.02c-2.29,1.81-6.73,10.49-4.57,18.41
				c2.03,7.44,9.39,12.22,21.28,13.83c3.2,0.43,6.54,0.42,9.95-0.03c8.63-1.15,29-5.12,46.88-9.53c7.59-1.87,11.45-5.34,11.18-10.05
				c-0.39-6.84-9.68-14.69-18.75-15.85c-6.63-0.85-12.2-0.9-18.09-0.95c-6.19-0.05-12.58-0.11-21.27-1.01
				c-0.47-0.05-0.8-0.46-0.76-0.93c0.05-0.46,0.47-0.8,0.93-0.76c8.61,0.89,14.97,0.94,21.12,1c5.94,0.05,11.55,0.1,18.29,0.96
				c9.95,1.27,19.78,9.74,20.22,17.43c0.18,3.21-1.19,9.01-12.47,11.79c-17.93,4.42-38.39,8.4-47.06,9.56
				C166.71,372.08,164.91,372.2,163.13,372.2z"/>
		</g>
	</g>
	<g>
		<g>
			<g>
				<path class="st3" d="M56.43,220.19c0.9,1.2,3.07,3.7,5.98,6.29c2.91,2.6,9.73,4.69,16.61,5.19c6.89,0.5,11.42,3.15,11.42,3.15
					s5.4-6.65,3.36-7.08c-2.63-0.55-6.24-3.08-7.4-5.37c-1.17-2.29-1.55-3.52-4.14-6.61c-2.59-3.09-4.59-4.82-6.71-5.36
					c-0.91-0.23-3.56,0.33-4.61,1.75c-0.59,0.8,0.08,1.9,0.08,1.9c-9.12,1.17-5.01,5.53-5.01,5.53c-1.97-0.71-5.77-5.16-7.28-6.27
					c-1.51-1.11-2.03-1.29-2.82-0.76c-1.16,0.78-0.15,2.33-0.15,2.33l2.03,2.31C55.58,216.9,55.53,218.99,56.43,220.19z
					 M69.52,217.89c-0.02-0.6,3.18-0.56,4.36-1.32c1.18-0.76,0.68-1.35,0.68-1.35c3.24,0.26,1.81,5.1-1.33,5.49
					C70.69,221.04,69.54,218.49,69.52,217.89z"/>
				<path d="M90.45,235.66c-0.15,0-0.29-0.04-0.42-0.11c-0.04-0.03-4.47-2.56-11.06-3.03c-7.2-0.52-14.08-2.69-17.12-5.41
					c-2.84-2.54-5.06-5.04-6.09-6.42l0,0c-0.78-1.03-0.94-2.39-0.4-3.31c0.14-0.24,0.39-0.55,0.8-0.78l-1.02-1.17
					c-0.03-0.03-0.05-0.06-0.07-0.1c-0.71-1.08-0.89-2.64,0.39-3.5c1.33-0.9,2.32-0.3,3.79,0.78c0.59,0.43,1.43,1.27,2.41,2.23
					c0.79,0.78,1.73,1.71,2.6,2.47c0.01-0.28,0.06-0.57,0.17-0.86c0.56-1.55,2.35-2.57,5.48-3.11c-0.09-0.55-0.03-1.17,0.37-1.71
					c1.31-1.78,4.35-2.36,5.5-2.07c2.19,0.56,4.26,2.19,7.15,5.64c2.22,2.65,2.87,3.99,3.71,5.69c0.17,0.34,0.34,0.69,0.54,1.08
					c1.02,2.01,4.34,4.4,6.82,4.93c0.5,0.1,0.88,0.43,1.04,0.89c0.59,1.65-2.2,5.44-3.91,7.55
					C90.94,235.56,90.7,235.66,90.45,235.66z M57.4,218.01c-0.23,0-0.48,0.05-0.59,0.22c-0.17,0.29-0.09,0.93,0.29,1.44c0,0,0,0,0,0
					c0.8,1.06,2.93,3.55,5.87,6.17c2.74,2.44,9.36,4.49,16.11,4.98c5.57,0.4,9.62,2.16,11.14,2.91c1.69-2.17,3.06-4.41,3.19-5.23
					c-2.96-0.71-6.54-3.36-7.76-5.77c-0.2-0.39-0.38-0.76-0.55-1.1c-0.81-1.66-1.4-2.86-3.49-5.35c-2.64-3.15-4.45-4.62-6.26-5.08
					c-0.63-0.16-2.9,0.32-3.72,1.43c-0.21,0.28,0.06,0.86,0.12,0.96c0.15,0.24,0.16,0.55,0.04,0.81c-0.12,0.26-0.37,0.44-0.66,0.47
					c-3.97,0.51-4.92,1.57-5.13,2.15c-0.32,0.9,0.62,1.94,0.63,1.95c0.27,0.29,0.31,0.72,0.09,1.04c-0.21,0.33-0.63,0.47-0.99,0.33
					c-1.44-0.52-3.47-2.53-5.27-4.31c-0.89-0.88-1.73-1.71-2.22-2.07c-1.41-1.03-1.53-0.95-1.85-0.74c-0.4,0.27-0.04,0.95,0.06,1.13
					l1.98,2.26c0.23,0.26,0.28,0.65,0.11,0.96c-0.17,0.31-0.51,0.48-0.86,0.44C57.61,218.02,57.51,218.01,57.4,218.01z M72.8,221.59
					c-0.95,0-1.83-0.33-2.57-0.96c-1.03-0.88-1.54-2.14-1.56-2.71c-0.04-1.05,1.13-1.24,2.49-1.47c0.77-0.13,1.83-0.31,2.26-0.59
					c0.2-0.13,0.31-0.24,0.36-0.3c-0.1-0.23-0.1-0.5,0.02-0.73c0.16-0.31,0.48-0.49,0.82-0.46c1.58,0.12,2.58,1.15,2.61,2.67
					c0.05,1.93-1.51,4.2-3.9,4.51C73.16,221.58,72.98,221.59,72.8,221.59z M70.53,218.29c0.16,0.34,0.45,0.79,0.89,1.13
					c0.5,0.39,1.06,0.54,1.71,0.46c1.54-0.19,2.45-1.75,2.42-2.79c-0.01-0.32-0.09-0.56-0.26-0.73c-0.19,0.33-0.51,0.64-0.94,0.92
					c-0.73,0.47-1.88,0.67-2.9,0.84C71.15,218.17,70.8,218.23,70.53,218.29z M73.89,215.74c0.01,0.01,0.02,0.03,0.03,0.04
					C73.91,215.76,73.9,215.75,73.89,215.74z"/>
			</g>
			<g>
				<path class="st3" d="M70.68,213.13c0,0,0.27,2.46,3.98,2.11L70.68,213.13z"/>
				<path d="M73.97,216.12c-3,0-4.02-1.84-4.13-2.9c-0.05-0.46,0.29-0.88,0.75-0.93c0.46-0.05,0.87,0.28,0.93,0.74
					c0.03,0.18,0.33,1.63,3.06,1.37c0.47-0.05,0.88,0.3,0.92,0.76c0.04,0.47-0.3,0.88-0.76,0.92
					C74.48,216.11,74.22,216.12,73.97,216.12z"/>
			</g>
		</g>
		<g>
			<g>
				<path class="st3" d="M423.59,209.21l2.01-2.63c0,0,0.97-1.73-0.34-2.49c-0.89-0.51-1.43-0.28-2.97,1.02
					c-1.54,1.3-5.28,6.35-7.33,7.25c0,0,4.08-4.97-5.78-5.55c0,0,0.63-1.23-0.06-2.04c-1.23-1.45-4.11-1.85-5.07-1.53
					c-2.22,0.73-4.24,2.73-6.79,6.24c-2.55,3.51-2.86,4.85-3.94,7.39c-1.08,2.54-4.49,4.35-7.26,5.14
					c-2.16,0.61,4.12,7.34,4.12,7.34s4.4-2.01,11.74-3.05c7.34-1.04,14.49-3.79,17.41-6.79c2.93-3,5.07-5.84,5.94-7.18
					S425.95,208.73,423.59,209.21z M407.32,214.12c-3.39-0.19-5.27-5.27-1.83-5.79c0,0-0.49,0.66,0.82,1.4
					c1.32,0.73,4.75,0.44,4.77,1.09C411.11,211.47,410.07,214.28,407.32,214.12z"/>
				<path d="M390.19,230.18c-0.23,0-0.46-0.09-0.62-0.27c-1.98-2.13-5.24-5.96-4.74-7.74c0.14-0.49,0.5-0.84,1.01-0.99
					c2.68-0.76,5.79-2.49,6.71-4.65c0.18-0.43,0.34-0.82,0.49-1.19c0.77-1.88,1.37-3.37,3.54-6.36c2.83-3.89,4.92-5.79,7.21-6.54
					c1.2-0.39,4.45,0,5.98,1.79c0.47,0.56,0.57,1.23,0.5,1.82c3.41,0.34,5.41,1.29,6.11,2.9c0.15,0.35,0.23,0.69,0.25,1.03
					c0.91-0.9,1.89-2.02,2.7-2.94c0.97-1.1,1.81-2.06,2.41-2.56c1.48-1.25,2.48-1.95,3.94-1.11c1.6,0.93,1.13,2.78,0.65,3.63
					c-0.02,0.03-0.04,0.07-0.07,0.1l-1.06,1.39c0.49,0.2,0.8,0.53,0.97,0.78c0.63,0.93,0.55,2.37-0.19,3.51
					c-1,1.55-3.19,4.39-6.05,7.31c-3.04,3.12-10.24,5.95-17.9,7.04c-7.11,1.01-11.46,2.96-11.5,2.98
					C390.43,230.15,390.31,230.18,390.19,230.18z M386.48,222.76c0.15,0.85,1.86,3.27,3.93,5.56c1.43-0.58,5.45-2.03,11.4-2.88
					c7.21-1.02,14.17-3.71,16.93-6.54c2.96-3.04,5.06-5.86,5.84-7.05c0.35-0.54,0.45-1.29,0.21-1.63c-0.19-0.28-0.66-0.25-1.02-0.18
					c-0.35,0.07-0.7-0.08-0.89-0.38c-0.19-0.3-0.17-0.68,0.04-0.96l1.96-2.57c0.1-0.2,0.46-1.01-0.04-1.3
					c-0.39-0.22-0.53-0.31-2,0.93c-0.5,0.43-1.34,1.38-2.23,2.39c-1.79,2.03-3.82,4.34-5.31,4.99c-0.36,0.16-0.78,0.05-1.02-0.26
					c-0.24-0.31-0.23-0.75,0.02-1.05c0.01-0.01,0.97-1.22,0.53-2.21c-0.28-0.62-1.39-1.71-5.7-1.96c-0.29-0.02-0.54-0.18-0.69-0.43
					c-0.14-0.25-0.15-0.55-0.02-0.81c0,0,0.35-0.75,0.05-1.1c-0.98-1.15-3.48-1.5-4.16-1.28c-1.92,0.63-3.77,2.35-6.37,5.93
					c-2.05,2.83-2.6,4.16-3.35,6c-0.16,0.38-0.32,0.78-0.5,1.22C392.92,219.99,389.42,221.89,386.48,222.76z M407.54,214.97
					c-0.09,0-0.18,0-0.27-0.01l0,0c-2.51-0.14-4.36-2.48-4.45-4.48c-0.07-1.6,0.9-2.75,2.55-2.99c0.34-0.05,0.68,0.11,0.85,0.4
					c0.14,0.23,0.16,0.51,0.06,0.75c0.06,0.07,0.19,0.19,0.45,0.33c0.5,0.27,1.6,0.38,2.49,0.47c1.5,0.15,2.68,0.26,2.71,1.33
					c0.02,0.61-0.42,1.98-1.45,2.98C409.68,214.56,408.66,214.97,407.54,214.97z M407.37,213.28c0.72,0.04,1.34-0.18,1.86-0.65
					c0.48-0.43,0.76-0.98,0.9-1.36c-0.31-0.05-0.73-0.09-1.07-0.12c-1.1-0.11-2.35-0.23-3.15-0.67c-0.51-0.28-0.87-0.6-1.1-0.96
					c-0.22,0.21-0.32,0.51-0.3,0.9C404.56,211.54,405.68,213.18,407.37,213.28L407.37,213.28z M406.18,208.84
					C406.17,208.84,406.17,208.84,406.18,208.84C406.17,208.84,406.17,208.84,406.18,208.84z"/>
			</g>
			<g>
				<path class="st3" d="M409.5,205.81c0,0-0.1,2.66-4.11,2.55L409.5,205.81z"/>
				<path d="M405.62,209.21c-0.08,0-0.17,0-0.26,0c-0.47-0.01-0.84-0.4-0.82-0.87c0.01-0.47,0.4-0.84,0.87-0.82
					c3.02,0.08,3.23-1.57,3.24-1.75c0.03-0.46,0.43-0.81,0.89-0.79c0.46,0.03,0.82,0.41,0.8,0.87
					C410.34,205.87,410.15,209.21,405.62,209.21z"/>
			</g>
		</g>
		<path d="M226.71,171.64c-3.53,0.01-6.94,1.15-9.84,3.18c-3.15,2.2-8.74,4.95-17.99,6.22c-14.83,2.03-27.16,6.66-43.25,20.3
			c-25.22,21.39-22.31,28.32-65.25,21.06l-5.3,14.4c0,0,11.08,10.93,32.48,12.65c0,0,37.69,5.19,63.6-19.03
			c1.93-1.8,5.03-1.4,6.48,0.81c3.82,5.81,10.07,17.67,12.35,35.59c0.79,6.21,0.81,12.24,0.33,15.79
			c-1.68,12.38-0.76,15.47-0.76,15.47s39.01,18.84,70.07-0.87c0,0,1.48-4.12-0.33-27.24c-1.05-13.36,5.9-30.5,9.76-39.01
			c1.23-2.72,4.78-3.38,6.92-1.3c8.42,8.2,28.56,22.99,59.33,22.34c0,0,24.7-1.29,47.69-19.37l-6.83-13.22c0,0-51.13,17-74.38-13.33
			c-4.74-6.19-17.28-23.46-36.94-26.03c-15.05-1.97-21.28-3.21-25.06-5.32c-3.75-2.1-8-3.11-12.3-3.1L226.71,171.64z"/>
	</g>
	<g>
		<g>
			<path d="M217.43,146.62c-2.1-0.97-3.2,0.62-6.34,0.17c-3.33-0.47-7-2.96-8.36-6.59c-1.64-4.37-0.39-8.15,1.33-11.58
				c1.35-2.69,4.41-5.06,7.74-6.3c4.34-1.62,5.43,0.46,10.4-1.05c4.04-1.23,4.45-2.74,8.04-3.74c2.99-0.84,12.13-0.49,13.52,4.28
				c1.48,5.1,0.33,5.92,1.63,10.23c0.78,2.59,2.02,2.91,2.91,4.91c2.22,4.96-2.4,12.4-7.78,15.29
				C233.23,156.17,221.06,148.28,217.43,146.62z"/>
			<g>
				<path class="st3" d="M224.09,154.96l-1.76,13.89c-1.43,6.2-9.18,9.07-9.18,9.07c12.38,9.52,27.78,8.62,40.27-0.76
					c0,0-8.35-2.02-10.1-10.02l-3.59-20.49L224.09,154.96z"/>
				<path d="M232.36,185.47c-6.94,0-13.76-2.29-19.73-6.89c-0.24-0.19-0.37-0.49-0.32-0.8c0.05-0.3,0.25-0.56,0.54-0.67
					c0.07-0.03,7.3-2.78,8.64-8.43l1.75-13.84c0.03-0.27,0.2-0.51,0.44-0.64l15.63-8.31c0.24-0.13,0.53-0.13,0.77-0.01
					c0.24,0.12,0.42,0.35,0.46,0.61l3.59,20.49c1.61,7.34,9.39,9.33,9.47,9.35c0.32,0.08,0.56,0.33,0.63,0.65
					c0.07,0.32-0.06,0.65-0.32,0.85C247.15,182.92,239.69,185.47,232.36,185.47z M214.82,178.1c11.06,7.79,24.9,7.53,36.76-0.66
					c-2.65-1.06-7.72-3.85-9.1-10.12l-3.4-19.37l-14.22,7.56l-1.7,13.45c0,0.03-0.01,0.06-0.02,0.08
					C222,174,217.23,176.92,214.82,178.1z M222.33,168.84L222.33,168.84L222.33,168.84z"/>
			</g>
			<g>
				<path class="st3" d="M237.93,149.46c0,0,5.49-2.04,3.46-6.58c-2.04-4.54-5.41-1.21-5.41-1.21s-3.06-11.18-9.63-6.81
					c-6.57,4.37-12.78,5.94-12.78,5.94s2.25,11.25,6.36,18.75c2.48,4.52,5.63,7.68,9.36,6.18
					C239.52,161.63,237.93,149.46,237.93,149.46L237.93,149.46z"/>
				<path d="M227.38,166.96c-2.9,0-5.64-2.35-8.2-7.01c-4.12-7.52-6.35-18.52-6.45-18.99c-0.09-0.44,0.19-0.88,0.62-0.99
					c0.06-0.02,6.16-1.59,12.52-5.83c1.76-1.17,3.47-1.46,5.1-0.85c2.98,1.11,4.73,5.01,5.44,6.98c0.7-0.41,1.68-0.79,2.73-0.59
					c1.26,0.23,2.27,1.19,3.01,2.84c0.64,1.44,0.7,2.81,0.17,4.08c-0.77,1.83-2.56,2.91-3.5,3.38c0.16,2.65,0.11,12.78-9.22,16.52
					C228.86,166.81,228.12,166.96,227.38,166.96z M214.56,141.4c0.59,2.64,2.72,11.56,6.11,17.74c2.72,4.97,5.51,6.92,8.31,5.8
					c9.49-3.8,8.18-14.9,8.12-15.37c-0.05-0.39,0.17-0.76,0.54-0.9l0,0c0.02-0.01,2.38-0.92,3.13-2.72c0.35-0.83,0.3-1.72-0.15-2.73
					c-0.5-1.11-1.09-1.73-1.77-1.86c-0.92-0.18-1.96,0.6-2.28,0.91c-0.21,0.21-0.52,0.29-0.81,0.21c-0.29-0.08-0.52-0.3-0.6-0.59
					c-0.02-0.06-1.64-5.83-4.78-7c-1.1-0.41-2.27-0.19-3.57,0.67C221.49,139.1,216.46,140.83,214.56,141.4z"/>
			</g>
		</g>
	</g>
</g>
<g>
	<g>
		<path class="st1" d="M54.49,188.03l-0.09-1.09c-0.09-1.02-0.88-1.85-1.9-1.98l-1.68-0.22c-0.83-0.11-1.52-0.68-1.79-1.48
			c-0.06-0.16-0.11-0.33-0.17-0.49c-0.28-0.76-0.14-1.6,0.4-2.21l1.26-1.43c0.66-0.75,0.72-1.85,0.16-2.68l-0.58-0.84
			c-0.59-0.86-1.71-1.18-2.66-0.77l-1.55,0.67c-0.78,0.34-1.67,0.18-2.31-0.37c-0.11-0.1-0.22-0.19-0.33-0.28
			c-0.63-0.52-0.93-1.34-0.76-2.14l0.39-1.86c0.21-0.99-0.29-2-1.21-2.43l-0.86-0.4c-0.94-0.44-2.05-0.16-2.67,0.67l-1.07,1.43
			c-0.5,0.67-1.33,0.98-2.16,0.83c-0.13-0.02-0.26-0.05-0.4-0.07c-0.83-0.13-1.52-0.7-1.77-1.5l-0.53-1.7
			c-0.31-0.99-1.27-1.62-2.3-1.52l-0.95,0.1c-1.01,0.1-1.81,0.88-1.95,1.89l-0.25,1.88c-0.11,0.81-0.66,1.49-1.43,1.77
			c-0.14,0.05-0.28,0.1-0.41,0.16c-0.79,0.31-1.68,0.16-2.3-0.41l-1.24-1.14c-0.77-0.71-1.92-0.77-2.77-0.16l-0.83,0.6
			c-0.81,0.59-1.11,1.65-0.74,2.58l0.71,1.77c0.3,0.75,0.16,1.6-0.36,2.22c-0.11,0.13-0.22,0.27-0.33,0.4
			c-0.52,0.66-1.36,0.97-2.18,0.8l-1.67-0.35c-1-0.21-2.02,0.3-2.44,1.24l-0.45,1c-0.41,0.92-0.15,2,0.64,2.62l1.42,1.11
			c0.64,0.5,0.94,1.32,0.8,2.13c-0.03,0.18-0.06,0.37-0.09,0.55c-0.12,0.81-0.68,1.49-1.46,1.75l-1.72,0.58
			c-0.95,0.32-1.56,1.25-1.47,2.26l0.09,1.09c0.09,1.02,0.88,1.85,1.9,1.98l1.68,0.22c0.83,0.11,1.52,0.68,1.79,1.48
			c0.06,0.16,0.11,0.33,0.17,0.49c0.28,0.76,0.14,1.6-0.4,2.21l-1.26,1.43c-0.66,0.75-0.72,1.85-0.16,2.68l0.58,0.84
			c0.59,0.86,1.71,1.18,2.66,0.77l1.55-0.67c0.78-0.34,1.67-0.18,2.31,0.37c0.11,0.1,0.22,0.19,0.33,0.28
			c0.63,0.52,0.93,1.34,0.76,2.14l-0.39,1.86c-0.21,0.99,0.29,2,1.21,2.43l0.86,0.4c0.94,0.44,2.05,0.16,2.67-0.67l1.07-1.43
			c0.5-0.67,1.33-0.98,2.16-0.83c0.13,0.02,0.26,0.05,0.4,0.07c0.83,0.13,1.52,0.7,1.77,1.5l0.53,1.7c0.31,0.99,1.27,1.62,2.3,1.52
			l0.95-0.1c1.01-0.1,1.81-0.88,1.95-1.89l0.25-1.88c0.11-0.81,0.66-1.49,1.43-1.77c0.14-0.05,0.28-0.1,0.41-0.16
			c0.79-0.31,1.68-0.16,2.3,0.41l1.24,1.14c0.77,0.71,1.92,0.77,2.77,0.16l0.83-0.6c0.81-0.59,1.11-1.65,0.74-2.58l-0.71-1.77
			c-0.3-0.75-0.16-1.6,0.36-2.22c0.11-0.13,0.22-0.27,0.33-0.4c0.52-0.66,1.36-0.97,2.18-0.8l1.67,0.35c1,0.21,2.02-0.3,2.44-1.24
			l0.45-1c0.41-0.92,0.15-2-0.64-2.62l-1.42-1.11c-0.64-0.5-0.94-1.32-0.8-2.13c0.03-0.18,0.06-0.37,0.09-0.55
			c0.12-0.81,0.68-1.49,1.46-1.75l1.72-0.58C53.97,189.96,54.58,189.03,54.49,188.03z M32.48,201.48
			c-6.31,0.63-11.89-4.1-12.45-10.57c-0.56-6.47,4.11-12.23,10.42-12.87c6.31-0.63,11.89,4.1,12.45,10.57
			C43.46,195.09,38.8,200.85,32.48,201.48z"/>
	</g>
	<g>
		<path class="st2" d="M109.44,151.84l-0.53-2c-0.32-1.21-1.44-2.03-2.69-1.97l-2.84,0.13c-1.03,0.05-1.99-0.51-2.48-1.42
			c-0.17-0.32-0.35-0.63-0.54-0.94c-0.51-0.85-0.52-1.92-0.01-2.77l1.61-2.66c0.63-1.04,0.48-2.38-0.38-3.24l-1.38-1.41
			c-0.89-0.9-2.29-1.05-3.35-0.36l-2.37,1.56c-0.87,0.57-1.99,0.57-2.88,0.03c-0.28-0.17-0.56-0.33-0.84-0.49
			c-0.88-0.49-1.43-1.42-1.39-2.42l0.1-3.11c0.04-1.23-0.77-2.33-1.96-2.66l-1.82-0.49c-1.22-0.33-2.5,0.24-3.06,1.37l-1.33,2.64
			c-0.46,0.92-1.42,1.47-2.45,1.46c-0.31,0-0.62,0-0.93,0.01c-1.03,0.03-2-0.51-2.47-1.43l-1.36-2.63
			c-0.58-1.12-1.87-1.68-3.08-1.34l-1.81,0.51c-1.19,0.33-1.99,1.44-1.94,2.68l0.14,3.1c0.04,1.01-0.49,1.94-1.37,2.44
			c-0.29,0.16-0.57,0.33-0.84,0.5c-0.88,0.55-2,0.57-2.88,0l-2.38-1.53c-1.07-0.68-2.47-0.52-3.35,0.39l-1.37,1.42
			c-0.84,0.88-0.98,2.21-0.34,3.25l1.65,2.65c0.53,0.85,0.52,1.91,0.02,2.77c-0.18,0.31-0.36,0.63-0.53,0.95
			c-0.48,0.91-1.43,1.48-2.46,1.44l-2.85-0.1c-1.25-0.04-2.36,0.79-2.67,2l-0.51,2.01c-0.3,1.19,0.24,2.43,1.33,3l2.63,1.4
			c0.89,0.47,1.42,1.41,1.41,2.41c-0.01,0.38,0,0.76,0.01,1.14c0.03,1.01-0.49,1.95-1.38,2.44l-2.62,1.43
			c-1.07,0.59-1.61,1.83-1.29,3.02l0.53,2c0.32,1.21,1.44,2.03,2.69,1.97l2.84-0.13c1.03-0.05,1.99,0.51,2.48,1.42
			c0.17,0.32,0.35,0.63,0.54,0.94c0.51,0.85,0.52,1.92,0.01,2.77l-1.61,2.66c-0.63,1.04-0.48,2.38,0.38,3.24l1.38,1.41
			c0.89,0.9,2.29,1.05,3.35,0.36l2.37-1.56c0.87-0.57,1.99-0.57,2.88-0.03c0.28,0.17,0.56,0.33,0.84,0.49
			c0.88,0.49,1.43,1.42,1.39,2.42l-0.1,3.11c-0.04,1.23,0.77,2.33,1.96,2.66l1.82,0.49c1.22,0.33,2.5-0.24,3.06-1.37l1.33-2.64
			c0.46-0.92,1.42-1.47,2.45-1.46c0.31,0,0.62,0,0.93-0.01c1.03-0.03,2,0.51,2.47,1.43l1.36,2.63c0.58,1.12,1.87,1.68,3.08,1.34
			l1.81-0.51c1.19-0.33,1.99-1.44,1.94-2.68l-0.14-3.1c-0.04-1.01,0.49-1.94,1.37-2.44c0.29-0.16,0.57-0.33,0.84-0.5
			c0.88-0.55,2-0.57,2.88,0l2.38,1.53c1.07,0.68,2.47,0.52,3.35-0.39l1.37-1.42c0.84-0.88,0.98-2.21,0.34-3.25l-1.65-2.65
			c-0.53-0.85-0.52-1.91-0.02-2.77c0.18-0.31,0.36-0.63,0.53-0.95c0.48-0.91,1.43-1.48,2.46-1.44l2.85,0.1
			c1.25,0.04,2.36-0.79,2.67-2l0.51-2.01c0.3-1.19-0.24-2.43-1.33-3l-2.63-1.4c-0.89-0.47-1.42-1.41-1.41-2.41
			c0.01-0.38,0-0.76-0.01-1.14c-0.03-1.01,0.49-1.95,1.38-2.44l2.62-1.43C109.22,154.27,109.75,153.03,109.44,151.84z M82.7,175.11
			c-8.42,2.37-17.12-2.72-19.42-11.38c-2.31-8.65,2.65-17.59,11.07-19.96c8.42-2.37,17.12,2.72,19.42,11.38
			C96.08,163.8,91.12,172.74,82.7,175.11z"/>
		<path d="M72.03,192.19c-0.3,0-0.6-0.04-0.9-0.12l-1.82-0.49c-1.58-0.43-2.65-1.87-2.59-3.5l0.1-3.11
			c0.02-0.68-0.34-1.31-0.96-1.66c-0.29-0.16-0.58-0.33-0.87-0.51c-0.63-0.38-1.38-0.38-1.97,0.01l-2.37,1.56
			c-1.39,0.92-3.25,0.72-4.42-0.47l-1.38-1.41c-1.13-1.15-1.33-2.9-0.5-4.28l1.61-2.66c0.35-0.57,0.34-1.3-0.01-1.89
			c-0.19-0.32-0.37-0.64-0.55-0.97c-0.34-0.64-0.99-1.01-1.69-0.98l-2.84,0.13c-1.64,0.07-3.13-1.02-3.55-2.6l-0.53-2
			c-0.42-1.56,0.28-3.2,1.7-3.98l2.62-1.43c0.6-0.33,0.96-0.97,0.94-1.67c-0.01-0.39-0.01-0.78-0.01-1.17
			c0.01-0.7-0.36-1.34-0.96-1.66l-2.63-1.4c-1.43-0.76-2.15-2.39-1.75-3.96l0.51-2.01c0.4-1.58,1.88-2.69,3.52-2.64l2.85,0.1
			c0.71,0.03,1.34-0.36,1.68-0.99c0.17-0.33,0.36-0.65,0.54-0.98c0.35-0.6,0.34-1.32-0.01-1.89l-1.65-2.65
			c-0.85-1.36-0.66-3.12,0.45-4.28l1.37-1.42c1.16-1.2,3.01-1.42,4.42-0.52l2.38,1.53c0.59,0.38,1.35,0.38,1.97-0.01
			c0.29-0.18,0.58-0.35,0.87-0.52c0.61-0.35,0.97-0.99,0.94-1.67l-0.14-3.1c-0.07-1.63,0.98-3.08,2.55-3.53l1.81-0.51
			c1.59-0.45,3.3,0.29,4.06,1.76l1.36,2.63c0.32,0.62,0.97,1,1.7,0.98c0.32-0.01,0.64-0.01,0.96-0.01c0.72-0.01,1.37-0.37,1.68-0.99
			l1.33-2.64c0.74-1.48,2.44-2.23,4.04-1.81l1.82,0.49c1.58,0.43,2.65,1.87,2.59,3.5l-0.1,3.11c-0.02,0.68,0.34,1.31,0.96,1.66
			c0.29,0.16,0.58,0.33,0.87,0.51c0.63,0.38,1.38,0.38,1.97-0.01l2.37-1.56c1.39-0.92,3.25-0.72,4.42,0.47l1.38,1.41
			c1.13,1.15,1.33,2.9,0.5,4.28l-1.61,2.66c-0.35,0.57-0.34,1.3,0.01,1.89c0.19,0.32,0.38,0.64,0.55,0.97
			c0.34,0.64,0.99,1.01,1.69,0.98l2.84-0.13c1.64-0.07,3.13,1.02,3.55,2.6l0.53,2c0.42,1.56-0.28,3.2-1.7,3.98l-2.62,1.43
			c-0.6,0.33-0.96,0.97-0.94,1.67c0.01,0.39,0.01,0.78,0.01,1.17c-0.01,0.7,0.36,1.34,0.96,1.66l2.63,1.4
			c1.43,0.76,2.15,2.39,1.75,3.96l-0.51,2.01c-0.4,1.59-1.88,2.69-3.52,2.64l-2.85-0.1c-0.69-0.03-1.34,0.36-1.68,0.99
			c-0.17,0.33-0.36,0.65-0.54,0.98c-0.35,0.6-0.34,1.32,0.01,1.89l1.65,2.65c0.85,1.36,0.66,3.12-0.45,4.28l-1.37,1.42
			c-1.16,1.2-3.01,1.42-4.42,0.52l-2.38-1.53c-0.59-0.38-1.35-0.38-1.97,0.01c-0.29,0.18-0.58,0.35-0.87,0.52
			c-0.61,0.35-0.97,0.99-0.94,1.67l0.14,3.1c0.07,1.63-0.98,3.08-2.55,3.53l-1.81,0.51c-1.59,0.45-3.3-0.29-4.06-1.76l-1.36-2.63
			c-0.32-0.62-0.98-0.99-1.7-0.98c-0.32,0.01-0.64,0.01-0.96,0.01c-0.7,0.01-1.37,0.37-1.68,0.99l-1.33,2.64
			C74.56,191.46,73.33,192.19,72.03,192.19z M64.01,180.83c0.65,0,1.3,0.17,1.87,0.53c0.27,0.16,0.54,0.32,0.82,0.48
			c1.17,0.65,1.87,1.88,1.82,3.19l-0.1,3.11c-0.03,0.85,0.52,1.59,1.34,1.81l1.82,0.49c0.83,0.22,1.7-0.17,2.09-0.93l1.33-2.64
			c0.6-1.19,1.81-1.92,3.17-1.92c0.01,0,0.03,0,0.04,0c0.3,0,0.6,0,0.9-0.01c1.38-0.04,2.62,0.69,3.25,1.89l1.36,2.63
			c0.39,0.76,1.28,1.14,2.1,0.91l1.81-0.51c0.81-0.23,1.36-0.98,1.32-1.82l-0.14-3.1c-0.06-1.32,0.63-2.55,1.8-3.21
			c0.28-0.16,0.55-0.32,0.82-0.49c1.16-0.73,2.65-0.72,3.78,0l2.38,1.53c0.72,0.47,1.68,0.35,2.28-0.27l1.37-1.42
			c0.58-0.6,0.67-1.51,0.23-2.21l-1.65-2.65c-0.69-1.1-0.7-2.5-0.03-3.64c0.18-0.3,0.35-0.61,0.51-0.92
			c0.64-1.22,1.89-1.93,3.24-1.89l2.85,0.1c0.85,0.04,1.61-0.54,1.82-1.36l0.51-2.01c0.21-0.81-0.16-1.65-0.9-2.05l-2.63-1.4
			c-1.16-0.62-1.87-1.83-1.85-3.17c0.01-0.37,0-0.73-0.01-1.1c-0.04-1.34,0.66-2.57,1.82-3.2l2.62-1.43c0.73-0.4,1.1-1.25,0.88-2.06
			l-0.53-2c-0.22-0.82-0.99-1.38-1.83-1.34l-2.84,0.13c-1.35,0.06-2.6-0.65-3.26-1.87c-0.17-0.31-0.34-0.61-0.52-0.91
			c-0.68-1.13-0.68-2.53,0-3.64l1.61-2.66c0.43-0.71,0.33-1.62-0.26-2.21l-1.38-1.41c-0.6-0.61-1.57-0.72-2.29-0.24l-2.37,1.56
			c-1.13,0.74-2.61,0.76-3.78,0.04c-0.27-0.16-0.54-0.32-0.82-0.48c-1.17-0.65-1.87-1.88-1.82-3.19l0.1-3.11
			c0.03-0.85-0.52-1.59-1.34-1.81l-1.82-0.49c-0.82-0.22-1.7,0.17-2.09,0.93l-1.33,2.64c-0.6,1.19-1.81,1.92-3.17,1.92
			c-0.01,0-0.03,0-0.04,0c-0.3,0-0.6,0-0.9,0.01c-1.39,0.04-2.62-0.69-3.24-1.89l-1.36-2.63c-0.39-0.76-1.28-1.14-2.1-0.91
			l-1.81,0.51c-0.81,0.23-1.36,0.98-1.32,1.82l0.14,3.1c0.06,1.32-0.63,2.55-1.8,3.21c-0.28,0.16-0.55,0.32-0.82,0.49
			c-1.16,0.72-2.65,0.72-3.78,0l-2.38-1.53c-0.73-0.47-1.69-0.35-2.28,0.27l-1.37,1.42c-0.58,0.6-0.67,1.51-0.23,2.21l1.65,2.65
			c0.69,1.1,0.7,2.5,0.04,3.64c-0.18,0.3-0.35,0.61-0.51,0.92c-0.64,1.22-1.89,1.95-3.24,1.89l-2.85-0.1
			c-0.84-0.04-1.61,0.54-1.82,1.36l-0.51,2.01c-0.21,0.81,0.16,1.65,0.9,2.05l2.63,1.4c1.16,0.62,1.87,1.83,1.85,3.17
			c-0.01,0.37,0,0.73,0.01,1.1c0.04,1.34-0.66,2.57-1.82,3.2l-2.62,1.43c-0.73,0.4-1.1,1.25-0.88,2.06l0.53,2
			c0.22,0.82,0.98,1.39,1.83,1.34l2.84-0.13c1.35-0.06,2.6,0.65,3.26,1.87c0.17,0.31,0.34,0.61,0.52,0.91
			c0.68,1.13,0.68,2.53,0,3.64l-1.61,2.66c-0.43,0.71-0.33,1.62,0.26,2.21l1.38,1.41c0.6,0.61,1.57,0.72,2.29,0.24l2.37-1.56
			C62.67,181.02,63.34,180.83,64.01,180.83z M78.5,176.53c-2.8,0-5.56-0.73-8.07-2.16c-3.95-2.25-6.79-5.96-7.98-10.43
			c-2.42-9.08,2.81-18.5,11.66-20.99c4.23-1.19,8.66-0.64,12.49,1.54c3.95,2.25,6.79,5.96,7.98,10.43
			c2.42,9.08-2.81,18.5-11.66,20.99l0,0C81.47,176.33,79.98,176.53,78.5,176.53z M82.7,175.11L82.7,175.11L82.7,175.11z
			 M78.54,144.03c-1.32,0-2.66,0.18-3.96,0.55c-7.96,2.24-12.67,10.73-10.48,18.92c1.07,4.03,3.63,7.37,7.18,9.4
			c3.43,1.96,7.41,2.45,11.19,1.38c7.96-2.24,12.67-10.73,10.48-18.93c-1.07-4.03-3.63-7.37-7.18-9.4
			C83.53,144.69,81.05,144.03,78.54,144.03z"/>
	</g>
</g>
<g>
	<path d="M428.73,312.18c-0.92,0-1.81-0.28-2.58-0.81c-0.99-0.69-1.66-1.73-1.87-2.92c-0.21-1.19,0.05-2.4,0.74-3.39l0,0
		c1.43-2.05,4.26-2.56,6.31-1.13c0.99,0.69,1.66,1.73,1.87,2.92c0.21,1.19-0.05,2.4-0.74,3.39c-0.69,0.99-1.73,1.66-2.92,1.87
		C429.27,312.16,428.99,312.18,428.73,312.18z M428.74,304.8c-0.9,0-1.78,0.42-2.34,1.22l0,0c-0.43,0.62-0.6,1.38-0.46,2.12
		s0.55,1.4,1.17,1.83c0.62,0.43,1.38,0.6,2.13,0.46c0.75-0.13,1.4-0.55,1.83-1.17c0.43-0.62,0.6-1.38,0.47-2.12
		c-0.13-0.75-0.55-1.4-1.17-1.83C429.87,304.97,429.3,304.8,428.74,304.8z M425.71,305.54L425.71,305.54L425.71,305.54z"/>
	<path d="M442.69,273.88c-0.67,0-1.34-0.2-1.93-0.6c-1.53-1.06-1.91-3.17-0.84-4.7l0,0c1.06-1.53,3.17-1.91,4.7-0.84
		c1.53,1.06,1.91,3.17,0.84,4.7C444.81,273.38,443.76,273.88,442.69,273.88z M442.69,268.82c-0.53,0-1.06,0.25-1.39,0.72l0,0
		c-0.53,0.76-0.34,1.81,0.42,2.35c0.76,0.53,1.82,0.34,2.35-0.42c0.53-0.76,0.34-1.82-0.42-2.35
		C443.36,268.92,443.03,268.82,442.69,268.82z M440.61,269.06L440.61,269.06L440.61,269.06z"/>
	<g>
		<path d="M404.55,335.39c-0.24,0-0.48-0.1-0.64-0.3c-0.3-0.36-0.26-0.89,0.1-1.19l2.73-2.33c0.36-0.3,0.89-0.26,1.19,0.1
			c0.3,0.36,0.26,0.89-0.1,1.19l-2.73,2.33C404.94,335.32,404.74,335.39,404.55,335.39z"/>
		<path d="M395.91,342.75c-0.24,0-0.48-0.1-0.64-0.3c-0.3-0.36-0.26-0.89,0.1-1.19l2.73-2.33c0.36-0.3,0.89-0.26,1.19,0.1
			c0.3,0.36,0.26,0.89-0.1,1.19l-2.73,2.33C396.3,342.68,396.1,342.75,395.91,342.75z"/>
		<path d="M399.08,334.95c-0.24,0-0.48-0.1-0.64-0.3l-2.33-2.73c-0.3-0.36-0.26-0.89,0.1-1.19c0.36-0.3,0.89-0.26,1.19,0.1
			l2.33,2.73c0.3,0.36,0.26,0.89-0.1,1.19C399.47,334.88,399.27,334.95,399.08,334.95z"/>
		<path d="M406.44,343.59c-0.24,0-0.48-0.1-0.64-0.3l-2.33-2.73c-0.3-0.36-0.26-0.89,0.1-1.19c0.36-0.3,0.89-0.26,1.19,0.1
			l2.33,2.73c0.3,0.36,0.26,0.89-0.1,1.19C406.83,343.52,406.64,343.59,406.44,343.59z"/>
	</g>
	<g>
		<path d="M77.07,310.09c-0.46,0-0.83-0.36-0.85-0.82l-0.09-3.59c-0.01-0.47,0.36-0.86,0.82-0.87c0.46-0.02,0.86,0.36,0.87,0.82
			l0.09,3.59c0.01,0.47-0.36,0.86-0.82,0.87C77.08,310.09,77.07,310.09,77.07,310.09z"/>
		<path d="M77.36,321.44c-0.46,0-0.83-0.36-0.85-0.82l-0.09-3.59c-0.01-0.47,0.36-0.86,0.82-0.87c0.46-0.01,0.86,0.36,0.87,0.82
			l0.09,3.59c0.01,0.47-0.36,0.86-0.82,0.87C77.38,321.44,77.37,321.44,77.36,321.44z"/>
		<path d="M69.7,314.16c-0.46,0-0.83-0.36-0.85-0.82c-0.01-0.47,0.36-0.86,0.82-0.87l3.59-0.09c0.47-0.02,0.86,0.36,0.87,0.82
			c0.01,0.47-0.36,0.86-0.82,0.87l-3.59,0.09C69.71,314.16,69.71,314.16,69.7,314.16z"/>
		<path d="M81.05,313.87c-0.46,0-0.83-0.36-0.85-0.82c-0.01-0.47,0.36-0.86,0.82-0.87l3.59-0.09c0.46-0.02,0.86,0.36,0.87,0.82
			c0.01,0.47-0.36,0.86-0.82,0.87l-3.59,0.09C81.06,313.87,81.05,313.87,81.05,313.87z"/>
	</g>
</g>
<g>
	<path class="st3" d="M410.67,131.88c-5.55,3.65-9.6,9-12.35,14.8l-0.33,0.77c-2.55,5.94-3.68,12.38-3.31,18.83
		c0.32,4.09,1.3,8.19,3,12.17c3.34,7.82,8.95,13.96,15.74,18l-8.41,14.2c-0.62,1.04-0.24,2.39,0.84,2.96
		c1.02,0.53,2.28,0.09,2.87-0.9l8.46-14.28c10.02,4.57,21.94,4.86,32.77-0.32c17.92-8.58,26.44-29.71,19.49-48.31
		c-7.77-20.79-31.21-30.67-51.39-22.06C418.04,127.73,416.05,128.33,410.67,131.88z M466.43,168.02c-0.48,3.34-1.46,6.58-2.91,9.63
		l-0.24,0.5c-3.66,7.41-10.07,13.51-18.55,16.63c-16.25,5.97-34.62-1.63-41.93-17.33c-8.19-17.59,0.17-38.4,18.25-45.45
		c16.38-6.38,35.15,1.16,42.57,17.1C466.49,155.25,467.33,161.8,466.43,168.02z"/>
	<path d="M406.06,214.59c-0.25-0.07-0.5-0.17-0.74-0.31c-0.68-0.4-1.17-1.05-1.36-1.82c-0.2-0.77-0.08-1.57,0.32-2.25l7.99-13.48
		c-6.87-4.29-12.17-10.48-15.36-17.96c-1.7-3.98-2.73-8.16-3.06-12.43c-0.04-0.47,0.31-0.87,0.78-0.91
		c0.47-0.04,0.87,0.31,0.91,0.78c0.32,4.09,1.31,8.09,2.93,11.9c3.16,7.4,8.48,13.49,15.39,17.61c0.4,0.24,0.53,0.76,0.3,1.16
		l-8.41,14.2c-0.17,0.29-0.22,0.64-0.14,0.96c0.08,0.33,0.29,0.61,0.58,0.78c0.6,0.36,1.39,0.16,1.74-0.45l8.52-14.39
		c0.22-0.37,0.68-0.52,1.08-0.34c9.65,4.4,20.78,4.54,30.53,0.38c19.17-8.18,28.1-30.43,19.92-49.6
		c-8.18-19.17-30.43-28.1-49.6-19.92c-0.43,0.18-0.93-0.02-1.11-0.45c-0.18-0.43,0.02-0.93,0.45-1.11
		c20.02-8.55,43.27,0.78,51.82,20.81c8.55,20.02-0.78,43.27-20.81,51.82c-9.95,4.25-21.28,4.21-31.2-0.08l-8.14,13.74
		C408.69,214.41,407.31,214.93,406.06,214.59z M424.34,196.48c-9.85-2.65-18.44-9.62-22.75-19.71
		c-7.45-17.44,0.68-37.69,18.12-45.14c17.44-7.45,37.69,0.68,45.14,18.12c2.48,5.81,3.32,12.16,2.42,18.38
		c-0.07,0.46-0.5,0.78-0.96,0.72c-0.46-0.07-0.78-0.5-0.72-0.96c0.85-5.91,0.05-11.95-2.3-17.47
		c-7.08-16.58-26.33-24.31-42.92-17.23c-16.58,7.08-24.31,26.33-17.23,42.92c7.08,16.58,26.33,24.31,42.92,17.23
		c6.84-2.92,12.52-8.13,16.01-14.68c0.22-0.41,0.73-0.57,1.14-0.35c0.41,0.22,0.57,0.73,0.35,1.14
		c-3.67,6.89-9.65,12.37-16.84,15.44C439.37,198.04,431.52,198.41,424.34,196.48z M398.1,147.49c-0.05-0.01-0.1-0.03-0.14-0.05
		c-0.42-0.2-0.6-0.71-0.4-1.13c2.86-6.02,7.23-11.25,12.62-15.12c0.38-0.27,0.91-0.19,1.18,0.19c0.27,0.38,0.19,0.91-0.19,1.18
		c-5.16,3.7-9.34,8.7-12.08,14.47C398.91,147.41,398.49,147.59,398.1,147.49z"/>
</g>
<g>
	<g>
		<path class="st3" d="M319.56,120.83c-0.17,0-0.35-0.05-0.5-0.16c-0.38-0.27-0.46-0.8-0.19-1.18l3.98-5.48
			c0.27-0.38,0.8-0.46,1.18-0.19c0.38,0.27,0.46,0.8,0.19,1.18l-3.98,5.48C320.08,120.71,319.82,120.83,319.56,120.83z
			 M327.51,109.87c-0.17,0-0.35-0.05-0.5-0.16c-0.38-0.27-0.46-0.8-0.19-1.18l3.98-5.48c0.27-0.38,0.8-0.46,1.18-0.19
			c0.38,0.27,0.46,0.8,0.19,1.18l-3.98,5.48C328.03,109.75,327.78,109.87,327.51,109.87z M335.47,98.91c-0.17,0-0.35-0.05-0.5-0.16
			c-0.38-0.27-0.46-0.8-0.19-1.18l3.98-5.48c0.27-0.38,0.8-0.46,1.18-0.19c0.38,0.27,0.46,0.8,0.19,1.18l-3.98,5.48
			C335.99,98.79,335.73,98.91,335.47,98.91z M343.42,87.95c-0.17,0-0.35-0.05-0.5-0.16c-0.38-0.27-0.46-0.8-0.19-1.18l3.98-5.48
			c0.27-0.38,0.8-0.46,1.18-0.19c0.38,0.27,0.46,0.8,0.19,1.18l-3.98,5.48C343.94,87.83,343.68,87.95,343.42,87.95z M351.37,76.99
			c-0.17,0-0.35-0.05-0.5-0.16c-0.38-0.27-0.46-0.8-0.19-1.18l3.98-5.48c0.27-0.38,0.8-0.46,1.18-0.19c0.38,0.27,0.46,0.8,0.19,1.18
			l-3.98,5.48C351.89,76.87,351.63,76.99,351.37,76.99z M359.32,66.03c-0.17,0-0.35-0.05-0.5-0.16c-0.38-0.27-0.46-0.8-0.19-1.18
			l3.98-5.48c0.27-0.38,0.8-0.46,1.18-0.19c0.38,0.27,0.46,0.8,0.19,1.18l-3.98,5.48C359.84,65.91,359.59,66.03,359.32,66.03z
			 M367.28,55.07c-0.17,0-0.35-0.05-0.5-0.16c-0.38-0.27-0.46-0.8-0.19-1.18l3.98-5.48c0.27-0.38,0.8-0.46,1.18-0.19
			c0.38,0.27,0.46,0.8,0.19,1.18l-3.98,5.48C367.8,54.95,367.54,55.07,367.28,55.07z M375.23,44.11c-0.17,0-0.35-0.05-0.5-0.16
			c-0.38-0.27-0.46-0.8-0.19-1.18l3.98-5.48c0.27-0.38,0.8-0.46,1.18-0.19c0.38,0.27,0.46,0.8,0.19,1.18l-3.98,5.48
			C375.75,43.99,375.49,44.11,375.23,44.11z M383.18,33.15c-0.17,0-0.35-0.05-0.5-0.16c-0.38-0.27-0.46-0.8-0.19-1.18l3.98-5.48
			c0.27-0.38,0.8-0.46,1.18-0.19c0.38,0.27,0.46,0.8,0.19,1.18l-3.98,5.48C383.7,33.03,383.44,33.15,383.18,33.15z"/>
		<path class="st3" d="M270.48,95.44c-0.04,0-0.07,0-0.11-0.01c-0.46-0.06-0.79-0.48-0.73-0.95l0.85-6.72
			c0.06-0.46,0.48-0.79,0.95-0.73c0.46,0.06,0.79,0.48,0.73,0.95l-0.85,6.72C271.26,95.13,270.9,95.44,270.48,95.44z M272.19,82.01
			c-0.04,0-0.07,0-0.11-0.01c-0.46-0.06-0.79-0.48-0.73-0.95l0.85-6.72c0.06-0.46,0.48-0.79,0.95-0.73
			c0.46,0.06,0.79,0.48,0.73,0.95l-0.85,6.72C272.97,81.7,272.61,82.01,272.19,82.01z M273.9,68.58c-0.04,0-0.07,0-0.11-0.01
			c-0.46-0.06-0.79-0.48-0.73-0.95l0.85-6.72c0.06-0.46,0.48-0.79,0.95-0.73c0.46,0.06,0.79,0.48,0.73,0.95l-0.85,6.72
			C274.68,68.26,274.32,68.58,273.9,68.58z M275.61,55.14c-0.04,0-0.07,0-0.11-0.01c-0.46-0.06-0.79-0.48-0.73-0.95l0.85-6.72
			c0.06-0.46,0.48-0.79,0.95-0.73c0.46,0.06,0.79,0.48,0.73,0.95l-0.85,6.72C276.39,54.83,276.03,55.14,275.61,55.14z M277.32,41.71
			c-0.04,0-0.07,0-0.11-0.01c-0.46-0.06-0.79-0.48-0.73-0.95l0.86-6.72c0.06-0.46,0.48-0.79,0.95-0.73
			c0.46,0.06,0.79,0.48,0.73,0.95l-0.86,6.72C278.1,41.4,277.74,41.71,277.32,41.71z M279.03,28.28c-0.04,0-0.07,0-0.11-0.01
			c-0.46-0.06-0.79-0.48-0.73-0.95l0.86-6.72c0.06-0.46,0.48-0.79,0.95-0.73c0.46,0.06,0.79,0.48,0.73,0.95l-0.86,6.72
			C279.81,27.97,279.45,28.28,279.03,28.28z"/>
		<path class="st3" d="M213.78,113.21c-0.4,0-0.75-0.28-0.83-0.69l-1.25-6.65c-0.09-0.46,0.22-0.9,0.67-0.99
			c0.46-0.09,0.9,0.22,0.99,0.67l1.25,6.65c0.09,0.46-0.22,0.9-0.67,0.99C213.88,113.21,213.83,113.21,213.78,113.21z M211.27,99.91
			c-0.4,0-0.75-0.28-0.83-0.69l-1.25-6.65c-0.09-0.46,0.22-0.9,0.67-0.99c0.46-0.09,0.9,0.22,0.99,0.67l1.25,6.65
			c0.09,0.46-0.22,0.9-0.67,0.99C211.37,99.9,211.32,99.91,211.27,99.91z M208.76,86.6c-0.4,0-0.75-0.28-0.83-0.69l-1.25-6.65
			c-0.09-0.46,0.22-0.9,0.67-0.99c0.46-0.09,0.9,0.22,0.99,0.67l1.25,6.65c0.09,0.46-0.22,0.9-0.67,0.99
			C208.87,86.6,208.81,86.6,208.76,86.6z M206.25,73.29c-0.4,0-0.75-0.28-0.83-0.69l-1.25-6.65c-0.09-0.46,0.22-0.9,0.67-0.99
			c0.46-0.09,0.9,0.22,0.99,0.67l1.25,6.65c0.09,0.46-0.22,0.9-0.67,0.99C206.36,73.29,206.3,73.29,206.25,73.29z M203.74,59.99
			c-0.4,0-0.75-0.28-0.83-0.69l-1.25-6.65c-0.09-0.46,0.22-0.9,0.67-0.99c0.46-0.09,0.9,0.22,0.99,0.67l1.25,6.65
			c0.09,0.46-0.22,0.9-0.67,0.99C203.85,59.98,203.79,59.99,203.74,59.99z M201.23,46.68c-0.4,0-0.75-0.28-0.83-0.69l-1.25-6.65
			c-0.09-0.46,0.22-0.9,0.67-0.99c0.46-0.09,0.9,0.22,0.99,0.67l1.25,6.65c0.09,0.46-0.22,0.9-0.67,0.99
			C201.34,46.68,201.29,46.68,201.23,46.68z M198.73,33.37c-0.4,0-0.75-0.28-0.83-0.69l-1.25-6.65c-0.09-0.46,0.22-0.9,0.67-0.99
			c0.46-0.09,0.9,0.22,0.99,0.67l1.25,6.65c0.09,0.46-0.22,0.9-0.67,0.99C198.83,33.37,198.78,33.37,198.73,33.37z"/>
		<path class="st3" d="M160.47,124.21c-0.3,0-0.6-0.16-0.75-0.45l-3.15-5.99c-0.22-0.41-0.06-0.93,0.35-1.14
			c0.41-0.22,0.93-0.06,1.14,0.35l3.15,5.99c0.22,0.41,0.06,0.93-0.35,1.14C160.73,124.18,160.6,124.21,160.47,124.21z
			 M154.16,112.23c-0.3,0-0.6-0.16-0.75-0.45l-3.15-5.99c-0.22-0.41-0.06-0.93,0.35-1.14c0.41-0.22,0.93-0.06,1.14,0.35l3.15,5.99
			c0.22,0.41,0.06,0.93-0.35,1.14C154.43,112.2,154.29,112.23,154.16,112.23z M147.85,100.25c-0.3,0-0.6-0.16-0.75-0.45l-3.15-5.99
			c-0.22-0.41-0.06-0.93,0.35-1.14c0.41-0.22,0.93-0.06,1.14,0.35l3.15,5.99c0.22,0.41,0.06,0.93-0.35,1.14
			C148.12,100.22,147.99,100.25,147.85,100.25z M141.55,88.27c-0.3,0-0.6-0.16-0.75-0.45l-3.15-5.99c-0.22-0.41-0.06-0.93,0.35-1.14
			c0.41-0.22,0.93-0.06,1.14,0.35l3.15,5.99c0.22,0.41,0.06,0.93-0.35,1.14C141.82,88.23,141.68,88.27,141.55,88.27z M135.24,76.28
			c-0.3,0-0.6-0.16-0.75-0.45l-3.15-5.99c-0.22-0.41-0.06-0.93,0.35-1.14c0.42-0.22,0.93-0.06,1.14,0.35l3.15,5.99
			c0.22,0.41,0.06,0.93-0.35,1.14C135.51,76.25,135.37,76.28,135.24,76.28z M128.93,64.3c-0.3,0-0.6-0.16-0.75-0.45l-3.15-5.99
			c-0.22-0.41-0.06-0.93,0.35-1.14c0.42-0.22,0.93-0.06,1.14,0.35l3.15,5.99c0.22,0.41,0.06,0.93-0.35,1.14
			C129.2,64.27,129.07,64.3,128.93,64.3z M122.63,52.32c-0.3,0-0.6-0.16-0.75-0.45l-3.15-5.99c-0.22-0.41-0.06-0.93,0.35-1.14
			c0.41-0.22,0.93-0.06,1.14,0.35l3.15,5.99c0.22,0.41,0.06,0.93-0.35,1.14C122.9,52.29,122.76,52.32,122.63,52.32z M116.32,40.34
			c-0.3,0-0.6-0.16-0.75-0.45l-3.15-5.99c-0.22-0.41-0.06-0.93,0.35-1.14c0.41-0.22,0.93-0.06,1.14,0.35l3.15,5.99
			c0.22,0.41,0.06,0.93-0.35,1.14C116.59,40.31,116.45,40.34,116.32,40.34z M110.01,28.35c-0.3,0-0.6-0.16-0.75-0.45l-3.15-5.99
			c-0.22-0.41-0.06-0.93,0.35-1.14c0.41-0.22,0.93-0.06,1.14,0.35l3.15,5.99c0.22,0.41,0.06,0.93-0.35,1.14
			C110.28,28.32,110.15,28.35,110.01,28.35z M103.71,16.37c-0.3,0-0.6-0.16-0.75-0.45l-2.48-4.71c-0.22-0.41-0.06-0.93,0.35-1.14
			c0.41-0.22,0.93-0.06,1.14,0.35l2.48,4.71c0.22,0.41,0.06,0.93-0.35,1.14C103.98,16.34,103.84,16.37,103.71,16.37z"/>
		<path class="st3" d="M131.69,154.68c-0.18,0-0.37-0.06-0.52-0.18l-5.32-4.19c-0.37-0.29-0.43-0.82-0.14-1.19
			c0.29-0.37,0.82-0.43,1.19-0.14l5.32,4.19c0.37,0.29,0.43,0.82,0.14,1.19C132.19,154.57,131.94,154.68,131.69,154.68z
			 M121.05,146.3c-0.18,0-0.37-0.06-0.52-0.18l-5.32-4.19c-0.37-0.29-0.43-0.82-0.14-1.19c0.29-0.37,0.82-0.43,1.19-0.14l5.32,4.19
			c0.37,0.29,0.43,0.82,0.14,1.19C121.55,146.19,121.3,146.3,121.05,146.3z M110.41,137.93c-0.18,0-0.37-0.06-0.52-0.18l-5.32-4.19
			c-0.37-0.29-0.43-0.82-0.14-1.19c0.29-0.37,0.82-0.43,1.19-0.14l5.32,4.19c0.37,0.29,0.43,0.82,0.14,1.19
			C110.91,137.82,110.66,137.93,110.41,137.93z M99.77,129.55c-0.18,0-0.37-0.06-0.52-0.18l-5.32-4.19
			c-0.37-0.29-0.43-0.82-0.14-1.19c0.29-0.37,0.82-0.43,1.19-0.14l5.32,4.19c0.37,0.29,0.43,0.82,0.14,1.19
			C100.27,129.44,100.03,129.55,99.77,129.55z M89.14,121.18c-0.18,0-0.37-0.06-0.52-0.18l-5.32-4.19
			c-0.37-0.29-0.43-0.82-0.14-1.19c0.29-0.37,0.82-0.43,1.19-0.14l5.32,4.19c0.37,0.29,0.43,0.82,0.14,1.19
			C89.63,121.06,89.39,121.18,89.14,121.18z M78.5,112.8c-0.18,0-0.37-0.06-0.52-0.18l-5.32-4.19c-0.37-0.29-0.43-0.82-0.14-1.19
			c0.29-0.37,0.82-0.43,1.19-0.14l5.32,4.19c0.37,0.29,0.43,0.82,0.14,1.19C78.99,112.69,78.75,112.8,78.5,112.8z M67.86,104.42
			c-0.18,0-0.37-0.06-0.52-0.18l-5.32-4.19c-0.37-0.29-0.43-0.82-0.14-1.19c0.29-0.37,0.82-0.43,1.19-0.14l5.32,4.19
			c0.37,0.29,0.43,0.82,0.14,1.19C68.36,104.31,68.11,104.42,67.86,104.42z M57.22,96.05c-0.18,0-0.37-0.06-0.52-0.18l-5.07-3.99
			c-0.37-0.29-0.43-0.82-0.14-1.19c0.29-0.37,0.82-0.43,1.19-0.14l5.07,3.99c0.37,0.29,0.43,0.82,0.14,1.19
			C57.72,95.94,57.47,96.05,57.22,96.05z"/>
	</g>
</g>
</svg>
