<?xml version="1.0" encoding="utf-8"?>
<!-- Generator: Adobe Illustrator 25.1.0, SVG Export Plug-In . SVG Version: 6.00 Build 0)  -->
<svg version="1.1" id="Слой_1" xmlns="http://www.w3.org/2000/svg" xmlns:xlink="http://www.w3.org/1999/xlink" x="0px" y="0px"
	 viewBox="0 0 484 479" style="enable-background:new 0 0 484 479;" xml:space="preserve">
<style type="text/css">
	.st0{fill:#CADDFF;}
	.st1{fill:#FFFFFF;}
	.st2{fill:#5479F7;}
	.st3{fill:#99B9FF;}
</style>
<g>
	<path class="st0" d="M375.25,27.13c-94.85-52.47-221.91,2.04-288.12,62.47c-18.92,17.26-64.78,60.33-75.61,129.36
		C-1.93,304.7,42.1,408.63,143.1,453.08c109.93,48.39,232.84,2.53,290.37-71.91c53.8-69.62,43.03-151.59,39.19-180.87
		C468.14,165.95,454.71,71.09,375.25,27.13z"/>
</g>
<g>
	<g>
		<g>
			<path class="st1" d="M428.71,80.12H65.62c-8.01,0-14.51,6.5-14.51,14.51v248.94c0,8.01,6.5,14.51,14.51,14.51h363.09
				c8.01,0,14.51-6.5,14.51-14.51V94.63C443.22,86.62,436.73,80.12,428.71,80.12z"/>
		</g>
	</g>
	<g>
		<g>
			<g>
				<rect x="71.43" y="100.92" class="st0" width="351.48" height="17.41"/>
				<rect x="71.43" y="131.06" class="st0" width="351.48" height="115.86"/>
				
					<ellipse transform="matrix(0.2298 -0.9732 0.9732 0.2298 209.6535 484.1624)" class="st1" cx="410.71" cy="109.63" rx="4.19" ry="4.19"/>
			</g>
			<rect x="71.43" y="254.89" class="st0" width="110.43" height="72.23"/>
			<rect x="191.95" y="254.89" class="st0" width="110.43" height="72.23"/>
			<rect x="312.48" y="254.89" class="st0" width="110.43" height="72.23"/>
		</g>
	</g>
</g>
<g>
	<g>
		<path class="st1" d="M376.51,129.14H174.99c-5.1,0-9.24,4.14-9.24,9.24v89.31c0,5.1,4.14,9.24,9.24,9.24h201.52
			c5.1,0,9.24-4.14,9.24-9.24v-89.31C385.75,133.28,381.62,129.14,376.51,129.14z"/>
		<path d="M376.51,237.77H174.99c-5.56,0-10.08-4.52-10.08-10.08v-89.31c0-5.56,4.52-10.08,10.08-10.08h201.52
			c5.56,0,10.08,4.52,10.08,10.08v89.31C386.6,233.25,382.07,237.77,376.51,237.77z M174.99,129.99c-4.63,0-8.4,3.77-8.4,8.4v89.31
			c0,4.63,3.77,8.4,8.4,8.4h201.52c4.63,0,8.4-3.77,8.4-8.4v-89.31c0-4.63-3.77-8.4-8.4-8.4H174.99z"/>
	</g>
	<g>
		<path d="M378.41,145.15H173.1c-0.47,0-0.84-0.38-0.84-0.84c0-0.47,0.38-0.84,0.84-0.84h205.31c0.47,0,0.84,0.38,0.84,0.84
			C379.25,144.77,378.87,145.15,378.41,145.15z"/>
		<path class="st0" d="M182.22,136.25c0,1.31-1.06,2.37-2.37,2.37c-1.31,0-2.37-1.06-2.37-2.37c0-1.31,1.06-2.37,2.37-2.37
			C181.16,133.88,182.22,134.94,182.22,136.25z"/>
		<path class="st0" d="M191.69,136.25c0,1.31-1.06,2.37-2.37,2.37c-1.31,0-2.37-1.06-2.37-2.37c0-1.31,1.06-2.37,2.37-2.37
			C190.63,133.88,191.69,134.94,191.69,136.25z"/>
		<path class="st0" d="M201.17,136.25c0,1.31-1.06,2.37-2.37,2.37c-1.31,0-2.37-1.06-2.37-2.37c0-1.31,1.06-2.37,2.37-2.37
			C200.11,133.88,201.17,134.94,201.17,136.25z"/>
		<path d="M378.53,137.09h-13.35c-0.47,0-0.84-0.38-0.84-0.84s0.38-0.84,0.84-0.84h13.35c0.47,0,0.84,0.38,0.84,0.84
			S378.99,137.09,378.53,137.09z"/>
		<path d="M359.18,137.09H233.15c-0.47,0-0.84-0.38-0.84-0.84s0.38-0.84,0.84-0.84h126.03c0.47,0,0.84,0.38,0.84,0.84
			S359.65,137.09,359.18,137.09z"/>
		<path d="M218.62,137.09h-11.77c-0.47,0-0.84-0.38-0.84-0.84s0.38-0.84,0.84-0.84h11.77c0.47,0,0.84,0.38,0.84,0.84
			S219.09,137.09,218.62,137.09z"/>
	</g>
	<g>
		<rect x="179.74" y="158.37" class="st0" width="60.74" height="60.74"/>
		<g>
			<rect x="251.64" y="158.37" class="st0" width="13.26" height="13.26"/>
			<rect x="273.98" y="158.37" class="st0" width="98.43" height="13.26"/>
		</g>
		<g>
			<rect x="251.64" y="182.1" class="st0" width="13.26" height="13.26"/>
			<rect x="273.98" y="182.1" class="st0" width="98.43" height="13.26"/>
		</g>
		<g>
			<rect x="251.64" y="205.84" class="st0" width="13.26" height="13.26"/>
			<rect x="273.98" y="205.84" class="st0" width="98.43" height="13.26"/>
		</g>
	</g>
</g>
<g>
	<g>
		<path class="st2" d="M463.8,31.71H207.3c-6.49,0-11.76,5.27-11.76,11.76v113.68c0,6.49,5.27,11.76,11.76,11.76H463.8
			c6.49,0,11.76-5.27,11.76-11.76V43.47C475.56,36.98,470.3,31.71,463.8,31.71z"/>
		<path d="M463.8,169.75H207.3c-6.95,0-12.6-5.65-12.6-12.6V43.47c0-6.95,5.65-12.6,12.6-12.6H463.8c6.95,0,12.6,5.65,12.6,12.6
			v113.68C476.41,164.1,470.75,169.75,463.8,169.75z M207.3,32.56c-6.02,0-10.92,4.9-10.92,10.92v113.68
			c0,6.02,4.9,10.92,10.92,10.92H463.8c6.02,0,10.92-4.9,10.92-10.92V43.47c0-6.02-4.9-10.92-10.92-10.92H207.3z"/>
	</g>
	<g>
		<path class="st1" d="M466.21,51.85H204.88c-0.47,0-0.84-0.38-0.84-0.84c0-0.47,0.38-0.84,0.84-0.84h261.33
			c0.47,0,0.84,0.38,0.84,0.84C467.06,51.48,466.68,51.85,466.21,51.85z"/>
		<path class="st1" d="M216.49,40.76c0,1.67-1.35,3.02-3.02,3.02c-1.67,0-3.02-1.35-3.02-3.02s1.35-3.02,3.02-3.02
			C215.14,37.74,216.49,39.09,216.49,40.76z"/>
		<path class="st1" d="M228.55,40.76c0,1.67-1.35,3.02-3.02,3.02c-1.67,0-3.02-1.35-3.02-3.02s1.35-3.02,3.02-3.02
			C227.2,37.74,228.55,39.09,228.55,40.76z"/>
		<path class="st1" d="M240.62,40.76c0,1.67-1.35,3.02-3.02,3.02c-1.67,0-3.02-1.35-3.02-3.02s1.35-3.02,3.02-3.02
			C239.27,37.74,240.62,39.09,240.62,40.76z"/>
		<path class="st1" d="M466.36,41.6h-16.99c-0.47,0-0.84-0.38-0.84-0.84c0-0.47,0.38-0.84,0.84-0.84h16.99
			c0.47,0,0.84,0.38,0.84,0.84C467.21,41.22,466.83,41.6,466.36,41.6z"/>
		<path class="st1" d="M441.74,41.6H281.32c-0.47,0-0.84-0.38-0.84-0.84c0-0.47,0.38-0.84,0.84-0.84h160.41
			c0.47,0,0.84,0.38,0.84,0.84C442.58,41.22,442.2,41.6,441.74,41.6z"/>
		<path class="st1" d="M262.83,41.6h-14.98c-0.47,0-0.84-0.38-0.84-0.84c0-0.47,0.38-0.84,0.84-0.84h14.98
			c0.47,0,0.84,0.38,0.84,0.84C263.67,41.22,263.3,41.6,262.83,41.6z"/>
	</g>
	<g>
		<rect x="213.34" y="68.91" class="st1" width="77.31" height="77.31"/>
		<g>
			<rect x="304.86" y="68.91" class="st0" width="16.88" height="16.88"/>
			<rect x="333.29" y="68.91" class="st1" width="125.29" height="16.88"/>
		</g>
		<g>
			<rect x="304.86" y="99.12" class="st0" width="16.88" height="16.88"/>
			<rect x="333.29" y="99.12" class="st1" width="125.29" height="16.88"/>
		</g>
		<g>
			<rect x="304.86" y="129.33" class="st0" width="16.88" height="16.88"/>
			<rect x="333.29" y="129.33" class="st1" width="125.29" height="16.88"/>
		</g>
	</g>
</g>
<g>
	<path d="M64.41,126.41c-3.33,0.83-6.58-1.95-11.63-6.26c-6.14-5.24-10.41-8.89-10.64-14.76c-0.2-5.16,2.8-9.95,6.26-12.51
		c1.99-1.47,4.99-2.15,11.01-3.5c6.89-1.55,7.77-0.94,11.76-2.5c4.65-1.82,5.37-3.41,7.51-3c3.46,0.65,6.58,5.75,6.51,10.51
		c-0.09,6.3-5.69,7.24-12.01,17.52C67.89,120.48,68.36,125.42,64.41,126.41z"/>
	<g>
		<path class="st2" d="M46.47,147.59c11.24-3.67,28.36-6.3,48.83,0.22c7.46,2.38,12.82,8.95,13.74,16.72l16.67,96
			c0.83,6.98-8.5,13.76-15.07,16.25c-6.86,2.6-17.24,5.06-31.93,5.06c-15.75,0-27.2,0.91-33.59-1.88
			c-5.3-2.32-13.28-7.94-13.55-13.72l1.16-98.67C32.3,158.58,37.91,150.39,46.47,147.59z"/>
		<path class="st2" d="M125.2,188.84c0,0-13.31-36.86-28.23-40.41l7.59,52.23L125.2,188.84z"/>
		<path class="st2" d="M9.61,203.72c0,0,5.32-19.8,9.41-30.93c8.26-22.5,25.93-24.62,25.93-24.62v55.39L9.61,203.72z"/>
		<path d="M77.43,157.86c-14.59,0-27.39-5.97-28.01-6.26c-0.42-0.2-0.6-0.7-0.4-1.12c0.2-0.42,0.7-0.6,1.12-0.4
			c0.17,0.08,17.2,8.02,33.87,5.65c0.46-0.06,0.89,0.26,0.95,0.72c0.07,0.46-0.26,0.89-0.72,0.95
			C81.96,157.72,79.67,157.86,77.43,157.86z"/>
		<g>
			<path class="st3" d="M71.85,222.32l65.36-0.1c1.66,0,3.1-1.13,3.49-2.74l13.11-53.22c0.56-2.27-1.16-4.47-3.5-4.47l-65.36,0.1
				c-1.66,0-3.1,1.13-3.49,2.74l-13.11,53.22C67.79,220.13,69.51,222.33,71.85,222.32z"/>
			<path d="M71.85,223.17c-1.38,0-2.65-0.62-3.5-1.7c-0.85-1.08-1.15-2.47-0.82-3.81l13.11-53.22c0.49-1.99,2.26-3.38,4.31-3.38
				l65.36-0.1c1.4-0.02,2.66,0.62,3.51,1.7c0.85,1.08,1.15,2.47,0.82,3.81l-13.11,53.22c-0.49,1.99-2.26,3.38-4.31,3.38
				L71.85,223.17C71.85,223.17,71.85,223.17,71.85,223.17z M71.85,221.48l0,0.84L71.85,221.48l65.36-0.1c1.27,0,2.37-0.87,2.68-2.1
				L153,166.06c0.2-0.83,0.02-1.69-0.51-2.36c-0.53-0.67-1.32-1.06-2.17-1.06c0,0,0,0,0,0l-65.36,0.1c-1.27,0-2.37,0.87-2.68,2.1
				l-13.11,53.22c-0.2,0.83-0.02,1.69,0.51,2.36C70.2,221.1,70.99,221.48,71.85,221.48C71.85,221.48,71.85,221.48,71.85,221.48z"/>
		</g>
		<g>
			<path class="st1" d="M149,188.25l-1.91,5.33l-15.73-7.46c0,0-8.63,7.5,12.33,17.05C152.43,207.15,149,188.25,149,188.25z"/>
			<path d="M145.88,204.56c-0.77,0-1.62-0.21-2.54-0.63c-9-4.1-13.88-8.41-14.52-12.79c-0.5-3.46,1.88-5.58,1.98-5.67
				c0.25-0.22,0.61-0.27,0.91-0.13l14.89,7.06l1.6-4.45c0.13-0.36,0.49-0.59,0.86-0.56c0.38,0.03,0.69,0.31,0.76,0.69
				c0.23,1.29,2.17,12.69-1.71,15.71C147.47,204.31,146.73,204.56,145.88,204.56z M131.56,187.14c-0.51,0.62-1.33,1.95-1.05,3.79
				c0.39,2.59,3.06,6.69,13.54,11.47c1.98,0.9,2.77,0.28,3.04,0.08c1.94-1.51,1.92-6.76,1.55-10.69l-0.74,2.07
				c-0.08,0.22-0.25,0.4-0.47,0.49c-0.22,0.09-0.47,0.08-0.68-0.02L131.56,187.14z"/>
		</g>
		<g>
			<path class="st1" d="M53.18,173.42c0,0-29.35,16.54-35.41,21.73c-6.05,5.19-12.62,9.13-4.06,20.44
				c8.56,11.31,44.91-34.1,44.91-34.1s7,1.15,9.43-8.39c0,0,11.81,0.4,12.24-3.3l-16.67-2.95c-2.15-0.38-4.36,0.33-5.89,1.9
				L53.18,173.42z"/>
			<path d="M17.49,218.23c-0.03,0-0.06,0-0.09,0c-1.83-0.02-3.3-0.75-4.35-2.14c-8.38-11.08-2.71-15.82,2.79-20.41
				c0.46-0.39,0.93-0.78,1.4-1.18c5.92-5.08,33.2-20.5,35.44-21.76l4.48-4.6c1.72-1.77,4.21-2.57,6.64-2.14l16.67,2.95
				c0.44,0.08,0.74,0.48,0.69,0.93c-0.45,3.92-9.36,4.12-12.43,4.07c-2.32,8-7.93,8.45-9.69,8.4
				C55.83,186.28,29.62,218.23,17.49,218.23z M62.47,167.58c-1.54,0-3.03,0.62-4.13,1.74L53.78,174c-0.06,0.06-0.12,0.11-0.19,0.15
				c-0.29,0.17-29.35,16.56-35.27,21.63c-0.47,0.4-0.94,0.8-1.41,1.19c-5.55,4.64-9.93,8.3-2.52,18.1c0.74,0.97,1.73,1.46,3.03,1.47
				c0.03,0,0.05,0,0.08,0c11.84,0,40.18-35.24,40.47-35.59c0.19-0.24,0.49-0.35,0.8-0.31c0.25,0.04,6.28,0.86,8.47-7.76
				c0.1-0.38,0.45-0.65,0.85-0.64c3.86,0.13,9.4-0.38,10.96-1.83l-15.56-2.76C63.14,167.61,62.8,167.58,62.47,167.58z M53.18,173.42
				L53.18,173.42L53.18,173.42z"/>
		</g>
	</g>
	<g>
		<g>
			<g>
				<path class="st1" d="M88.06,412.82l-9.73,29.04c0,0,10.6-0.9,11.62-0.71s13.41-26.48,13.41-26.48L88.06,412.82z"/>
				<path d="M78.32,442.71c-0.26,0-0.5-0.12-0.66-0.32c-0.18-0.22-0.23-0.52-0.14-0.79l9.73-29.04c0.13-0.38,0.5-0.62,0.9-0.57
					l15.3,1.85c0.27,0.03,0.5,0.19,0.64,0.43c0.13,0.24,0.14,0.52,0.03,0.77c-0.03,0.07-3.14,6.75-6.33,13.33
					c-6.74,13.88-7.16,13.79-8.01,13.63c-0.73-0.11-7.09,0.35-11.38,0.72C78.37,442.71,78.35,442.71,78.32,442.71z M88.64,413.74
					l-9.11,27.17c2.97-0.25,8.4-0.67,10.13-0.62c1.49-1.92,8.13-15.7,12.44-24.92L88.64,413.74z M90.1,440.33L90.1,440.33
					L90.1,440.33z M90.08,440.33c0,0,0.01,0,0.02,0C90.09,440.33,90.09,440.33,90.08,440.33z"/>
			</g>
			<g>
				<path class="st3" d="M80.55,435.48c0,0,14.64-6,17.34,1.53c3.44,9.58,8.83,24.19,8.83,24.19c0.91,2.54-0.84,5.26-3.53,5.47
					c-5.35,0.43-13.33,0.78-17.05-0.53c-5.87-2.06-15.6-20.63-15.6-20.63l3-15.8C73.54,429.72,78.85,428.97,80.55,435.48z"/>
				<path d="M94.57,467.91c-3.45,0-6.66-0.25-8.7-0.96c-6.11-2.14-15.67-20.27-16.07-21.04c-0.09-0.17-0.12-0.36-0.08-0.55l3-15.8
					c0.07-0.36,0.35-0.63,0.71-0.68c0.06-0.01,5.56-0.7,7.68,5.49c2.5-0.91,9.75-3.2,14.26-1.2c1.62,0.72,2.74,1.92,3.33,3.55
					c3.4,9.47,8.77,24.04,8.82,24.19c0.53,1.47,0.35,3.05-0.5,4.36c-0.84,1.3-2.21,2.12-3.76,2.25
					C100.57,467.74,97.49,467.91,94.57,467.91z M71.42,445.39c2.79,5.27,10.52,18.4,15,19.97c2.73,0.96,8.66,1.13,16.7,0.48
					c1.02-0.08,1.92-0.62,2.48-1.48c0.55-0.86,0.67-1.9,0.33-2.86c-0.05-0.14-5.42-14.72-8.82-24.19c-0.43-1.2-1.23-2.05-2.43-2.58
					c-4.75-2.11-13.71,1.51-13.8,1.55c-0.22,0.09-0.48,0.08-0.7-0.03c-0.22-0.11-0.38-0.31-0.44-0.54c-1.18-4.5-4.2-5.11-5.49-5.16
					L71.42,445.39z"/>
			</g>
			<path d="M102.97,461.2H87.94c-0.47,0-0.84-0.38-0.84-0.84c0-0.47,0.38-0.84,0.84-0.84h15.03c0.47,0,0.84,0.38,0.84,0.84
				C103.82,460.82,103.44,461.2,102.97,461.2z"/>
		</g>
		<g>
			<polygon class="st1" points="60.46,419.96 63.77,449.17 77.07,445.52 76.05,419.2 			"/>
			<path d="M63.77,450.01c-0.17,0-0.33-0.05-0.47-0.15c-0.2-0.14-0.34-0.36-0.37-0.6l-3.31-29.21c-0.03-0.23,0.04-0.46,0.2-0.64
				c0.15-0.18,0.37-0.28,0.6-0.3L76,418.36c0.23-0.01,0.45,0.07,0.61,0.22c0.17,0.15,0.26,0.36,0.27,0.59l1.02,26.32
				c0.02,0.39-0.24,0.74-0.62,0.85l-13.3,3.65C63.92,450.01,63.84,450.01,63.77,450.01z M61.4,420.76l3.09,27.34l11.71-3.21
				l-0.97-24.8L61.4,420.76z"/>
		</g>
		<g>
			<path class="st3" d="M62.51,470.69h21.05c2.85,0,5.04-2.52,4.62-5.34c-0.7-4.75-2.99-12.64-9.86-23.49
				c-0.75-1.18-2.06-1.9-3.46-1.9h-6.4c-1.1,0-2.03,0.83-2.14,1.93l-0.48,4.62l-2.79-3.68c0,0-4.98,10.48-5.21,23.11
				C57.79,468.55,59.9,470.69,62.51,470.69z"/>
			<path d="M83.56,471.54H62.51c-1.49,0-2.89-0.59-3.94-1.65c-1.04-1.06-1.61-2.47-1.58-3.96c0.23-12.67,5.08-23.02,5.29-23.46
				c0.13-0.27,0.38-0.45,0.68-0.48c0.3-0.03,0.58,0.1,0.76,0.33l1.5,1.98l0.26-2.49c0.16-1.53,1.44-2.69,2.98-2.69h6.4
				c1.7,0,3.26,0.86,4.17,2.3c6.96,11,9.27,19.02,9.98,23.81c0.23,1.58-0.23,3.19-1.28,4.4C86.69,470.84,85.17,471.54,83.56,471.54z
				 M63.25,444.49c-1.29,3.16-4.39,11.71-4.56,21.46c-0.02,1.03,0.37,2.01,1.09,2.75c0.73,0.74,1.7,1.15,2.73,1.15h21.05
				c1.11,0,2.17-0.48,2.9-1.33c0.72-0.84,1.05-1.95,0.89-3.05c-0.68-4.63-2.93-12.4-9.73-23.16c-0.59-0.93-1.64-1.51-2.75-1.51h-6.4
				c-0.67,0-1.24,0.51-1.3,1.18l-0.48,4.62c-0.04,0.34-0.28,0.63-0.61,0.73c-0.33,0.09-0.69-0.03-0.9-0.3L63.25,444.49z"/>
		</g>
		<path d="M86.14,466.51h-25.2c-0.47,0-0.84-0.38-0.84-0.84s0.38-0.84,0.84-0.84h25.2c0.47,0,0.84,0.38,0.84,0.84
			S86.61,466.51,86.14,466.51z"/>
		<path d="M110.42,244.52c-0.55-1.35-1.67-2.38-3.06-2.81c-7.7-2.42-34.53-8.78-62.16,8.94c-1.3,0.84-2.14,2.24-2.25,3.78
			c-1,14.04-4.72,87.42,18.49,174.31l15.64-1.11l3.19-148.57c0,0,23.16,54.46,4.33,141.14l16.27,3c0,0,23.8-31.3,28.07-79.12
			C132.71,301.78,114.64,254.8,110.42,244.52z"/>
		<path class="st1" d="M65.44,359.93c-0.01,0-0.02,0-0.04,0c-14.65-0.63-16.31-20.54-16.32-20.74c-0.03-0.46,0.31-0.87,0.78-0.9
			c0.46-0.03,0.87,0.31,0.9,0.78c0.01,0.19,1.56,18.61,14.71,19.18c0.47,0.02,0.83,0.41,0.81,0.88
			C66.26,359.57,65.89,359.93,65.44,359.93z"/>
		<path class="st1" d="M81.64,293.53c-0.45,0-0.83-0.36-0.84-0.82l-0.55-18.58c-0.01-0.28,0.13-0.55,0.36-0.72l9.75-6.85
			c0.38-0.27,0.91-0.18,1.18,0.2c0.27,0.38,0.18,0.91-0.21,1.18l-9.38,6.59l0.54,18.13c0.01,0.47-0.35,0.85-0.82,0.87
			C81.66,293.53,81.65,293.53,81.64,293.53z"/>
	</g>
	<g>
		<g>
			<path class="st1" d="M57.91,142.95c2.87-1.9,4.55-5.16,4.47-8.61l-0.33-14.3c-0.1-0.09-0.19-0.18-0.29-0.27
				c0,0-5.73,0.38-6.56-2.54c-0.84-2.92,3.22-3.48,3.22-3.48s-3.83-8.05,6.07-7.96c2.66,0.02,3.61-4.38,7.97-5.37
				c0,0,2.16-0.18,4.34,5.47l4.79,7.09l-2.39,1.31c0.59,2.69,0.84,5.67,0.48,8.82c-0.1,0.91-0.73,1.67-1.6,1.95
				c-0.72,0.23-1.69,0.48-2.83,0.61l0.77,9.57c0.34,4.19,2.54,8.01,5.98,10.42c3.32,2.33,6.39,3.98,6.39,3.98
				s-17.65,2.41-37.94-2.22C50.45,147.43,54.37,145.29,57.91,142.95z"/>
			<path d="M76.61,151.11c-6.98,0-16.38-0.58-26.35-2.85c-0.34-0.08-0.6-0.36-0.65-0.71c-0.05-0.35,0.12-0.69,0.43-0.86
				c0.04-0.02,3.93-2.15,7.4-4.45c2.64-1.75,4.17-4.69,4.09-7.88l-0.31-13.73c-1.66,0.02-5.99-0.21-6.83-3.17
				c-0.27-0.95-0.16-1.84,0.32-2.58c0.63-0.97,1.75-1.48,2.57-1.73c-0.41-1.29-0.87-3.64,0.34-5.53c1.13-1.77,3.38-2.67,6.69-2.67
				c0.06,0,0.12,0,0.19,0c0.82,0,1.48-0.68,2.49-1.79c1.2-1.32,2.69-2.97,5.27-3.55c0.04-0.01,0.08-0.01,0.11-0.02
				c0.47-0.04,2.88,0.06,5.17,5.92l4.73,7.01c0.13,0.2,0.18,0.44,0.12,0.67c-0.06,0.23-0.21,0.43-0.41,0.54l-1.84,1.01
				c0.56,2.86,0.68,5.71,0.37,8.47c-0.14,1.23-1,2.28-2.18,2.66c-0.71,0.23-1.44,0.41-2.19,0.53l0.71,8.78
				c0.32,3.94,2.37,7.51,5.62,9.8c3.24,2.27,6.28,3.91,6.31,3.93c0.32,0.17,0.5,0.53,0.43,0.89c-0.07,0.36-0.35,0.64-0.72,0.69
				C88.41,150.5,83.78,151.11,76.61,151.11z M52.8,147.08c14.56,3,27.55,2.43,32.9,2c-1.15-0.69-2.63-1.63-4.18-2.71
				c-3.67-2.57-5.97-6.6-6.33-11.04l-0.77-9.57c-0.04-0.45,0.29-0.85,0.74-0.91c0.91-0.11,1.81-0.3,2.67-0.58
				c0.55-0.18,0.95-0.67,1.02-1.24c0.32-2.78,0.16-5.66-0.47-8.54c-0.08-0.37,0.09-0.74,0.42-0.92l1.58-0.87l-4.27-6.32
				c-0.04-0.05-0.06-0.11-0.09-0.17c-1.67-4.31-3.2-4.86-3.49-4.92c-1.99,0.49-3.15,1.77-4.27,3.01c-1.1,1.21-2.13,2.35-3.74,2.35
				c-0.07,0-0.13,0-0.2,0c-2.69,0-4.47,0.63-5.27,1.89c-1.22,1.9,0.12,4.84,0.13,4.87c0.12,0.24,0.11,0.53-0.02,0.76
				c-0.13,0.24-0.36,0.4-0.63,0.43c-0.49,0.07-1.9,0.43-2.41,1.22c-0.21,0.33-0.25,0.71-0.11,1.19c0.53,1.85,4.39,2.01,5.7,1.93
				c0.23-0.02,0.47,0.07,0.64,0.23l0.28,0.26c0.17,0.15,0.26,0.37,0.27,0.6l0.33,14.3c0.09,3.77-1.73,7.26-4.85,9.33l0,0
				C56.39,144.96,54.28,146.22,52.8,147.08z M57.91,142.95L57.91,142.95L57.91,142.95z"/>
		</g>
		<g>
			<path class="st1" d="M75.25,125.68c0,0-6.28,0.22-8.77-3.2L75.25,125.68z"/>
			<path d="M74.99,126.53c-1.33,0-6.76-0.21-9.2-3.55c-0.27-0.38-0.19-0.9,0.18-1.18c0.38-0.28,0.9-0.19,1.18,0.18
				c2.21,3.02,8,2.85,8.06,2.85c0.48-0.02,0.86,0.35,0.87,0.81c0.02,0.47-0.35,0.86-0.81,0.87
				C75.25,126.52,75.15,126.53,74.99,126.53z"/>
		</g>
	</g>
</g>
<g>
	<g>
		<path class="st2" d="M434.63,428.88h-33.78c-1.87,0-3.25,1.75-2.8,3.56c2.19,8.79,5.49,16.04,7.93,20.67
			c1.79,3.4,5.32,5.54,9.17,5.54h5.18c3.85,0,7.37-2.13,9.17-5.54c2.44-4.63,5.74-11.89,7.93-20.67
			C437.87,430.63,436.49,428.88,434.63,428.88z"/>
		<path d="M420.33,459.49h-5.18c-4.17,0-7.97-2.29-9.92-5.99c-2.42-4.6-5.78-11.95-8-20.86c-0.28-1.11-0.03-2.27,0.68-3.18
			c0.71-0.91,1.78-1.43,2.94-1.43h33.78c1.15,0,2.22,0.52,2.94,1.43c0.71,0.91,0.95,2.06,0.68,3.18c-2.22,8.92-5.58,16.27-8,20.86
			C428.3,457.2,424.5,459.49,420.33,459.49z M400.85,429.72c-0.63,0-1.22,0.29-1.61,0.78c-0.39,0.49-0.52,1.12-0.37,1.73
			c2.18,8.75,5.48,15.97,7.85,20.48c1.65,3.14,4.88,5.09,8.42,5.09h5.18c3.54,0,6.77-1.95,8.42-5.09
			c2.38-4.51,5.67-11.73,7.86-20.48c0.15-0.6,0.02-1.24-0.37-1.73c-0.39-0.5-0.97-0.78-1.61-0.78H400.85z"/>
	</g>
	<g>
		<path class="st2" d="M411.94,343.86c0.11-5.75-0.63-14.66-5.63-23.54c-10.4-18.48-33.12-25.96-35.37-22.98
			c-1.63,2.16,6.66,11.04,21.93,27.4C400.58,333,407.29,339.5,411.94,343.86z"/>
		<path class="st2" d="M414.32,344.03c-0.7-11.57,0.23-21,1.22-27.43c3.74-24.39,12.93-36.88,15-39.6c1.53-2,8.97-11.76,12.17-10.26
			c2.75,1.28,1.15,10.32-1.32,23.74c-2.29,12.45-3.44,18.68-5.8,24.54C432.96,321.53,427.19,332.96,414.32,344.03z"/>
		<path class="st2" d="M412.02,346.46c-3.07-2.93-10.98-9.64-21.54-9.28c-4.91,0.16-11.04,1.88-11.08,3.72
			c-0.05,2.45,10.69,4.73,17.15,5.51C402.97,347.19,408.36,346.88,412.02,346.46z"/>
		<path class="st2" d="M417.12,351.69c1.41,2.22,3.41,5.17,6.07,8.44c1.28,1.59,5.08,6.24,9.5,10.03
			c6.88,5.9,18.46,12.45,20.85,9.95c2.29-2.4-3.24-13.81-12.06-19.54c-2.91-1.89-5.92-2.99-11.16-4.91
			C424.96,353.69,420.37,352.46,417.12,351.69z"/>
		<path d="M417.99,426.5c-0.01,0-0.02,0-0.03,0c-0.47-0.02-0.83-0.41-0.81-0.88c1.63-41.3-3.85-77.6-3.9-77.96
			c-0.07-0.46,0.25-0.89,0.71-0.96c0.46-0.07,0.89,0.25,0.96,0.71c0.06,0.36,5.56,36.82,3.92,78.28
			C418.81,426.14,418.44,426.5,417.99,426.5z"/>
	</g>
	<g>
		<path d="M414.95,426.5c-0.44,0-0.81-0.34-0.84-0.78c-0.03-0.4-3.17-40.41-15.39-64.86c-0.21-0.42-0.04-0.92,0.38-1.13
			c0.42-0.21,0.92-0.04,1.13,0.38c12.36,24.75,15.53,65.08,15.56,65.49c0.04,0.46-0.31,0.87-0.78,0.9
			C414.99,426.5,414.97,426.5,414.95,426.5z"/>
		<path class="st3" d="M398.29,368.2c0.93,0.99,5.09,5.64,5.08,12.83c-0.02,7.08-4.09,13.81-5.77,13.4
			C396.19,394.09,395.61,388.5,398.29,368.2z"/>
		<path class="st3" d="M396.81,362.51c-4.26,5.09-11.04,11.98-20.92,17.69c-10.93,6.31-25.69,11.19-27.4,8.31
			c-1.4-2.36,6.21-9.45,10.09-12.6C364.27,371.27,376.21,363.5,396.81,362.51z"/>
		<path class="st3" d="M395.68,358.24c-4.19-4.93-11.17-11.71-21.5-16.28c-22.01-9.74-47.29-4.18-47.69,0.03
			c-0.22,2.26,6.9,2.3,26.78,11.45c13.23,6.09,18.5,9.94,27.47,9.49C387.16,362.6,392.31,360.22,395.68,358.24z"/>
		<path class="st3" d="M399.83,357.79c5.2-5.16,14.16-12.48,27.02-15.99c8.08-2.2,20.91-3.77,22.2-0.4
			c1.38,3.61-10.44,13.11-23.15,16.68C415.06,361.13,405.41,359.35,399.83,357.79z"/>
	</g>
</g>
<g>
	<path class="st2" d="M277.47,332.04l-5.58-9.64l-11.61,3.63c-1.69-2-3.52-3.84-5.49-5.49l3.6-11.61l-9.65-5.56l-8.25,8.95
		c-2.44-0.87-4.94-1.54-7.49-2l-2.69-11.87l-11.14,0.01l-2.66,11.86c-2.52,0.46-5.03,1.14-7.49,2.03l-8.26-8.93l-9.64,5.58
		l3.63,11.61c-2,1.69-3.84,3.52-5.49,5.49l-11.61-3.6l-5.56,9.65l8.95,8.25c-0.87,2.44-1.54,4.94-2,7.49l-11.87,2.69l0.01,11.14
		l11.86,2.66c0.46,2.52,1.14,5.03,2.03,7.49l-8.93,8.26l5.58,9.64l11.61-3.63c1.69,2,3.52,3.84,5.49,5.49l-3.6,11.61l9.65,5.56
		l8.25-8.95c2.44,0.87,4.94,1.54,7.49,2l2.69,11.87l11.14-0.01l2.66-11.86c2.52-0.46,5.03-1.14,7.49-2.03l8.26,8.93l9.64-5.58
		l-3.63-11.61c2-1.69,3.84-3.52,5.49-5.49l11.61,3.6l5.56-9.65l-8.95-8.25c0.87-2.44,1.54-4.94,2-7.49l11.87-2.69l-0.01-11.14
		l-11.86-2.66c-0.46-2.52-1.14-5.03-2.03-7.49L277.47,332.04z M239.16,380.91c-13.71,7.93-31.25,3.25-39.19-10.46
		c-7.93-13.71-3.25-31.25,10.46-39.19c13.71-7.93,31.25-3.25,39.19,10.46C257.55,355.43,252.87,372.98,239.16,380.91z"/>
	<path d="M213.99,413.16c-0.39,0-0.74-0.27-0.82-0.66l-2.57-11.33c-2.22-0.43-4.41-1.01-6.55-1.75l-7.87,8.54
		c-0.27,0.29-0.7,0.36-1.04,0.16l-9.65-5.56c-0.34-0.2-0.5-0.6-0.38-0.98l3.43-11.08c-1.69-1.46-3.3-3.07-4.79-4.8l-11.08,3.46
		c-0.38,0.12-0.78-0.04-0.98-0.38l-5.58-9.64c-0.2-0.34-0.13-0.77,0.16-1.04l8.52-7.89c-0.75-2.16-1.35-4.36-1.78-6.55l-11.32-2.54
		c-0.39-0.09-0.66-0.43-0.66-0.82l-0.01-11.14c0-0.39,0.27-0.74,0.66-0.82l11.33-2.57c0.42-2.21,1.01-4.41,1.75-6.55l-8.54-7.87
		c-0.29-0.27-0.36-0.7-0.16-1.04l5.56-9.65c0.2-0.34,0.6-0.5,0.98-0.38l11.08,3.43c1.46-1.69,3.07-3.3,4.8-4.79L185,307.84
		c-0.12-0.38,0.04-0.78,0.38-0.98l9.64-5.58c0.34-0.2,0.77-0.13,1.04,0.16l7.88,8.52c2.16-0.75,4.36-1.35,6.55-1.78l2.54-11.32
		c0.09-0.38,0.43-0.66,0.82-0.66l11.14-0.01c0,0,0,0,0,0c0.39,0,0.74,0.27,0.82,0.66l2.57,11.33c2.22,0.43,4.41,1.01,6.55,1.75
		l7.87-8.54c0.27-0.29,0.7-0.36,1.04-0.16l9.65,5.56c0.34,0.2,0.5,0.6,0.38,0.98l-3.43,11.08c1.69,1.46,3.3,3.07,4.79,4.8
		l11.08-3.46c0.38-0.12,0.78,0.04,0.98,0.38l5.58,9.64c0.2,0.34,0.13,0.77-0.16,1.04l-8.52,7.89c0.75,2.16,1.35,4.36,1.77,6.55
		l11.32,2.54c0.39,0.09,0.66,0.43,0.66,0.82l0.01,11.14c0,0.39-0.27,0.74-0.66,0.82L266,363.58c-0.43,2.22-1.01,4.41-1.75,6.55
		l8.54,7.87c0.29,0.27,0.36,0.7,0.16,1.04l-5.56,9.65c-0.2,0.34-0.6,0.5-0.98,0.38l-11.08-3.43c-1.46,1.69-3.07,3.3-4.8,4.79
		l3.46,11.08c0.12,0.38-0.04,0.78-0.38,0.98l-9.64,5.58c-0.34,0.2-0.77,0.13-1.04-0.16l-7.89-8.52c-2.16,0.75-4.36,1.35-6.55,1.78
		l-2.54,11.32c-0.09,0.38-0.43,0.66-0.82,0.66L213.99,413.16C213.99,413.16,213.99,413.16,213.99,413.16z M203.81,397.6
		c0.1,0,0.19,0.02,0.28,0.05c2.38,0.85,4.86,1.51,7.36,1.96c0.33,0.06,0.6,0.31,0.67,0.64l2.54,11.21l9.79-0.01l2.51-11.2
		c0.07-0.33,0.34-0.59,0.67-0.65c2.46-0.45,4.93-1.12,7.36-1.99c0.32-0.12,0.68-0.03,0.91,0.22l7.81,8.44l8.47-4.9l-3.43-10.97
		c-0.1-0.32,0-0.68,0.26-0.9c1.97-1.66,3.78-3.47,5.39-5.38c0.22-0.26,0.57-0.36,0.9-0.26l10.96,3.4l4.89-8.49l-8.46-7.79
		c-0.25-0.23-0.34-0.59-0.22-0.91c0.85-2.38,1.51-4.86,1.96-7.36c0.06-0.33,0.31-0.6,0.64-0.67l11.21-2.54l-0.01-9.79l-11.2-2.51
		c-0.33-0.07-0.59-0.34-0.65-0.67c-0.44-2.46-1.11-4.93-1.99-7.35c-0.12-0.32-0.03-0.68,0.22-0.91l8.44-7.8l-4.9-8.47l-10.97,3.43
		c-0.32,0.1-0.68,0-0.9-0.26c-1.66-1.97-3.47-3.78-5.38-5.39c-0.26-0.22-0.36-0.57-0.26-0.9l3.4-10.96l-8.48-4.89l-7.79,8.46
		c-0.23,0.25-0.59,0.34-0.91,0.22c-2.39-0.85-4.86-1.51-7.35-1.96c-0.33-0.06-0.6-0.31-0.67-0.64l-2.54-11.21l-9.79,0.01l-2.51,11.2
		c-0.07,0.33-0.34,0.59-0.67,0.65c-2.46,0.45-4.94,1.12-7.36,1.99c-0.32,0.12-0.68,0.03-0.91-0.22l-7.8-8.44l-8.47,4.9l3.43,10.97
		c0.1,0.32,0,0.68-0.26,0.9c-1.96,1.66-3.78,3.47-5.39,5.38c-0.22,0.26-0.57,0.36-0.9,0.26l-10.96-3.4l-4.89,8.48l8.46,7.79
		c0.25,0.23,0.34,0.59,0.22,0.9c-0.85,2.39-1.52,4.86-1.96,7.36c-0.06,0.33-0.31,0.6-0.64,0.67l-11.21,2.54l0.01,9.79l11.2,2.51
		c0.33,0.07,0.59,0.34,0.65,0.67c0.45,2.46,1.12,4.93,1.99,7.36c0.12,0.32,0.03,0.68-0.22,0.91l-8.44,7.81l4.9,8.47l10.97-3.43
		c0.32-0.1,0.68,0,0.9,0.26c1.66,1.96,3.47,3.78,5.38,5.39c0.26,0.22,0.36,0.57,0.26,0.9l-3.4,10.96l8.48,4.89l7.79-8.46
		C203.35,397.7,203.58,397.6,203.81,397.6z M219.55,384.21c-2.55,0-5.12-0.33-7.66-1.01c-7.62-2.03-13.99-6.91-17.94-13.74
		c-3.95-6.83-5.01-14.78-2.97-22.4c2.03-7.62,6.91-13.99,13.74-17.94c6.83-3.95,14.78-5.01,22.4-2.97
		c7.62,2.03,13.99,6.91,17.94,13.74c3.95,6.83,5.01,14.78,2.97,22.4c-2.03,7.62-6.91,13.99-13.74,17.94
		C229.74,382.87,224.68,384.21,219.55,384.21z M219.46,326.83c-4.83,0-9.6,1.27-13.9,3.76c-6.43,3.72-11.03,9.73-12.95,16.92
		c-1.92,7.18-0.92,14.68,2.8,21.12c3.72,6.44,9.73,11.03,16.92,12.95c7.18,1.92,14.68,0.92,21.12-2.8l0,0
		c6.43-3.72,11.03-9.73,12.95-16.92c1.92-7.18,0.92-14.68-2.8-21.12c-3.72-6.44-9.73-11.03-16.92-12.95
		C224.29,327.14,221.86,326.83,219.46,326.83z"/>
</g>
<path d="M217.8,429.9c-18.46,0-35.81-7.19-48.86-20.24c-26.94-26.94-26.94-70.78,0-97.72l10.93-10.93c0.33-0.33,0.86-0.33,1.19,0
	c0.33,0.33,0.33,0.86,0,1.19l-10.93,10.93c-26.28,26.28-26.28,69.05,0,95.33c26.28,26.28,69.05,26.28,95.33,0l44.31-44.31
	c0.33-0.33,0.86-0.33,1.19,0c0.33,0.33,0.33,0.86,0,1.19l-44.31,44.31C253.61,422.71,236.26,429.9,217.8,429.9z"/>
<path d="M348.04,327.93c-0.22,0-0.43-0.08-0.6-0.25c-0.33-0.33-0.33-0.86,0-1.19l13.92-13.92c0.33-0.33,0.86-0.33,1.19,0
	c0.33,0.33,0.33,0.86,0,1.19l-13.92,13.92C348.47,327.85,348.26,327.93,348.04,327.93z"/>
<path d="M389.21,286.76c-0.22,0-0.43-0.08-0.6-0.25c-0.33-0.33-0.33-0.86,0-1.19l11.49-11.49c0.33-0.33,0.86-0.33,1.19,0
	c0.33,0.33,0.33,0.86,0,1.19l-11.49,11.49C389.64,286.68,389.43,286.76,389.21,286.76z"/>
<path d="M420.75,255.22c-0.22,0-0.43-0.08-0.6-0.25c-0.33-0.33-0.33-0.86,0-1.19l37.25-37.25c0.33-0.33,0.86-0.33,1.19,0
	c0.33,0.33,0.33,0.86,0,1.19l-37.25,37.25C421.18,255.14,420.96,255.22,420.75,255.22z"/>
<path d="M186.58,297.76c-0.22,0-0.43-0.08-0.6-0.25c-0.33-0.33-0.33-0.86,0-1.19l91.77-91.77c0.33-0.33,0.86-0.33,1.19,0
	c0.33,0.33,0.33,0.86,0,1.19l-91.77,91.77C187.01,297.68,186.79,297.76,186.58,297.76z"/>
<g>
	<path class="st2" d="M357.15,268.39l-4.19-7.24l-8.72,2.73c-1.27-1.5-2.65-2.88-4.12-4.12l2.7-8.72l-7.25-4.18l-6.19,6.72
		c-1.83-0.66-3.71-1.16-5.62-1.5l-2.02-8.91l-8.37,0.01l-2,8.91c-1.9,0.34-3.78,0.85-5.63,1.52l-6.21-6.71l-7.24,4.19l2.72,8.72
		c-1.5,1.27-2.88,2.65-4.12,4.12l-8.72-2.7l-4.18,7.25l6.72,6.19c-0.66,1.83-1.16,3.71-1.5,5.62l-8.91,2.02l0.01,8.37l8.91,2
		c0.34,1.9,0.85,3.78,1.52,5.63l-6.71,6.21l4.19,7.24l8.72-2.72c1.27,1.5,2.65,2.88,4.12,4.12l-2.7,8.72l7.25,4.18l6.19-6.72
		c1.83,0.66,3.71,1.16,5.62,1.5l2.02,8.91l8.37-0.01l2-8.91c1.9-0.34,3.78-0.85,5.63-1.52l6.21,6.71l7.24-4.19l-2.73-8.72
		c1.5-1.27,2.88-2.65,4.12-4.12l8.72,2.7l4.18-7.25l-6.72-6.19c0.66-1.83,1.16-3.71,1.5-5.63l8.91-2.02l-0.01-8.37l-8.91-2
		c-0.34-1.9-0.85-3.78-1.52-5.63L357.15,268.39z M328.39,305.09c-10.29,5.96-23.47,2.44-29.43-7.85
		c-5.96-10.29-2.44-23.47,7.85-29.43c10.29-5.96,23.47-2.44,29.43,7.85C342.2,285.95,338.68,299.13,328.39,305.09z"/>
	<path d="M309.48,329.51c-0.39,0-0.74-0.27-0.82-0.66l-1.9-8.37c-1.58-0.31-3.15-0.73-4.68-1.25l-5.82,6.31
		c-0.27,0.29-0.7,0.36-1.04,0.16l-7.25-4.18c-0.34-0.2-0.5-0.6-0.38-0.98l2.54-8.19c-1.2-1.05-2.35-2.2-3.43-3.43l-8.19,2.56
		c-0.38,0.12-0.78-0.04-0.98-0.38l-4.19-7.24c-0.2-0.34-0.13-0.77,0.16-1.04l6.3-5.83c-0.53-1.55-0.96-3.12-1.27-4.68l-8.36-1.88
		c-0.39-0.09-0.66-0.43-0.66-0.82l-0.01-8.37c0-0.39,0.27-0.74,0.66-0.82l8.37-1.9c0.31-1.58,0.73-3.15,1.25-4.68l-6.31-5.82
		c-0.29-0.27-0.36-0.7-0.16-1.04l4.18-7.25c0.2-0.34,0.6-0.5,0.98-0.38l8.19,2.54c1.05-1.2,2.2-2.35,3.43-3.43l-2.56-8.19
		c-0.12-0.38,0.04-0.78,0.38-0.98l7.24-4.19c0.34-0.2,0.77-0.13,1.04,0.16l5.83,6.3c1.54-0.53,3.11-0.96,4.68-1.27l1.88-8.36
		c0.09-0.38,0.43-0.66,0.82-0.66l8.37-0.01c0,0,0,0,0,0c0.39,0,0.74,0.27,0.82,0.66l1.9,8.37c1.58,0.31,3.15,0.73,4.68,1.25
		l5.82-6.31c0.27-0.29,0.7-0.36,1.04-0.16l7.25,4.18c0.34,0.2,0.5,0.6,0.38,0.98l-2.54,8.19c1.2,1.05,2.35,2.2,3.43,3.43l8.19-2.56
		c0.38-0.12,0.78,0.04,0.98,0.38l4.19,7.24c0.2,0.34,0.13,0.77-0.16,1.04l-6.3,5.83c0.53,1.55,0.96,3.12,1.27,4.68l8.36,1.88
		c0.39,0.09,0.66,0.43,0.66,0.82l0.01,8.37c0,0.39-0.27,0.74-0.66,0.82l-8.37,1.9c-0.31,1.58-0.73,3.15-1.25,4.68l6.31,5.82
		c0.29,0.27,0.36,0.7,0.16,1.04l-4.18,7.25c-0.2,0.34-0.6,0.5-0.98,0.38l-8.19-2.54c-1.05,1.2-2.2,2.35-3.43,3.43l2.56,8.19
		c0.12,0.38-0.04,0.78-0.38,0.98l-7.24,4.19c-0.34,0.2-0.77,0.13-1.04-0.16l-5.83-6.3c-1.54,0.53-3.12,0.96-4.68,1.27l-1.88,8.36
		c-0.09,0.38-0.43,0.66-0.82,0.66L309.48,329.51C309.48,329.51,309.48,329.51,309.48,329.51z M301.84,317.41
		c0.1,0,0.19,0.02,0.28,0.05c1.78,0.64,3.63,1.13,5.49,1.46c0.33,0.06,0.6,0.31,0.67,0.64l1.87,8.26l7.02-0.01l1.85-8.25
		c0.07-0.33,0.34-0.59,0.67-0.65c1.84-0.33,3.68-0.83,5.49-1.49c0.32-0.12,0.68-0.03,0.91,0.22l5.75,6.21l6.07-3.52l-2.52-8.08
		c-0.1-0.32,0-0.68,0.26-0.9c1.47-1.24,2.82-2.59,4.02-4.02c0.22-0.26,0.57-0.36,0.9-0.26l8.07,2.5l3.5-6.08l-6.23-5.74
		c-0.25-0.23-0.34-0.59-0.22-0.9c0.64-1.78,1.13-3.63,1.46-5.49c0.06-0.33,0.31-0.6,0.64-0.67l8.26-1.87l-0.01-7.02l-8.25-1.85
		c-0.33-0.07-0.59-0.34-0.65-0.67c-0.33-1.83-0.83-3.68-1.49-5.49c-0.12-0.32-0.03-0.68,0.22-0.91l6.21-5.75l-3.51-6.07l-8.08,2.52
		c-0.32,0.1-0.68,0-0.9-0.26c-1.24-1.47-2.59-2.82-4.02-4.02c-0.26-0.22-0.36-0.57-0.26-0.9l2.5-8.07l-6.08-3.5l-5.74,6.23
		c-0.23,0.25-0.59,0.34-0.9,0.22c-1.78-0.64-3.63-1.13-5.49-1.46c-0.33-0.06-0.6-0.31-0.67-0.64l-1.87-8.26l-7.02,0.01l-1.85,8.25
		c-0.07,0.33-0.34,0.59-0.67,0.65c-1.84,0.33-3.68,0.83-5.49,1.49c-0.32,0.12-0.68,0.03-0.91-0.22l-5.75-6.21l-6.07,3.51l2.52,8.08
		c0.1,0.32,0,0.68-0.26,0.9c-1.47,1.24-2.82,2.59-4.02,4.02c-0.22,0.26-0.57,0.36-0.9,0.26l-8.07-2.5l-3.5,6.08l6.23,5.74
		c0.25,0.23,0.34,0.59,0.22,0.9c-0.64,1.78-1.13,3.63-1.46,5.49c-0.06,0.33-0.31,0.6-0.64,0.67l-8.26,1.87l0.01,7.02l8.25,1.85
		c0.33,0.07,0.59,0.34,0.65,0.67c0.33,1.83,0.83,3.68,1.49,5.49c0.12,0.32,0.03,0.68-0.22,0.91l-6.21,5.75l3.52,6.07l8.08-2.52
		c0.32-0.1,0.68,0,0.9,0.26c1.24,1.47,2.59,2.82,4.02,4.02c0.26,0.22,0.36,0.57,0.26,0.9l-2.5,8.07l6.08,3.5l5.74-6.23
		C301.38,317.51,301.61,317.41,301.84,317.41z M313.66,307.76c-7.73,0-15.26-4-19.41-11.17c-3-5.17-3.8-11.2-2.25-16.98
		c1.54-5.78,5.24-10.61,10.41-13.6c10.68-6.18,24.4-2.52,30.58,8.16c6.18,10.68,2.52,24.4-8.16,30.58
		C321.31,306.79,317.46,307.76,313.66,307.76z M313.59,264.7c-3.52,0-7.08,0.9-10.33,2.78c-4.78,2.77-8.2,7.23-9.63,12.58
		c-1.43,5.34-0.69,10.92,2.08,15.7c5.72,9.88,18.4,13.26,28.28,7.54c9.88-5.72,13.26-18.4,7.54-28.28
		C327.7,268.4,320.73,264.7,313.59,264.7z"/>
</g>
<path d="M150.06,114.65c-0.22,0-0.43-0.08-0.6-0.25c-0.33-0.33-0.33-0.86,0-1.19l40.75-40.75c0.33-0.33,0.86-0.33,1.19,0
	c0.33,0.33,0.33,0.86,0,1.19l-40.75,40.75C150.5,114.57,150.28,114.65,150.06,114.65z"/>
<path d="M108.52,130.27c-0.22,0-0.43-0.08-0.6-0.25c-0.33-0.33-0.33-0.86,0-1.19l57-57c0.33-0.33,0.86-0.33,1.19,0
	c0.33,0.33,0.33,0.86,0,1.19l-57,57C108.95,130.18,108.73,130.27,108.52,130.27z"/>
</svg>
