<?xml version="1.0" encoding="utf-8"?>
<!-- Generator: Adobe Illustrator 25.1.0, SVG Export Plug-In . SVG Version: 6.00 Build 0)  -->
<svg version="1.1" id="Слой_1" xmlns="http://www.w3.org/2000/svg" xmlns:xlink="http://www.w3.org/1999/xlink" x="0px" y="0px"
	 viewBox="0 0 484 479" style="enable-background:new 0 0 484 479;" xml:space="preserve">
<style type="text/css">
	.st0{fill:#CADDFF;}
	.st1{fill:#FFFFFF;}
	.st2{fill:#5479F7;}
	.st3{fill:#99B9FF;}
</style>
<path class="st0" d="M131.62,433.96C14.43,369.75,3.86,239.83,3.48,233.87C-0.81,166.32,22.87,69.71,97.56,30.74
	c8.63-4.5,57.93-30.22,101.67-11.98c34.82,14.53,68.41,57.88,79.76,95.44c1.61,5.32,2.87,10.86,7.89,16.55
	c19.39,21.98,57.53,3.97,87.74,10.97c51.46,11.93,95.51,100.06,79.9,177.97c-18.79,93.8-115.48,129.96-130.66,135.33
	C230.41,488.09,148.47,443.19,131.62,433.96z"/>
<g>
	<g>
		
			<ellipse transform="matrix(0.7784 -0.6278 0.6278 0.7784 -63.7247 83.0983)" class="st1" cx="85.84" cy="131.81" rx="19.64" ry="19.64"/>
		<path d="M85.81,152.28c-3.51,0-6.97-0.91-10.1-2.69c-4.75-2.71-8.16-7.1-9.6-12.37c-1.44-5.27-0.75-10.79,1.95-15.54
			c2.71-4.75,7.1-8.16,12.37-9.6c5.27-1.45,10.79-0.75,15.54,1.95c4.75,2.71,8.16,7.1,9.6,12.37c1.44,5.27,0.75,10.79-1.95,15.54
			c-2.71,4.75-7.1,8.16-12.37,9.6C89.45,152.03,87.62,152.28,85.81,152.28z M85.87,112.99c-1.67,0-3.35,0.22-5,0.68
			c-4.85,1.33-8.89,4.47-11.37,8.83c-2.49,4.37-3.13,9.44-1.8,14.29c1.33,4.85,4.46,8.89,8.83,11.37c4.37,2.49,9.44,3.13,14.29,1.8
			c4.85-1.33,8.89-4.47,11.37-8.83c2.49-4.37,3.13-9.44,1.8-14.29l0,0c-1.33-4.85-4.46-8.89-8.83-11.37
			C92.28,113.82,89.09,112.99,85.87,112.99z"/>
	</g>
	<path d="M86.74,141.27c-0.23,0-0.45-0.09-0.61-0.27l-9.37-10.28c-0.31-0.34-0.28-0.86,0.05-1.16c0.34-0.31,0.86-0.28,1.16,0.05
		l7.89,8.65c-0.07-7.33,0.87-13.05,2.84-17.45c0.19-0.41,0.67-0.6,1.09-0.41c0.41,0.19,0.6,0.67,0.41,1.09
		c-2.04,4.53-2.93,10.9-2.65,18.92c0.01,0.34-0.19,0.66-0.51,0.79C86.95,141.25,86.85,141.27,86.74,141.27z"/>
</g>
<g>
	<g>
		<path class="st2" d="M310.08,449.95H103.23c-8.91,0-15.23-7.2-14.1-16.09l50.93-402.37c1.12-8.89,9.26-16.09,18.18-16.09
			l196.47-2.29c22.55,0,25.61,9.5,24.49,18.38l-50.93,402.37C327.13,442.75,318.99,449.95,310.08,449.95z"/>
		<path class="st1" d="M297.63,449.95H90.78c-8.91,0-15.23-7.23-14.1-16.14l50.93-403.65c1.12-8.91,9.26-16.14,18.18-16.14h206.85
			c8.91,0,15.23,7.23,14.1,16.14l-50.93,403.65C314.68,442.73,306.54,449.95,297.63,449.95z"/>
		<path class="st0" d="M88.46,434.37L137.1,48.95c0.26-2.06,2.14-3.73,4.2-3.73h207.96c2.06,0,3.52,1.67,3.26,3.73l-48.63,385.42
			c-0.26,2.06-2.14,3.73-4.2,3.73H91.72C89.66,438.1,88.2,436.43,88.46,434.37z"/>
		<path class="st0" d="M246.62,34.55c-3.34,0-5.7-2.71-5.28-6.05c0.42-3.34,3.47-6.05,6.81-6.05c3.34,0,5.7,2.71,5.28,6.05
			C253.01,31.84,249.96,34.55,246.62,34.55z"/>
		<path d="M297.63,450.78H90.78c-4.53,0-8.57-1.76-11.39-4.96c-2.85-3.23-4.1-7.53-3.53-12.1l5.04-39.9
			c0.06-0.45,0.47-0.77,0.92-0.71c0.45,0.06,0.77,0.47,0.71,0.92l-5.04,39.9c-0.52,4.1,0.59,7.94,3.13,10.81
			c2.5,2.84,6.11,4.4,10.16,4.4h206.85c8.5,0,16.29-6.92,17.36-15.42l38.08-301.81c0.06-0.45,0.47-0.77,0.92-0.71
			c0.45,0.06,0.77,0.47,0.71,0.92l-38.08,301.81C315.45,443.21,306.93,450.78,297.63,450.78z"/>
		<path d="M110.51,166.51c-0.03,0-0.07,0-0.1-0.01c-0.45-0.06-0.77-0.47-0.71-0.92l17.1-135.52c1.17-9.3,9.69-16.86,18.99-16.86
			h206.85c4.53,0,8.57,1.76,11.39,4.96c2.85,3.23,4.1,7.53,3.53,12.1l-0.41,3.24c-0.06,0.45-0.47,0.77-0.92,0.71
			c-0.45-0.06-0.77-0.47-0.71-0.92l0.41-3.24c0.52-4.1-0.59-7.94-3.13-10.81c-2.5-2.84-6.11-4.4-10.16-4.4H145.78
			c-8.5,0-16.29,6.92-17.36,15.42l-17.1,135.52C111.27,166.2,110.92,166.51,110.51,166.51z"/>
	</g>
</g>
<path d="M178.5,191.22c-0.25,0-0.49-0.11-0.65-0.32c-0.28-0.36-0.21-0.88,0.15-1.15l1.26-0.97c1.16-0.89,2.56-2.69,2.57-2.71
	c0.28-0.36,0.79-0.43,1.15-0.15c0.36,0.28,0.43,0.79,0.15,1.15c-0.06,0.08-1.54,1.99-2.87,3.01l-1.26,0.97
	C178.85,191.17,178.67,191.22,178.5,191.22z"/>
<path d="M176.35,188.81c-0.3,0-0.58-0.16-0.73-0.44c-0.21-0.4-0.05-0.9,0.35-1.11l1.41-0.73c1.3-0.67,2.98-2.21,3-2.23
	c0.33-0.31,0.85-0.28,1.16,0.05c0.31,0.33,0.28,0.85-0.05,1.16c-0.07,0.07-1.86,1.7-3.35,2.47l-1.41,0.73
	C176.61,188.78,176.48,188.81,176.35,188.81z"/>
<path d="M127.82,162.59c-3.87,0.5-24.93,4.76-26.72,28.49c-0.04,0.55,0.24,1.07,0.72,1.34l12.18,7.01c0.46,0.26,0.73,0.75,0.72,1.28
	c-0.13,4.34-0.83,24.06-2.67,32.34c-1.43,6.46-2.43,11.72-2.91,14.36c-0.17,0.93,0.59,1.76,1.53,1.67
	c2.98-0.27,8.89-0.93,12.79-2.13c4.9-1.51,7.06-4.38,18.89,0.53c2.49,1.03,5.3,0.89,7.68-0.37c6.48-3.43,19.97-9.51,29.27-6.44
	c1.05,0.35,2.08-0.58,1.84-1.66c-1.36-6.09-4.2-17.83-4.5-24.04c-0.38-7.75,4.08-33.58,2-36.28c-1.98-2.57-10.67-8.47-16.55-10.09
	c-2.15-0.59-4.42-0.65-6.23-1.1C151.3,166.39,138.68,161.18,127.82,162.59z"/>
<g>
	<path class="st1" d="M178.02,194.17l-0.13,1.21l-0.76,7.01c-0.78,6.17-0.17,11.2-0.17,11.2c-0.01,1.94,1.17,4.22,2.62,5.5
		c1.67,1.48,2.55,1.78,3.91,2.28c5.13,1.87,7.37,1.29,9.24-4.01c1.86-5.31,1.21-8.59-3.18-25.04c0,0-1.21-3.32,2.19-5.55
		c3.02-1.98,2.02-6.75-0.76-10.35C186.54,170.66,177.22,193.41,178.02,194.17L178.02,194.17z"/>
	<path d="M187.74,223.16c-1.2,0-2.65-0.34-4.53-1.02l-0.07-0.02c-1.36-0.5-2.35-0.85-4.11-2.41c-1.71-1.51-2.89-3.99-2.9-6.07
		c-0.07-0.58-0.57-5.41,0.18-11.35l0.87-8c-0.09-0.39,0.01-0.96,0.3-1.92c1-3.35,6.6-16.79,11.33-17.67
		c0.76-0.14,1.86-0.05,2.83,1.2c2.06,2.67,3.09,5.81,2.69,8.2c-0.24,1.43-0.98,2.59-2.13,3.34c-2.82,1.85-1.91,4.48-1.87,4.59
		l0.02,0.07c4.44,16.66,5.08,20.06,3.16,25.53c-0.98,2.79-2.1,4.36-3.61,5.08C189.25,223.01,188.56,223.16,187.74,223.16z
		 M178.81,193.79l0.07,0.07l-0.93,8.62c-0.76,6.01-0.18,10.96-0.17,11.01l0.01,0.05l0,0.05c-0.01,1.59,1,3.69,2.34,4.88
		c1.53,1.35,2.3,1.63,3.59,2.1l0.07,0.02c2.67,0.97,4.29,1.16,5.42,0.62c1.09-0.51,1.94-1.79,2.76-4.14
		c1.77-5.05,1.2-8.06-3.19-24.53c-0.48-1.38-0.56-4.45,2.53-6.48c0.77-0.51,1.24-1.26,1.41-2.24c0.33-1.95-0.58-4.6-2.37-6.92
		c-0.56-0.72-1.04-0.68-1.49-0.52C184.94,177.78,179.11,191.39,178.81,193.79z"/>
</g>
<g>
	<g>
		<g>
			<path class="st2" d="M118.22,246.15c0,0-7.28,60.56-8.18,72.25c-0.9,11.68-2.25,52.58,0,72.8c1.46,13.1,2.46,21.86,2.99,26.41
				c0.25,2.11,2.03,3.7,4.15,3.7h14.84c0.76,0,1.38-0.61,1.39-1.37c0.07-5.45,0.55-26.23,4.03-44.02
				c4.04-20.67,8.54-53.03,10.78-66.06c0.75-4.35,1.38-9.19,1.91-13.92c0,0,0,0,1.68,4.93c1.68,4.93,8.09,38.2,9.89,51.23
				c1.64,11.85,4.39,59.4,4.87,67.9c0.04,0.73,0.65,1.3,1.38,1.3h19.01c0.71,0,1.31-0.54,1.38-1.25c0.88-8.81,6.09-62.07,5.27-85.93
				c-0.9-26.06-12.58-57.07-14.83-65.61s-5.26-30.19-5.26-30.19S127.96,239.01,118.22,246.15z"/>
			<path d="M186.98,422.13h-19.01c-1.17,0-2.14-0.91-2.2-2.08c-0.53-9.27-3.24-56.1-4.86-67.84c-1.78-12.89-8.22-46.3-9.85-51.08
				l-0.51-1.5c-0.48,3.93-0.98,7.34-1.5,10.36c-0.78,4.53-1.83,11.37-3.04,19.29c-2.27,14.83-5.1,33.29-7.74,46.78
				c-3.44,17.58-3.95,38.03-4.02,43.87c-0.02,1.2-1.01,2.18-2.21,2.18h-14.84c-2.54,0-4.68-1.9-4.97-4.42
				c-0.48-4.1-1.5-12.99-3-26.42c-2.19-19.7-0.99-60.07,0-72.95c0.89-11.57,8.11-71.68,8.18-72.28c0.03-0.23,0.15-0.43,0.33-0.56
				c9.84-7.21,53.91-7.95,55.79-7.98c0,0,0.01,0,0.01,0c0.41,0,0.76,0.3,0.81,0.71c0.03,0.22,3.03,21.7,5.24,30.09
				c0.45,1.69,1.27,4.29,2.31,7.57c4.13,13.02,11.82,37.26,12.55,58.22c0.82,23.72-4.25,75.84-5.27,86.04
				C189.06,421.27,188.11,422.13,186.98,422.13z M150.15,295.12c0.35,0,0.66,0.22,0.78,0.56l1.68,4.93
				c1.69,4.96,8.09,38.09,9.92,51.38c1.63,11.8,4.35,58.69,4.88,67.97c0.02,0.3,0.26,0.53,0.56,0.53h19.01
				c0.29,0,0.53-0.22,0.56-0.51c1.02-10.19,6.08-62.2,5.26-85.82c-0.71-20.73-8.36-44.83-12.47-57.78
				c-1.05-3.31-1.88-5.92-2.33-7.65c-2-7.6-4.63-25.72-5.18-29.56c-5.8,0.13-44.53,1.21-53.83,7.45
				c-0.61,5.07-7.28,60.79-8.13,71.85c-0.99,12.84-2.18,53.04,0,72.65c1.49,13.42,2.52,22.31,2.99,26.41
				c0.2,1.69,1.63,2.97,3.34,2.97h14.84c0.31,0,0.56-0.25,0.56-0.56c0.07-5.88,0.58-26.45,4.05-44.17
				c2.63-13.46,5.46-31.9,7.73-46.72c1.22-7.93,2.27-14.78,3.05-19.32c0.67-3.88,1.29-8.41,1.91-13.87
				c0.04-0.38,0.35-0.68,0.73-0.72C150.09,295.12,150.12,295.12,150.15,295.12z"/>
		</g>
		<path d="M150.17,296.6c-0.03,0-0.06,0-0.09-0.01c-0.45-0.05-0.78-0.46-0.72-0.91c0.3-2.7,0.6-5.58,0.88-8.55
			c0.56-5.96,4.55-11.15,10.17-13.23l3.28-1.21c0.42-0.16,0.9,0.06,1.06,0.49c0.16,0.43-0.06,0.9-0.49,1.06l-3.28,1.21
			c-5.03,1.86-8.6,6.51-9.1,11.84c-0.28,2.98-0.58,5.87-0.88,8.58C150.94,296.29,150.58,296.6,150.17,296.6z"/>
	</g>
	<g>
		<g>
			<path class="st1" d="M182.8,421.3h-12.11c-0.86,0-1.63,0.51-1.96,1.31c-1.07,2.61-3.26,8.72-2.97,14.51
				c0.08,1.58,1.4,2.82,2.98,2.82h35.54c1.63,0,2.88-1.49,2.55-3.09c-0.39-1.92-1.74-4.44-5.64-6.71
				c-6.31-3.67-14.24-7.34-16.74-8.48C183.93,421.42,183.37,421.3,182.8,421.3z"/>
			<path d="M204.28,440.76h-35.54c-2.03,0-3.7-1.58-3.8-3.6c-0.31-6.02,2.02-12.4,3.03-14.86c0.45-1.1,1.52-1.82,2.72-1.82h12.11
				c0.69,0,1.36,0.15,1.99,0.43c2.33,1.06,10.43,4.8,16.81,8.52c4.27,2.48,5.64,5.31,6.03,7.25c0.2,1-0.05,2.03-0.7,2.82
				C206.28,440.3,205.32,440.76,204.28,440.76z M170.69,422.12c-0.53,0-1,0.31-1.2,0.8c-0.97,2.36-3.2,8.46-2.91,14.15
				c0.06,1.14,1.01,2.04,2.16,2.04h35.54c0.54,0,1.04-0.24,1.38-0.66c0.33-0.41,0.46-0.94,0.36-1.45c-0.47-2.31-2.29-4.44-5.25-6.16
				c-6.32-3.68-14.35-7.39-16.67-8.44c-0.41-0.19-0.85-0.28-1.31-0.28H170.69z"/>
		</g>
		<path d="M184.45,430.07c-0.21,0-0.42-0.08-0.59-0.25c-0.32-0.32-0.31-0.84,0.01-1.16l5.1-5.01c0.32-0.32,0.84-0.31,1.16,0.01
			c0.32,0.32,0.31,0.84-0.01,1.16l-5.1,5.01C184.86,429.99,184.65,430.07,184.45,430.07z"/>
		<path d="M187.73,432.13c-0.21,0-0.42-0.08-0.59-0.25c-0.32-0.32-0.31-0.84,0.01-1.16l5.1-5.01c0.32-0.32,0.84-0.31,1.16,0.01
			c0.32,0.32,0.31,0.84-0.01,1.16l-5.1,5.01C188.15,432.05,187.94,432.13,187.73,432.13z"/>
	</g>
	<g>
		<g>
			<path class="st1" d="M129.36,421.3h-12.11c-0.86,0-1.63,0.51-1.96,1.31c-1.07,2.61-3.26,8.72-2.97,14.51
				c0.08,1.58,1.4,2.82,2.98,2.82h35.54c1.63,0,2.88-1.49,2.55-3.09c-0.39-1.92-1.74-4.44-5.64-6.71
				c-6.31-3.67-14.24-7.34-16.74-8.48C130.49,421.42,129.93,421.3,129.36,421.3z"/>
			<path d="M150.84,440.76H115.3c-2.03,0-3.7-1.58-3.8-3.6c-0.31-6.02,2.02-12.4,3.03-14.86c0.45-1.1,1.52-1.82,2.72-1.82h12.11
				c0.69,0,1.36,0.15,1.99,0.43c2.33,1.06,10.43,4.8,16.81,8.52c4.27,2.48,5.64,5.31,6.03,7.25c0.2,1-0.05,2.03-0.7,2.82
				C152.84,440.3,151.87,440.76,150.84,440.76z M117.25,422.12c-0.53,0-1,0.31-1.2,0.8c-0.97,2.36-3.2,8.46-2.91,14.15
				c0.06,1.14,1.01,2.04,2.16,2.04h35.54c0.54,0,1.04-0.24,1.38-0.66c0.33-0.41,0.46-0.94,0.36-1.45c-0.47-2.31-2.29-4.44-5.25-6.16
				c-6.32-3.68-14.35-7.39-16.67-8.44c-0.41-0.19-0.85-0.28-1.31-0.28H117.25z"/>
		</g>
		<path d="M129.64,429.63c-0.21,0-0.42-0.08-0.59-0.25c-0.32-0.32-0.31-0.84,0.01-1.16l5.1-5.01c0.32-0.32,0.84-0.31,1.16,0.01
			c0.32,0.32,0.31,0.84-0.01,1.16l-5.1,5.01C130.06,429.55,129.85,429.63,129.64,429.63z"/>
		<path d="M132.93,431.69c-0.21,0-0.42-0.08-0.59-0.25c-0.32-0.32-0.31-0.84,0.01-1.16l5.1-5.01c0.32-0.32,0.84-0.31,1.16,0.01
			c0.32,0.32,0.31,0.84-0.01,1.16l-5.1,5.01C133.35,431.61,133.14,431.69,132.93,431.69z"/>
	</g>
</g>
<g>
	<path d="M143.31,132.64c0.27,0.09,0.55,0.21,0.85,0.35c0,0,0.67,0.41,1.28,1.53c0.61,1.13,1.64,4.6,2.97,4.4s2.97-5.63,2.97-5.63
		s0.51-2.66,4.6-1.64c4.09,1.02,7.26,2.76,8.49,3.48c1.23,0.72,2.35,0.92,3.58,0.82c1.23-0.1,5.22-2.46,4.5-6.24
		c-0.72-3.79-4.2-6.36-7.26-6.34c-3.2,0.02-7.78-2.05-8.59-2.46c-0.82-0.41-5.64-2.38-8.26-0.92c-2.34,1.31-4.31,3.38-5.38,6.96
		c-0.68,2.29-0.16,4.38-0.08,5.07C143.01,132.3,143.06,132.56,143.31,132.64z"/>
	<g>
		<path class="st1" d="M164.99,135.52c0.08,0.04,0.12,0.12,0.12,0.21c-0.04,0.62-0.18,3.21,0.21,5.54c0.22,1.29,1.04,4.41,0.69,5.06
			c-0.35,0.64-1.64,0.69-2.23,0.64s-1.59,0.2-1.83,0.69c-0.25,0.5-0.99,5.11-1.29,6.2c-0.3,1.09-1.29,2.38-3.12,2.18
			c-0.23-0.03-0.92-0.18-1.45-0.3c-0.39-0.09-0.77,0.17-0.83,0.56c-0.88,5.6,4.78,11.91,6.14,13.35c0.14,0.15,0.09,0.39-0.1,0.47
			c-12.55,5.48-25.46-3.98-28.99-6.92c-0.16-0.13,6.59-1.96,9.82-9.72c1.42-3.41,0.94-8.72,1-10.83c0.01-0.43-0.23-0.82-0.62-1
			c-0.85-0.39-2.08-1.69-2.44-2.97c-0.51-1.84-0.31-7.71,4.56-5.36c0,0,0.67,0.41,1.28,1.53c0.61,1.13,1.64,4.6,2.97,4.4
			s2.97-5.63,2.97-5.63s0.51-2.66,4.6-1.64C160.14,132.94,164.23,135.11,164.99,135.52z"/>
		<path d="M153.11,172.64c-9.83,0-18.44-6.39-21.33-8.8l-0.35-0.29l0.06-0.46c0.07-0.48,0.41-0.63,0.85-0.82
			c4.25-1.86,7.29-4.92,9.02-9.09c1.07-2.57,0.99-6.37,0.95-8.89c-0.01-0.65-0.02-1.22-0.01-1.65c0-0.1-0.05-0.19-0.14-0.23
			c-1.06-0.49-2.46-1.96-2.89-3.49c-0.4-1.45-0.43-4.78,1.33-6.25c0.76-0.63,2.13-1.16,4.37-0.07l0.07,0.04
			c0.09,0.05,0.88,0.56,1.58,1.84c0.17,0.3,0.34,0.72,0.54,1.2c0.3,0.71,1.08,2.57,1.57,2.77c0.53-0.35,1.59-2.64,2.3-5.01
			c0.06-0.26,0.35-1.22,1.38-1.88c1.05-0.67,2.46-0.78,4.21-0.35c3.78,0.95,7.95,3.15,8.74,3.59l0,0c0.36,0.19,0.57,0.58,0.54,0.99
			c-0.03,0.5-0.18,3.08,0.2,5.35c0.05,0.32,0.15,0.75,0.25,1.23c0.52,2.45,0.72,3.68,0.36,4.35c-0.65,1.21-2.63,1.11-3.02,1.07
			c-0.37-0.03-0.89,0.13-1.03,0.26c-0.13,0.38-0.44,2.05-0.65,3.16c-0.23,1.21-0.44,2.36-0.58,2.87c-0.42,1.55-1.83,3.02-4,2.78
			c-0.08-0.01-0.32-0.03-1.41-0.29c-0.68,5.04,4.37,10.84,5.95,12.51c0.25,0.26,0.35,0.63,0.28,0.99c-0.07,0.36-0.31,0.66-0.65,0.8
			C158.75,172.13,155.88,172.64,153.11,172.64z M133.84,163.39c4.4,3.42,15.46,10.58,26.44,6.27c-2.1-2.35-6.68-8.16-5.84-13.48
			c0.07-0.41,0.3-0.78,0.65-1.01c0.35-0.23,0.78-0.31,1.19-0.22c1.06,0.25,1.31,0.28,1.35,0.29c1.68,0.18,2.16-1.29,2.24-1.58
			c0.12-0.44,0.34-1.61,0.55-2.74c0.46-2.46,0.63-3.28,0.8-3.61c0.45-0.9,1.81-1.21,2.64-1.15c0.66,0.06,1.26-0.08,1.42-0.2
			c0.07-0.52-0.32-2.35-0.5-3.25c-0.11-0.51-0.2-0.96-0.26-1.3c-0.35-2.07-0.3-4.31-0.24-5.34c-1.25-0.66-4.8-2.45-8.02-3.26
			c-1.28-0.32-2.29-0.27-2.93,0.14c-0.54,0.34-0.66,0.85-0.67,0.86l-0.02,0.08c-0.81,2.7-2.11,5.97-3.63,6.2
			c-1.64,0.25-2.59-1.97-3.34-3.77c-0.18-0.42-0.35-0.82-0.47-1.05c-0.42-0.77-0.86-1.13-0.98-1.21c-1.14-0.54-2-0.58-2.55-0.12
			c-1.09,0.91-1.1,3.48-0.8,4.55c0.3,1.07,1.38,2.16,1.99,2.44c0.68,0.31,1.11,1.01,1.09,1.76c-0.01,0.41,0,0.95,0.01,1.58
			c0.05,2.65,0.13,6.66-1.07,9.55C141.1,158.11,138.05,161.33,133.84,163.39z M164.6,136.25C164.6,136.25,164.6,136.25,164.6,136.25
			C164.6,136.25,164.6,136.25,164.6,136.25z"/>
	</g>
	<path d="M155.74,156.48c-0.08,0-0.16-0.01-0.23-0.03c-1.71-0.5-4.44-1.68-6.38-2.95c-0.38-0.25-0.48-0.76-0.24-1.14
		c0.25-0.38,0.76-0.48,1.14-0.24c1.8,1.19,4.36,2.28,5.94,2.75c0.44,0.13,0.68,0.59,0.56,1.02
		C156.42,156.25,156.09,156.48,155.74,156.48z"/>
</g>
<g>
	<path d="M26.78,360.94c-3.54,0-6.42-2.88-6.42-6.42c0-3.54,2.88-6.42,6.42-6.42s6.42,2.88,6.42,6.42
		C33.2,358.06,30.32,360.94,26.78,360.94z M26.78,349.75c-2.63,0-4.78,2.14-4.78,4.78s2.14,4.78,4.78,4.78s4.78-2.14,4.78-4.78
		S29.41,349.75,26.78,349.75z"/>
	<path d="M110.59,51.16c-3.54,0-6.42-2.88-6.42-6.42c0-3.54,2.88-6.42,6.42-6.42c3.54,0,6.42,2.88,6.42,6.42
		C117.01,48.28,114.13,51.16,110.59,51.16z M110.59,39.96c-2.63,0-4.78,2.14-4.78,4.78c0,2.63,2.14,4.78,4.78,4.78
		c2.63,0,4.78-2.14,4.78-4.78C115.37,42.11,113.23,39.96,110.59,39.96z"/>
	<path d="M33.49,372.94c-2.43,0-4.4-1.98-4.4-4.4c0-2.43,1.98-4.4,4.4-4.4s4.4,1.98,4.4,4.4C37.9,370.96,35.92,372.94,33.49,372.94z
		 M33.49,365.77c-1.52,0-2.76,1.24-2.76,2.76c0,1.52,1.24,2.76,2.76,2.76c1.52,0,2.76-1.24,2.76-2.76
		C36.25,367.01,35.01,365.77,33.49,365.77z"/>
	<g>
		<path d="M17.55,331.18c-0.45,0-0.82-0.37-0.82-0.82v-4.25c0-0.45,0.37-0.82,0.82-0.82s0.82,0.37,0.82,0.82v4.25
			C18.37,330.81,18,331.18,17.55,331.18z"/>
		<path d="M17.55,341.09c-0.45,0-0.82-0.37-0.82-0.82v-4.25c0-0.45,0.37-0.82,0.82-0.82s0.82,0.37,0.82,0.82v4.25
			C18.37,340.72,18,341.09,17.55,341.09z"/>
		<path d="M14.72,334.01h-4.25c-0.45,0-0.82-0.37-0.82-0.82s0.37-0.82,0.82-0.82h4.25c0.45,0,0.82,0.37,0.82,0.82
			S15.17,334.01,14.72,334.01z"/>
		<path d="M24.63,334.01h-4.25c-0.45,0-0.82-0.37-0.82-0.82s0.37-0.82,0.82-0.82h4.25c0.45,0,0.82,0.37,0.82,0.82
			S25.08,334.01,24.63,334.01z"/>
	</g>
	<g>
		<path d="M89.67,51.5c-0.45,0-0.82-0.37-0.82-0.82v-4.25c0-0.45,0.37-0.82,0.82-0.82c0.45,0,0.82,0.37,0.82,0.82v4.25
			C90.49,51.13,90.12,51.5,89.67,51.5z"/>
		<path d="M89.67,61.4c-0.45,0-0.82-0.37-0.82-0.82v-4.25c0-0.45,0.37-0.82,0.82-0.82c0.45,0,0.82,0.37,0.82,0.82v4.25
			C90.49,61.04,90.12,61.4,89.67,61.4z"/>
		<path d="M86.84,54.32h-4.25c-0.45,0-0.82-0.37-0.82-0.82c0-0.45,0.37-0.82,0.82-0.82h4.25c0.45,0,0.82,0.37,0.82,0.82
			C87.66,53.96,87.29,54.32,86.84,54.32z"/>
		<path d="M96.75,54.32h-4.25c-0.45,0-0.82-0.37-0.82-0.82c0-0.45,0.37-0.82,0.82-0.82h4.25c0.45,0,0.82,0.37,0.82,0.82
			C97.57,53.96,97.2,54.32,96.75,54.32z"/>
	</g>
	<g>
		<path d="M31,284.62c-0.34,0-0.66-0.21-0.78-0.55c-16.02-46.26-14.13-81.95-9.73-103.74c4.78-23.67,13.5-36.58,13.59-36.7
			c0.26-0.37,0.77-0.47,1.14-0.21c0.37,0.26,0.47,0.77,0.21,1.14c-0.09,0.13-8.65,12.83-13.36,36.2
			c-4.34,21.58-6.18,56.92,9.7,102.78c0.15,0.43-0.08,0.9-0.51,1.05C31.18,284.61,31.09,284.62,31,284.62z"/>
		<path d="M14.99,267.09c-0.37,0-0.71-0.25-0.8-0.63c-11.57-47.46-6.61-82.41-0.41-103.37c6.74-22.77,16.39-34.48,16.48-34.59
			c0.29-0.35,0.81-0.39,1.16-0.1c0.35,0.29,0.39,0.81,0.1,1.16c-0.09,0.11-9.56,11.63-16.2,34.1
			c-6.12,20.75-11.02,55.37,0.46,102.41c0.11,0.44-0.16,0.89-0.6,0.99C15.11,267.08,15.05,267.09,14.99,267.09z"/>
	</g>
</g>
<g>
	<path class="st2" d="M374.78,381.19l-5.43-9.39l-11.31,3.53c-1.65-1.95-3.43-3.74-5.34-5.35l3.5-11.3l-9.4-5.41l-8.03,8.72
		c-2.37-0.85-4.81-1.5-7.29-1.95l-2.62-11.56l-10.85,0.01l-2.59,11.55c-2.46,0.45-4.9,1.11-7.29,1.98l-8.05-8.7l-9.39,5.43
		l3.53,11.31c-1.95,1.65-3.74,3.43-5.35,5.34l-11.3-3.5l-5.41,9.4l8.72,8.03c-0.85,2.37-1.5,4.81-1.95,7.29l-11.56,2.62l0.01,10.85
		l11.55,2.59c0.44,2.46,1.11,4.9,1.98,7.29l-8.7,8.05l5.43,9.39l11.31-3.53c1.65,1.95,3.43,3.74,5.34,5.35l-3.5,11.3l9.4,5.41
		l8.03-8.72c2.37,0.85,4.81,1.5,7.29,1.95l2.62,11.56l10.85-0.01l2.59-11.55c2.46-0.44,4.9-1.11,7.29-1.98l8.05,8.7l9.39-5.43
		l-3.53-11.31c1.95-1.65,3.74-3.43,5.35-5.34l11.3,3.5l5.41-9.4l-8.72-8.03c0.85-2.37,1.5-4.81,1.95-7.29l11.56-2.62l-0.01-10.85
		l-11.55-2.59c-0.44-2.46-1.11-4.9-1.98-7.29L374.78,381.19z M337.48,428.77c-13.35,7.73-30.43,3.17-38.16-10.18
		c-7.73-13.35-3.17-30.43,10.18-38.16c13.35-7.73,30.43-3.17,38.16,10.18C355.39,403.96,350.83,421.04,337.48,428.77z"/>
	<path d="M312.98,460.17c-0.38,0-0.72-0.27-0.8-0.64l-2.5-11.03c-2.16-0.41-4.3-0.99-6.37-1.7l-7.66,8.32
		c-0.26,0.28-0.68,0.35-1.01,0.16l-9.4-5.41c-0.33-0.19-0.49-0.59-0.37-0.96l3.34-10.79c-1.64-1.42-3.21-2.99-4.67-4.68l-10.79,3.37
		c-0.37,0.12-0.76-0.04-0.96-0.37l-5.43-9.39c-0.19-0.33-0.13-0.75,0.15-1.01l8.3-7.68c-0.73-2.1-1.31-4.24-1.73-6.38l-11.02-2.47
		c-0.38-0.08-0.64-0.42-0.64-0.8l-0.01-10.85c0-0.38,0.27-0.72,0.64-0.8l11.03-2.5c0.41-2.15,0.98-4.29,1.7-6.37l-8.32-7.66
		c-0.28-0.26-0.35-0.68-0.16-1.01l5.41-9.4c0.19-0.33,0.59-0.49,0.96-0.37l10.79,3.34c1.42-1.65,2.99-3.21,4.67-4.67l-3.37-10.79
		c-0.11-0.37,0.04-0.76,0.37-0.96l9.39-5.43c0.33-0.19,0.75-0.13,1.01,0.15l7.68,8.3c2.1-0.73,4.24-1.31,6.38-1.73l2.47-11.02
		c0.08-0.37,0.42-0.64,0.8-0.64l10.85-0.01c0,0,0,0,0,0c0.38,0,0.72,0.27,0.8,0.64l2.5,11.03c2.16,0.41,4.3,0.98,6.37,1.7l7.66-8.32
		c0.26-0.28,0.68-0.35,1.01-0.16l9.4,5.41c0.33,0.19,0.49,0.59,0.37,0.96l-3.34,10.79c1.64,1.42,3.21,2.99,4.67,4.68l10.79-3.37
		c0.37-0.11,0.76,0.04,0.96,0.37l5.43,9.39c0.19,0.33,0.13,0.75-0.15,1.01l-8.3,7.68c0.73,2.11,1.32,4.25,1.73,6.38l11.02,2.47
		c0.38,0.08,0.64,0.42,0.64,0.8l0.01,10.85c0,0.38-0.27,0.72-0.64,0.8l-11.03,2.5c-0.41,2.16-0.98,4.3-1.7,6.37l8.32,7.66
		c0.28,0.26,0.35,0.68,0.16,1.01l-5.41,9.4c-0.19,0.33-0.59,0.49-0.96,0.37l-10.79-3.34c-1.42,1.64-2.99,3.21-4.68,4.67l3.37,10.79
		c0.11,0.37-0.04,0.76-0.37,0.96l-9.39,5.43c-0.33,0.19-0.75,0.13-1.01-0.15l-7.68-8.3c-2.1,0.73-4.24,1.31-6.38,1.73l-2.47,11.02
		c-0.08,0.37-0.42,0.64-0.8,0.64L312.98,460.17C312.98,460.17,312.98,460.17,312.98,460.17z M303.06,445.02
		c0.09,0,0.19,0.02,0.28,0.05c2.32,0.83,4.73,1.47,7.16,1.91c0.32,0.06,0.58,0.31,0.66,0.63l2.47,10.92l9.53-0.01l2.45-10.9
		c0.07-0.32,0.33-0.57,0.66-0.63c2.39-0.43,4.8-1.09,7.16-1.94c0.31-0.11,0.66-0.03,0.88,0.21l7.6,8.21l8.25-4.78l-3.34-10.68
		c-0.1-0.32,0-0.66,0.25-0.87c1.91-1.62,3.68-3.38,5.25-5.24c0.21-0.25,0.56-0.35,0.87-0.25l10.67,3.31l4.76-8.26l-8.23-7.58
		c-0.24-0.22-0.33-0.57-0.22-0.88c0.83-2.32,1.47-4.73,1.91-7.16c0.06-0.32,0.31-0.58,0.63-0.66l10.92-2.47l-0.01-9.53l-10.9-2.45
		c-0.32-0.07-0.57-0.33-0.63-0.66c-0.43-2.39-1.09-4.8-1.94-7.16c-0.11-0.31-0.03-0.66,0.21-0.88l8.21-7.6l-4.78-8.25l-10.68,3.34
		c-0.31,0.1-0.66,0-0.87-0.25c-1.62-1.91-3.38-3.68-5.24-5.25c-0.25-0.21-0.35-0.56-0.26-0.87l3.31-10.67l-8.26-4.76l-7.58,8.23
		c-0.22,0.24-0.57,0.33-0.88,0.22c-2.32-0.83-4.73-1.47-7.16-1.91c-0.33-0.06-0.58-0.31-0.66-0.63l-2.47-10.92l-9.53,0.01
		l-2.45,10.91c-0.07,0.32-0.33,0.57-0.66,0.63c-2.4,0.43-4.81,1.09-7.16,1.94c-0.31,0.11-0.66,0.03-0.88-0.21l-7.6-8.21l-8.25,4.78
		l3.34,10.68c0.1,0.32,0,0.66-0.25,0.87c-1.91,1.62-3.68,3.38-5.25,5.24c-0.21,0.25-0.56,0.35-0.87,0.25l-10.67-3.31l-4.76,8.26
		l8.23,7.58c0.24,0.22,0.33,0.57,0.22,0.88c-0.83,2.33-1.48,4.74-1.91,7.16c-0.06,0.32-0.31,0.58-0.63,0.66l-10.92,2.47l0.01,9.53
		l10.9,2.45c0.32,0.07,0.57,0.33,0.63,0.66c0.43,2.4,1.09,4.8,1.94,7.16c0.11,0.31,0.03,0.66-0.21,0.88l-8.21,7.6l4.78,8.25
		l10.68-3.34c0.32-0.1,0.66,0,0.87,0.25c1.62,1.91,3.38,3.68,5.24,5.25c0.25,0.21,0.35,0.56,0.26,0.87l-3.31,10.67l8.26,4.76
		l7.58-8.23C302.62,445.12,302.84,445.02,303.06,445.02z M318.39,431.98c-2.49,0-4.99-0.33-7.46-0.98
		c-7.42-1.98-13.62-6.73-17.47-13.37c-3.85-6.65-4.87-14.39-2.89-21.81c1.98-7.42,6.73-13.62,13.37-17.47
		c6.65-3.85,14.39-4.87,21.81-2.9c7.42,1.98,13.62,6.73,17.47,13.37c3.85,6.65,4.87,14.39,2.9,21.81
		c-1.98,7.42-6.73,13.62-13.37,17.47C328.3,430.67,323.38,431.98,318.39,431.98z M318.3,376.11c-4.71,0-9.35,1.24-13.53,3.66
		c-6.27,3.63-10.74,9.48-12.61,16.47c-1.87,6.99-0.9,14.3,2.73,20.56c3.63,6.27,9.48,10.74,16.47,12.61
		c6.99,1.87,14.3,0.9,20.56-2.73l0,0c6.27-3.63,10.74-9.48,12.61-16.47c1.87-6.99,0.9-14.3-2.73-20.56
		c-3.63-6.27-9.48-10.74-16.47-12.61C323,376.42,320.64,376.11,318.3,376.11z"/>
</g>
<g>
	<g>
		<g>
			<path class="st3" d="M340.69,81.3l4.63-4.7l-3.89-6.06c0.88-1.28,1.64-2.61,2.28-3.99l7.19,0.24l1.66-6.38l-6.4-3.31
				c0.12-1.53,0.1-3.06-0.03-4.59l6.36-3.4l-1.75-6.36l-7.19,0.34c-0.66-1.37-1.44-2.69-2.33-3.96L345,33l-4.7-4.63l-6.06,3.89
				c-1.28-0.88-2.61-1.64-3.99-2.28l0.24-7.19l-6.38-1.66l-3.31,6.4c-1.53-0.12-3.06-0.11-4.59,0.03l-3.4-6.36l-6.36,1.75l0.34,7.19
				c-1.37,0.66-2.69,1.44-3.96,2.33l-6.12-3.81l-4.63,4.7l3.89,6.06c-0.88,1.28-1.64,2.61-2.28,3.99l-7.19-0.24l-1.66,6.38l6.4,3.31
				c-0.12,1.53-0.11,3.06,0.03,4.59l-6.36,3.4l1.75,6.36l7.19-0.34c0.66,1.37,1.44,2.69,2.33,3.96l-3.81,6.12l4.7,4.63l6.06-3.89
				c1.28,0.88,2.61,1.64,3.99,2.28l-0.24,7.19l6.38,1.66l3.31-6.4c1.53,0.12,3.06,0.1,4.59-0.03l3.4,6.36l6.36-1.75l-0.34-7.19
				c1.37-0.66,2.69-1.44,3.96-2.33L340.69,81.3z M306.77,67.09c-6.68-6.58-6.76-17.34-0.17-24.02c6.58-6.68,17.34-6.76,24.02-0.17
				c6.68,6.58,6.76,17.34,0.17,24.02C324.21,73.59,313.45,73.67,306.77,67.09z"/>
		</g>
		<path class="st2" d="M306.57,84.7c-0.31-0.13-0.52-0.44-0.51-0.79l0.22-6.65c-1.08-0.53-2.14-1.13-3.16-1.8l-5.61,3.6
			c-0.32,0.21-0.75,0.16-1.02-0.11l-4.7-4.63c-0.27-0.27-0.32-0.69-0.12-1.02l3.52-5.66c-0.69-1.02-1.31-2.07-1.85-3.14l-6.65,0.31
			c-0.38,0.02-0.73-0.23-0.83-0.6l-1.75-6.36c-0.1-0.37,0.07-0.76,0.4-0.94l5.88-3.14c-0.09-1.21-0.09-2.43-0.03-3.64l-5.93-3.06
			c-0.34-0.18-0.52-0.57-0.42-0.94l1.66-6.38c0.1-0.37,0.44-0.63,0.82-0.61l6.65,0.22c0.52-1.08,1.13-2.14,1.8-3.16l-3.6-5.61
			c-0.21-0.32-0.16-0.75,0.11-1.02l4.63-4.7c0.27-0.27,0.69-0.32,1.02-0.12l5.66,3.52c1.01-0.69,2.07-1.31,3.14-1.85l-0.31-6.65
			c-0.02-0.38,0.23-0.73,0.6-0.83l6.36-1.75c0.37-0.1,0.76,0.07,0.94,0.4l3.14,5.88c1.21-0.09,2.43-0.09,3.64-0.03l3.06-5.93
			c0.18-0.34,0.57-0.52,0.94-0.42l6.38,1.66c0.37,0.1,0.63,0.44,0.61,0.82l-0.22,6.65c1.08,0.53,2.14,1.13,3.16,1.8l5.61-3.6
			c0.32-0.21,0.75-0.16,1.02,0.11l4.7,4.63c0.27,0.27,0.32,0.69,0.12,1.02l-3.52,5.66c0.69,1.01,1.31,2.07,1.85,3.14l6.65-0.31
			c0.38-0.02,0.73,0.23,0.83,0.6l1.75,6.36c0.1,0.37-0.07,0.76-0.4,0.94l-5.88,3.14c0.09,1.21,0.09,2.43,0.03,3.64l5.93,3.06
			c0.34,0.18,0.52,0.57,0.42,0.94l-1.66,6.38c-0.1,0.37-0.44,0.63-0.82,0.61l-6.65-0.22c-0.52,1.08-1.13,2.14-1.8,3.16l3.6,5.61
			c0.21,0.32,0.16,0.75-0.11,1.02l-4.63,4.7c-0.27,0.27-0.7,0.32-1.02,0.12l-5.66-3.52c-1.02,0.69-2.07,1.31-3.14,1.85l0.31,6.65
			c0.02,0.38-0.23,0.73-0.6,0.83l-6.36,1.75c-0.37,0.1-0.76-0.07-0.94-0.4l-3.14-5.88c-1.21,0.09-2.43,0.09-3.64,0.03L314,85.98
			c-0.18,0.34-0.57,0.52-0.94,0.42l-6.38-1.66C306.64,84.73,306.61,84.72,306.57,84.7z M303.44,73.71c0.05,0.02,0.11,0.05,0.16,0.08
			c1.24,0.85,2.55,1.6,3.87,2.21c0.3,0.14,0.49,0.44,0.48,0.77l-0.21,6.54l5.11,1.33l3-5.82c0.15-0.29,0.46-0.47,0.79-0.44
			c1.48,0.11,2.98,0.1,4.45-0.03c0.33-0.03,0.64,0.14,0.8,0.43l3.09,5.78l5.09-1.4l-0.31-6.53c-0.02-0.33,0.17-0.64,0.47-0.78
			c1.32-0.63,2.61-1.39,3.84-2.26c0.27-0.19,0.63-0.2,0.91-0.03l5.56,3.46l3.71-3.76l-3.54-5.51c-0.18-0.28-0.17-0.64,0.01-0.91
			c0.85-1.24,1.6-2.55,2.21-3.87c0.14-0.3,0.44-0.49,0.77-0.48l6.54,0.21l1.33-5.11l-5.82-3c-0.29-0.15-0.47-0.46-0.44-0.79
			c0.11-1.48,0.1-2.98-0.03-4.45c-0.03-0.33,0.14-0.64,0.43-0.8l5.78-3.09l-1.4-5.09l-6.53,0.31c-0.33,0.02-0.64-0.17-0.78-0.47
			c-0.63-1.32-1.39-2.61-2.26-3.84c-0.19-0.27-0.2-0.63-0.03-0.91l3.46-5.56l-3.76-3.71l-5.51,3.54c-0.28,0.18-0.64,0.17-0.91-0.01
			c-1.24-0.85-2.55-1.59-3.87-2.21c-0.3-0.14-0.49-0.44-0.48-0.77l0.21-6.54l-5.11-1.33l-3,5.82c-0.15,0.29-0.46,0.47-0.79,0.44
			c-1.48-0.11-2.98-0.1-4.45,0.03c-0.33,0.03-0.64-0.14-0.8-0.43l-3.09-5.78l-5.09,1.4l0.31,6.53c0.02,0.33-0.17,0.64-0.47,0.78
			c-1.32,0.63-2.61,1.39-3.84,2.26c-0.27,0.19-0.63,0.2-0.91,0.03l-5.56-3.46l-3.71,3.76l3.54,5.51c0.18,0.28,0.17,0.64-0.01,0.91
			c-0.85,1.24-1.6,2.55-2.21,3.87c-0.14,0.3-0.44,0.49-0.77,0.48l-6.54-0.21l-1.33,5.11l5.82,3c0.29,0.15,0.47,0.46,0.44,0.79
			c-0.11,1.48-0.1,2.98,0.03,4.45c0.03,0.33-0.14,0.64-0.43,0.8l-5.78,3.09l1.4,5.09l6.53-0.31c0.33-0.02,0.64,0.17,0.78,0.47
			c0.63,1.32,1.39,2.61,2.26,3.84c0.19,0.27,0.2,0.63,0.03,0.91l-3.46,5.56l3.76,3.71l5.51-3.54
			C302.91,73.64,303.19,73.61,303.44,73.71z M311.94,68.23c-2.1-0.85-4.06-2.12-5.77-3.8c-3.39-3.34-5.27-7.8-5.31-12.55
			c-0.03-4.76,1.79-9.24,5.12-12.63c3.34-3.39,7.8-5.27,12.55-5.31c4.76-0.03,9.24,1.79,12.63,5.12c3.39,3.34,5.27,7.8,5.31,12.55
			c0.03,4.76-1.79,9.24-5.13,12.63C326.15,69.53,318.42,70.86,311.94,68.23z M324.76,36.76c-1.94-0.79-4.05-1.2-6.21-1.18
			c-4.32,0.03-8.36,1.74-11.39,4.82c-3.03,3.07-4.68,7.15-4.65,11.46c0.03,4.32,1.74,8.36,4.82,11.39
			c6.35,6.26,16.6,6.18,22.86-0.16c3.03-3.07,4.68-7.15,4.65-11.46c-0.03-4.32-1.74-8.36-4.82-11.39
			C328.48,38.72,326.7,37.55,324.76,36.76z"/>
	</g>
	<g>
		<path class="st2" d="M445.95,158.63l8-8.12l-6.73-10.48c1.52-2.21,2.83-4.52,3.93-6.9l12.43,0.41l2.87-11.03l-11.07-5.71
			c0.2-2.64,0.18-5.29-0.06-7.93l10.98-5.87l-3.03-10.99l-12.42,0.59c-1.14-2.37-2.48-4.65-4.03-6.84l6.58-10.57l-8.12-8
			l-10.48,6.73c-2.21-1.52-4.52-2.83-6.9-3.93l0.41-12.43l-11.03-2.87l-5.71,11.07c-2.64-0.2-5.29-0.18-7.93,0.06l-5.87-10.98
			l-10.99,3.03l0.59,12.42c-2.37,1.13-4.65,2.48-6.84,4.03l-10.57-6.58l-8,8.12l6.73,10.48c-1.52,2.21-2.83,4.52-3.93,6.9
			l-12.43-0.41l-2.87,11.03l11.07,5.71c-0.2,2.64-0.18,5.29,0.06,7.93l-10.98,5.87l3.03,10.99l12.42-0.59
			c1.13,2.37,2.48,4.65,4.03,6.84l-6.58,10.57l8.12,8l10.48-6.73c2.21,1.52,4.52,2.83,6.9,3.93l-0.41,12.43l11.03,2.87l5.71-11.07
			c2.64,0.2,5.3,0.18,7.93-0.06l5.87,10.98l10.99-3.03l-0.59-12.42c2.37-1.13,4.65-2.48,6.84-4.03L445.95,158.63z M387.34,134.07
			c-11.54-11.38-11.68-29.96-0.3-41.51c11.38-11.54,29.96-11.68,41.51-0.3c11.54,11.38,11.68,29.96,0.3,41.51
			C417.47,145.31,398.88,145.44,387.34,134.07z"/>
		<path d="M387.37,166.17c-0.31-0.13-0.52-0.44-0.51-0.79l0.39-11.89c-2.08-0.99-4.11-2.15-6.07-3.46l-10.02,6.43
			c-0.32,0.21-0.75,0.16-1.02-0.11l-8.12-8c-0.27-0.27-0.32-0.69-0.12-1.02l6.29-10.11c-1.34-1.94-2.53-3.96-3.55-6.02l-11.88,0.56
			c-0.38,0.02-0.73-0.23-0.83-0.6l-3.03-10.99c-0.1-0.37,0.07-0.76,0.4-0.94l10.51-5.62c-0.18-2.32-0.2-4.66-0.05-6.98l-10.59-5.46
			c-0.34-0.18-0.52-0.57-0.42-0.94l2.87-11.03c0.1-0.37,0.44-0.63,0.82-0.61l11.89,0.39c0.99-2.08,2.15-4.11,3.46-6.07l-6.43-10.02
			c-0.21-0.32-0.16-0.75,0.11-1.02l8-8.12c0.27-0.27,0.7-0.32,1.02-0.12l10.11,6.29c1.94-1.34,3.96-2.53,6.02-3.55l-0.56-11.88
			c-0.02-0.38,0.23-0.73,0.6-0.83l10.99-3.03c0.37-0.1,0.76,0.07,0.94,0.4l5.62,10.51c2.32-0.18,4.66-0.2,6.98-0.05l5.46-10.59
			c0.18-0.34,0.57-0.51,0.94-0.42l11.03,2.87c0.37,0.1,0.63,0.44,0.61,0.82l-0.39,11.89c2.08,0.99,4.12,2.15,6.07,3.46l10.02-6.43
			c0.32-0.21,0.75-0.16,1.02,0.11l8.12,8c0.27,0.27,0.32,0.69,0.12,1.02l-6.29,10.11c1.34,1.94,2.53,3.96,3.55,6.02l11.88-0.56
			c0.38-0.02,0.73,0.23,0.83,0.6l3.03,10.99c0.1,0.37-0.07,0.76-0.4,0.94l-10.51,5.62c0.18,2.32,0.2,4.66,0.05,6.98l10.59,5.46
			c0.34,0.18,0.52,0.57,0.42,0.94l-2.87,11.03c-0.1,0.37-0.44,0.63-0.82,0.61l-11.89-0.39c-0.99,2.08-2.15,4.12-3.46,6.07
			l6.43,10.02c0.21,0.32,0.16,0.75-0.11,1.02l-8,8.12c-0.27,0.27-0.7,0.32-1.02,0.12l-10.11-6.29c-1.94,1.34-3.96,2.53-6.02,3.55
			l0.56,11.88c0.02,0.38-0.23,0.73-0.6,0.83l-10.99,3.03c-0.37,0.1-0.76-0.07-0.94-0.4l-5.62-10.51c-2.32,0.18-4.66,0.2-6.98,0.05
			l-5.46,10.59c-0.18,0.34-0.57,0.52-0.94,0.42l-11.03-2.87C387.44,166.2,387.41,166.19,387.37,166.17z M381.5,148.29
			c0.05,0.02,0.11,0.05,0.15,0.08c2.18,1.49,4.46,2.79,6.78,3.87c0.3,0.14,0.49,0.44,0.48,0.77l-0.39,11.77l9.76,2.54l5.41-10.48
			c0.15-0.29,0.46-0.47,0.79-0.44c2.59,0.2,5.21,0.18,7.8-0.06c0.33-0.03,0.64,0.14,0.8,0.43l5.56,10.41l9.72-2.68l-0.55-11.77
			c-0.02-0.33,0.17-0.64,0.47-0.78c2.31-1.11,4.57-2.44,6.72-3.96c0.27-0.19,0.63-0.2,0.91-0.03l10.02,6.23l7.08-7.18l-6.37-9.93
			c-0.18-0.28-0.17-0.64,0.01-0.91c1.49-2.18,2.79-4.46,3.87-6.78c0.14-0.3,0.44-0.49,0.77-0.48l11.77,0.39l2.54-9.76l-10.48-5.41
			c-0.29-0.15-0.47-0.46-0.44-0.79c0.2-2.59,0.18-5.21-0.06-7.8c-0.03-0.33,0.14-0.64,0.43-0.8l10.41-5.56l-2.68-9.72l-11.77,0.56
			c-0.33,0.02-0.64-0.17-0.78-0.47c-1.11-2.31-2.44-4.57-3.96-6.72c-0.19-0.27-0.2-0.63-0.03-0.91l6.23-10.02l-7.18-7.08l-9.93,6.37
			c-0.28,0.18-0.64,0.17-0.91-0.01c-2.17-1.49-4.45-2.79-6.78-3.87c-0.3-0.14-0.49-0.44-0.48-0.77l0.39-11.77l-9.76-2.54
			l-5.41,10.48c-0.15,0.29-0.46,0.47-0.79,0.44c-2.59-0.2-5.21-0.18-7.8,0.06c-0.33,0.03-0.64-0.14-0.8-0.43l-5.56-10.41l-9.72,2.68
			l0.55,11.77c0.02,0.33-0.17,0.64-0.47,0.78c-2.31,1.11-4.57,2.44-6.72,3.96c-0.27,0.19-0.63,0.2-0.91,0.03l-10.02-6.23l-7.08,7.18
			l6.37,9.93c0.18,0.28,0.17,0.64-0.01,0.91c-1.49,2.18-2.79,4.46-3.87,6.78c-0.14,0.3-0.44,0.49-0.77,0.48l-11.77-0.39L350.5,100
			l10.48,5.41c0.29,0.15,0.47,0.46,0.44,0.79c-0.2,2.59-0.18,5.21,0.06,7.8c0.03,0.33-0.14,0.64-0.43,0.8l-10.4,5.56l2.68,9.72
			l11.77-0.56c0.33-0.02,0.64,0.17,0.78,0.47c1.11,2.31,2.44,4.57,3.96,6.72c0.19,0.27,0.2,0.63,0.03,0.91l-6.23,10.02l7.18,7.08
			l9.93-6.37C380.97,148.21,381.26,148.19,381.5,148.29z M396.65,137.7c-3.55-1.44-6.88-3.59-9.78-6.45
			c-11.85-11.68-11.99-30.82-0.31-42.67c11.68-11.85,30.82-11.99,42.67-0.31c11.85,11.68,11.99,30.82,0.31,42.67
			C420.72,139.9,407.63,142.17,396.65,137.7z M418.84,83.36c-10.38-4.22-22.75-2.08-31.1,6.39c-11.04,11.2-10.91,29.3,0.29,40.34
			c11.2,11.04,29.3,10.91,40.34-0.29c11.04-11.2,10.91-29.3-0.29-40.34C425.35,86.75,422.2,84.72,418.84,83.36z"/>
	</g>
	<g>
		<g>
			<path class="st3" d="M464.86,240.89l5.36-5.01l-4.05-6.91c1.03-1.38,1.94-2.83,2.71-4.33l7.98,0.58l2.14-7.02l-6.97-3.96
				c0.2-1.69,0.26-3.4,0.17-5.1l7.22-3.49l-1.66-7.14l-8.01,0.05c-0.67-1.55-1.48-3.06-2.41-4.5l4.51-6.63l-5.01-5.36l-6.92,4.05
				c-1.38-1.03-2.83-1.94-4.33-2.71l0.59-7.98l-7.02-2.13l-3.97,6.97c-1.69-0.2-3.4-0.25-5.1-0.17l-3.49-7.21l-7.15,1.66l0.05,8
				c-1.55,0.67-3.06,1.48-4.51,2.41l-6.63-4.5l-5.36,5.01l4.05,6.91c-1.03,1.38-1.94,2.83-2.71,4.33l-7.98-0.58l-2.14,7.02
				l6.97,3.96c-0.2,1.69-0.26,3.4-0.17,5.1l-7.22,3.49l1.66,7.14l8.01-0.05c0.67,1.55,1.48,3.06,2.41,4.5l-4.51,6.63l5.01,5.36
				l6.92-4.05c1.38,1.03,2.83,1.94,4.33,2.71l-0.59,7.98l7.02,2.13l3.97-6.97c1.69,0.2,3.4,0.25,5.1,0.17l3.49,7.21l7.15-1.66
				l-0.05-8c1.55-0.67,3.06-1.48,4.51-2.41L464.86,240.89z M427.82,223.57c-7.12-7.62-6.72-19.57,0.9-26.69
				c7.62-7.13,19.58-6.73,26.7,0.89c7.12,7.62,6.72,19.57-0.9,26.69C446.9,231.59,434.94,231.19,427.82,223.57z"/>
		</g>
		<path class="st2" d="M427.02,243.9c-0.33-0.13-0.54-0.46-0.51-0.82l0.55-7.44c-1.21-0.65-2.39-1.39-3.53-2.2l-6.45,3.78
			c-0.33,0.19-0.75,0.13-1.02-0.15l-5.01-5.36c-0.26-0.28-0.3-0.71-0.08-1.02l4.2-6.18c-0.74-1.19-1.4-2.42-1.96-3.66l-7.47,0.05
			c-0.38,0-0.72-0.26-0.81-0.64l-1.66-7.14c-0.09-0.37,0.1-0.76,0.44-0.93l6.73-3.25c-0.04-1.38,0-2.77,0.14-4.15l-6.5-3.69
			c-0.33-0.19-0.49-0.59-0.38-0.95l2.14-7.02c0.11-0.37,0.46-0.61,0.85-0.58l7.45,0.55c0.65-1.21,1.39-2.39,2.21-3.53l-3.78-6.45
			c-0.19-0.33-0.13-0.75,0.15-1.02l5.36-5.01c0.28-0.26,0.71-0.29,1.02-0.08l6.18,4.2c1.19-0.74,2.42-1.4,3.67-1.97l-0.05-7.46
			c0-0.38,0.26-0.72,0.64-0.81l7.15-1.66c0.37-0.09,0.76,0.1,0.93,0.44l3.25,6.73c1.38-0.04,2.77,0,4.15,0.14l3.7-6.5
			c0.19-0.33,0.59-0.49,0.95-0.38l7.02,2.13c0.36,0.11,0.61,0.46,0.58,0.85l-0.55,7.44c1.21,0.65,2.39,1.39,3.53,2.2l6.45-3.78
			c0.33-0.19,0.75-0.13,1.02,0.15l5.01,5.36c0.26,0.28,0.3,0.71,0.08,1.02l-4.2,6.18c0.74,1.19,1.4,2.42,1.96,3.66l7.47-0.05
			c0.38,0,0.72,0.26,0.81,0.64l1.66,7.14c0.09,0.37-0.1,0.76-0.44,0.93l-6.73,3.25c0.04,1.38,0,2.77-0.14,4.15l6.5,3.69
			c0.33,0.19,0.49,0.59,0.38,0.95l-2.14,7.02c-0.11,0.37-0.46,0.61-0.85,0.58l-7.45-0.55c-0.65,1.21-1.39,2.39-2.21,3.53l3.78,6.45
			c0.19,0.33,0.13,0.75-0.15,1.02l-5.36,5.01c-0.28,0.26-0.71,0.29-1.02,0.08l-6.18-4.2c-1.19,0.74-2.42,1.4-3.67,1.97l0.05,7.46
			c0,0.38-0.26,0.72-0.64,0.81l-7.15,1.66c-0.37,0.09-0.76-0.1-0.93-0.44l-3.25-6.73c-1.38,0.04-2.77,0-4.15-0.14l-3.7,6.5
			c-0.19,0.33-0.59,0.49-0.95,0.38l-7.02-2.13C427.07,243.92,427.05,243.91,427.02,243.9z M423.9,231.69
			c0.06,0.03,0.13,0.06,0.18,0.1c1.35,1.01,2.77,1.89,4.22,2.64c0.29,0.15,0.47,0.46,0.45,0.79l-0.54,7.33l5.76,1.75l3.64-6.4
			c0.16-0.29,0.48-0.45,0.81-0.41c1.64,0.19,3.31,0.25,4.97,0.16c0.33-0.02,0.64,0.17,0.78,0.46l3.2,6.62l5.87-1.37l-0.04-7.35
			c0-0.33,0.19-0.63,0.5-0.76c1.5-0.65,2.97-1.44,4.39-2.35c0.28-0.18,0.63-0.18,0.91,0.01l6.08,4.13l4.4-4.11l-3.72-6.34
			c-0.17-0.29-0.15-0.64,0.05-0.91c1.01-1.34,1.89-2.76,2.64-4.22c0.15-0.29,0.46-0.47,0.79-0.44l7.33,0.54l1.75-5.76l-6.4-3.64
			c-0.29-0.16-0.45-0.48-0.41-0.81c0.19-1.64,0.25-3.31,0.17-4.97c-0.02-0.33,0.17-0.64,0.46-0.78l6.63-3.2l-1.36-5.86l-7.35,0.05
			c-0.33,0-0.63-0.19-0.76-0.5c-0.65-1.5-1.44-2.97-2.35-4.38c-0.18-0.28-0.18-0.64,0.01-0.91l4.14-6.08l-4.11-4.4l-6.35,3.72
			c-0.29,0.17-0.64,0.15-0.91-0.05c-1.35-1-2.76-1.89-4.22-2.64c-0.29-0.15-0.47-0.46-0.45-0.79l0.54-7.33l-5.76-1.75l-3.64,6.4
			c-0.16,0.29-0.48,0.45-0.81,0.41c-1.64-0.19-3.32-0.25-4.97-0.17c-0.33,0.02-0.64-0.17-0.78-0.46l-3.2-6.62l-5.87,1.36l0.05,7.35
			c0,0.33-0.19,0.63-0.5,0.76c-1.5,0.65-2.98,1.44-4.39,2.35c-0.28,0.18-0.63,0.18-0.91-0.01l-6.08-4.13l-4.4,4.11l3.72,6.34
			c0.17,0.29,0.15,0.64-0.05,0.91c-1.01,1.35-1.9,2.77-2.64,4.22c-0.15,0.29-0.46,0.47-0.79,0.44l-7.33-0.54l-1.76,5.76l6.4,3.64
			c0.29,0.16,0.45,0.48,0.41,0.81c-0.19,1.64-0.25,3.31-0.17,4.97c0.02,0.33-0.17,0.64-0.46,0.78l-6.63,3.2l1.36,5.86l7.35-0.05
			c0.33,0,0.63,0.19,0.76,0.5c0.65,1.5,1.44,2.97,2.35,4.38c0.18,0.28,0.18,0.64-0.01,0.91l-4.14,6.08l4.11,4.4l6.35-3.72
			C423.4,231.61,423.66,231.59,423.9,231.69z M434.44,226.14c-2.56-1.04-4.93-2.63-6.94-4.78c-3.6-3.84-5.48-8.86-5.3-14.12
			c0.18-5.26,2.39-10.14,6.24-13.73c7.94-7.42,20.44-7.01,27.86,0.93c3.6,3.84,5.48,8.86,5.3,14.12
			c-0.18,5.26-2.39,10.14-6.24,13.73C449.57,227.7,441.34,228.95,434.44,226.14z M448.75,191.18c-6.33-2.57-13.87-1.44-19.18,3.53
			c-3.53,3.3-5.56,7.77-5.72,12.59c-0.16,4.82,1.56,9.42,4.86,12.94c6.8,7.27,18.26,7.65,25.54,0.85c3.53-3.3,5.56-7.77,5.72-12.59
			c0.16-4.82-1.56-9.42-4.86-12.94C453.27,193.59,451.09,192.13,448.75,191.18z"/>
	</g>
</g>
<g>
	<path class="st3" d="M196.05,134.99c-3.5,4.43-3.76,10.38-1.12,15l-29.5,37.38c-5.11-1.49-10.83,0.15-14.33,4.58
		c-2.85,3.61-3.55,8.22-2.29,12.31c0.02,0.07,0.08,0.12,0.15,0.13c0.07,0.01,0.14-0.01,0.19-0.07l5.77-7.31
		c0.21-0.27,0.56-0.4,0.9-0.34l7.32,1.26c0.32,0.05,0.59,0.27,0.71,0.57l2.81,6.73c0.13,0.32,0.08,0.68-0.13,0.95l-5.71,7.23
		c-0.05,0.06-0.06,0.14-0.02,0.2c0.03,0.07,0.1,0.11,0.17,0.11c4.2,0.21,8.44-1.55,11.24-5.1c3.46-4.38,3.75-10.25,1.21-14.85
		L203,156.29c5.06,1.41,10.7-0.25,14.16-4.63c2.8-3.55,3.53-8.08,2.35-12.12c-0.02-0.07-0.08-0.12-0.15-0.14
		c-0.07-0.01-0.15,0.01-0.19,0.07l-5.71,7.23c-0.21,0.27-0.55,0.4-0.89,0.35l-7.2-1.17c-0.32-0.05-0.59-0.26-0.71-0.56l-2.93-6.83
		c-0.14-0.32-0.09-0.68,0.13-0.95l5.77-7.31c0.05-0.06,0.05-0.13,0.03-0.2c-0.03-0.07-0.09-0.11-0.17-0.12
		C203.22,129.63,198.89,131.39,196.05,134.99z"/>
	<path d="M220.12,141.13c0.61,3.76-0.38,7.65-2.77,10.67c-3.39,4.3-8.97,6.15-14.26,4.75l-29.38,37.23
		c2.59,4.81,2.08,10.67-1.31,14.97c-2.74,3.47-7.02,5.41-11.44,5.19c-0.16-0.01-0.31-0.11-0.38-0.26c-0.07-0.15-0.05-0.32,0.06-0.45
		l5.71-7.23c0.16-0.2,0.2-0.47,0.1-0.71l-2.81-6.73c-0.09-0.22-0.29-0.38-0.53-0.42l-7.32-1.26c-0.25-0.04-0.51,0.05-0.67,0.26
		l-5.77,7.31c-0.1,0.13-0.26,0.19-0.42,0.16c-0.16-0.03-0.29-0.14-0.34-0.3c-1.33-4.31-0.46-8.99,2.33-12.53
		c3.44-4.36,9.09-6.2,14.43-4.7l29.3-37.12c-2.69-4.85-2.22-10.77,1.22-15.13c2.79-3.53,7.14-5.47,11.64-5.18
		c0.16,0.01,0.3,0.11,0.37,0.26c0.07,0.15,0.04,0.32-0.06,0.45l-5.77,7.31c-0.16,0.2-0.2,0.48-0.09,0.71l2.93,6.83
		c0.1,0.22,0.29,0.38,0.53,0.42l7.2,1.17c0.25,0.04,0.51-0.06,0.66-0.26l5.71-7.23c0.1-0.13,0.27-0.19,0.43-0.16
		c0.16,0.03,0.29,0.15,0.34,0.31C219.9,140.02,220.03,140.58,220.12,141.13z M173.18,193.8c-0.01-0.07,0.01-0.13,0.05-0.19
		l29.58-37.48c0.06-0.08,0.16-0.11,0.25-0.08c5.14,1.43,10.6-0.36,13.91-4.55c2.63-3.33,3.49-7.74,2.33-11.82l-5.65,7.16
		c-0.27,0.34-0.69,0.5-1.12,0.43l-7.2-1.17c-0.4-0.07-0.74-0.33-0.9-0.7l-2.93-6.83c-0.17-0.4-0.11-0.86,0.16-1.2l5.72-7.25
		c-4.31-0.25-8.48,1.61-11.15,5c-3.35,4.25-3.79,10.03-1.1,14.73c0.05,0.09,0.04,0.19-0.02,0.27l-29.5,37.38
		c-0.06,0.08-0.16,0.11-0.26,0.08c-5.2-1.52-10.72,0.25-14.07,4.5c-2.67,3.39-3.52,7.87-2.27,12.01l5.72-7.25
		c0.27-0.34,0.7-0.51,1.13-0.43l7.32,1.26c0.4,0.07,0.73,0.33,0.89,0.71l2.81,6.73c0.17,0.4,0.1,0.85-0.16,1.19l-5.65,7.16
		c4.24,0.18,8.33-1.69,10.95-5.01c3.31-4.19,3.77-9.91,1.19-14.58C173.2,193.86,173.19,193.83,173.18,193.8z"/>
</g>
<g>
	<path class="st1" d="M107,220.39c3.62,5.41,7.81,7.13,16.94,4.78c9.13-2.36,28.5-16.22,38.07-29.42c0,0,0.66-1.21,2.53-0.99
		c1.87,0.22,9.57,3.19,15.29-1.87c5.72-5.06,4.35-8.69,4.07-9.38c-0.48-1.16-9.02,0.32-11.33-0.71c-2.31-1.03-2.28-2.63-0.55-4.99
		c2.07-2.82-2.54-3.46-6.05,1.54c-2.13,3.04-5.72,7.04-8.97,8.69c-3.36,1.7-37.47,13.97-39.23,13.43
		c-1.76-0.55-12.84-7.24-12.84-7.24S103.06,214.49,107,220.39z"/>
	<path d="M117.1,227.01c-4.74,0-7.95-1.95-10.78-6.17c-4.06-6.06-2.27-25.86-2.19-26.7l0.12-1.3l1.12,0.68
		c4.36,2.63,11.24,6.66,12.6,7.14c0,0,0,0,0,0c2.6,0,34.65-11.33,38.67-13.36c3.16-1.6,6.64-5.54,8.66-8.42
		c2.11-3.01,4.7-4.21,6.3-4.05c0.76,0.07,1.35,0.45,1.61,1.03c0.22,0.49,0.3,1.3-0.53,2.43c-0.85,1.16-1.21,2.05-1.05,2.63
		c0.11,0.42,0.54,0.8,1.28,1.12c0.96,0.43,3.69,0.32,5.88,0.24c3.75-0.15,5.43-0.17,5.87,0.91c0.6,1.43,1.37,5.31-4.28,10.31
		c-5.15,4.56-11.64,3.04-14.76,2.32c-0.5-0.12-0.93-0.22-1.17-0.25c-1.23-0.14-1.68,0.51-1.72,0.58l-0.05,0.07
		c-9.51,13.11-29.13,27.31-38.53,29.74C121.46,226.65,119.14,227.01,117.1,227.01z M105.66,195.6c-0.33,4.55-1.15,19.58,2.02,24.32
		l0,0c3.18,4.74,6.68,6.86,16.06,4.44c9.13-2.36,28.27-16.24,37.59-29.09c0.2-0.31,1.16-1.6,3.31-1.35
		c0.34,0.04,0.79,0.14,1.35,0.28c2.85,0.66,8.78,2.05,13.3-1.95c4.64-4.1,4.35-7.06,3.92-8.28c-0.63-0.2-2.86-0.12-4.35-0.06
		c-2.61,0.1-5.3,0.21-6.62-0.38c-1.21-0.54-1.95-1.28-2.2-2.2c-0.3-1.12,0.12-2.4,1.32-4.02c0.35-0.48,0.37-0.75,0.35-0.79
		c-0.02-0.01-0.18-0.09-0.54-0.07c-1.06,0.08-2.88,1.01-4.53,3.36c-2.13,3.04-5.84,7.21-9.27,8.95
		c-2.04,1.03-35.49,13.51-39.57,13.51c-0.12,0-0.21-0.01-0.28-0.03C116.02,201.77,108.64,197.39,105.66,195.6z"/>
</g>
</svg>
